<?xml version='1.0' encoding='UTF-8'?>
<!DOCTYPE score-partwise PUBLIC "-//Recordare//DTD MusicXML 3.0 Partwise//EN" "http://www.musicxml.org/dtds/partwise.dtd">
<score-partwise version='3.0'>
	<work>
		<work-title>Title</work-title>
	</work>
	<identification>
		<creator type='composer'>Composer</creator>
		<encoding>
			<software>Notion 6.8.2</software>
		</encoding>
	</identification>
	<defaults>
		<scaling>
			<millimeters>5.6444</millimeters>
			<tenths>40</tenths>
		</scaling>
		<page-layout>
			<page-height>1980</page-height>
			<page-width>1530</page-width>
			<page-margins type='both'>
				<left-margin>112</left-margin>
				<right-margin>112</right-margin>
				<top-margin>135</top-margin>
				<bottom-margin>112</bottom-margin>
			</page-margins>
		</page-layout>
	</defaults>
	<part-list>
		<score-part id='P1'>
			<part-name>Piano</part-name>
			<score-instrument id='P1-I1'>
				<instrument-name>Piano</instrument-name>
			</score-instrument>
			<midi-instrument id='P1-I1'>
				<midi-channel>1</midi-channel>
			</midi-instrument>
		</score-part>
	</part-list>
	<part id='P1'>
		<!--//////////////////// Part 1 | Measure 1 ////////////////////-->
		<measure number='1'>
			<print>
				<staff-layout number='1'>
					<staff-distance>60</staff-distance>
				</staff-layout>
				<staff-layout number='2'>
					<staff-distance>60</staff-distance>
				</staff-layout>
			</print>
			<attributes>
				<divisions>16</divisions>
				<key><fifths>0</fifths><mode>major</mode></key>
				<time><beats>4</beats><beat-type>4</beat-type></time>
				<staves>2</staves>
				<clef number='1'>
					<sign>G</sign>
					<line>2</line>
				</clef>
				<clef number='2'>
					<sign>F</sign>
					<line>4</line>
				</clef>
			</attributes>
			<direction>
				<direction-type>
					<metronome default-y='20'>
						<beat-unit>quarter</beat-unit>
						<per-minute>70</per-minute>
					</metronome>
				</direction-type>
				<sound tempo='70'/>
			</direction>
			<note>
				<rest/>
				<duration>32</duration>
				<voice>1</voice>
				<type>half</type>
				<staff>1</staff>
			</note>
			<note>
				<rest/>
				<duration>16</duration>
				<voice>1</voice>
				<type>quarter</type>
				<staff>1</staff>
			</note>
			<note>
				<rest/>
				<duration>8</duration>
				<voice>1</voice>
				<type>eighth</type>
				<staff>1</staff>
			</note>
			<note>
				<pitch>
					<step>D</step>
					<alter>-1.0</alter>
					<octave>4</octave>
				</pitch>
				<duration>4</duration>
				<voice>1</voice>
				<type>16th</type>
				<accidental>flat</accidental>
				<staff>1</staff>
				<beam number='1'>begin</beam>
				<beam number='2'>begin</beam>
				<notations>
					<articulations>
						<staccato/>
					</articulations>
				</notations>
			</note>
			<note>
				<pitch>
					<step>D</step>
					<alter>-1.0</alter>
					<octave>4</octave>
				</pitch>
				<duration>4</duration>
				<voice>1</voice>
				<type>16th</type>
				<staff>1</staff>
				<beam number='1'>end</beam>
				<beam number='2'>end</beam>
				<notations>
					<articulations>
						<staccato/>
					</articulations>
				</notations>
			</note>
			<backup>
				<duration>64</duration>
			</backup>
			<note>
				<pitch>
					<step>D</step>
					<octave>1</octave>
				</pitch>
				<duration>8</duration>
				<voice>5</voice>
				<type>eighth</type>
				<staff>2</staff>
				<beam number='1'>begin</beam>
				<notations>
					<articulations>
						<accent/>
					</articulations>
				</notations>
			</note>
			<note>
				<pitch>
					<step>D</step>
					<octave>2</octave>
				</pitch>
				<duration>4</duration>
				<voice>5</voice>
				<type>16th</type>
				<staff>2</staff>
				<beam number='1'>continue</beam>
				<beam number='2'>begin</beam>
			</note>
			<note>
				<pitch>
					<step>F</step>
					<alter>1.0</alter>
					<octave>2</octave>
				</pitch>
				<duration>4</duration>
				<voice>5</voice>
				<type>16th</type>
				<accidental>sharp</accidental>
				<staff>2</staff>
				<beam number='1'>end</beam>
				<beam number='2'>end</beam>
			</note>
			<note>
				<pitch>
					<step>A</step>
					<octave>2</octave>
				</pitch>
				<duration>4</duration>
				<voice>5</voice>
				<type>16th</type>
				<staff>2</staff>
				<beam number='1'>begin</beam>
				<beam number='2'>begin</beam>
			</note>
			<note>
				<pitch>
					<step>B</step>
					<alter>-1.0</alter>
					<octave>2</octave>
				</pitch>
				<duration>4</duration>
				<voice>5</voice>
				<type>16th</type>
				<accidental>flat</accidental>
				<staff>2</staff>
				<beam number='1'>continue</beam>
				<beam number='2'>continue</beam>
			</note>
			<note>
				<pitch>
					<step>D</step>
					<octave>3</octave>
				</pitch>
				<duration>4</duration>
				<voice>5</voice>
				<type>16th</type>
				<staff>2</staff>
				<beam number='1'>continue</beam>
				<beam number='2'>continue</beam>
			</note>
			<note>
				<pitch>
					<step>F</step>
					<octave>3</octave>
				</pitch>
				<duration>4</duration>
				<voice>5</voice>
				<type>16th</type>
				<staff>2</staff>
				<beam number='1'>end</beam>
				<beam number='2'>end</beam>
			</note>
			<note>
				<pitch>
					<step>A</step>
					<octave>3</octave>
				</pitch>
				<duration>4</duration>
				<voice>5</voice>
				<type>16th</type>
				<staff>2</staff>
				<beam number='1'>begin</beam>
				<beam number='2'>begin</beam>
			</note>
			<note>
				<pitch>
					<step>B</step>
					<alter>-1.0</alter>
					<octave>3</octave>
				</pitch>
				<duration>4</duration>
				<voice>5</voice>
				<type>16th</type>
				<accidental>flat</accidental>
				<staff>2</staff>
				<beam number='1'>continue</beam>
				<beam number='2'>end</beam>
			</note>
			<note>
				<pitch>
					<step>G</step>
					<octave>3</octave>
				</pitch>
				<duration>8</duration>
				<tie type='start'/>
				<voice>5</voice>
				<type>eighth</type>
				<staff>2</staff>
				<beam number='1'>end</beam>
				<notations>
					<tied type='start'/>
				</notations>
			</note>
			<note>
				<pitch>
					<step>G</step>
					<octave>3</octave>
				</pitch>
				<duration>16</duration>
				<tie type='stop'/>
				<voice>5</voice>
				<type>quarter</type>
				<staff>2</staff>
				<notations>
					<tied type='stop'/>
				</notations>
			</note>
		</measure>
		<!--//////////////////// Part 1 | Measure 2 ////////////////////-->
		<measure number='2'>
			<attributes>
				<divisions>16</divisions>
			</attributes>
			<note>
				<pitch>
					<step>E</step>
					<octave>4</octave>
				</pitch>
				<duration>8</duration>
				<voice>1</voice>
				<type>eighth</type>
				<staff>1</staff>
			</note>
			<note>
				<pitch>
					<step>F</step>
					<octave>4</octave>
				</pitch>
				<duration>12</duration>
				<voice>1</voice>
				<type>eighth</type>
				<dot/>
				<staff>1</staff>
				<beam number='1'>begin</beam>
			</note>
			<note>
				<pitch>
					<step>E</step>
					<octave>4</octave>
				</pitch>
				<duration>4</duration>
				<voice>1</voice>
				<type>16th</type>
				<staff>1</staff>
				<beam number='1'>end</beam>
				<beam number='2'>backward hook</beam>
			</note>
			<note>
				<pitch>
					<step>G</step>
					<octave>4</octave>
				</pitch>
				<duration>8</duration>
				<voice>1</voice>
				<type>eighth</type>
				<staff>1</staff>
			</note>
			<note>
				<pitch>
					<step>E</step>
					<octave>4</octave>
				</pitch>
				<duration>8</duration>
				<voice>1</voice>
				<type>eighth</type>
				<staff>1</staff>
				<beam number='1'>begin</beam>
			</note>
			<note>
				<pitch>
					<step>D</step>
					<alter>-1.0</alter>
					<octave>4</octave>
				</pitch>
				<duration>4</duration>
				<voice>1</voice>
				<type>16th</type>
				<accidental>flat</accidental>
				<staff>1</staff>
				<beam number='1'>continue</beam>
				<beam number='2'>begin</beam>
				<notations>
					<articulations>
						<staccato/>
					</articulations>
				</notations>
			</note>
			<note>
				<pitch>
					<step>D</step>
					<alter>-1.0</alter>
					<octave>4</octave>
				</pitch>
				<duration>4</duration>
				<voice>1</voice>
				<type>16th</type>
				<staff>1</staff>
				<beam number='1'>end</beam>
				<beam number='2'>end</beam>
				<notations>
					<articulations>
						<staccato/>
					</articulations>
				</notations>
			</note>
			<note>
				<rest/>
				<duration>8</duration>
				<voice>1</voice>
				<type>eighth</type>
				<staff>1</staff>
			</note>
			<note>
				<pitch>
					<step>D</step>
					<alter>-1.0</alter>
					<octave>4</octave>
				</pitch>
				<duration>4</duration>
				<voice>1</voice>
				<type>16th</type>
				<staff>1</staff>
				<beam number='1'>begin</beam>
				<beam number='2'>begin</beam>
				<notations>
					<articulations>
						<staccato/>
					</articulations>
				</notations>
			</note>
			<note>
				<pitch>
					<step>D</step>
					<alter>-1.0</alter>
					<octave>4</octave>
				</pitch>
				<duration>4</duration>
				<voice>1</voice>
				<type>16th</type>
				<staff>1</staff>
				<beam number='1'>end</beam>
				<beam number='2'>end</beam>
				<notations>
					<articulations>
						<staccato/>
					</articulations>
				</notations>
			</note>
		</measure>
		<!--//////////////////// Part 1 | Measure 3 ////////////////////-->
		<measure number='3'>
			<attributes>
				<divisions>16</divisions>
			</attributes>
			<note>
				<rest/>
				<duration>16</duration>
				<voice>1</voice>
				<type>quarter</type>
				<staff>1</staff>
			</note>
			<note>
				<pitch>
					<step>D</step>
					<alter>-1.0</alter>
					<octave>4</octave>
				</pitch>
				<duration>4</duration>
				<voice>1</voice>
				<type>16th</type>
				<accidental>flat</accidental>
				<staff>1</staff>
				<beam number='1'>begin</beam>
				<beam number='2'>begin</beam>
			</note>
			<note>
				<pitch>
					<step>E</step>
					<octave>4</octave>
				</pitch>
				<duration>4</duration>
				<voice>1</voice>
				<type>16th</type>
				<staff>1</staff>
				<beam number='1'>continue</beam>
				<beam number='2'>end</beam>
			</note>
			<note>
				<pitch>
					<step>F</step>
					<octave>4</octave>
				</pitch>
				<duration>8</duration>
				<voice>1</voice>
				<type>eighth</type>
				<staff>1</staff>
				<beam number='1'>end</beam>
			</note>
			<note>
				<pitch>
					<step>E</step>
					<octave>4</octave>
				</pitch>
				<duration>8</duration>
				<voice>1</voice>
				<type>eighth</type>
				<staff>1</staff>
				<beam number='1'>begin</beam>
			</note>
			<note>
				<pitch>
					<step>G</step>
					<octave>4</octave>
				</pitch>
				<duration>12</duration>
				<voice>1</voice>
				<type>eighth</type>
				<dot/>
				<staff>1</staff>
				<beam number='1'>continue</beam>
			</note>
			<note>
				<pitch>
					<step>E</step>
					<octave>4</octave>
				</pitch>
				<duration>8</duration>
				<voice>1</voice>
				<type>eighth</type>
				<staff>1</staff>
				<beam number='1'>end</beam>
			</note>
			<backup>
				<duration>60</duration>
			</backup>
			<note>
				<pitch>
					<step>B</step>
					<alter>-1.0</alter>
					<octave>3</octave>
				</pitch>
				<duration>12</duration>
				<voice>5</voice>
				<type>eighth</type>
				<dot/>
				<accidental>flat</accidental>
				<staff>2</staff>
				<beam number='1'>begin</beam>
			</note>
			<note>
				<pitch>
					<step>G</step>
					<octave>3</octave>
				</pitch>
				<duration>4</duration>
				<voice>5</voice>
				<type>16th</type>
				<staff>2</staff>
				<beam number='1'>end</beam>
				<beam number='2'>backward hook</beam>
			</note>
			<note>
				<pitch>
					<step>A</step>
					<octave>3</octave>
				</pitch>
				<duration>16</duration>
				<tie type='start'/>
				<voice>5</voice>
				<type>quarter</type>
				<staff>2</staff>
				<notations>
					<tied type='start'/>
				</notations>
			</note>
			<note>
				<pitch>
					<step>A</step>
					<octave>3</octave>
				</pitch>
				<duration>32</duration>
				<tie type='stop'/>
				<tie type='start'/>
				<voice>5</voice>
				<type>half</type>
				<staff>2</staff>
				<notations>
					<tied type='stop'/>
					<tied type='start'/>
				</notations>
			</note>
		</measure>
		<!--//////////////////// Part 1 | Measure 4 ////////////////////-->
		<measure number='4'>
			<attributes>
				<divisions>16</divisions>
			</attributes>
			<note>
				<pitch>
					<step>D</step>
					<octave>4</octave>
				</pitch>
				<duration>4</duration>
				<voice>1</voice>
				<type>16th</type>
				<staff>1</staff>
				<beam number='1'>begin</beam>
				<beam number='2'>begin</beam>
			</note>
			<note>
				<pitch>
					<step>F</step>
					<octave>4</octave>
				</pitch>
				<duration>4</duration>
				<voice>1</voice>
				<type>16th</type>
				<staff>1</staff>
				<beam number='1'>end</beam>
				<beam number='2'>end</beam>
			</note>
			<note>
				<pitch>
					<step>D</step>
					<alter>-1.0</alter>
					<octave>4</octave>
				</pitch>
				<duration>32</duration>
				<voice>1</voice>
				<type>half</type>
				<accidental>flat</accidental>
				<staff>1</staff>
			</note>
			<note>
				<rest/>
				<duration>16</duration>
				<voice>1</voice>
				<type>quarter</type>
				<staff>1</staff>
			</note>
			<note>
				<rest/>
				<duration>8</duration>
				<voice>1</voice>
				<type>eighth</type>
				<staff>1</staff>
			</note>
			<backup>
				<duration>64</duration>
			</backup>
			<note>
				<pitch>
					<step>A</step>
					<octave>3</octave>
				</pitch>
				<duration>32</duration>
				<tie type='stop'/>
				<voice>5</voice>
				<type>half</type>
				<staff>2</staff>
				<notations>
					<tied type='stop'/>
				</notations>
			</note>
			<note>
				<pitch>
					<step>A</step>
					<octave>2</octave>
				</pitch>
				<duration>8</duration>
				<voice>5</voice>
				<type>eighth</type>
				<staff>2</staff>
				<beam number='1'>begin</beam>
			</note>
			<note>
				<pitch>
					<step>D</step>
					<octave>3</octave>
				</pitch>
				<duration>4</duration>
				<voice>5</voice>
				<type>16th</type>
				<staff>2</staff>
				<beam number='1'>continue</beam>
				<beam number='2'>begin</beam>
			</note>
			<note>
				<pitch>
					<step>F</step>
					<alter>1.0</alter>
					<octave>3</octave>
				</pitch>
				<duration>4</duration>
				<voice>5</voice>
				<type>16th</type>
				<accidental>sharp</accidental>
				<staff>2</staff>
				<beam number='1'>end</beam>
				<beam number='2'>end</beam>
			</note>
			<note>
				<pitch>
					<step>A</step>
					<octave>3</octave>
				</pitch>
				<duration>4</duration>
				<voice>5</voice>
				<type>16th</type>
				<staff>2</staff>
				<beam number='1'>begin</beam>
				<beam number='2'>begin</beam>
			</note>
			<note>
				<pitch>
					<step>B</step>
					<alter>-1.0</alter>
					<octave>3</octave>
				</pitch>
				<duration>4</duration>
				<voice>5</voice>
				<type>16th</type>
				<accidental>flat</accidental>
				<staff>2</staff>
				<beam number='1'>continue</beam>
				<beam number='2'>end</beam>
			</note>
			<note>
				<pitch>
					<step>A</step>
					<octave>3</octave>
				</pitch>
				<duration>8</duration>
				<voice>5</voice>
				<type>eighth</type>
				<staff>2</staff>
				<beam number='1'>end</beam>
			</note>
		</measure>
		<!--//////////////////// Part 1 | Measure 5 ////////////////////-->
		<measure number='5'>
			<attributes>
				<divisions>16</divisions>
			</attributes>
			<note>
				<pitch>
					<step>E</step>
					<octave>4</octave>
				</pitch>
				<duration>8</duration>
				<voice>1</voice>
				<type>eighth</type>
				<staff>1</staff>
				<beam number='1'>begin</beam>
			</note>
			<note>
				<pitch>
					<step>D</step>
					<octave>4</octave>
				</pitch>
				<duration>8</duration>
				<voice>1</voice>
				<type>eighth</type>
				<staff>1</staff>
				<beam number='1'>continue</beam>
			</note>
			<note>
				<pitch>
					<step>F</step>
					<alter>1.0</alter>
					<octave>4</octave>
				</pitch>
				<duration>8</duration>
				<voice>1</voice>
				<type>eighth</type>
				<accidental>sharp</accidental>
				<staff>1</staff>
				<beam number='1'>continue</beam>
			</note>
			<note>
				<pitch>
					<step>D</step>
					<octave>4</octave>
				</pitch>
				<duration>8</duration>
				<voice>1</voice>
				<type>eighth</type>
				<staff>1</staff>
				<beam number='1'>end</beam>
			</note>
			<note>
				<pitch>
					<step>E</step>
					<octave>4</octave>
				</pitch>
				<duration>8</duration>
				<voice>1</voice>
				<type>eighth</type>
				<staff>1</staff>
				<beam number='1'>begin</beam>
			</note>
			<note>
				<pitch>
					<step>D</step>
					<octave>4</octave>
				</pitch>
				<duration>8</duration>
				<voice>1</voice>
				<type>eighth</type>
				<staff>1</staff>
				<beam number='1'>continue</beam>
			</note>
			<note>
				<pitch>
					<step>F</step>
					<alter>1.0</alter>
					<octave>4</octave>
				</pitch>
				<duration>8</duration>
				<voice>1</voice>
				<type>eighth</type>
				<staff>1</staff>
				<beam number='1'>continue</beam>
			</note>
			<note>
				<pitch>
					<step>D</step>
					<octave>4</octave>
				</pitch>
				<duration>8</duration>
				<voice>1</voice>
				<type>eighth</type>
				<staff>1</staff>
				<beam number='1'>end</beam>
			</note>
			<backup>
				<duration>64</duration>
			</backup>
			<note>
				<pitch>
					<step>B</step>
					<alter>-1.0</alter>
					<octave>3</octave>
				</pitch>
				<duration>12</duration>
				<voice>5</voice>
				<type>eighth</type>
				<dot/>
				<accidental>flat</accidental>
				<staff>2</staff>
				<beam number='1'>begin</beam>
			</note>
			<note>
				<pitch>
					<step>A</step>
					<octave>3</octave>
				</pitch>
				<duration>4</duration>
				<voice>5</voice>
				<type>16th</type>
				<staff>2</staff>
				<beam number='1'>end</beam>
				<beam number='2'>backward hook</beam>
			</note>
			<note>
				<pitch>
					<step>B</step>
					<alter>-1.0</alter>
					<octave>3</octave>
				</pitch>
				<duration>12</duration>
				<voice>5</voice>
				<type>eighth</type>
				<dot/>
				<staff>2</staff>
				<beam number='1'>begin</beam>
			</note>
			<note>
				<pitch>
					<step>A</step>
					<octave>3</octave>
				</pitch>
				<duration>4</duration>
				<voice>5</voice>
				<type>16th</type>
				<staff>2</staff>
				<beam number='1'>end</beam>
				<beam number='2'>backward hook</beam>
			</note>
			<note>
				<pitch>
					<step>B</step>
					<alter>-1.0</alter>
					<octave>3</octave>
				</pitch>
				<duration>12</duration>
				<voice>5</voice>
				<type>eighth</type>
				<dot/>
				<staff>2</staff>
				<beam number='1'>begin</beam>
			</note>
			<note>
				<pitch>
					<step>G</step>
					<octave>3</octave>
				</pitch>
				<duration>4</duration>
				<voice>5</voice>
				<type>16th</type>
				<staff>2</staff>
				<beam number='1'>end</beam>
				<beam number='2'>backward hook</beam>
			</note>
			<note>
				<pitch>
					<step>B</step>
					<alter>-1.0</alter>
					<octave>3</octave>
				</pitch>
				<duration>12</duration>
				<voice>5</voice>
				<type>eighth</type>
				<dot/>
				<staff>2</staff>
				<beam number='1'>begin</beam>
			</note>
			<note>
				<pitch>
					<step>F</step>
					<alter>1.0</alter>
					<octave>3</octave>
				</pitch>
				<duration>4</duration>
				<voice>5</voice>
				<type>16th</type>
				<accidental>sharp</accidental>
				<staff>2</staff>
				<beam number='1'>end</beam>
				<beam number='2'>backward hook</beam>
			</note>
		</measure>
		<!--//////////////////// Part 1 | Measure 6 ////////////////////-->
		<measure number='6'>
			<attributes>
				<divisions>16</divisions>
			</attributes>
			<note>
				<pitch>
					<step>E</step>
					<octave>4</octave>
				</pitch>
				<duration>4</duration>
				<voice>1</voice>
				<type>16th</type>
				<staff>1</staff>
				<beam number='1'>begin</beam>
				<beam number='2'>begin</beam>
			</note>
			<note>
				<pitch>
					<step>D</step>
					<octave>4</octave>
				</pitch>
				<duration>4</duration>
				<voice>1</voice>
				<type>16th</type>
				<staff>1</staff>
				<beam number='1'>continue</beam>
				<beam number='2'>continue</beam>
			</note>
			<note>
				<pitch>
					<step>C</step>
					<octave>4</octave>
				</pitch>
				<duration>4</duration>
				<voice>1</voice>
				<type>16th</type>
				<staff>1</staff>
				<beam number='1'>continue</beam>
				<beam number='2'>continue</beam>
			</note>
			<note>
				<pitch>
					<step>A</step>
					<alter>-1.0</alter>
					<octave>3</octave>
				</pitch>
				<duration>4</duration>
				<voice>1</voice>
				<type>16th</type>
				<accidental>flat</accidental>
				<staff>1</staff>
				<beam number='1'>end</beam>
				<beam number='2'>end</beam>
			</note>
			<note>
				<pitch>
					<step>B</step>
					<alter>-1.0</alter>
					<octave>3</octave>
				</pitch>
				<duration>12</duration>
				<voice>1</voice>
				<type>eighth</type>
				<dot/>
				<accidental>flat</accidental>
				<staff>1</staff>
				<beam number='1'>begin</beam>
			</note>
			<attributes>
				<clef>
					<sign>F</sign>
					<line>4</line>
				</clef>
			</attributes>
			<note>
				<pitch>
					<step>F</step>
					<alter>1.0</alter>
					<octave>3</octave>
				</pitch>
				<duration>4</duration>
				<voice>1</voice>
				<type>16th</type>
				<accidental>sharp</accidental>
				<staff>1</staff>
				<beam number='1'>end</beam>
				<beam number='2'>backward hook</beam>
			</note>
			<note>
				<pitch>
					<step>F</step>
					<alter>1.0</alter>
					<octave>3</octave>
				</pitch>
				<duration>12</duration>
				<voice>1</voice>
				<type>eighth</type>
				<dot/>
				<staff>1</staff>
				<beam number='1'>begin</beam>
			</note>
			<note>
				<chord/>
				<pitch>
					<step>B</step>
					<alter>-1.0</alter>
					<octave>3</octave>
				</pitch>
				<duration>12</duration>
				<voice>1</voice>
				<type>eighth</type>
				<dot/>
				<staff>1</staff>
			</note>
			<note>
				<pitch>
					<step>D</step>
					<octave>3</octave>
				</pitch>
				<duration>4</duration>
				<voice>1</voice>
				<type>16th</type>
				<staff>1</staff>
				<beam number='1'>end</beam>
				<beam number='2'>backward hook</beam>
			</note>
			<note>
				<pitch>
					<step>F</step>
					<alter>1.0</alter>
					<octave>3</octave>
				</pitch>
				<duration>4</duration>
				<voice>1</voice>
				<type>16th</type>
				<staff>1</staff>
				<beam number='1'>begin</beam>
				<beam number='2'>begin</beam>
			</note>
			<note>
				<chord/>
				<pitch>
					<step>B</step>
					<alter>-1.0</alter>
					<octave>3</octave>
				</pitch>
				<duration>4</duration>
				<voice>1</voice>
				<type>16th</type>
				<staff>1</staff>
			</note>
			<note>
				<pitch>
					<step>D</step>
					<octave>3</octave>
				</pitch>
				<duration>4</duration>
				<voice>1</voice>
				<type>16th</type>
				<staff>1</staff>
				<beam number='1'>continue</beam>
				<beam number='2'>continue</beam>
			</note>
			<note>
				<pitch>
					<step>F</step>
					<alter>1.0</alter>
					<octave>3</octave>
				</pitch>
				<duration>4</duration>
				<voice>1</voice>
				<type>16th</type>
				<staff>1</staff>
				<beam number='1'>continue</beam>
				<beam number='2'>continue</beam>
			</note>
			<note>
				<chord/>
				<pitch>
					<step>B</step>
					<alter>-1.0</alter>
					<octave>3</octave>
				</pitch>
				<duration>4</duration>
				<voice>1</voice>
				<type>16th</type>
				<staff>1</staff>
			</note>
			<note>
				<pitch>
					<step>D</step>
					<octave>3</octave>
				</pitch>
				<duration>4</duration>
				<voice>1</voice>
				<type>16th</type>
				<staff>1</staff>
				<beam number='1'>end</beam>
				<beam number='2'>end</beam>
			</note>
			<backup>
				<duration>64</duration>
			</backup>
			<note>
				<pitch>
					<step>G</step>
					<octave>3</octave>
				</pitch>
				<duration>4</duration>
				<voice>5</voice>
				<type>16th</type>
				<staff>2</staff>
				<beam number='1'>begin</beam>
				<beam number='2'>begin</beam>
			</note>
			<note>
				<pitch>
					<step>F</step>
					<alter>1.0</alter>
					<octave>3</octave>
				</pitch>
				<duration>4</duration>
				<voice>5</voice>
				<type>16th</type>
				<accidental>sharp</accidental>
				<staff>2</staff>
				<beam number='1'>continue</beam>
				<beam number='2'>continue</beam>
			</note>
			<note>
				<pitch>
					<step>D</step>
					<octave>3</octave>
				</pitch>
				<duration>4</duration>
				<voice>5</voice>
				<type>16th</type>
				<staff>2</staff>
				<beam number='1'>continue</beam>
				<beam number='2'>continue</beam>
			</note>
			<note>
				<pitch>
					<step>A</step>
					<alter>-1.0</alter>
					<octave>2</octave>
				</pitch>
				<duration>4</duration>
				<voice>5</voice>
				<type>16th</type>
				<accidental>flat</accidental>
				<staff>2</staff>
				<beam number='1'>end</beam>
				<beam number='2'>end</beam>
			</note>
			<note>
				<pitch>
					<step>D</step>
					<octave>3</octave>
				</pitch>
				<duration>12</duration>
				<voice>5</voice>
				<type>eighth</type>
				<dot/>
				<staff>2</staff>
				<beam number='1'>begin</beam>
			</note>
			<note>
				<pitch>
					<step>A</step>
					<alter>-1.0</alter>
					<octave>2</octave>
				</pitch>
				<duration>4</duration>
				<voice>5</voice>
				<type>16th</type>
				<staff>2</staff>
				<beam number='1'>end</beam>
				<beam number='2'>backward hook</beam>
			</note>
			<note>
				<pitch>
					<step>D</step>
					<octave>2</octave>
				</pitch>
				<duration>12</duration>
				<voice>5</voice>
				<type>eighth</type>
				<dot/>
				<staff>2</staff>
				<beam number='1'>begin</beam>
			</note>
			<note>
				<pitch>
					<step>F</step>
					<alter>1.0</alter>
					<octave>2</octave>
				</pitch>
				<duration>4</duration>
				<voice>5</voice>
				<type>16th</type>
				<accidental>sharp</accidental>
				<staff>2</staff>
				<beam number='1'>end</beam>
				<beam number='2'>backward hook</beam>
			</note>
			<note>
				<chord/>
				<pitch>
					<step>B</step>
					<alter>-1.0</alter>
					<octave>2</octave>
				</pitch>
				<duration>4</duration>
				<voice>5</voice>
				<type>16th</type>
				<accidental>flat</accidental>
				<staff>2</staff>
			</note>
			<note>
				<pitch>
					<step>D</step>
					<octave>2</octave>
				</pitch>
				<duration>4</duration>
				<voice>5</voice>
				<type>16th</type>
				<staff>2</staff>
				<beam number='1'>begin</beam>
				<beam number='2'>begin</beam>
			</note>
			<note>
				<pitch>
					<step>F</step>
					<alter>1.0</alter>
					<octave>2</octave>
				</pitch>
				<duration>4</duration>
				<voice>5</voice>
				<type>16th</type>
				<staff>2</staff>
				<beam number='1'>continue</beam>
				<beam number='2'>continue</beam>
			</note>
			<note>
				<chord/>
				<pitch>
					<step>B</step>
					<alter>-1.0</alter>
					<octave>2</octave>
				</pitch>
				<duration>4</duration>
				<voice>5</voice>
				<type>16th</type>
				<staff>2</staff>
			</note>
			<note>
				<pitch>
					<step>D</step>
					<octave>2</octave>
				</pitch>
				<duration>4</duration>
				<voice>5</voice>
				<type>16th</type>
				<staff>2</staff>
				<beam number='1'>continue</beam>
				<beam number='2'>continue</beam>
			</note>
			<note>
				<pitch>
					<step>F</step>
					<alter>1.0</alter>
					<octave>2</octave>
				</pitch>
				<duration>4</duration>
				<voice>5</voice>
				<type>16th</type>
				<staff>2</staff>
				<beam number='1'>end</beam>
				<beam number='2'>end</beam>
			</note>
			<note>
				<chord/>
				<pitch>
					<step>B</step>
					<alter>-1.0</alter>
					<octave>2</octave>
				</pitch>
				<duration>4</duration>
				<voice>5</voice>
				<type>16th</type>
				<staff>2</staff>
			</note>
		</measure>
		<!--//////////////////// Part 1 | Measure 7 ////////////////////-->
		<measure number='7'>
			<attributes>
				<divisions>8</divisions>
			</attributes>
			<note>
				<pitch>
					<step>B</step>
					<alter>-1.0</alter>
					<octave>3</octave>
				</pitch>
				<duration>4</duration>
				<voice>1</voice>
				<type>eighth</type>
				<accidental>flat</accidental>
				<staff>1</staff>
				<beam number='1'>begin</beam>
			</note>
			<note>
				<pitch>
					<step>F</step>
					<alter>1.0</alter>
					<octave>3</octave>
				</pitch>
				<duration>4</duration>
				<voice>1</voice>
				<type>eighth</type>
				<accidental>sharp</accidental>
				<staff>1</staff>
				<beam number='1'>continue</beam>
			</note>
			<note>
				<pitch>
					<step>F</step>
					<alter>1.0</alter>
					<octave>3</octave>
				</pitch>
				<duration>4</duration>
				<voice>1</voice>
				<type>eighth</type>
				<staff>1</staff>
				<beam number='1'>continue</beam>
			</note>
			<note>
				<chord/>
				<pitch>
					<step>B</step>
					<alter>-1.0</alter>
					<octave>3</octave>
				</pitch>
				<duration>4</duration>
				<voice>1</voice>
				<type>eighth</type>
				<staff>1</staff>
			</note>
			<note>
				<pitch>
					<step>D</step>
					<octave>3</octave>
				</pitch>
				<duration>4</duration>
				<voice>1</voice>
				<type>eighth</type>
				<staff>1</staff>
				<beam number='1'>end</beam>
			</note>
			<note>
				<pitch>
					<step>C</step>
					<octave>3</octave>
				</pitch>
				<duration>16</duration>
				<voice>1</voice>
				<type>half</type>
				<staff>1</staff>
			</note>
			<note>
				<chord/>
				<pitch>
					<step>D</step>
					<octave>3</octave>
				</pitch>
				<duration>16</duration>
				<voice>1</voice>
				<type>half</type>
				<staff>1</staff>
			</note>
			<note>
				<chord/>
				<pitch>
					<step>F</step>
					<alter>1.0</alter>
					<octave>3</octave>
				</pitch>
				<duration>16</duration>
				<voice>1</voice>
				<type>half</type>
				<staff>1</staff>
			</note>
			<note>
				<chord/>
				<pitch>
					<step>A</step>
					<alter>-1.0</alter>
					<octave>3</octave>
				</pitch>
				<duration>16</duration>
				<voice>1</voice>
				<type>half</type>
				<accidental>flat</accidental>
				<staff>1</staff>
			</note>
			<backup>
				<duration>32</duration>
			</backup>
			<note>
				<pitch>
					<step>D</step>
					<octave>3</octave>
				</pitch>
				<duration>4</duration>
				<voice>5</voice>
				<type>eighth</type>
				<staff>2</staff>
				<beam number='1'>begin</beam>
			</note>
			<note>
				<pitch>
					<step>A</step>
					<alter>-1.0</alter>
					<octave>2</octave>
				</pitch>
				<duration>4</duration>
				<voice>5</voice>
				<type>eighth</type>
				<accidental>flat</accidental>
				<staff>2</staff>
				<beam number='1'>continue</beam>
			</note>
			<note>
				<pitch>
					<step>D</step>
					<octave>2</octave>
				</pitch>
				<duration>4</duration>
				<voice>5</voice>
				<type>eighth</type>
				<staff>2</staff>
				<beam number='1'>continue</beam>
			</note>
			<note>
				<pitch>
					<step>F</step>
					<alter>1.0</alter>
					<octave>2</octave>
				</pitch>
				<duration>4</duration>
				<voice>5</voice>
				<type>eighth</type>
				<accidental>sharp</accidental>
				<staff>2</staff>
				<beam number='1'>end</beam>
			</note>
			<note>
				<chord/>
				<pitch>
					<step>B</step>
					<alter>-1.0</alter>
					<octave>2</octave>
				</pitch>
				<duration>4</duration>
				<voice>5</voice>
				<type>eighth</type>
				<accidental>flat</accidental>
				<staff>2</staff>
			</note>
			<note>
				<pitch>
					<step>C</step>
					<octave>1</octave>
				</pitch>
				<duration>16</duration>
				<voice>5</voice>
				<type>half</type>
				<staff>2</staff>
			</note>
			<note>
				<chord/>
				<pitch>
					<step>C</step>
					<octave>2</octave>
				</pitch>
				<duration>16</duration>
				<voice>5</voice>
				<type>half</type>
				<staff>2</staff>
			</note>
		</measure>
		<!--//////////////////// Part 1 | Measure 8 ////////////////////-->
		<measure number='8'>
			<attributes>
				<divisions>16</divisions>
			</attributes>
			<attributes>
				<clef>
					<sign>G</sign>
					<line>2</line>
				</clef>
			</attributes>
			<attributes>
				<clef>
					<sign>G</sign>
					<line>2</line>
				</clef>
			</attributes>
			<note>
				<pitch>
					<step>A</step>
					<octave>5</octave>
				</pitch>
				<duration>8</duration>
				<voice>1</voice>
				<type>eighth</type>
				<staff>1</staff>
				<beam number='1'>begin</beam>
				<notations>
					<articulations>
						<staccato/>
					</articulations>
				</notations>
			</note>
			<note>
				<pitch>
					<step>D</step>
					<octave>5</octave>
				</pitch>
				<duration>8</duration>
				<voice>1</voice>
				<type>eighth</type>
				<staff>1</staff>
				<beam number='1'>continue</beam>
				<notations>
					<articulations>
						<staccato/>
					</articulations>
				</notations>
			</note>
			<note>
				<pitch>
					<step>D</step>
					<alter>-1.0</alter>
					<octave>6</octave>
				</pitch>
				<duration>8</duration>
				<voice>1</voice>
				<type>eighth</type>
				<accidental>flat</accidental>
				<staff>1</staff>
				<beam number='1'>continue</beam>
				<notations>
					<articulations>
						<staccato/>
					</articulations>
				</notations>
			</note>
			<note>
				<pitch>
					<step>D</step>
					<octave>6</octave>
				</pitch>
				<duration>8</duration>
				<voice>1</voice>
				<type>eighth</type>
				<accidental>natural</accidental>
				<staff>1</staff>
				<beam number='1'>end</beam>
				<notations>
					<articulations>
						<staccato/>
					</articulations>
				</notations>
			</note>
			<note>
				<pitch>
					<step>E</step>
					<octave>6</octave>
				</pitch>
				<duration>8</duration>
				<voice>1</voice>
				<type>eighth</type>
				<staff>1</staff>
				<beam number='1'>begin</beam>
				<notations>
					<articulations>
						<staccato/>
					</articulations>
				</notations>
			</note>
			<note>
				<pitch>
					<step>D</step>
					<octave>6</octave>
				</pitch>
				<duration>8</duration>
				<voice>1</voice>
				<type>eighth</type>
				<staff>1</staff>
				<beam number='1'>continue</beam>
				<notations>
					<articulations>
						<staccato/>
					</articulations>
				</notations>
			</note>
			<note>
				<pitch>
					<step>G</step>
					<octave>5</octave>
				</pitch>
				<duration>8</duration>
				<voice>1</voice>
				<type>eighth</type>
				<staff>1</staff>
				<beam number='1'>continue</beam>
				<notations>
					<articulations>
						<staccato/>
					</articulations>
				</notations>
			</note>
			<note>
				<pitch>
					<step>E</step>
					<octave>5</octave>
				</pitch>
				<duration>8</duration>
				<voice>1</voice>
				<type>eighth</type>
				<staff>1</staff>
				<beam number='1'>end</beam>
				<notations>
					<articulations>
						<staccato/>
					</articulations>
				</notations>
			</note>
			<backup>
				<duration>64</duration>
			</backup>
			<note>
				<pitch>
					<step>A</step>
					<octave>4</octave>
				</pitch>
				<duration>4</duration>
				<voice>5</voice>
				<type>16th</type>
				<staff>2</staff>
				<beam number='1'>begin</beam>
				<beam number='2'>begin</beam>
			</note>
			<note>
				<pitch>
					<step>A</step>
					<octave>4</octave>
				</pitch>
				<duration>4</duration>
				<voice>5</voice>
				<type>16th</type>
				<staff>2</staff>
				<beam number='1'>continue</beam>
				<beam number='2'>end</beam>
			</note>
			<note>
				<pitch>
					<step>D</step>
					<octave>4</octave>
				</pitch>
				<duration>8</duration>
				<voice>5</voice>
				<type>eighth</type>
				<staff>2</staff>
				<beam number='1'>end</beam>
			</note>
			<note>
				<pitch>
					<step>F</step>
					<alter>1.0</alter>
					<octave>4</octave>
				</pitch>
				<duration>8</duration>
				<voice>5</voice>
				<type>eighth</type>
				<accidental>sharp</accidental>
				<staff>2</staff>
				<beam number='1'>begin</beam>
			</note>
			<note>
				<pitch>
					<step>A</step>
					<octave>4</octave>
				</pitch>
				<duration>8</duration>
				<voice>5</voice>
				<type>eighth</type>
				<staff>2</staff>
				<beam number='1'>end</beam>
			</note>
			<note>
				<pitch>
					<step>B</step>
					<alter>-1.0</alter>
					<octave>4</octave>
				</pitch>
				<duration>4</duration>
				<voice>5</voice>
				<type>16th</type>
				<accidental>flat</accidental>
				<staff>2</staff>
				<beam number='1'>begin</beam>
				<beam number='2'>begin</beam>
			</note>
			<note>
				<pitch>
					<step>B</step>
					<alter>-1.0</alter>
					<octave>4</octave>
				</pitch>
				<duration>4</duration>
				<voice>5</voice>
				<type>16th</type>
				<staff>2</staff>
				<beam number='1'>continue</beam>
				<beam number='2'>end</beam>
			</note>
			<note>
				<pitch>
					<step>A</step>
					<octave>4</octave>
				</pitch>
				<duration>8</duration>
				<voice>5</voice>
				<type>eighth</type>
				<staff>2</staff>
				<beam number='1'>end</beam>
			</note>
			<note>
				<pitch>
					<step>F</step>
					<alter>1.0</alter>
					<octave>4</octave>
				</pitch>
				<duration>8</duration>
				<voice>5</voice>
				<type>eighth</type>
				<staff>2</staff>
				<beam number='1'>begin</beam>
			</note>
			<note>
				<pitch>
					<step>A</step>
					<octave>4</octave>
				</pitch>
				<duration>8</duration>
				<voice>5</voice>
				<type>eighth</type>
				<staff>2</staff>
				<beam number='1'>end</beam>
			</note>
		</measure>
		<!--//////////////////// Part 1 | Measure 9 ////////////////////-->
		<measure number='9'>
			<attributes>
				<divisions>16</divisions>
			</attributes>
			<note>
				<pitch>
					<step>B</step>
					<alter>-1.0</alter>
					<octave>5</octave>
				</pitch>
				<duration>8</duration>
				<voice>1</voice>
				<type>eighth</type>
				<accidental>flat</accidental>
				<staff>1</staff>
				<beam number='1'>begin</beam>
				<notations>
					<articulations>
						<staccato/>
					</articulations>
				</notations>
			</note>
			<note>
				<pitch>
					<step>F</step>
					<alter>1.0</alter>
					<octave>5</octave>
				</pitch>
				<duration>8</duration>
				<voice>1</voice>
				<type>eighth</type>
				<accidental>sharp</accidental>
				<staff>1</staff>
				<beam number='1'>continue</beam>
				<notations>
					<articulations>
						<staccato/>
					</articulations>
				</notations>
			</note>
			<note>
				<pitch>
					<step>A</step>
					<octave>5</octave>
				</pitch>
				<duration>8</duration>
				<voice>1</voice>
				<type>eighth</type>
				<staff>1</staff>
				<beam number='1'>continue</beam>
			</note>
			<note>
				<pitch>
					<step>D</step>
					<octave>5</octave>
				</pitch>
				<duration>8</duration>
				<voice>1</voice>
				<type>eighth</type>
				<staff>1</staff>
				<beam number='1'>end</beam>
			</note>
			<note>
				<pitch>
					<step>D</step>
					<alter>-1.0</alter>
					<octave>6</octave>
				</pitch>
				<duration>8</duration>
				<voice>1</voice>
				<type>eighth</type>
				<accidental>flat</accidental>
				<staff>1</staff>
				<beam number='1'>begin</beam>
			</note>
			<note>
				<pitch>
					<step>D</step>
					<octave>6</octave>
				</pitch>
				<duration>8</duration>
				<voice>1</voice>
				<type>eighth</type>
				<accidental>natural</accidental>
				<staff>1</staff>
				<beam number='1'>continue</beam>
			</note>
			<note>
				<pitch>
					<step>B</step>
					<alter>-1.0</alter>
					<octave>5</octave>
				</pitch>
				<duration>8</duration>
				<voice>1</voice>
				<type>eighth</type>
				<staff>1</staff>
				<beam number='1'>continue</beam>
			</note>
			<note>
				<pitch>
					<step>E</step>
					<octave>5</octave>
				</pitch>
				<duration>8</duration>
				<voice>1</voice>
				<type>eighth</type>
				<staff>1</staff>
				<beam number='1'>end</beam>
			</note>
			<backup>
				<duration>64</duration>
			</backup>
			<note>
				<pitch>
					<step>E</step>
					<octave>4</octave>
				</pitch>
				<duration>8</duration>
				<voice>5</voice>
				<type>eighth</type>
				<staff>2</staff>
				<beam number='1'>begin</beam>
			</note>
			<note>
				<pitch>
					<step>C</step>
					<octave>5</octave>
				</pitch>
				<duration>8</duration>
				<voice>5</voice>
				<type>eighth</type>
				<staff>2</staff>
				<beam number='1'>end</beam>
			</note>
			<note>
				<pitch>
					<step>D</step>
					<octave>4</octave>
				</pitch>
				<duration>4</duration>
				<voice>5</voice>
				<type>16th</type>
				<staff>2</staff>
				<beam number='1'>begin</beam>
				<beam number='2'>begin</beam>
			</note>
			<note>
				<pitch>
					<step>E</step>
					<octave>4</octave>
				</pitch>
				<duration>4</duration>
				<voice>5</voice>
				<type>16th</type>
				<staff>2</staff>
				<beam number='1'>continue</beam>
				<beam number='2'>continue</beam>
			</note>
			<note>
				<pitch>
					<step>F</step>
					<alter>1.0</alter>
					<octave>4</octave>
				</pitch>
				<duration>4</duration>
				<voice>5</voice>
				<type>16th</type>
				<accidental>sharp</accidental>
				<staff>2</staff>
				<beam number='1'>continue</beam>
				<beam number='2'>continue</beam>
			</note>
			<note>
				<pitch>
					<step>G</step>
					<octave>4</octave>
				</pitch>
				<duration>4</duration>
				<voice>5</voice>
				<type>16th</type>
				<staff>2</staff>
				<beam number='1'>end</beam>
				<beam number='2'>end</beam>
			</note>
			<note>
				<pitch>
					<step>A</step>
					<octave>4</octave>
				</pitch>
				<duration>4</duration>
				<voice>5</voice>
				<type>16th</type>
				<staff>2</staff>
				<beam number='1'>begin</beam>
				<beam number='2'>begin</beam>
			</note>
			<note>
				<pitch>
					<step>B</step>
					<alter>-1.0</alter>
					<octave>4</octave>
				</pitch>
				<duration>4</duration>
				<voice>5</voice>
				<type>16th</type>
				<accidental>flat</accidental>
				<staff>2</staff>
				<beam number='1'>continue</beam>
				<beam number='2'>continue</beam>
			</note>
			<note>
				<pitch>
					<step>C</step>
					<octave>5</octave>
				</pitch>
				<duration>4</duration>
				<voice>5</voice>
				<type>16th</type>
				<staff>2</staff>
				<beam number='1'>continue</beam>
				<beam number='2'>continue</beam>
			</note>
			<note>
				<pitch>
					<step>D</step>
					<octave>5</octave>
				</pitch>
				<duration>4</duration>
				<voice>5</voice>
				<type>16th</type>
				<staff>2</staff>
				<beam number='1'>end</beam>
				<beam number='2'>end</beam>
			</note>
			<note>
				<pitch>
					<step>D</step>
					<octave>5</octave>
				</pitch>
				<duration>4</duration>
				<voice>5</voice>
				<type>16th</type>
				<staff>2</staff>
				<beam number='1'>begin</beam>
				<beam number='2'>begin</beam>
			</note>
			<note>
				<pitch>
					<step>C</step>
					<octave>5</octave>
				</pitch>
				<duration>4</duration>
				<voice>5</voice>
				<type>16th</type>
				<staff>2</staff>
				<beam number='1'>continue</beam>
				<beam number='2'>continue</beam>
			</note>
			<note>
				<pitch>
					<step>B</step>
					<alter>-1.0</alter>
					<octave>4</octave>
				</pitch>
				<duration>4</duration>
				<voice>5</voice>
				<type>16th</type>
				<staff>2</staff>
				<beam number='1'>continue</beam>
				<beam number='2'>continue</beam>
			</note>
			<note>
				<pitch>
					<step>A</step>
					<alter>-1.0</alter>
					<octave>4</octave>
				</pitch>
				<duration>4</duration>
				<voice>5</voice>
				<type>16th</type>
				<accidental>flat</accidental>
				<staff>2</staff>
				<beam number='1'>end</beam>
				<beam number='2'>end</beam>
			</note>
		</measure>
		<!--//////////////////// Part 1 | Measure 10 ////////////////////-->
		<measure number='10'>
			<attributes>
				<divisions>16</divisions>
			</attributes>
			<note>
				<pitch>
					<step>D</step>
					<octave>6</octave>
				</pitch>
				<duration>8</duration>
				<voice>1</voice>
				<type>eighth</type>
				<staff>1</staff>
				<beam number='1'>begin</beam>
			</note>
			<note>
				<pitch>
					<step>B</step>
					<alter>-1.0</alter>
					<octave>5</octave>
				</pitch>
				<duration>8</duration>
				<voice>1</voice>
				<type>eighth</type>
				<accidental>flat</accidental>
				<staff>1</staff>
				<beam number='1'>continue</beam>
			</note>
			<note>
				<pitch>
					<step>A</step>
					<octave>5</octave>
				</pitch>
				<duration>8</duration>
				<voice>1</voice>
				<type>eighth</type>
				<staff>1</staff>
				<beam number='1'>continue</beam>
			</note>
			<note>
				<pitch>
					<step>D</step>
					<octave>5</octave>
				</pitch>
				<duration>8</duration>
				<voice>1</voice>
				<type>eighth</type>
				<staff>1</staff>
				<beam number='1'>end</beam>
			</note>
			<attributes>
				<clef>
					<sign>F</sign>
					<line>4</line>
				</clef>
			</attributes>
			<note>
				<pitch>
					<step>D</step>
					<octave>6</octave>
				</pitch>
				<duration>8</duration>
				<voice>1</voice>
				<type>eighth</type>
				<staff>1</staff>
				<beam number='1'>begin</beam>
			</note>
			<note>
				<pitch>
					<step>A</step>
					<octave>5</octave>
				</pitch>
				<duration>8</duration>
				<voice>1</voice>
				<type>eighth</type>
				<staff>1</staff>
				<beam number='1'>continue</beam>
			</note>
			<attributes>
				<clef>
					<sign>G</sign>
					<line>2</line>
				</clef>
			</attributes>
			<note>
				<pitch>
					<step>B</step>
					<alter>-1.0</alter>
					<octave>5</octave>
				</pitch>
				<duration>8</duration>
				<voice>1</voice>
				<type>eighth</type>
				<staff>1</staff>
				<beam number='1'>continue</beam>
			</note>
			<note>
				<pitch>
					<step>F</step>
					<alter>1.0</alter>
					<octave>5</octave>
				</pitch>
				<duration>8</duration>
				<voice>1</voice>
				<type>eighth</type>
				<accidental>sharp</accidental>
				<staff>1</staff>
				<beam number='1'>end</beam>
			</note>
			<backup>
				<duration>64</duration>
			</backup>
			<note>
				<pitch>
					<step>D</step>
					<octave>4</octave>
				</pitch>
				<duration>4</duration>
				<voice>5</voice>
				<type>16th</type>
				<staff>2</staff>
				<beam number='1'>begin</beam>
				<beam number='2'>begin</beam>
			</note>
			<note>
				<pitch>
					<step>C</step>
					<octave>4</octave>
				</pitch>
				<duration>4</duration>
				<voice>5</voice>
				<type>16th</type>
				<staff>2</staff>
				<beam number='1'>continue</beam>
				<beam number='2'>continue</beam>
			</note>
			<note>
				<pitch>
					<step>B</step>
					<alter>-1.0</alter>
					<octave>3</octave>
				</pitch>
				<duration>4</duration>
				<voice>5</voice>
				<type>16th</type>
				<accidental>flat</accidental>
				<staff>2</staff>
				<beam number='1'>continue</beam>
				<beam number='2'>continue</beam>
			</note>
			<note>
				<pitch>
					<step>A</step>
					<alter>-1.0</alter>
					<octave>3</octave>
				</pitch>
				<duration>4</duration>
				<voice>5</voice>
				<type>16th</type>
				<accidental>flat</accidental>
				<staff>2</staff>
				<beam number='1'>end</beam>
				<beam number='2'>end</beam>
			</note>
			<note>
				<pitch>
					<step>B</step>
					<octave>4</octave>
				</pitch>
				<duration>4</duration>
				<voice>5</voice>
				<type>16th</type>
				<staff>2</staff>
				<beam number='1'>begin</beam>
				<beam number='2'>begin</beam>
			</note>
			<note>
				<pitch>
					<step>A</step>
					<octave>4</octave>
				</pitch>
				<duration>4</duration>
				<voice>5</voice>
				<type>16th</type>
				<staff>2</staff>
				<beam number='1'>continue</beam>
				<beam number='2'>continue</beam>
			</note>
			<note>
				<pitch>
					<step>F</step>
					<alter>1.0</alter>
					<octave>4</octave>
				</pitch>
				<duration>4</duration>
				<voice>5</voice>
				<type>16th</type>
				<accidental>sharp</accidental>
				<staff>2</staff>
				<beam number='1'>continue</beam>
				<beam number='2'>continue</beam>
			</note>
			<note>
				<pitch>
					<step>E</step>
					<octave>4</octave>
				</pitch>
				<duration>4</duration>
				<voice>5</voice>
				<type>16th</type>
				<staff>2</staff>
				<beam number='1'>end</beam>
				<beam number='2'>end</beam>
			</note>
			<note>
				<pitch>
					<step>B</step>
					<octave>3</octave>
				</pitch>
				<duration>4</duration>
				<voice>5</voice>
				<type>16th</type>
				<accidental>natural</accidental>
				<staff>2</staff>
				<beam number='1'>begin</beam>
				<beam number='2'>begin</beam>
			</note>
			<note>
				<pitch>
					<step>A</step>
					<octave>3</octave>
				</pitch>
				<duration>4</duration>
				<voice>5</voice>
				<type>16th</type>
				<accidental>natural</accidental>
				<staff>2</staff>
				<beam number='1'>continue</beam>
				<beam number='2'>continue</beam>
			</note>
			<note>
				<pitch>
					<step>F</step>
					<alter>1.0</alter>
					<octave>3</octave>
				</pitch>
				<duration>4</duration>
				<voice>5</voice>
				<type>16th</type>
				<accidental>sharp</accidental>
				<staff>2</staff>
				<beam number='1'>continue</beam>
				<beam number='2'>continue</beam>
			</note>
			<note>
				<pitch>
					<step>E</step>
					<octave>3</octave>
				</pitch>
				<duration>4</duration>
				<voice>5</voice>
				<type>16th</type>
				<staff>2</staff>
				<beam number='1'>end</beam>
				<beam number='2'>end</beam>
			</note>
			<note>
				<pitch>
					<step>B</step>
					<alter>-1.0</alter>
					<octave>4</octave>
				</pitch>
				<duration>4</duration>
				<voice>5</voice>
				<type>16th</type>
				<accidental>flat</accidental>
				<staff>2</staff>
				<beam number='1'>begin</beam>
				<beam number='2'>begin</beam>
			</note>
			<note>
				<pitch>
					<step>F</step>
					<alter>1.0</alter>
					<octave>4</octave>
				</pitch>
				<duration>4</duration>
				<voice>5</voice>
				<type>16th</type>
				<staff>2</staff>
				<beam number='1'>continue</beam>
				<beam number='2'>continue</beam>
			</note>
			<note>
				<pitch>
					<step>E</step>
					<octave>4</octave>
				</pitch>
				<duration>4</duration>
				<voice>5</voice>
				<type>16th</type>
				<staff>2</staff>
				<beam number='1'>continue</beam>
				<beam number='2'>continue</beam>
			</note>
			<note>
				<pitch>
					<step>D</step>
					<octave>4</octave>
				</pitch>
				<duration>4</duration>
				<voice>5</voice>
				<type>16th</type>
				<staff>2</staff>
				<beam number='1'>end</beam>
				<beam number='2'>end</beam>
			</note>
			<attributes>
				<clef>
					<sign>F</sign>
					<line>4</line>
				</clef>
			</attributes>
		</measure>
		<!--//////////////////// Part 1 | Measure 11 ////////////////////-->
		<measure number='11'>
			<attributes>
				<divisions>16</divisions>
			</attributes>
			<note>
				<pitch>
					<step>D</step>
					<octave>6</octave>
				</pitch>
				<duration>12</duration>
				<voice>1</voice>
				<type>eighth</type>
				<dot/>
				<staff>1</staff>
				<beam number='1'>begin</beam>
			</note>
			<note>
				<pitch>
					<step>A</step>
					<alter>-1.0</alter>
					<octave>5</octave>
				</pitch>
				<duration>4</duration>
				<voice>1</voice>
				<type>16th</type>
				<accidental>flat</accidental>
				<staff>1</staff>
				<beam number='1'>end</beam>
				<beam number='2'>backward hook</beam>
			</note>
			<attributes>
				<clef>
					<sign>G</sign>
					<line>2</line>
				</clef>
			</attributes>
			<direction>
				<direction-type>
					<metronome default-y='20'>
						<beat-unit>quarter</beat-unit>
						<per-minute>90</per-minute>
					</metronome>
				</direction-type>
				<sound tempo='90'/>
			</direction>
			<note>
				<pitch>
					<step>A</step>
					<alter>-1.0</alter>
					<octave>5</octave>
				</pitch>
				<duration>4</duration>
				<voice>1</voice>
				<type>16th</type>
				<staff>1</staff>
				<beam number='1'>begin</beam>
				<beam number='2'>begin</beam>
			</note>
			<note>
				<pitch>
					<step>D</step>
					<octave>5</octave>
				</pitch>
				<duration>4</duration>
				<voice>1</voice>
				<type>16th</type>
				<staff>1</staff>
				<beam number='1'>continue</beam>
				<beam number='2'>continue</beam>
			</note>
			<note>
				<pitch>
					<step>C</step>
					<octave>5</octave>
				</pitch>
				<duration>4</duration>
				<voice>1</voice>
				<type>16th</type>
				<staff>1</staff>
				<beam number='1'>continue</beam>
				<beam number='2'>continue</beam>
			</note>
			<note>
				<pitch>
					<step>D</step>
					<octave>5</octave>
				</pitch>
				<duration>4</duration>
				<voice>1</voice>
				<type>16th</type>
				<staff>1</staff>
				<beam number='1'>end</beam>
				<beam number='2'>end</beam>
			</note>
			<note>
				<pitch>
					<step>A</step>
					<alter>-1.0</alter>
					<octave>4</octave>
				</pitch>
				<duration>4</duration>
				<voice>1</voice>
				<type>16th</type>
				<accidental>flat</accidental>
				<staff>1</staff>
				<beam number='1'>begin</beam>
				<beam number='2'>begin</beam>
			</note>
			<note>
				<pitch>
					<step>D</step>
					<octave>5</octave>
				</pitch>
				<duration>4</duration>
				<voice>1</voice>
				<type>16th</type>
				<staff>1</staff>
				<beam number='1'>continue</beam>
				<beam number='2'>continue</beam>
			</note>
			<note>
				<pitch>
					<step>C</step>
					<octave>5</octave>
				</pitch>
				<duration>4</duration>
				<voice>1</voice>
				<type>16th</type>
				<staff>1</staff>
				<beam number='1'>continue</beam>
				<beam number='2'>continue</beam>
			</note>
			<note>
				<pitch>
					<step>D</step>
					<octave>5</octave>
				</pitch>
				<duration>4</duration>
				<voice>1</voice>
				<type>16th</type>
				<staff>1</staff>
				<beam number='1'>end</beam>
				<beam number='2'>end</beam>
			</note>
			<note>
				<pitch>
					<step>A</step>
					<alter>-1.0</alter>
					<octave>5</octave>
				</pitch>
				<duration>4</duration>
				<voice>1</voice>
				<type>16th</type>
				<staff>1</staff>
				<beam number='1'>begin</beam>
				<beam number='2'>begin</beam>
			</note>
			<note>
				<pitch>
					<step>D</step>
					<octave>5</octave>
				</pitch>
				<duration>4</duration>
				<voice>1</voice>
				<type>16th</type>
				<staff>1</staff>
				<beam number='1'>continue</beam>
				<beam number='2'>continue</beam>
			</note>
			<note>
				<pitch>
					<step>C</step>
					<octave>5</octave>
				</pitch>
				<duration>4</duration>
				<voice>1</voice>
				<type>16th</type>
				<staff>1</staff>
				<beam number='1'>continue</beam>
				<beam number='2'>continue</beam>
			</note>
			<note>
				<pitch>
					<step>D</step>
					<octave>5</octave>
				</pitch>
				<duration>4</duration>
				<voice>1</voice>
				<type>16th</type>
				<staff>1</staff>
				<beam number='1'>end</beam>
				<beam number='2'>end</beam>
			</note>
			<backup>
				<duration>64</duration>
			</backup>
			<note>
				<pitch>
					<step>A</step>
					<octave>3</octave>
				</pitch>
				<duration>4</duration>
				<voice>5</voice>
				<type>16th</type>
				<staff>2</staff>
				<beam number='1'>begin</beam>
				<beam number='2'>begin</beam>
			</note>
			<note>
				<pitch>
					<step>F</step>
					<alter>1.0</alter>
					<octave>3</octave>
				</pitch>
				<duration>4</duration>
				<voice>5</voice>
				<type>16th</type>
				<accidental>sharp</accidental>
				<staff>2</staff>
				<beam number='1'>continue</beam>
				<beam number='2'>continue</beam>
			</note>
			<note>
				<pitch>
					<step>E</step>
					<octave>3</octave>
				</pitch>
				<duration>4</duration>
				<voice>5</voice>
				<type>16th</type>
				<staff>2</staff>
				<beam number='1'>continue</beam>
				<beam number='2'>continue</beam>
			</note>
			<note>
				<pitch>
					<step>D</step>
					<octave>3</octave>
				</pitch>
				<duration>4</duration>
				<voice>5</voice>
				<type>16th</type>
				<staff>2</staff>
				<beam number='1'>end</beam>
				<beam number='2'>end</beam>
			</note>
			<note>
				<pitch>
					<step>C</step>
					<octave>4</octave>
				</pitch>
				<duration>4</duration>
				<voice>5</voice>
				<type>16th</type>
				<staff>2</staff>
				<beam number='1'>begin</beam>
				<beam number='2'>begin</beam>
			</note>
			<note>
				<pitch>
					<step>D</step>
					<octave>4</octave>
				</pitch>
				<duration>4</duration>
				<voice>5</voice>
				<type>16th</type>
				<staff>2</staff>
				<beam number='1'>continue</beam>
				<beam number='2'>continue</beam>
			</note>
			<note>
				<pitch>
					<step>F</step>
					<alter>1.0</alter>
					<octave>4</octave>
				</pitch>
				<duration>4</duration>
				<voice>5</voice>
				<type>16th</type>
				<accidental>sharp</accidental>
				<staff>2</staff>
				<beam number='1'>continue</beam>
				<beam number='2'>continue</beam>
			</note>
			<note>
				<pitch>
					<step>A</step>
					<alter>-1.0</alter>
					<octave>4</octave>
				</pitch>
				<duration>4</duration>
				<voice>5</voice>
				<type>16th</type>
				<accidental>flat</accidental>
				<staff>2</staff>
				<beam number='1'>end</beam>
				<beam number='2'>end</beam>
			</note>
			<note>
				<pitch>
					<step>F</step>
					<alter>1.0</alter>
					<octave>4</octave>
				</pitch>
				<duration>4</duration>
				<voice>5</voice>
				<type>16th</type>
				<staff>2</staff>
				<beam number='1'>begin</beam>
				<beam number='2'>begin</beam>
			</note>
			<note>
				<pitch>
					<step>D</step>
					<octave>4</octave>
				</pitch>
				<duration>4</duration>
				<voice>5</voice>
				<type>16th</type>
				<staff>2</staff>
				<beam number='1'>continue</beam>
				<beam number='2'>continue</beam>
			</note>
			<note>
				<pitch>
					<step>C</step>
					<octave>4</octave>
				</pitch>
				<duration>4</duration>
				<voice>5</voice>
				<type>16th</type>
				<staff>2</staff>
				<beam number='1'>continue</beam>
				<beam number='2'>continue</beam>
			</note>
			<note>
				<pitch>
					<step>D</step>
					<octave>4</octave>
				</pitch>
				<duration>4</duration>
				<voice>5</voice>
				<type>16th</type>
				<staff>2</staff>
				<beam number='1'>end</beam>
				<beam number='2'>end</beam>
			</note>
			<note>
				<pitch>
					<step>F</step>
					<alter>1.0</alter>
					<octave>4</octave>
				</pitch>
				<duration>4</duration>
				<voice>5</voice>
				<type>16th</type>
				<staff>2</staff>
				<beam number='1'>begin</beam>
				<beam number='2'>begin</beam>
			</note>
			<note>
				<pitch>
					<step>A</step>
					<alter>-1.0</alter>
					<octave>4</octave>
				</pitch>
				<duration>4</duration>
				<voice>5</voice>
				<type>16th</type>
				<staff>2</staff>
				<beam number='1'>continue</beam>
				<beam number='2'>continue</beam>
			</note>
			<note>
				<pitch>
					<step>F</step>
					<alter>1.0</alter>
					<octave>4</octave>
				</pitch>
				<duration>4</duration>
				<voice>5</voice>
				<type>16th</type>
				<staff>2</staff>
				<beam number='1'>continue</beam>
				<beam number='2'>continue</beam>
			</note>
			<note>
				<pitch>
					<step>D</step>
					<octave>4</octave>
				</pitch>
				<duration>4</duration>
				<voice>5</voice>
				<type>16th</type>
				<staff>2</staff>
				<beam number='1'>end</beam>
				<beam number='2'>end</beam>
			</note>
		</measure>
		<!--//////////////////// Part 1 | Measure 12 ////////////////////-->
		<measure number='12'>
			<attributes>
				<divisions>16</divisions>
			</attributes>
			<note>
				<pitch>
					<step>C</step>
					<octave>6</octave>
				</pitch>
				<duration>4</duration>
				<voice>1</voice>
				<type>16th</type>
				<staff>1</staff>
				<beam number='1'>begin</beam>
				<beam number='2'>begin</beam>
			</note>
			<note>
				<pitch>
					<step>D</step>
					<octave>5</octave>
				</pitch>
				<duration>4</duration>
				<voice>1</voice>
				<type>16th</type>
				<staff>1</staff>
				<beam number='1'>continue</beam>
				<beam number='2'>continue</beam>
			</note>
			<note>
				<pitch>
					<step>C</step>
					<octave>5</octave>
				</pitch>
				<duration>4</duration>
				<voice>1</voice>
				<type>16th</type>
				<staff>1</staff>
				<beam number='1'>continue</beam>
				<beam number='2'>continue</beam>
			</note>
			<note>
				<pitch>
					<step>D</step>
					<octave>5</octave>
				</pitch>
				<duration>4</duration>
				<voice>1</voice>
				<type>16th</type>
				<staff>1</staff>
				<beam number='1'>end</beam>
				<beam number='2'>end</beam>
			</note>
			<note>
				<pitch>
					<step>B</step>
					<octave>4</octave>
				</pitch>
				<duration>48</duration>
				<voice>1</voice>
				<type>half</type>
				<dot/>
				<staff>1</staff>
			</note>
			<note>
				<chord/>
				<pitch>
					<step>G</step>
					<octave>5</octave>
				</pitch>
				<duration>48</duration>
				<voice>1</voice>
				<type>half</type>
				<dot/>
				<staff>1</staff>
			</note>
			<backup>
				<duration>64</duration>
			</backup>
			<note>
				<pitch>
					<step>C</step>
					<octave>4</octave>
				</pitch>
				<duration>4</duration>
				<voice>5</voice>
				<type>16th</type>
				<staff>2</staff>
				<beam number='1'>begin</beam>
				<beam number='2'>begin</beam>
			</note>
			<note>
				<pitch>
					<step>D</step>
					<octave>4</octave>
				</pitch>
				<duration>4</duration>
				<voice>5</voice>
				<type>16th</type>
				<staff>2</staff>
				<beam number='1'>continue</beam>
				<beam number='2'>continue</beam>
			</note>
			<note>
				<pitch>
					<step>F</step>
					<alter>1.0</alter>
					<octave>4</octave>
				</pitch>
				<duration>4</duration>
				<voice>5</voice>
				<type>16th</type>
				<accidental>sharp</accidental>
				<staff>2</staff>
				<beam number='1'>continue</beam>
				<beam number='2'>continue</beam>
			</note>
			<note>
				<pitch>
					<step>A</step>
					<alter>-1.0</alter>
					<octave>4</octave>
				</pitch>
				<duration>4</duration>
				<voice>5</voice>
				<type>16th</type>
				<accidental>flat</accidental>
				<staff>2</staff>
				<beam number='1'>end</beam>
				<beam number='2'>end</beam>
			</note>
			<note>
				<pitch>
					<step>A</step>
					<alter>-1.0</alter>
					<octave>3</octave>
				</pitch>
				<duration>48</duration>
				<voice>5</voice>
				<type>half</type>
				<dot/>
				<accidental>flat</accidental>
				<staff>2</staff>
			</note>
			<note>
				<chord/>
				<pitch>
					<step>B</step>
					<octave>3</octave>
				</pitch>
				<duration>48</duration>
				<voice>5</voice>
				<type>half</type>
				<dot/>
				<staff>2</staff>
			</note>
			<note>
				<chord/>
				<pitch>
					<step>E</step>
					<alter>-1.0</alter>
					<octave>4</octave>
				</pitch>
				<duration>48</duration>
				<voice>5</voice>
				<type>half</type>
				<dot/>
				<accidental>flat</accidental>
				<staff>2</staff>
			</note>
			<note>
				<chord/>
				<pitch>
					<step>F</step>
					<octave>4</octave>
				</pitch>
				<duration>48</duration>
				<voice>5</voice>
				<type>half</type>
				<dot/>
				<accidental>natural</accidental>
				<staff>2</staff>
			</note>
			<attributes>
				<clef>
					<sign>F</sign>
					<line>4</line>
				</clef>
			</attributes>
		</measure>
		<!--//////////////////// Part 1 | Measure 13 ////////////////////-->
		<measure number='13'>
			<attributes>
				<divisions>16</divisions>
			</attributes>
			<direction>
				<direction-type>
					<metronome default-y='20'>
						<beat-unit>quarter</beat-unit>
						<per-minute>90</per-minute>
					</metronome>
				</direction-type>
				<sound tempo='90'/>
			</direction>
			<note>
				<pitch>
					<step>A</step>
					<alter>-1.0</alter>
					<octave>4</octave>
				</pitch>
				<duration>4</duration>
				<voice>1</voice>
				<type>16th</type>
				<accidental>flat</accidental>
				<staff>1</staff>
				<beam number='1'>begin</beam>
				<beam number='2'>begin</beam>
				<notations>
					<dynamics default-y='-70'>
					<pp/>
					</dynamics>
				</notations>
			</note>
			<note>
				<pitch>
					<step>D</step>
					<octave>4</octave>
				</pitch>
				<duration>4</duration>
				<voice>1</voice>
				<type>16th</type>
				<staff>1</staff>
				<beam number='1'>continue</beam>
				<beam number='2'>continue</beam>
			</note>
			<note>
				<pitch>
					<step>C</step>
					<octave>4</octave>
				</pitch>
				<duration>4</duration>
				<voice>1</voice>
				<type>16th</type>
				<staff>1</staff>
				<beam number='1'>continue</beam>
				<beam number='2'>continue</beam>
			</note>
			<note>
				<pitch>
					<step>D</step>
					<octave>4</octave>
				</pitch>
				<duration>4</duration>
				<voice>1</voice>
				<type>16th</type>
				<staff>1</staff>
				<beam number='1'>end</beam>
				<beam number='2'>end</beam>
			</note>
			<note>
				<pitch>
					<step>A</step>
					<alter>-1.0</alter>
					<octave>3</octave>
				</pitch>
				<duration>4</duration>
				<voice>1</voice>
				<type>16th</type>
				<accidental>flat</accidental>
				<staff>1</staff>
				<beam number='1'>begin</beam>
				<beam number='2'>begin</beam>
			</note>
			<note>
				<pitch>
					<step>D</step>
					<octave>4</octave>
				</pitch>
				<duration>4</duration>
				<voice>1</voice>
				<type>16th</type>
				<staff>1</staff>
				<beam number='1'>continue</beam>
				<beam number='2'>continue</beam>
			</note>
			<note>
				<pitch>
					<step>C</step>
					<octave>4</octave>
				</pitch>
				<duration>4</duration>
				<voice>1</voice>
				<type>16th</type>
				<staff>1</staff>
				<beam number='1'>continue</beam>
				<beam number='2'>continue</beam>
			</note>
			<note>
				<pitch>
					<step>D</step>
					<octave>4</octave>
				</pitch>
				<duration>4</duration>
				<voice>1</voice>
				<type>16th</type>
				<staff>1</staff>
				<beam number='1'>end</beam>
				<beam number='2'>end</beam>
			</note>
			<note>
				<pitch>
					<step>A</step>
					<alter>-1.0</alter>
					<octave>4</octave>
				</pitch>
				<duration>4</duration>
				<voice>1</voice>
				<type>16th</type>
				<staff>1</staff>
				<beam number='1'>begin</beam>
				<beam number='2'>begin</beam>
			</note>
			<note>
				<pitch>
					<step>D</step>
					<octave>4</octave>
				</pitch>
				<duration>4</duration>
				<voice>1</voice>
				<type>16th</type>
				<staff>1</staff>
				<beam number='1'>continue</beam>
				<beam number='2'>continue</beam>
			</note>
			<note>
				<pitch>
					<step>C</step>
					<octave>4</octave>
				</pitch>
				<duration>4</duration>
				<voice>1</voice>
				<type>16th</type>
				<staff>1</staff>
				<beam number='1'>continue</beam>
				<beam number='2'>continue</beam>
			</note>
			<note>
				<pitch>
					<step>D</step>
					<octave>4</octave>
				</pitch>
				<duration>4</duration>
				<voice>1</voice>
				<type>16th</type>
				<staff>1</staff>
				<beam number='1'>end</beam>
				<beam number='2'>end</beam>
			</note>
			<note>
				<pitch>
					<step>C</step>
					<octave>5</octave>
				</pitch>
				<duration>4</duration>
				<voice>1</voice>
				<type>16th</type>
				<staff>1</staff>
				<beam number='1'>begin</beam>
				<beam number='2'>begin</beam>
			</note>
			<note>
				<pitch>
					<step>D</step>
					<octave>4</octave>
				</pitch>
				<duration>4</duration>
				<voice>1</voice>
				<type>16th</type>
				<staff>1</staff>
				<beam number='1'>continue</beam>
				<beam number='2'>continue</beam>
			</note>
			<note>
				<pitch>
					<step>C</step>
					<octave>4</octave>
				</pitch>
				<duration>4</duration>
				<voice>1</voice>
				<type>16th</type>
				<staff>1</staff>
				<beam number='1'>continue</beam>
				<beam number='2'>continue</beam>
			</note>
			<note>
				<pitch>
					<step>D</step>
					<octave>4</octave>
				</pitch>
				<duration>4</duration>
				<voice>1</voice>
				<type>16th</type>
				<staff>1</staff>
				<beam number='1'>end</beam>
				<beam number='2'>end</beam>
			</note>
			<backup>
				<duration>64</duration>
			</backup>
			<note>
				<pitch>
					<step>C</step>
					<octave>3</octave>
				</pitch>
				<duration>4</duration>
				<voice>5</voice>
				<type>16th</type>
				<staff>2</staff>
				<beam number='1'>begin</beam>
				<beam number='2'>begin</beam>
			</note>
			<note>
				<pitch>
					<step>D</step>
					<octave>3</octave>
				</pitch>
				<duration>4</duration>
				<voice>5</voice>
				<type>16th</type>
				<staff>2</staff>
				<beam number='1'>continue</beam>
				<beam number='2'>continue</beam>
			</note>
			<note>
				<pitch>
					<step>F</step>
					<alter>1.0</alter>
					<octave>3</octave>
				</pitch>
				<duration>4</duration>
				<voice>5</voice>
				<type>16th</type>
				<accidental>sharp</accidental>
				<staff>2</staff>
				<beam number='1'>continue</beam>
				<beam number='2'>continue</beam>
			</note>
			<note>
				<pitch>
					<step>A</step>
					<alter>-1.0</alter>
					<octave>3</octave>
				</pitch>
				<duration>4</duration>
				<voice>5</voice>
				<type>16th</type>
				<accidental>flat</accidental>
				<staff>2</staff>
				<beam number='1'>end</beam>
				<beam number='2'>end</beam>
			</note>
			<note>
				<pitch>
					<step>F</step>
					<alter>1.0</alter>
					<octave>3</octave>
				</pitch>
				<duration>4</duration>
				<voice>5</voice>
				<type>16th</type>
				<staff>2</staff>
				<beam number='1'>begin</beam>
				<beam number='2'>begin</beam>
			</note>
			<note>
				<pitch>
					<step>D</step>
					<octave>3</octave>
				</pitch>
				<duration>4</duration>
				<voice>5</voice>
				<type>16th</type>
				<staff>2</staff>
				<beam number='1'>continue</beam>
				<beam number='2'>continue</beam>
			</note>
			<note>
				<pitch>
					<step>C</step>
					<octave>3</octave>
				</pitch>
				<duration>4</duration>
				<voice>5</voice>
				<type>16th</type>
				<staff>2</staff>
				<beam number='1'>continue</beam>
				<beam number='2'>continue</beam>
			</note>
			<note>
				<pitch>
					<step>D</step>
					<octave>3</octave>
				</pitch>
				<duration>4</duration>
				<voice>5</voice>
				<type>16th</type>
				<staff>2</staff>
				<beam number='1'>end</beam>
				<beam number='2'>end</beam>
			</note>
			<note>
				<pitch>
					<step>F</step>
					<alter>1.0</alter>
					<octave>3</octave>
				</pitch>
				<duration>4</duration>
				<voice>5</voice>
				<type>16th</type>
				<staff>2</staff>
				<beam number='1'>begin</beam>
				<beam number='2'>begin</beam>
			</note>
			<note>
				<pitch>
					<step>A</step>
					<alter>-1.0</alter>
					<octave>3</octave>
				</pitch>
				<duration>4</duration>
				<voice>5</voice>
				<type>16th</type>
				<staff>2</staff>
				<beam number='1'>continue</beam>
				<beam number='2'>continue</beam>
			</note>
			<note>
				<pitch>
					<step>F</step>
					<alter>1.0</alter>
					<octave>3</octave>
				</pitch>
				<duration>4</duration>
				<voice>5</voice>
				<type>16th</type>
				<staff>2</staff>
				<beam number='1'>continue</beam>
				<beam number='2'>continue</beam>
			</note>
			<note>
				<pitch>
					<step>D</step>
					<octave>3</octave>
				</pitch>
				<duration>4</duration>
				<voice>5</voice>
				<type>16th</type>
				<staff>2</staff>
				<beam number='1'>end</beam>
				<beam number='2'>end</beam>
			</note>
			<note>
				<pitch>
					<step>C</step>
					<octave>3</octave>
				</pitch>
				<duration>4</duration>
				<voice>5</voice>
				<type>16th</type>
				<staff>2</staff>
				<beam number='1'>begin</beam>
				<beam number='2'>begin</beam>
			</note>
			<note>
				<pitch>
					<step>D</step>
					<octave>3</octave>
				</pitch>
				<duration>4</duration>
				<voice>5</voice>
				<type>16th</type>
				<staff>2</staff>
				<beam number='1'>continue</beam>
				<beam number='2'>continue</beam>
			</note>
			<note>
				<pitch>
					<step>F</step>
					<alter>1.0</alter>
					<octave>3</octave>
				</pitch>
				<duration>4</duration>
				<voice>5</voice>
				<type>16th</type>
				<staff>2</staff>
				<beam number='1'>continue</beam>
				<beam number='2'>continue</beam>
			</note>
			<note>
				<pitch>
					<step>A</step>
					<alter>-1.0</alter>
					<octave>3</octave>
				</pitch>
				<duration>4</duration>
				<voice>5</voice>
				<type>16th</type>
				<staff>2</staff>
				<beam number='1'>end</beam>
				<beam number='2'>end</beam>
			</note>
		</measure>
		<!--//////////////////// Part 1 | Measure 14 ////////////////////-->
		<measure number='14'>
			<attributes>
				<divisions>4</divisions>
			</attributes>
			<note>
				<pitch>
					<step>B</step>
					<octave>3</octave>
				</pitch>
				<duration>12</duration>
				<voice>1</voice>
				<type>half</type>
				<dot/>
				<staff>1</staff>
			</note>
			<note>
				<chord/>
				<pitch>
					<step>G</step>
					<octave>4</octave>
				</pitch>
				<duration>12</duration>
				<voice>1</voice>
				<type>half</type>
				<dot/>
				<staff>1</staff>
			</note>
			<backup>
				<duration>12</duration>
			</backup>
			<note>
				<pitch>
					<step>A</step>
					<alter>-1.0</alter>
					<octave>2</octave>
				</pitch>
				<duration>12</duration>
				<voice>5</voice>
				<type>half</type>
				<dot/>
				<accidental>flat</accidental>
				<staff>2</staff>
			</note>
			<note>
				<chord/>
				<pitch>
					<step>F</step>
					<octave>3</octave>
				</pitch>
				<duration>12</duration>
				<voice>5</voice>
				<type>half</type>
				<dot/>
				<staff>2</staff>
			</note>
		</measure>
		<!--//////////////////// Part 1 | Measure 15 ////////////////////-->
		<measure number='15'>
			<attributes>
				<divisions>4</divisions>
			</attributes>
			<note print-object='no'>
				<rest/>
				<duration>16</duration>
				<voice>1</voice>
				<type>whole</type>
				<staff>1</staff>
			</note>
		</measure>
		<!--//////////////////// Part 1 | Measure 16 ////////////////////-->
		<measure number='16'>
			<attributes>
				<divisions>4</divisions>
			</attributes>
			<note print-object='no'>
				<rest/>
				<duration>16</duration>
				<voice>1</voice>
				<type>whole</type>
				<staff>1</staff>
			</note>
		</measure>
		<!--//////////////////// Part 1 | Measure 17 ////////////////////-->
		<measure number='17'>
			<attributes>
				<divisions>4</divisions>
			</attributes>
			<note print-object='no'>
				<rest/>
				<duration>16</duration>
				<voice>1</voice>
				<type>whole</type>
				<staff>1</staff>
			</note>
		</measure>
		<!--//////////////////// Part 1 | Measure 18 ////////////////////-->
		<measure number='18'>
			<attributes>
				<divisions>4</divisions>
			</attributes>
			<note print-object='no'>
				<rest/>
				<duration>16</duration>
				<voice>1</voice>
				<type>whole</type>
				<staff>1</staff>
			</note>
		</measure>
		<!--//////////////////// Part 1 | Measure 19 ////////////////////-->
		<measure number='19'>
			<attributes>
				<divisions>4</divisions>
			</attributes>
			<note print-object='no'>
				<rest/>
				<duration>16</duration>
				<voice>1</voice>
				<type>whole</type>
				<staff>1</staff>
			</note>
		</measure>
		<!--//////////////////// Part 1 | Measure 20 ////////////////////-->
		<measure number='20'>
			<attributes>
				<divisions>4</divisions>
			</attributes>
			<note print-object='no'>
				<rest/>
				<duration>16</duration>
				<voice>1</voice>
				<type>whole</type>
				<staff>1</staff>
			</note>
		</measure>
		<!--//////////////////// Part 1 | Measure 21 ////////////////////-->
		<measure number='21'>
			<attributes>
				<divisions>4</divisions>
			</attributes>
			<note print-object='no'>
				<rest/>
				<duration>16</duration>
				<voice>1</voice>
				<type>whole</type>
				<staff>1</staff>
			</note>
		</measure>
		<!--//////////////////// Part 1 | Measure 22 ////////////////////-->
		<measure number='22'>
			<attributes>
				<divisions>4</divisions>
			</attributes>
			<note print-object='no'>
				<rest/>
				<duration>16</duration>
				<voice>1</voice>
				<type>whole</type>
				<staff>1</staff>
			</note>
		</measure>
		<!--//////////////////// Part 1 | Measure 23 ////////////////////-->
		<measure number='23'>
			<attributes>
				<divisions>4</divisions>
			</attributes>
			<note print-object='no'>
				<rest/>
				<duration>16</duration>
				<voice>1</voice>
				<type>whole</type>
				<staff>1</staff>
			</note>
		</measure>
		<!--//////////////////// Part 1 | Measure 24 ////////////////////-->
		<measure number='24'>
			<attributes>
				<divisions>4</divisions>
			</attributes>
			<note print-object='no'>
				<rest/>
				<duration>16</duration>
				<voice>1</voice>
				<type>whole</type>
				<staff>1</staff>
			</note>
		</measure>
		<!--//////////////////// Part 1 | Measure 25 ////////////////////-->
		<measure number='25'>
			<attributes>
				<divisions>4</divisions>
			</attributes>
			<note print-object='no'>
				<rest/>
				<duration>16</duration>
				<voice>1</voice>
				<type>whole</type>
				<staff>1</staff>
			</note>
		</measure>
		<!--//////////////////// Part 1 | Measure 26 ////////////////////-->
		<measure number='26'>
			<attributes>
				<divisions>4</divisions>
			</attributes>
			<note print-object='no'>
				<rest/>
				<duration>16</duration>
				<voice>1</voice>
				<type>whole</type>
				<staff>1</staff>
			</note>
		</measure>
		<!--//////////////////// Part 1 | Measure 27 ////////////////////-->
		<measure number='27'>
			<attributes>
				<divisions>4</divisions>
			</attributes>
			<note print-object='no'>
				<rest/>
				<duration>16</duration>
				<voice>1</voice>
				<type>whole</type>
				<staff>1</staff>
			</note>
			<barline location='right'>
				<bar-style>light-heavy</bar-style>
			</barline>
		</measure>
	</part>
</score-partwise>
