<?xml version='1.0' encoding='UTF-8'?>
<!DOCTYPE score-partwise PUBLIC 
    "-//Recordare//DTD MusicXML 1.1 Partwise//EN" 
    "http://www.musicxml.org/dtds/partwise.dtd">
<score-partwise version='1.1'>
  <work>
    <work-title>Symphony 2 - 1</work-title>
  </work>
  <identification>
    <creator type='composer'>Peter de Vocht</creator>
    <encoding>
      <software>Notion 4.0</software>
    </encoding>
  </identification>
  <defaults>
    <scaling>
      <millimeters>3.9934</millimeters>
      <tenths>40</tenths>
    </scaling>
    <page-layout>
      <page-height>4200</page-height>
      <page-width>2969</page-width>
      <page-margins type='both'>
        <left-margin>159</left-margin>
        <right-margin>159</right-margin>
        <top-margin>190</top-margin>
        <bottom-margin>159</bottom-margin>
      </page-margins>
    </page-layout>
  </defaults>
  <part-list>
    <score-part id='P1'>
      <part-name>Piccolo</part-name>
      <score-instrument id='P1-I1'>
        <instrument-name>Piccolo</instrument-name>
      </score-instrument>
      <midi-instrument id='P1-I1'>
        <midi-channel>1</midi-channel>
      </midi-instrument>
    </score-part>
    <score-part id='P2'>
      <part-name>Flute</part-name>
      <score-instrument id='P2-I1'>
        <instrument-name>Flute</instrument-name>
      </score-instrument>
      <midi-instrument id='P2-I1'>
        <midi-channel>2</midi-channel>
      </midi-instrument>
    </score-part>
    <score-part id='P3'>
      <part-name>Oboe</part-name>
      <score-instrument id='P3-I1'>
        <instrument-name>Oboe</instrument-name>
      </score-instrument>
      <midi-instrument id='P3-I1'>
        <midi-channel>3</midi-channel>
      </midi-instrument>
    </score-part>
    <score-part id='P4'>
      <part-name>Clarinet</part-name>
      <score-instrument id='P4-I1'>
        <instrument-name>Clarinet</instrument-name>
      </score-instrument>
      <midi-instrument id='P4-I1'>
        <midi-channel>4</midi-channel>
      </midi-instrument>
    </score-part>
    <score-part id='P5'>
      <part-name>Bassoon</part-name>
      <score-instrument id='P5-I1'>
        <instrument-name>Bassoon</instrument-name>
      </score-instrument>
      <midi-instrument id='P5-I1'>
        <midi-channel>5</midi-channel>
      </midi-instrument>
    </score-part>
    <score-part id='P6'>
      <part-name>Horn</part-name>
      <score-instrument id='P6-I1'>
        <instrument-name>Horn</instrument-name>
      </score-instrument>
      <midi-instrument id='P6-I1'>
        <midi-channel>6</midi-channel>
      </midi-instrument>
    </score-part>
    <score-part id='P7'>
      <part-name>Trumpet</part-name>
      <score-instrument id='P7-I1'>
        <instrument-name>Trumpet</instrument-name>
      </score-instrument>
      <midi-instrument id='P7-I1'>
        <midi-channel>7</midi-channel>
      </midi-instrument>
    </score-part>
    <score-part id='P8'>
      <part-name>Trombone</part-name>
      <score-instrument id='P8-I1'>
        <instrument-name>Trombone</instrument-name>
      </score-instrument>
      <midi-instrument id='P8-I1'>
        <midi-channel>8</midi-channel>
      </midi-instrument>
    </score-part>
    <score-part id='P9'>
      <part-name>Tuba</part-name>
      <score-instrument id='P9-I1'>
        <instrument-name>Tuba</instrument-name>
      </score-instrument>
      <midi-instrument id='P9-I1'>
        <midi-channel>9</midi-channel>
      </midi-instrument>
    </score-part>
    <score-part id='P10'>
      <part-name>Timpani</part-name>
      <score-instrument id='P10-I1'>
        <instrument-name>Timpani</instrument-name>
      </score-instrument>
      <midi-instrument id='P10-I1'>
        <midi-channel>11</midi-channel>
      </midi-instrument>
    </score-part>
    <score-part id='P11'>
      <part-name>Snare Drum</part-name>
      <score-instrument id='P11-I1'>
        <instrument-name>Snare Drum</instrument-name>
      </score-instrument>
      <midi-instrument id='P11-I1'>
        <midi-channel>12</midi-channel>
      </midi-instrument>
    </score-part>
    <score-part id='P12'>
      <part-name>Tubular Bells</part-name>
      <score-instrument id='P12-I1'>
        <instrument-name>Tubular Bells</instrument-name>
      </score-instrument>
      <midi-instrument id='P12-I1'>
        <midi-channel>13</midi-channel>
      </midi-instrument>
    </score-part>
    <score-part id='P13'>
      <part-name>Gong</part-name>
      <score-instrument id='P13-I1'>
        <instrument-name>Gong</instrument-name>
      </score-instrument>
      <midi-instrument id='P13-I1'>
        <midi-channel>14</midi-channel>
      </midi-instrument>
    </score-part>
    <score-part id='P14'>
      <part-name>Glockenspiel</part-name>
      <score-instrument id='P14-I1'>
        <instrument-name>Glockenspiel</instrument-name>
      </score-instrument>
      <midi-instrument id='P14-I1'>
        <midi-channel>15</midi-channel>
      </midi-instrument>
    </score-part>
    <score-part id='P15'>
      <part-name>Celesta</part-name>
      <score-instrument id='P15-I1'>
        <instrument-name>Celesta</instrument-name>
      </score-instrument>
      <midi-instrument id='P15-I1'>
        <midi-channel>16</midi-channel>
      </midi-instrument>
    </score-part>
    <score-part id='P16'>
      <part-name>Violin I</part-name>
      <score-instrument id='P16-I1'>
        <instrument-name>Violin I</instrument-name>
      </score-instrument>
      <midi-instrument id='P16-I1'>
        <midi-channel>16</midi-channel>
      </midi-instrument>
    </score-part>
    <score-part id='P17'>
      <part-name>Violin II</part-name>
      <score-instrument id='P17-I1'>
        <instrument-name>Violin II</instrument-name>
      </score-instrument>
      <midi-instrument id='P17-I1'>
        <midi-channel>16</midi-channel>
      </midi-instrument>
    </score-part>
    <score-part id='P18'>
      <part-name>Viola</part-name>
      <score-instrument id='P18-I1'>
        <instrument-name>Viola</instrument-name>
      </score-instrument>
      <midi-instrument id='P18-I1'>
        <midi-channel>16</midi-channel>
      </midi-instrument>
    </score-part>
    <score-part id='P19'>
      <part-name>Violoncello</part-name>
      <score-instrument id='P19-I1'>
        <instrument-name>Violoncello</instrument-name>
      </score-instrument>
      <midi-instrument id='P19-I1'>
        <midi-channel>16</midi-channel>
      </midi-instrument>
    </score-part>
    <score-part id='P20'>
      <part-name>Double Bass</part-name>
      <score-instrument id='P20-I1'>
        <instrument-name>Double Bass</instrument-name>
      </score-instrument>
      <midi-instrument id='P20-I1'>
        <midi-channel>16</midi-channel>
      </midi-instrument>
    </score-part>
  </part-list>
  <part id='P1'>
    <measure number='1'>
      <attributes>
        <divisions>8</divisions>
        <key><fifths>0</fifths><mode>major</mode></key>
        <time><beats>4</beats><beat-type>4</beat-type></time>
        <staves>1</staves>
        <clef number='1'><sign>G</sign><line>2</line></clef>
        <transpose>
          <diatonic>7</diatonic>
          <chromatic>12</chromatic>
        </transpose>
      </attributes>
      <note print-object='no'>
        <rest/>
        <duration>32</duration>
        <type>whole</type>
      </note>
    </measure>
    <measure number='2'>
      <attributes>
        <divisions>8</divisions>
      </attributes>
      <note print-object='no'>
        <rest/>
        <duration>32</duration>
        <type>whole</type>
      </note>
    </measure>
    <measure number='3'>
      <attributes>
        <divisions>8</divisions>
      </attributes>
      <note print-object='no'>
        <rest/>
        <duration>32</duration>
        <type>whole</type>
      </note>
    </measure>
    <measure number='4'>
      <attributes>
        <divisions>8</divisions>
      </attributes>
      <note print-object='no'>
        <rest/>
        <duration>32</duration>
        <type>whole</type>
      </note>
    </measure>
    <measure number='5'>
      <attributes>
        <divisions>8</divisions>
      </attributes>
      <note print-object='no'>
        <rest/>
        <duration>32</duration>
        <type>whole</type>
      </note>
    </measure>
    <measure number='6'>
      <attributes>
        <divisions>8</divisions>
      </attributes>
      <note print-object='no'>
        <rest/>
        <duration>32</duration>
        <type>whole</type>
      </note>
    </measure>
    <measure number='7'>
      <attributes>
        <divisions>8</divisions>
      </attributes>
      <note>
        <pitch><step>G</step><alter>1.0</alter><octave>5</octave></pitch>
        <duration>4</duration>
        <voice>1</voice>
        <type>eighth</type>
        <accidental>sharp</accidental>
        <staff>1</staff>
        <notations>
          <dynamics default-y='-70'><f/></dynamics>
        </notations>
      </note>
      <note>
        <pitch><step>B</step><alter>-1.0</alter><octave>5</octave></pitch>
        <duration>4</duration>
        <voice>1</voice>
        <type>eighth</type>
        <accidental>flat</accidental>
        <staff>1</staff>
      </note>
      <note>
        <pitch><step>B</step><alter>0.0</alter><octave>4</octave></pitch>
        <duration>4</duration>
        <voice>1</voice>
        <type>eighth</type>
        <staff>1</staff>
      </note>
      <note>
        <pitch><step>C</step><alter>0.0</alter><octave>5</octave></pitch>
        <duration>4</duration>
        <voice>1</voice>
        <type>eighth</type>
        <staff>1</staff>
      </note>
      <note>
        <pitch><step>D</step><alter>0.0</alter><octave>5</octave></pitch>
        <duration>4</duration>
        <voice>1</voice>
        <type>eighth</type>
        <staff>1</staff>
      </note>
      <note>
        <pitch><step>E</step><alter>0.0</alter><octave>5</octave></pitch>
        <duration>4</duration>
        <voice>1</voice>
        <type>eighth</type>
        <staff>1</staff>
      </note>
      <note>
        <pitch><step>F</step><alter>0.0</alter><octave>5</octave></pitch>
        <duration>4</duration>
        <voice>1</voice>
        <type>eighth</type>
        <staff>1</staff>
      </note>
      <note>
        <pitch><step>F</step><alter>1.0</alter><octave>5</octave></pitch>
        <duration>4</duration>
        <voice>1</voice>
        <type>eighth</type>
        <accidental>sharp</accidental>
        <staff>1</staff>
      </note>
    </measure>
    <measure number='8'>
      <attributes>
        <divisions>8</divisions>
      </attributes>
      <note>
        <pitch><step>G</step><alter>1.0</alter><octave>5</octave></pitch>
        <duration>4</duration>
        <voice>1</voice>
        <type>eighth</type>
        <accidental>sharp</accidental>
        <staff>1</staff>
      </note>
      <note>
        <pitch><step>B</step><alter>-1.0</alter><octave>5</octave></pitch>
        <duration>4</duration>
        <voice>1</voice>
        <type>eighth</type>
        <accidental>flat</accidental>
        <staff>1</staff>
      </note>
      <note>
        <pitch><step>C</step><alter>0.0</alter><octave>5</octave></pitch>
        <duration>24</duration>
        <voice>1</voice>
        <type>half</type>
        <dot/>
        <staff>1</staff>
      </note>
      <barline location='right'>
        <bar-style>light-heavy</bar-style>
      </barline>
    </measure>
  </part>
  <part id='P2'>
    <measure number='1'>
      <attributes>
        <divisions>8</divisions>
        <key><fifths>0</fifths><mode>major</mode></key>
        <time><beats>4</beats><beat-type>4</beat-type></time>
        <staves>1</staves>
        <clef number='1'><sign>G</sign><line>2</line></clef>
      </attributes>
      <note>
        <pitch><step>C</step><alter>1.0</alter><octave>5</octave></pitch>
        <duration>4</duration>
        <voice>1</voice>
        <type>eighth</type>
        <accidental>sharp</accidental>
        <staff>1</staff>
        <notations>
          <dynamics default-y='-70'><f/></dynamics>
        </notations>
      </note>
      <note>
        <pitch><step>F</step><alter>0.0</alter><octave>5</octave></pitch>
        <duration>4</duration>
        <voice>1</voice>
        <type>eighth</type>
        <staff>1</staff>
      </note>
      <note>
        <pitch><step>B</step><alter>-1.0</alter><octave>5</octave></pitch>
        <duration>4</duration>
        <voice>1</voice>
        <type>eighth</type>
        <accidental>flat</accidental>
        <staff>1</staff>
      </note>
      <note>
        <pitch><step>G</step><alter>1.0</alter><octave>5</octave></pitch>
        <duration>4</duration>
        <voice>1</voice>
        <type>eighth</type>
        <accidental>sharp</accidental>
        <staff>1</staff>
      </note>
      <note>
        <pitch><step>G</step><alter>0.0</alter><octave>5</octave></pitch>
        <duration>4</duration>
        <voice>1</voice>
        <type>eighth</type>
        <accidental>natural</accidental>
        <staff>1</staff>
      </note>
      <note>
        <pitch><step>E</step><alter>-1.0</alter><octave>5</octave></pitch>
        <duration>4</duration>
        <voice>1</voice>
        <type>eighth</type>
        <accidental>flat</accidental>
        <staff>1</staff>
      </note>
      <note>
        <pitch><step>G</step><alter>0.0</alter><octave>5</octave></pitch>
        <duration>4</duration>
        <voice>1</voice>
        <type>eighth</type>
        <staff>1</staff>
      </note>
      <note>
        <pitch><step>B</step><alter>-1.0</alter><octave>5</octave></pitch>
        <duration>4</duration>
        <voice>1</voice>
        <type>eighth</type>
        <staff>1</staff>
      </note>
    </measure>
    <measure number='2'>
      <attributes>
        <divisions>8</divisions>
      </attributes>
      <note>
        <pitch><step>C</step><alter>1.0</alter><octave>5</octave></pitch>
        <duration>4</duration>
        <voice>1</voice>
        <type>eighth</type>
        <accidental>sharp</accidental>
        <staff>1</staff>
      </note>
      <note>
        <pitch><step>F</step><alter>0.0</alter><octave>5</octave></pitch>
        <duration>4</duration>
        <voice>1</voice>
        <type>eighth</type>
        <staff>1</staff>
      </note>
      <note>
        <pitch><step>B</step><alter>-1.0</alter><octave>5</octave></pitch>
        <duration>4</duration>
        <voice>1</voice>
        <type>eighth</type>
        <accidental>flat</accidental>
        <staff>1</staff>
      </note>
      <note>
        <pitch><step>G</step><alter>1.0</alter><octave>5</octave></pitch>
        <duration>4</duration>
        <voice>1</voice>
        <type>eighth</type>
        <accidental>sharp</accidental>
        <staff>1</staff>
      </note>
      <note>
        <pitch><step>G</step><alter>0.0</alter><octave>5</octave></pitch>
        <duration>4</duration>
        <voice>1</voice>
        <type>eighth</type>
        <accidental>natural</accidental>
        <staff>1</staff>
      </note>
      <note>
        <pitch><step>E</step><alter>-1.0</alter><octave>5</octave></pitch>
        <duration>4</duration>
        <voice>1</voice>
        <type>eighth</type>
        <accidental>flat</accidental>
        <staff>1</staff>
      </note>
      <note>
        <pitch><step>G</step><alter>0.0</alter><octave>5</octave></pitch>
        <duration>4</duration>
        <voice>1</voice>
        <type>eighth</type>
        <staff>1</staff>
      </note>
      <note>
        <pitch><step>B</step><alter>-1.0</alter><octave>5</octave></pitch>
        <duration>4</duration>
        <voice>1</voice>
        <type>eighth</type>
        <staff>1</staff>
      </note>
    </measure>
    <measure number='3'>
      <attributes>
        <divisions>8</divisions>
      </attributes>
      <note>
        <pitch><step>C</step><alter>1.0</alter><octave>5</octave></pitch>
        <duration>4</duration>
        <voice>1</voice>
        <type>eighth</type>
        <accidental>sharp</accidental>
        <staff>1</staff>
      </note>
      <note>
        <pitch><step>F</step><alter>0.0</alter><octave>5</octave></pitch>
        <duration>4</duration>
        <voice>1</voice>
        <type>eighth</type>
        <staff>1</staff>
      </note>
      <note>
        <pitch><step>C</step><alter>0.0</alter><octave>6</octave></pitch>
        <duration>4</duration>
        <voice>1</voice>
        <type>eighth</type>
        <staff>1</staff>
      </note>
      <note>
        <pitch><step>B</step><alter>-1.0</alter><octave>5</octave></pitch>
        <duration>4</duration>
        <voice>1</voice>
        <type>eighth</type>
        <accidental>flat</accidental>
        <staff>1</staff>
      </note>
      <note>
        <pitch><step>C</step><alter>0.0</alter><octave>6</octave></pitch>
        <duration>4</duration>
        <voice>1</voice>
        <type>eighth</type>
        <staff>1</staff>
      </note>
      <note>
        <pitch><step>C</step><alter>1.0</alter><octave>6</octave></pitch>
        <duration>4</duration>
        <voice>1</voice>
        <type>eighth</type>
        <accidental>sharp</accidental>
        <staff>1</staff>
      </note>
      <note>
        <pitch><step>C</step><alter>0.0</alter><octave>6</octave></pitch>
        <duration>4</duration>
        <voice>1</voice>
        <type>eighth</type>
        <accidental>natural</accidental>
        <staff>1</staff>
      </note>
      <note>
        <pitch><step>B</step><alter>-1.0</alter><octave>5</octave></pitch>
        <duration>4</duration>
        <voice>1</voice>
        <type>eighth</type>
        <staff>1</staff>
      </note>
    </measure>
    <measure number='4'>
      <attributes>
        <divisions>8</divisions>
      </attributes>
      <note>
        <pitch><step>C</step><alter>0.0</alter><octave>6</octave></pitch>
        <duration>4</duration>
        <voice>1</voice>
        <type>eighth</type>
        <staff>1</staff>
      </note>
      <note>
        <pitch><step>G</step><alter>0.0</alter><octave>5</octave></pitch>
        <duration>4</duration>
        <voice>1</voice>
        <type>eighth</type>
        <staff>1</staff>
      </note>
      <note>
        <pitch><step>B</step><alter>-1.0</alter><octave>5</octave></pitch>
        <duration>4</duration>
        <voice>1</voice>
        <type>eighth</type>
        <accidental>flat</accidental>
        <staff>1</staff>
      </note>
      <note>
        <pitch><step>G</step><alter>1.0</alter><octave>5</octave></pitch>
        <duration>4</duration>
        <voice>1</voice>
        <type>eighth</type>
        <accidental>sharp</accidental>
        <staff>1</staff>
      </note>
      <note>
        <pitch><step>B</step><alter>-1.0</alter><octave>5</octave></pitch>
        <duration>4</duration>
        <voice>1</voice>
        <type>eighth</type>
        <staff>1</staff>
      </note>
      <note>
        <pitch><step>C</step><alter>0.0</alter><octave>6</octave></pitch>
        <duration>4</duration>
        <voice>1</voice>
        <type>eighth</type>
        <staff>1</staff>
      </note>
      <note>
        <pitch><step>C</step><alter>1.0</alter><octave>6</octave></pitch>
        <duration>4</duration>
        <voice>1</voice>
        <type>eighth</type>
        <accidental>sharp</accidental>
        <staff>1</staff>
      </note>
      <note>
        <pitch><step>C</step><alter>0.0</alter><octave>6</octave></pitch>
        <duration>4</duration>
        <voice>1</voice>
        <type>eighth</type>
        <accidental>natural</accidental>
        <staff>1</staff>
      </note>
    </measure>
    <measure number='5'>
      <attributes>
        <divisions>8</divisions>
      </attributes>
      <note>
        <pitch><step>B</step><alter>-1.0</alter><octave>5</octave></pitch>
        <duration>4</duration>
        <voice>1</voice>
        <type>eighth</type>
        <accidental>flat</accidental>
        <staff>1</staff>
      </note>
      <note>
        <pitch><step>F</step><alter>0.0</alter><octave>5</octave></pitch>
        <duration>4</duration>
        <voice>1</voice>
        <type>eighth</type>
        <staff>1</staff>
      </note>
      <note>
        <pitch><step>G</step><alter>1.0</alter><octave>5</octave></pitch>
        <duration>4</duration>
        <voice>1</voice>
        <type>eighth</type>
        <accidental>sharp</accidental>
        <staff>1</staff>
      </note>
      <note>
        <pitch><step>G</step><alter>0.0</alter><octave>5</octave></pitch>
        <duration>4</duration>
        <voice>1</voice>
        <type>eighth</type>
        <accidental>natural</accidental>
        <staff>1</staff>
      </note>
      <note>
        <pitch><step>G</step><alter>1.0</alter><octave>5</octave></pitch>
        <duration>4</duration>
        <voice>1</voice>
        <type>eighth</type>
        <accidental>sharp</accidental>
        <staff>1</staff>
      </note>
      <note>
        <pitch><step>E</step><alter>-1.0</alter><octave>5</octave></pitch>
        <duration>4</duration>
        <voice>1</voice>
        <type>eighth</type>
        <accidental>flat</accidental>
        <staff>1</staff>
      </note>
      <note>
        <pitch><step>G</step><alter>1.0</alter><octave>5</octave></pitch>
        <duration>4</duration>
        <voice>1</voice>
        <type>eighth</type>
        <staff>1</staff>
      </note>
      <note>
        <pitch><step>B</step><alter>-1.0</alter><octave>5</octave></pitch>
        <duration>4</duration>
        <voice>1</voice>
        <type>eighth</type>
        <staff>1</staff>
      </note>
    </measure>
    <measure number='6'>
      <attributes>
        <divisions>8</divisions>
      </attributes>
      <note>
        <pitch><step>C</step><alter>0.0</alter><octave>6</octave></pitch>
        <duration>4</duration>
        <voice>1</voice>
        <type>eighth</type>
        <staff>1</staff>
      </note>
      <note>
        <pitch><step>C</step><alter>1.0</alter><octave>6</octave></pitch>
        <duration>4</duration>
        <voice>1</voice>
        <type>eighth</type>
        <accidental>sharp</accidental>
        <staff>1</staff>
      </note>
      <note>
        <pitch><step>B</step><alter>0.0</alter><octave>5</octave></pitch>
        <duration>4</duration>
        <voice>1</voice>
        <type>eighth</type>
        <staff>1</staff>
      </note>
      <note>
        <pitch><step>C</step><alter>0.0</alter><octave>6</octave></pitch>
        <duration>4</duration>
        <voice>1</voice>
        <type>eighth</type>
        <accidental>natural</accidental>
        <staff>1</staff>
      </note>
      <note>
        <pitch><step>D</step><alter>0.0</alter><octave>6</octave></pitch>
        <duration>4</duration>
        <voice>1</voice>
        <type>eighth</type>
        <staff>1</staff>
      </note>
      <note>
        <pitch><step>E</step><alter>0.0</alter><octave>6</octave></pitch>
        <duration>4</duration>
        <voice>1</voice>
        <type>eighth</type>
        <staff>1</staff>
      </note>
      <note>
        <pitch><step>F</step><alter>0.0</alter><octave>6</octave></pitch>
        <duration>4</duration>
        <voice>1</voice>
        <type>eighth</type>
        <staff>1</staff>
      </note>
      <note>
        <pitch><step>F</step><alter>1.0</alter><octave>6</octave></pitch>
        <duration>4</duration>
        <voice>1</voice>
        <type>eighth</type>
        <accidental>sharp</accidental>
        <staff>1</staff>
      </note>
    </measure>
    <measure number='7'>
      <attributes>
        <divisions>8</divisions>
      </attributes>
      <note print-object='no'>
        <rest/>
        <duration>32</duration>
        <type>whole</type>
      </note>
    </measure>
    <measure number='8'>
      <attributes>
        <divisions>8</divisions>
      </attributes>
      <note print-object='no'>
        <rest/>
        <duration>32</duration>
        <type>whole</type>
      </note>
      <barline location='right'>
        <bar-style>light-heavy</bar-style>
      </barline>
    </measure>
  </part>
  <part id='P3'>
    <measure number='1'>
      <attributes>
        <divisions>8</divisions>
        <key><fifths>0</fifths><mode>major</mode></key>
        <time><beats>4</beats><beat-type>4</beat-type></time>
        <staves>1</staves>
        <clef number='1'><sign>G</sign><line>2</line></clef>
      </attributes>
      <note print-object='no'>
        <rest/>
        <duration>32</duration>
        <type>whole</type>
      </note>
    </measure>
    <measure number='2'>
      <attributes>
        <divisions>8</divisions>
      </attributes>
      <note print-object='no'>
        <rest/>
        <duration>32</duration>
        <type>whole</type>
      </note>
    </measure>
    <measure number='3'>
      <attributes>
        <divisions>8</divisions>
      </attributes>
      <note print-object='no'>
        <rest/>
        <duration>32</duration>
        <type>whole</type>
      </note>
    </measure>
    <measure number='4'>
      <attributes>
        <divisions>8</divisions>
      </attributes>
      <note print-object='no'>
        <rest/>
        <duration>32</duration>
        <type>whole</type>
      </note>
    </measure>
    <measure number='5'>
      <attributes>
        <divisions>8</divisions>
      </attributes>
      <note print-object='no'>
        <rest/>
        <duration>32</duration>
        <type>whole</type>
      </note>
    </measure>
    <measure number='6'>
      <attributes>
        <divisions>8</divisions>
      </attributes>
      <note print-object='no'>
        <rest/>
        <duration>32</duration>
        <type>whole</type>
      </note>
    </measure>
    <measure number='7'>
      <attributes>
        <divisions>8</divisions>
      </attributes>
      <note print-object='no'>
        <rest/>
        <duration>32</duration>
        <type>whole</type>
      </note>
    </measure>
    <measure number='8'>
      <attributes>
        <divisions>8</divisions>
      </attributes>
      <note print-object='no'>
        <rest/>
        <duration>32</duration>
        <type>whole</type>
      </note>
      <barline location='right'>
        <bar-style>light-heavy</bar-style>
      </barline>
    </measure>
  </part>
  <part id='P4'>
    <measure number='1'>
      <attributes>
        <divisions>8</divisions>
        <key><fifths>2</fifths><mode>major</mode></key>
        <time><beats>4</beats><beat-type>4</beat-type></time>
        <staves>1</staves>
        <clef number='1'><sign>G</sign><line>2</line></clef>
        <transpose>
          <diatonic>-1</diatonic>
          <chromatic>-2</chromatic>
        </transpose>
      </attributes>
      <note print-object='no'>
        <rest/>
        <duration>32</duration>
        <type>whole</type>
      </note>
    </measure>
    <measure number='2'>
      <attributes>
        <divisions>8</divisions>
      </attributes>
      <note print-object='no'>
        <rest/>
        <duration>32</duration>
        <type>whole</type>
      </note>
    </measure>
    <measure number='3'>
      <attributes>
        <divisions>8</divisions>
      </attributes>
      <note print-object='no'>
        <rest/>
        <duration>32</duration>
        <type>whole</type>
      </note>
    </measure>
    <measure number='4'>
      <attributes>
        <divisions>8</divisions>
      </attributes>
      <note print-object='no'>
        <rest/>
        <duration>32</duration>
        <type>whole</type>
      </note>
    </measure>
    <measure number='5'>
      <attributes>
        <divisions>8</divisions>
      </attributes>
      <note print-object='no'>
        <rest/>
        <duration>32</duration>
        <type>whole</type>
      </note>
    </measure>
    <measure number='6'>
      <attributes>
        <divisions>8</divisions>
      </attributes>
      <note print-object='no'>
        <rest/>
        <duration>32</duration>
        <type>whole</type>
      </note>
    </measure>
    <measure number='7'>
      <attributes>
        <divisions>8</divisions>
      </attributes>
      <note print-object='no'>
        <rest/>
        <duration>32</duration>
        <type>whole</type>
      </note>
    </measure>
    <measure number='8'>
      <attributes>
        <divisions>8</divisions>
      </attributes>
      <note print-object='no'>
        <rest/>
        <duration>32</duration>
        <type>whole</type>
      </note>
      <barline location='right'>
        <bar-style>light-heavy</bar-style>
      </barline>
    </measure>
  </part>
  <part id='P5'>
    <measure number='1'>
      <attributes>
        <divisions>8</divisions>
        <key><fifths>0</fifths><mode>major</mode></key>
        <time><beats>4</beats><beat-type>4</beat-type></time>
        <staves>1</staves>
        <clef number='1'><sign>F</sign><line>4</line></clef>
      </attributes>
      <note print-object='no'>
        <rest/>
        <duration>32</duration>
        <type>whole</type>
      </note>
    </measure>
    <measure number='2'>
      <attributes>
        <divisions>8</divisions>
      </attributes>
      <note print-object='no'>
        <rest/>
        <duration>32</duration>
        <type>whole</type>
      </note>
    </measure>
    <measure number='3'>
      <attributes>
        <divisions>8</divisions>
      </attributes>
      <note print-object='no'>
        <rest/>
        <duration>32</duration>
        <type>whole</type>
      </note>
    </measure>
    <measure number='4'>
      <attributes>
        <divisions>8</divisions>
      </attributes>
      <note print-object='no'>
        <rest/>
        <duration>32</duration>
        <type>whole</type>
      </note>
    </measure>
    <measure number='5'>
      <attributes>
        <divisions>8</divisions>
      </attributes>
      <note print-object='no'>
        <rest/>
        <duration>32</duration>
        <type>whole</type>
      </note>
    </measure>
    <measure number='6'>
      <attributes>
        <divisions>8</divisions>
      </attributes>
      <note print-object='no'>
        <rest/>
        <duration>32</duration>
        <type>whole</type>
      </note>
    </measure>
    <measure number='7'>
      <attributes>
        <divisions>8</divisions>
      </attributes>
      <note print-object='no'>
        <rest/>
        <duration>32</duration>
        <type>whole</type>
      </note>
    </measure>
    <measure number='8'>
      <attributes>
        <divisions>8</divisions>
      </attributes>
      <note print-object='no'>
        <rest/>
        <duration>32</duration>
        <type>whole</type>
      </note>
      <barline location='right'>
        <bar-style>light-heavy</bar-style>
      </barline>
    </measure>
  </part>
  <part id='P6'>
    <measure number='1'>
      <attributes>
        <divisions>8</divisions>
        <key><fifths>1</fifths><mode>major</mode></key>
        <time><beats>4</beats><beat-type>4</beat-type></time>
        <staves>1</staves>
        <clef number='1'><sign>G</sign><line>2</line></clef>
        <transpose>
          <diatonic>-4</diatonic>
          <chromatic>-7</chromatic>
        </transpose>
      </attributes>
      <note print-object='no'>
        <rest/>
        <duration>32</duration>
        <type>whole</type>
      </note>
    </measure>
    <measure number='2'>
      <attributes>
        <divisions>8</divisions>
      </attributes>
      <note print-object='no'>
        <rest/>
        <duration>32</duration>
        <type>whole</type>
      </note>
    </measure>
    <measure number='3'>
      <attributes>
        <divisions>8</divisions>
      </attributes>
      <note print-object='no'>
        <rest/>
        <duration>32</duration>
        <type>whole</type>
      </note>
    </measure>
    <measure number='4'>
      <attributes>
        <divisions>8</divisions>
      </attributes>
      <note print-object='no'>
        <rest/>
        <duration>32</duration>
        <type>whole</type>
      </note>
    </measure>
    <measure number='5'>
      <attributes>
        <divisions>8</divisions>
      </attributes>
      <note print-object='no'>
        <rest/>
        <duration>32</duration>
        <type>whole</type>
      </note>
    </measure>
    <measure number='6'>
      <attributes>
        <divisions>8</divisions>
      </attributes>
      <note print-object='no'>
        <rest/>
        <duration>32</duration>
        <type>whole</type>
      </note>
    </measure>
    <measure number='7'>
      <attributes>
        <divisions>8</divisions>
      </attributes>
      <note print-object='no'>
        <rest/>
        <duration>32</duration>
        <type>whole</type>
      </note>
    </measure>
    <measure number='8'>
      <attributes>
        <divisions>8</divisions>
      </attributes>
      <note print-object='no'>
        <rest/>
        <duration>32</duration>
        <type>whole</type>
      </note>
      <barline location='right'>
        <bar-style>light-heavy</bar-style>
      </barline>
    </measure>
  </part>
  <part id='P7'>
    <measure number='1'>
      <attributes>
        <divisions>8</divisions>
        <key><fifths>2</fifths><mode>major</mode></key>
        <time><beats>4</beats><beat-type>4</beat-type></time>
        <staves>1</staves>
        <clef number='1'><sign>G</sign><line>2</line></clef>
        <transpose>
          <diatonic>-1</diatonic>
          <chromatic>-2</chromatic>
        </transpose>
      </attributes>
      <note print-object='no'>
        <rest/>
        <duration>32</duration>
        <type>whole</type>
      </note>
    </measure>
    <measure number='2'>
      <attributes>
        <divisions>8</divisions>
      </attributes>
      <note print-object='no'>
        <rest/>
        <duration>32</duration>
        <type>whole</type>
      </note>
    </measure>
    <measure number='3'>
      <attributes>
        <divisions>8</divisions>
      </attributes>
      <note print-object='no'>
        <rest/>
        <duration>32</duration>
        <type>whole</type>
      </note>
    </measure>
    <measure number='4'>
      <attributes>
        <divisions>8</divisions>
      </attributes>
      <note print-object='no'>
        <rest/>
        <duration>32</duration>
        <type>whole</type>
      </note>
    </measure>
    <measure number='5'>
      <attributes>
        <divisions>8</divisions>
      </attributes>
      <note print-object='no'>
        <rest/>
        <duration>32</duration>
        <type>whole</type>
      </note>
    </measure>
    <measure number='6'>
      <attributes>
        <divisions>8</divisions>
      </attributes>
      <note print-object='no'>
        <rest/>
        <duration>32</duration>
        <type>whole</type>
      </note>
    </measure>
    <measure number='7'>
      <attributes>
        <divisions>8</divisions>
      </attributes>
      <note print-object='no'>
        <rest/>
        <duration>32</duration>
        <type>whole</type>
      </note>
    </measure>
    <measure number='8'>
      <attributes>
        <divisions>8</divisions>
      </attributes>
      <note print-object='no'>
        <rest/>
        <duration>32</duration>
        <type>whole</type>
      </note>
      <barline location='right'>
        <bar-style>light-heavy</bar-style>
      </barline>
    </measure>
  </part>
  <part id='P8'>
    <measure number='1'>
      <attributes>
        <divisions>8</divisions>
        <key><fifths>0</fifths><mode>major</mode></key>
        <time><beats>4</beats><beat-type>4</beat-type></time>
        <staves>1</staves>
        <clef number='1'><sign>F</sign><line>4</line></clef>
      </attributes>
      <note print-object='no'>
        <rest/>
        <duration>32</duration>
        <type>whole</type>
      </note>
    </measure>
    <measure number='2'>
      <attributes>
        <divisions>8</divisions>
      </attributes>
      <note print-object='no'>
        <rest/>
        <duration>32</duration>
        <type>whole</type>
      </note>
    </measure>
    <measure number='3'>
      <attributes>
        <divisions>8</divisions>
      </attributes>
      <note print-object='no'>
        <rest/>
        <duration>32</duration>
        <type>whole</type>
      </note>
    </measure>
    <measure number='4'>
      <attributes>
        <divisions>8</divisions>
      </attributes>
      <note print-object='no'>
        <rest/>
        <duration>32</duration>
        <type>whole</type>
      </note>
    </measure>
    <measure number='5'>
      <attributes>
        <divisions>8</divisions>
      </attributes>
      <note print-object='no'>
        <rest/>
        <duration>32</duration>
        <type>whole</type>
      </note>
    </measure>
    <measure number='6'>
      <attributes>
        <divisions>8</divisions>
      </attributes>
      <note print-object='no'>
        <rest/>
        <duration>32</duration>
        <type>whole</type>
      </note>
    </measure>
    <measure number='7'>
      <attributes>
        <divisions>8</divisions>
      </attributes>
      <note print-object='no'>
        <rest/>
        <duration>32</duration>
        <type>whole</type>
      </note>
    </measure>
    <measure number='8'>
      <attributes>
        <divisions>8</divisions>
      </attributes>
      <note print-object='no'>
        <rest/>
        <duration>32</duration>
        <type>whole</type>
      </note>
      <barline location='right'>
        <bar-style>light-heavy</bar-style>
      </barline>
    </measure>
  </part>
  <part id='P9'>
    <measure number='1'>
      <attributes>
        <divisions>8</divisions>
        <key><fifths>0</fifths><mode>major</mode></key>
        <time><beats>4</beats><beat-type>4</beat-type></time>
        <staves>1</staves>
        <clef number='1'><sign>F</sign><line>4</line></clef>
      </attributes>
      <note print-object='no'>
        <rest/>
        <duration>32</duration>
        <type>whole</type>
      </note>
    </measure>
    <measure number='2'>
      <attributes>
        <divisions>8</divisions>
      </attributes>
      <note print-object='no'>
        <rest/>
        <duration>32</duration>
        <type>whole</type>
      </note>
    </measure>
    <measure number='3'>
      <attributes>
        <divisions>8</divisions>
      </attributes>
      <note print-object='no'>
        <rest/>
        <duration>32</duration>
        <type>whole</type>
      </note>
    </measure>
    <measure number='4'>
      <attributes>
        <divisions>8</divisions>
      </attributes>
      <note print-object='no'>
        <rest/>
        <duration>32</duration>
        <type>whole</type>
      </note>
    </measure>
    <measure number='5'>
      <attributes>
        <divisions>8</divisions>
      </attributes>
      <note print-object='no'>
        <rest/>
        <duration>32</duration>
        <type>whole</type>
      </note>
    </measure>
    <measure number='6'>
      <attributes>
        <divisions>8</divisions>
      </attributes>
      <note print-object='no'>
        <rest/>
        <duration>32</duration>
        <type>whole</type>
      </note>
    </measure>
    <measure number='7'>
      <attributes>
        <divisions>8</divisions>
      </attributes>
      <note print-object='no'>
        <rest/>
        <duration>32</duration>
        <type>whole</type>
      </note>
    </measure>
    <measure number='8'>
      <attributes>
        <divisions>8</divisions>
      </attributes>
      <note print-object='no'>
        <rest/>
        <duration>32</duration>
        <type>whole</type>
      </note>
      <barline location='right'>
        <bar-style>light-heavy</bar-style>
      </barline>
    </measure>
  </part>
  <part id='P10'>
    <measure number='1'>
      <attributes>
        <divisions>8</divisions>
        <key><fifths>0</fifths><mode>major</mode></key>
        <time><beats>4</beats><beat-type>4</beat-type></time>
        <staves>1</staves>
        <clef number='1'><sign>F</sign><line>4</line></clef>
      </attributes>
      <note print-object='no'>
        <rest/>
        <duration>32</duration>
        <type>whole</type>
      </note>
    </measure>
    <measure number='2'>
      <attributes>
        <divisions>8</divisions>
      </attributes>
      <note print-object='no'>
        <rest/>
        <duration>32</duration>
        <type>whole</type>
      </note>
    </measure>
    <measure number='3'>
      <attributes>
        <divisions>8</divisions>
      </attributes>
      <note print-object='no'>
        <rest/>
        <duration>32</duration>
        <type>whole</type>
      </note>
    </measure>
    <measure number='4'>
      <attributes>
        <divisions>8</divisions>
      </attributes>
      <note print-object='no'>
        <rest/>
        <duration>32</duration>
        <type>whole</type>
      </note>
    </measure>
    <measure number='5'>
      <attributes>
        <divisions>8</divisions>
      </attributes>
      <note print-object='no'>
        <rest/>
        <duration>32</duration>
        <type>whole</type>
      </note>
    </measure>
    <measure number='6'>
      <attributes>
        <divisions>8</divisions>
      </attributes>
      <note print-object='no'>
        <rest/>
        <duration>32</duration>
        <type>whole</type>
      </note>
    </measure>
    <measure number='7'>
      <attributes>
        <divisions>8</divisions>
      </attributes>
      <note print-object='no'>
        <rest/>
        <duration>32</duration>
        <type>whole</type>
      </note>
    </measure>
    <measure number='8'>
      <attributes>
        <divisions>8</divisions>
      </attributes>
      <note print-object='no'>
        <rest/>
        <duration>32</duration>
        <type>whole</type>
      </note>
      <barline location='right'>
        <bar-style>light-heavy</bar-style>
      </barline>
    </measure>
  </part>
  <part id='P11'>
    <measure number='1'>
      <attributes>
        <divisions>8</divisions>
        <time><beats>4</beats><beat-type>4</beat-type></time>
        <staves>1</staves>
        <clef number='1'><sign>percussion</sign><line>3</line></clef>
      </attributes>
      <note print-object='no'>
        <rest/>
        <duration>32</duration>
        <type>whole</type>
      </note>
    </measure>
    <measure number='2'>
      <attributes>
        <divisions>8</divisions>
      </attributes>
      <note print-object='no'>
        <rest/>
        <duration>32</duration>
        <type>whole</type>
      </note>
    </measure>
    <measure number='3'>
      <attributes>
        <divisions>8</divisions>
      </attributes>
      <note print-object='no'>
        <rest/>
        <duration>32</duration>
        <type>whole</type>
      </note>
    </measure>
    <measure number='4'>
      <attributes>
        <divisions>8</divisions>
      </attributes>
      <note print-object='no'>
        <rest/>
        <duration>32</duration>
        <type>whole</type>
      </note>
    </measure>
    <measure number='5'>
      <attributes>
        <divisions>8</divisions>
      </attributes>
      <note print-object='no'>
        <rest/>
        <duration>32</duration>
        <type>whole</type>
      </note>
    </measure>
    <measure number='6'>
      <attributes>
        <divisions>8</divisions>
      </attributes>
      <note print-object='no'>
        <rest/>
        <duration>32</duration>
        <type>whole</type>
      </note>
    </measure>
    <measure number='7'>
      <attributes>
        <divisions>8</divisions>
      </attributes>
      <note print-object='no'>
        <rest/>
        <duration>32</duration>
        <type>whole</type>
      </note>
    </measure>
    <measure number='8'>
      <attributes>
        <divisions>8</divisions>
      </attributes>
      <note print-object='no'>
        <rest/>
        <duration>32</duration>
        <type>whole</type>
      </note>
      <barline location='right'>
        <bar-style>light-heavy</bar-style>
      </barline>
    </measure>
  </part>
  <part id='P12'>
    <measure number='1'>
      <attributes>
        <divisions>8</divisions>
        <key><fifths>0</fifths><mode>major</mode></key>
        <time><beats>4</beats><beat-type>4</beat-type></time>
        <staves>1</staves>
        <clef number='1'><sign>G</sign><line>2</line></clef>
      </attributes>
      <note print-object='no'>
        <rest/>
        <duration>32</duration>
        <type>whole</type>
      </note>
    </measure>
    <measure number='2'>
      <attributes>
        <divisions>8</divisions>
      </attributes>
      <note print-object='no'>
        <rest/>
        <duration>32</duration>
        <type>whole</type>
      </note>
    </measure>
    <measure number='3'>
      <attributes>
        <divisions>8</divisions>
      </attributes>
      <note print-object='no'>
        <rest/>
        <duration>32</duration>
        <type>whole</type>
      </note>
    </measure>
    <measure number='4'>
      <attributes>
        <divisions>8</divisions>
      </attributes>
      <note print-object='no'>
        <rest/>
        <duration>32</duration>
        <type>whole</type>
      </note>
    </measure>
    <measure number='5'>
      <attributes>
        <divisions>8</divisions>
      </attributes>
      <note print-object='no'>
        <rest/>
        <duration>32</duration>
        <type>whole</type>
      </note>
    </measure>
    <measure number='6'>
      <attributes>
        <divisions>8</divisions>
      </attributes>
      <note print-object='no'>
        <rest/>
        <duration>32</duration>
        <type>whole</type>
      </note>
    </measure>
    <measure number='7'>
      <attributes>
        <divisions>8</divisions>
      </attributes>
      <note print-object='no'>
        <rest/>
        <duration>32</duration>
        <type>whole</type>
      </note>
    </measure>
    <measure number='8'>
      <attributes>
        <divisions>8</divisions>
      </attributes>
      <note print-object='no'>
        <rest/>
        <duration>32</duration>
        <type>whole</type>
      </note>
      <barline location='right'>
        <bar-style>light-heavy</bar-style>
      </barline>
    </measure>
  </part>
  <part id='P13'>
    <measure number='1'>
      <attributes>
        <divisions>8</divisions>
        <key><fifths>0</fifths><mode>major</mode></key>
        <time><beats>4</beats><beat-type>4</beat-type></time>
        <staves>1</staves>
        <clef number='1'><sign>F</sign><line>4</line></clef>
      </attributes>
      <note print-object='no'>
        <rest/>
        <duration>32</duration>
        <type>whole</type>
      </note>
    </measure>
    <measure number='2'>
      <attributes>
        <divisions>8</divisions>
      </attributes>
      <note print-object='no'>
        <rest/>
        <duration>32</duration>
        <type>whole</type>
      </note>
    </measure>
    <measure number='3'>
      <attributes>
        <divisions>8</divisions>
      </attributes>
      <note print-object='no'>
        <rest/>
        <duration>32</duration>
        <type>whole</type>
      </note>
    </measure>
    <measure number='4'>
      <attributes>
        <divisions>8</divisions>
      </attributes>
      <note print-object='no'>
        <rest/>
        <duration>32</duration>
        <type>whole</type>
      </note>
    </measure>
    <measure number='5'>
      <attributes>
        <divisions>8</divisions>
      </attributes>
      <note print-object='no'>
        <rest/>
        <duration>32</duration>
        <type>whole</type>
      </note>
    </measure>
    <measure number='6'>
      <attributes>
        <divisions>8</divisions>
      </attributes>
      <note print-object='no'>
        <rest/>
        <duration>32</duration>
        <type>whole</type>
      </note>
    </measure>
    <measure number='7'>
      <attributes>
        <divisions>8</divisions>
      </attributes>
      <note print-object='no'>
        <rest/>
        <duration>32</duration>
        <type>whole</type>
      </note>
    </measure>
    <measure number='8'>
      <attributes>
        <divisions>8</divisions>
      </attributes>
      <note print-object='no'>
        <rest/>
        <duration>32</duration>
        <type>whole</type>
      </note>
      <barline location='right'>
        <bar-style>light-heavy</bar-style>
      </barline>
    </measure>
  </part>
  <part id='P14'>
    <measure number='1'>
      <attributes>
        <divisions>8</divisions>
        <key><fifths>0</fifths><mode>major</mode></key>
        <time><beats>4</beats><beat-type>4</beat-type></time>
        <staves>1</staves>
        <clef number='1'><sign>G</sign><line>2</line></clef>
        <transpose>
          <diatonic>14</diatonic>
          <chromatic>24</chromatic>
        </transpose>
      </attributes>
      <note print-object='no'>
        <rest/>
        <duration>32</duration>
        <type>whole</type>
      </note>
    </measure>
    <measure number='2'>
      <attributes>
        <divisions>8</divisions>
      </attributes>
      <note print-object='no'>
        <rest/>
        <duration>32</duration>
        <type>whole</type>
      </note>
    </measure>
    <measure number='3'>
      <attributes>
        <divisions>8</divisions>
      </attributes>
      <note print-object='no'>
        <rest/>
        <duration>32</duration>
        <type>whole</type>
      </note>
    </measure>
    <measure number='4'>
      <attributes>
        <divisions>8</divisions>
      </attributes>
      <note print-object='no'>
        <rest/>
        <duration>32</duration>
        <type>whole</type>
      </note>
    </measure>
    <measure number='5'>
      <attributes>
        <divisions>8</divisions>
      </attributes>
      <note print-object='no'>
        <rest/>
        <duration>32</duration>
        <type>whole</type>
      </note>
    </measure>
    <measure number='6'>
      <attributes>
        <divisions>8</divisions>
      </attributes>
      <note print-object='no'>
        <rest/>
        <duration>32</duration>
        <type>whole</type>
      </note>
    </measure>
    <measure number='7'>
      <attributes>
        <divisions>8</divisions>
      </attributes>
      <note print-object='no'>
        <rest/>
        <duration>32</duration>
        <type>whole</type>
      </note>
    </measure>
    <measure number='8'>
      <attributes>
        <divisions>8</divisions>
      </attributes>
      <note print-object='no'>
        <rest/>
        <duration>32</duration>
        <type>whole</type>
      </note>
      <barline location='right'>
        <bar-style>light-heavy</bar-style>
      </barline>
    </measure>
  </part>
  <part id='P15'>
    <measure number='1'>
      <attributes>
        <divisions>8</divisions>
        <key><fifths>0</fifths><mode>major</mode></key>
        <time><beats>4</beats><beat-type>4</beat-type></time>
        <staves>2</staves>
        <clef number='1'><sign>G</sign><line>2</line></clef>
        <clef number='2'><sign>F</sign><line>4</line></clef>
      </attributes>
      <note print-object='no'>
        <rest/>
        <duration>32</duration>
        <type>whole</type>
      </note>
    </measure>
    <measure number='2'>
      <attributes>
        <divisions>8</divisions>
      </attributes>
      <note print-object='no'>
        <rest/>
        <duration>32</duration>
        <type>whole</type>
      </note>
    </measure>
    <measure number='3'>
      <attributes>
        <divisions>8</divisions>
      </attributes>
      <note print-object='no'>
        <rest/>
        <duration>32</duration>
        <type>whole</type>
      </note>
    </measure>
    <measure number='4'>
      <attributes>
        <divisions>8</divisions>
      </attributes>
      <note print-object='no'>
        <rest/>
        <duration>32</duration>
        <type>whole</type>
      </note>
    </measure>
    <measure number='5'>
      <attributes>
        <divisions>8</divisions>
      </attributes>
      <note print-object='no'>
        <rest/>
        <duration>32</duration>
        <type>whole</type>
      </note>
    </measure>
    <measure number='6'>
      <attributes>
        <divisions>8</divisions>
      </attributes>
      <note print-object='no'>
        <rest/>
        <duration>32</duration>
        <type>whole</type>
      </note>
    </measure>
    <measure number='7'>
      <attributes>
        <divisions>8</divisions>
      </attributes>
      <note print-object='no'>
        <rest/>
        <duration>32</duration>
        <type>whole</type>
      </note>
    </measure>
    <measure number='8'>
      <attributes>
        <divisions>8</divisions>
      </attributes>
      <note print-object='no'>
        <rest/>
        <duration>32</duration>
        <type>whole</type>
      </note>
      <barline location='right'>
        <bar-style>light-heavy</bar-style>
      </barline>
    </measure>
  </part>
  <part id='P16'>
    <measure number='1'>
      <attributes>
        <divisions>8</divisions>
        <key><fifths>0</fifths><mode>major</mode></key>
        <time><beats>4</beats><beat-type>4</beat-type></time>
        <staves>1</staves>
        <clef number='1'><sign>G</sign><line>2</line></clef>
      </attributes>
      <note>
        <pitch><step>D</step><alter>-1.0</alter><octave>4</octave></pitch>
        <duration>16</duration>
        <voice>1</voice>
        <type>half</type>
        <accidental>flat</accidental>
        <staff>1</staff>
        <notations>
          <dynamics default-y='-70'><p/></dynamics>
        </notations>
      </note>
      <note>
        <chord/>
        <pitch><step>F</step><alter>0.0</alter><octave>4</octave></pitch>
        <duration>16</duration>
        <voice>1</voice>
        <type>half</type>
        <staff>1</staff>
      </note>
      <note>
        <pitch><step>G</step><alter>0.0</alter><octave>4</octave></pitch>
        <duration>16</duration>
        <voice>1</voice>
        <type>half</type>
        <staff>1</staff>
      </note>
      <note>
        <chord/>
        <pitch><step>B</step><alter>-1.0</alter><octave>4</octave></pitch>
        <duration>16</duration>
        <voice>1</voice>
        <type>half</type>
        <accidental>flat</accidental>
        <staff>1</staff>
      </note>
    </measure>
    <measure number='2'>
      <attributes>
        <divisions>8</divisions>
      </attributes>
      <note>
        <pitch><step>D</step><alter>-1.0</alter><octave>4</octave></pitch>
        <duration>16</duration>
        <voice>1</voice>
        <type>half</type>
        <accidental>flat</accidental>
        <staff>1</staff>
      </note>
      <note>
        <chord/>
        <pitch><step>F</step><alter>0.0</alter><octave>4</octave></pitch>
        <duration>16</duration>
        <voice>1</voice>
        <type>half</type>
        <staff>1</staff>
      </note>
      <note>
        <pitch><step>G</step><alter>0.0</alter><octave>4</octave></pitch>
        <duration>16</duration>
        <voice>1</voice>
        <type>half</type>
        <staff>1</staff>
      </note>
      <note>
        <chord/>
        <pitch><step>B</step><alter>-1.0</alter><octave>4</octave></pitch>
        <duration>16</duration>
        <voice>1</voice>
        <type>half</type>
        <accidental>flat</accidental>
        <staff>1</staff>
      </note>
    </measure>
    <measure number='3'>
      <attributes>
        <divisions>8</divisions>
      </attributes>
      <note>
        <pitch><step>D</step><alter>-1.0</alter><octave>4</octave></pitch>
        <duration>32</duration>
        <voice>1</voice>
        <type>whole</type>
        <accidental>flat</accidental>
        <staff>1</staff>
      </note>
      <note>
        <chord/>
        <pitch><step>F</step><alter>0.0</alter><octave>4</octave></pitch>
        <duration>32</duration>
        <voice>1</voice>
        <type>whole</type>
        <staff>1</staff>
      </note>
    </measure>
    <measure number='4'>
      <attributes>
        <divisions>8</divisions>
      </attributes>
      <note>
        <pitch><step>G</step><alter>0.0</alter><octave>4</octave></pitch>
        <duration>16</duration>
        <voice>1</voice>
        <type>half</type>
        <staff>1</staff>
      </note>
      <note>
        <chord/>
        <pitch><step>B</step><alter>-1.0</alter><octave>4</octave></pitch>
        <duration>16</duration>
        <voice>1</voice>
        <type>half</type>
        <accidental>flat</accidental>
        <staff>1</staff>
      </note>
      <note>
        <pitch><step>F</step><alter>1.0</alter><octave>4</octave></pitch>
        <duration>16</duration>
        <voice>1</voice>
        <type>half</type>
        <accidental>sharp</accidental>
        <staff>1</staff>
      </note>
      <note>
        <chord/>
        <pitch><step>G</step><alter>1.0</alter><octave>4</octave></pitch>
        <duration>16</duration>
        <voice>1</voice>
        <type>half</type>
        <accidental>sharp</accidental>
        <staff>1</staff>
      </note>
    </measure>
    <measure number='5'>
      <attributes>
        <divisions>8</divisions>
      </attributes>
      <note>
        <pitch><step>D</step><alter>-1.0</alter><octave>4</octave></pitch>
        <duration>16</duration>
        <voice>1</voice>
        <type>half</type>
        <accidental>flat</accidental>
        <staff>1</staff>
      </note>
      <note>
        <chord/>
        <pitch><step>F</step><alter>0.0</alter><octave>4</octave></pitch>
        <duration>16</duration>
        <voice>1</voice>
        <type>half</type>
        <staff>1</staff>
      </note>
      <note>
        <pitch><step>D</step><alter>-1.0</alter><octave>4</octave></pitch>
        <duration>16</duration>
        <voice>1</voice>
        <type>half</type>
        <staff>1</staff>
      </note>
      <note>
        <chord/>
        <pitch><step>E</step><alter>-1.0</alter><octave>4</octave></pitch>
        <duration>16</duration>
        <voice>1</voice>
        <type>half</type>
        <accidental>flat</accidental>
        <staff>1</staff>
      </note>
    </measure>
    <measure number='6'>
      <attributes>
        <divisions>8</divisions>
      </attributes>
      <note>
        <pitch><step>D</step><alter>-1.0</alter><octave>4</octave></pitch>
        <duration>16</duration>
        <voice>1</voice>
        <type>half</type>
        <accidental>flat</accidental>
        <staff>1</staff>
      </note>
      <note>
        <chord/>
        <pitch><step>F</step><alter>0.0</alter><octave>4</octave></pitch>
        <duration>16</duration>
        <voice>1</voice>
        <type>half</type>
        <staff>1</staff>
      </note>
      <note>
        <pitch><step>C</step><alter>0.0</alter><octave>4</octave></pitch>
        <duration>16</duration>
        <voice>1</voice>
        <type>half</type>
        <staff>1</staff>
      </note>
      <note>
        <chord/>
        <pitch><step>E</step><alter>0.0</alter><octave>4</octave></pitch>
        <duration>16</duration>
        <voice>1</voice>
        <type>half</type>
        <staff>1</staff>
      </note>
    </measure>
    <measure number='7'>
      <attributes>
        <divisions>8</divisions>
      </attributes>
      <note>
        <pitch><step>D</step><alter>-1.0</alter><octave>4</octave></pitch>
        <duration>16</duration>
        <voice>1</voice>
        <type>half</type>
        <accidental>flat</accidental>
        <staff>1</staff>
      </note>
      <note>
        <chord/>
        <pitch><step>F</step><alter>0.0</alter><octave>4</octave></pitch>
        <duration>16</duration>
        <voice>1</voice>
        <type>half</type>
        <staff>1</staff>
      </note>
      <note>
        <pitch><step>C</step><alter>0.0</alter><octave>4</octave></pitch>
        <duration>16</duration>
        <voice>1</voice>
        <type>half</type>
        <staff>1</staff>
      </note>
      <note>
        <chord/>
        <pitch><step>E</step><alter>0.0</alter><octave>4</octave></pitch>
        <duration>16</duration>
        <voice>1</voice>
        <type>half</type>
        <staff>1</staff>
      </note>
    </measure>
    <measure number='8'>
      <attributes>
        <divisions>8</divisions>
      </attributes>
      <note>
        <pitch><step>C</step><alter>0.0</alter><octave>4</octave></pitch>
        <duration>32</duration>
        <voice>1</voice>
        <type>whole</type>
        <staff>1</staff>
      </note>
      <note>
        <chord/>
        <pitch><step>E</step><alter>0.0</alter><octave>4</octave></pitch>
        <duration>32</duration>
        <voice>1</voice>
        <type>whole</type>
        <staff>1</staff>
      </note>
      <barline location='right'>
        <bar-style>light-heavy</bar-style>
      </barline>
    </measure>
  </part>
  <part id='P17'>
    <measure number='1'>
      <attributes>
        <divisions>8</divisions>
        <key><fifths>0</fifths><mode>major</mode></key>
        <time><beats>4</beats><beat-type>4</beat-type></time>
        <staves>1</staves>
        <clef number='1'><sign>G</sign><line>2</line></clef>
      </attributes>
      <note>
        <pitch><step>D</step><alter>-1.0</alter><octave>4</octave></pitch>
        <duration>16</duration>
        <voice>1</voice>
        <type>half</type>
        <accidental>flat</accidental>
        <staff>1</staff>
        <notations>
          <dynamics default-y='-70'><p/></dynamics>
        </notations>
      </note>
      <note>
        <chord/>
        <pitch><step>F</step><alter>0.0</alter><octave>4</octave></pitch>
        <duration>16</duration>
        <voice>1</voice>
        <type>half</type>
        <staff>1</staff>
      </note>
      <note>
        <pitch><step>G</step><alter>0.0</alter><octave>4</octave></pitch>
        <duration>16</duration>
        <voice>1</voice>
        <type>half</type>
        <staff>1</staff>
      </note>
      <note>
        <chord/>
        <pitch><step>B</step><alter>-1.0</alter><octave>4</octave></pitch>
        <duration>16</duration>
        <voice>1</voice>
        <type>half</type>
        <accidental>flat</accidental>
        <staff>1</staff>
      </note>
    </measure>
    <measure number='2'>
      <attributes>
        <divisions>8</divisions>
      </attributes>
      <note>
        <pitch><step>D</step><alter>-1.0</alter><octave>4</octave></pitch>
        <duration>16</duration>
        <voice>1</voice>
        <type>half</type>
        <accidental>flat</accidental>
        <staff>1</staff>
      </note>
      <note>
        <chord/>
        <pitch><step>F</step><alter>0.0</alter><octave>4</octave></pitch>
        <duration>16</duration>
        <voice>1</voice>
        <type>half</type>
        <staff>1</staff>
      </note>
      <note>
        <pitch><step>G</step><alter>0.0</alter><octave>4</octave></pitch>
        <duration>16</duration>
        <voice>1</voice>
        <type>half</type>
        <staff>1</staff>
      </note>
      <note>
        <chord/>
        <pitch><step>B</step><alter>-1.0</alter><octave>4</octave></pitch>
        <duration>16</duration>
        <voice>1</voice>
        <type>half</type>
        <accidental>flat</accidental>
        <staff>1</staff>
      </note>
    </measure>
    <measure number='3'>
      <attributes>
        <divisions>8</divisions>
      </attributes>
      <note>
        <pitch><step>D</step><alter>-1.0</alter><octave>4</octave></pitch>
        <duration>32</duration>
        <voice>1</voice>
        <type>whole</type>
        <accidental>flat</accidental>
        <staff>1</staff>
      </note>
      <note>
        <chord/>
        <pitch><step>F</step><alter>0.0</alter><octave>4</octave></pitch>
        <duration>32</duration>
        <voice>1</voice>
        <type>whole</type>
        <staff>1</staff>
      </note>
    </measure>
    <measure number='4'>
      <attributes>
        <divisions>8</divisions>
      </attributes>
      <note>
        <pitch><step>G</step><alter>0.0</alter><octave>4</octave></pitch>
        <duration>16</duration>
        <voice>1</voice>
        <type>half</type>
        <staff>1</staff>
      </note>
      <note>
        <chord/>
        <pitch><step>B</step><alter>-1.0</alter><octave>4</octave></pitch>
        <duration>16</duration>
        <voice>1</voice>
        <type>half</type>
        <accidental>flat</accidental>
        <staff>1</staff>
      </note>
      <note>
        <pitch><step>F</step><alter>1.0</alter><octave>4</octave></pitch>
        <duration>16</duration>
        <voice>1</voice>
        <type>half</type>
        <accidental>sharp</accidental>
        <staff>1</staff>
      </note>
      <note>
        <chord/>
        <pitch><step>G</step><alter>1.0</alter><octave>4</octave></pitch>
        <duration>16</duration>
        <voice>1</voice>
        <type>half</type>
        <accidental>sharp</accidental>
        <staff>1</staff>
      </note>
    </measure>
    <measure number='5'>
      <attributes>
        <divisions>8</divisions>
      </attributes>
      <note>
        <pitch><step>D</step><alter>-1.0</alter><octave>4</octave></pitch>
        <duration>16</duration>
        <voice>1</voice>
        <type>half</type>
        <accidental>flat</accidental>
        <staff>1</staff>
      </note>
      <note>
        <chord/>
        <pitch><step>F</step><alter>0.0</alter><octave>4</octave></pitch>
        <duration>16</duration>
        <voice>1</voice>
        <type>half</type>
        <staff>1</staff>
      </note>
      <note>
        <pitch><step>D</step><alter>-1.0</alter><octave>4</octave></pitch>
        <duration>16</duration>
        <voice>1</voice>
        <type>half</type>
        <staff>1</staff>
      </note>
      <note>
        <chord/>
        <pitch><step>E</step><alter>-1.0</alter><octave>4</octave></pitch>
        <duration>16</duration>
        <voice>1</voice>
        <type>half</type>
        <accidental>flat</accidental>
        <staff>1</staff>
      </note>
    </measure>
    <measure number='6'>
      <attributes>
        <divisions>8</divisions>
      </attributes>
      <note>
        <pitch><step>D</step><alter>-1.0</alter><octave>4</octave></pitch>
        <duration>16</duration>
        <voice>1</voice>
        <type>half</type>
        <accidental>flat</accidental>
        <staff>1</staff>
      </note>
      <note>
        <chord/>
        <pitch><step>F</step><alter>0.0</alter><octave>4</octave></pitch>
        <duration>16</duration>
        <voice>1</voice>
        <type>half</type>
        <staff>1</staff>
      </note>
      <note>
        <pitch><step>C</step><alter>0.0</alter><octave>4</octave></pitch>
        <duration>16</duration>
        <voice>1</voice>
        <type>half</type>
        <staff>1</staff>
      </note>
      <note>
        <chord/>
        <pitch><step>E</step><alter>0.0</alter><octave>4</octave></pitch>
        <duration>16</duration>
        <voice>1</voice>
        <type>half</type>
        <staff>1</staff>
      </note>
    </measure>
    <measure number='7'>
      <attributes>
        <divisions>8</divisions>
      </attributes>
      <note>
        <pitch><step>D</step><alter>-1.0</alter><octave>4</octave></pitch>
        <duration>16</duration>
        <voice>1</voice>
        <type>half</type>
        <accidental>flat</accidental>
        <staff>1</staff>
      </note>
      <note>
        <chord/>
        <pitch><step>F</step><alter>0.0</alter><octave>4</octave></pitch>
        <duration>16</duration>
        <voice>1</voice>
        <type>half</type>
        <staff>1</staff>
      </note>
      <note>
        <pitch><step>C</step><alter>0.0</alter><octave>4</octave></pitch>
        <duration>16</duration>
        <voice>1</voice>
        <type>half</type>
        <staff>1</staff>
      </note>
      <note>
        <chord/>
        <pitch><step>E</step><alter>0.0</alter><octave>4</octave></pitch>
        <duration>16</duration>
        <voice>1</voice>
        <type>half</type>
        <staff>1</staff>
      </note>
    </measure>
    <measure number='8'>
      <attributes>
        <divisions>8</divisions>
      </attributes>
      <note>
        <pitch><step>C</step><alter>0.0</alter><octave>4</octave></pitch>
        <duration>32</duration>
        <voice>1</voice>
        <type>whole</type>
        <staff>1</staff>
      </note>
      <note>
        <chord/>
        <pitch><step>E</step><alter>0.0</alter><octave>4</octave></pitch>
        <duration>32</duration>
        <voice>1</voice>
        <type>whole</type>
        <staff>1</staff>
      </note>
      <barline location='right'>
        <bar-style>light-heavy</bar-style>
      </barline>
    </measure>
  </part>
  <part id='P18'>
    <measure number='1'>
      <attributes>
        <divisions>8</divisions>
        <key><fifths>0</fifths><mode>major</mode></key>
        <time><beats>4</beats><beat-type>4</beat-type></time>
        <staves>1</staves>
        <clef number='1'><sign>C</sign><line>3</line></clef>
      </attributes>
      <note>
        <pitch><step>B</step><alter>-1.0</alter><octave>3</octave></pitch>
        <duration>16</duration>
        <voice>1</voice>
        <type>half</type>
        <accidental>flat</accidental>
        <staff>1</staff>
        <notations>
          <dynamics default-y='-70'><p/></dynamics>
        </notations>
      </note>
      <note>
        <chord/>
        <pitch><step>D</step><alter>-1.0</alter><octave>4</octave></pitch>
        <duration>16</duration>
        <voice>1</voice>
        <type>half</type>
        <accidental>flat</accidental>
        <staff>1</staff>
      </note>
      <note>
        <pitch><step>E</step><alter>-1.0</alter><octave>4</octave></pitch>
        <duration>16</duration>
        <voice>1</voice>
        <type>half</type>
        <accidental>flat</accidental>
        <staff>1</staff>
      </note>
      <note>
        <chord/>
        <pitch><step>G</step><alter>0.0</alter><octave>4</octave></pitch>
        <duration>16</duration>
        <voice>1</voice>
        <type>half</type>
        <staff>1</staff>
      </note>
    </measure>
    <measure number='2'>
      <attributes>
        <divisions>8</divisions>
      </attributes>
      <note>
        <pitch><step>B</step><alter>-1.0</alter><octave>3</octave></pitch>
        <duration>16</duration>
        <voice>1</voice>
        <type>half</type>
        <accidental>flat</accidental>
        <staff>1</staff>
      </note>
      <note>
        <chord/>
        <pitch><step>D</step><alter>-1.0</alter><octave>4</octave></pitch>
        <duration>16</duration>
        <voice>1</voice>
        <type>half</type>
        <accidental>flat</accidental>
        <staff>1</staff>
      </note>
      <note>
        <pitch><step>E</step><alter>-1.0</alter><octave>4</octave></pitch>
        <duration>16</duration>
        <voice>1</voice>
        <type>half</type>
        <accidental>flat</accidental>
        <staff>1</staff>
      </note>
      <note>
        <chord/>
        <pitch><step>G</step><alter>0.0</alter><octave>4</octave></pitch>
        <duration>16</duration>
        <voice>1</voice>
        <type>half</type>
        <staff>1</staff>
      </note>
    </measure>
    <measure number='3'>
      <attributes>
        <divisions>8</divisions>
      </attributes>
      <note>
        <pitch><step>B</step><alter>-1.0</alter><octave>3</octave></pitch>
        <duration>32</duration>
        <voice>1</voice>
        <type>whole</type>
        <accidental>flat</accidental>
        <staff>1</staff>
      </note>
      <note>
        <chord/>
        <pitch><step>D</step><alter>-1.0</alter><octave>4</octave></pitch>
        <duration>32</duration>
        <voice>1</voice>
        <type>whole</type>
        <accidental>flat</accidental>
        <staff>1</staff>
      </note>
    </measure>
    <measure number='4'>
      <attributes>
        <divisions>8</divisions>
      </attributes>
      <note>
        <pitch><step>E</step><alter>-1.0</alter><octave>4</octave></pitch>
        <duration>16</duration>
        <voice>1</voice>
        <type>half</type>
        <accidental>flat</accidental>
        <staff>1</staff>
      </note>
      <note>
        <chord/>
        <pitch><step>G</step><alter>0.0</alter><octave>4</octave></pitch>
        <duration>16</duration>
        <voice>1</voice>
        <type>half</type>
        <staff>1</staff>
      </note>
      <note>
        <pitch><step>E</step><alter>-1.0</alter><octave>4</octave></pitch>
        <duration>16</duration>
        <voice>1</voice>
        <type>half</type>
        <staff>1</staff>
      </note>
      <note>
        <chord/>
        <pitch><step>F</step><alter>1.0</alter><octave>4</octave></pitch>
        <duration>16</duration>
        <voice>1</voice>
        <type>half</type>
        <accidental>sharp</accidental>
        <staff>1</staff>
      </note>
    </measure>
    <measure number='5'>
      <attributes>
        <divisions>8</divisions>
      </attributes>
      <note>
        <pitch><step>B</step><alter>-1.0</alter><octave>3</octave></pitch>
        <duration>16</duration>
        <voice>1</voice>
        <type>half</type>
        <accidental>flat</accidental>
        <staff>1</staff>
      </note>
      <note>
        <chord/>
        <pitch><step>D</step><alter>-1.0</alter><octave>4</octave></pitch>
        <duration>16</duration>
        <voice>1</voice>
        <type>half</type>
        <accidental>flat</accidental>
        <staff>1</staff>
      </note>
      <note>
        <pitch><step>B</step><alter>-1.0</alter><octave>3</octave></pitch>
        <duration>16</duration>
        <voice>1</voice>
        <type>half</type>
        <staff>1</staff>
      </note>
      <note>
        <chord/>
        <pitch><step>D</step><alter>-1.0</alter><octave>4</octave></pitch>
        <duration>16</duration>
        <voice>1</voice>
        <type>half</type>
        <staff>1</staff>
      </note>
    </measure>
    <measure number='6'>
      <attributes>
        <divisions>8</divisions>
      </attributes>
      <note>
        <pitch><step>G</step><alter>1.0</alter><octave>3</octave></pitch>
        <duration>16</duration>
        <voice>1</voice>
        <type>half</type>
        <accidental>sharp</accidental>
        <staff>1</staff>
      </note>
      <note>
        <chord/>
        <pitch><step>C</step><alter>1.0</alter><octave>4</octave></pitch>
        <duration>16</duration>
        <voice>1</voice>
        <type>half</type>
        <accidental>sharp</accidental>
        <staff>1</staff>
      </note>
      <note>
        <pitch><step>G</step><alter>0.0</alter><octave>3</octave></pitch>
        <duration>16</duration>
        <voice>1</voice>
        <type>half</type>
        <accidental>natural</accidental>
        <staff>1</staff>
      </note>
      <note>
        <chord/>
        <pitch><step>C</step><alter>0.0</alter><octave>4</octave></pitch>
        <duration>16</duration>
        <voice>1</voice>
        <type>half</type>
        <accidental>natural</accidental>
        <staff>1</staff>
      </note>
    </measure>
    <measure number='7'>
      <attributes>
        <divisions>8</divisions>
      </attributes>
      <note>
        <pitch><step>G</step><alter>1.0</alter><octave>3</octave></pitch>
        <duration>16</duration>
        <voice>1</voice>
        <type>half</type>
        <accidental>sharp</accidental>
        <staff>1</staff>
      </note>
      <note>
        <chord/>
        <pitch><step>C</step><alter>1.0</alter><octave>4</octave></pitch>
        <duration>16</duration>
        <voice>1</voice>
        <type>half</type>
        <accidental>sharp</accidental>
        <staff>1</staff>
      </note>
      <note>
        <pitch><step>G</step><alter>0.0</alter><octave>3</octave></pitch>
        <duration>16</duration>
        <voice>1</voice>
        <type>half</type>
        <accidental>natural</accidental>
        <staff>1</staff>
      </note>
      <note>
        <chord/>
        <pitch><step>C</step><alter>0.0</alter><octave>4</octave></pitch>
        <duration>16</duration>
        <voice>1</voice>
        <type>half</type>
        <accidental>natural</accidental>
        <staff>1</staff>
      </note>
    </measure>
    <measure number='8'>
      <attributes>
        <divisions>8</divisions>
      </attributes>
      <note>
        <pitch><step>G</step><alter>0.0</alter><octave>3</octave></pitch>
        <duration>32</duration>
        <voice>1</voice>
        <type>whole</type>
        <staff>1</staff>
      </note>
      <note>
        <chord/>
        <pitch><step>C</step><alter>0.0</alter><octave>4</octave></pitch>
        <duration>32</duration>
        <voice>1</voice>
        <type>whole</type>
        <staff>1</staff>
      </note>
      <barline location='right'>
        <bar-style>light-heavy</bar-style>
      </barline>
    </measure>
  </part>
  <part id='P19'>
    <measure number='1'>
      <attributes>
        <divisions>8</divisions>
        <key><fifths>0</fifths><mode>major</mode></key>
        <time><beats>4</beats><beat-type>4</beat-type></time>
        <staves>1</staves>
        <clef number='1'><sign>F</sign><line>4</line></clef>
      </attributes>
      <note>
        <pitch><step>B</step><alter>-1.0</alter><octave>3</octave></pitch>
        <duration>16</duration>
        <voice>1</voice>
        <type>half</type>
        <accidental>flat</accidental>
        <staff>1</staff>
        <notations>
          <dynamics default-y='-70'><p/></dynamics>
        </notations>
      </note>
      <note>
        <chord/>
        <pitch><step>D</step><alter>-1.0</alter><octave>4</octave></pitch>
        <duration>16</duration>
        <voice>1</voice>
        <type>half</type>
        <accidental>flat</accidental>
        <staff>1</staff>
      </note>
      <note>
        <pitch><step>B</step><alter>-1.0</alter><octave>3</octave></pitch>
        <duration>16</duration>
        <voice>1</voice>
        <type>half</type>
        <staff>1</staff>
      </note>
      <note>
        <chord/>
        <pitch><step>E</step><alter>-1.0</alter><octave>4</octave></pitch>
        <duration>16</duration>
        <voice>1</voice>
        <type>half</type>
        <accidental>flat</accidental>
        <staff>1</staff>
      </note>
    </measure>
    <measure number='2'>
      <attributes>
        <divisions>8</divisions>
      </attributes>
      <note>
        <pitch><step>B</step><alter>-1.0</alter><octave>3</octave></pitch>
        <duration>16</duration>
        <voice>1</voice>
        <type>half</type>
        <accidental>flat</accidental>
        <staff>1</staff>
      </note>
      <note>
        <chord/>
        <pitch><step>D</step><alter>-1.0</alter><octave>4</octave></pitch>
        <duration>16</duration>
        <voice>1</voice>
        <type>half</type>
        <accidental>flat</accidental>
        <staff>1</staff>
      </note>
      <note>
        <pitch><step>B</step><alter>-1.0</alter><octave>3</octave></pitch>
        <duration>16</duration>
        <voice>1</voice>
        <type>half</type>
        <staff>1</staff>
      </note>
      <note>
        <chord/>
        <pitch><step>E</step><alter>-1.0</alter><octave>4</octave></pitch>
        <duration>16</duration>
        <voice>1</voice>
        <type>half</type>
        <accidental>flat</accidental>
        <staff>1</staff>
      </note>
    </measure>
    <measure number='3'>
      <attributes>
        <divisions>8</divisions>
      </attributes>
      <note>
        <pitch><step>B</step><alter>-1.0</alter><octave>3</octave></pitch>
        <duration>32</duration>
        <voice>1</voice>
        <type>whole</type>
        <accidental>flat</accidental>
        <staff>1</staff>
      </note>
      <note>
        <chord/>
        <pitch><step>D</step><alter>-1.0</alter><octave>4</octave></pitch>
        <duration>32</duration>
        <voice>1</voice>
        <type>whole</type>
        <accidental>flat</accidental>
        <staff>1</staff>
      </note>
    </measure>
    <measure number='4'>
      <attributes>
        <divisions>8</divisions>
      </attributes>
      <note>
        <pitch><step>B</step><alter>-1.0</alter><octave>3</octave></pitch>
        <duration>16</duration>
        <voice>1</voice>
        <type>half</type>
        <accidental>flat</accidental>
        <staff>1</staff>
      </note>
      <note>
        <chord/>
        <pitch><step>E</step><alter>-1.0</alter><octave>4</octave></pitch>
        <duration>16</duration>
        <voice>1</voice>
        <type>half</type>
        <accidental>flat</accidental>
        <staff>1</staff>
      </note>
      <note>
        <pitch><step>B</step><alter>-1.0</alter><octave>3</octave></pitch>
        <duration>16</duration>
        <voice>1</voice>
        <type>half</type>
        <staff>1</staff>
      </note>
      <note>
        <chord/>
        <pitch><step>E</step><alter>-1.0</alter><octave>4</octave></pitch>
        <duration>16</duration>
        <voice>1</voice>
        <type>half</type>
        <staff>1</staff>
      </note>
    </measure>
    <measure number='5'>
      <attributes>
        <divisions>8</divisions>
      </attributes>
      <note>
        <pitch><step>B</step><alter>-1.0</alter><octave>3</octave></pitch>
        <duration>16</duration>
        <voice>1</voice>
        <type>half</type>
        <accidental>flat</accidental>
        <staff>1</staff>
      </note>
      <note>
        <chord/>
        <pitch><step>D</step><alter>-1.0</alter><octave>4</octave></pitch>
        <duration>16</duration>
        <voice>1</voice>
        <type>half</type>
        <accidental>flat</accidental>
        <staff>1</staff>
      </note>
      <note>
        <pitch><step>B</step><alter>-1.0</alter><octave>3</octave></pitch>
        <duration>16</duration>
        <voice>1</voice>
        <type>half</type>
        <staff>1</staff>
      </note>
      <note>
        <chord/>
        <pitch><step>D</step><alter>-1.0</alter><octave>4</octave></pitch>
        <duration>16</duration>
        <voice>1</voice>
        <type>half</type>
        <staff>1</staff>
      </note>
    </measure>
    <measure number='6'>
      <attributes>
        <divisions>8</divisions>
      </attributes>
      <note>
        <pitch><step>G</step><alter>1.0</alter><octave>3</octave></pitch>
        <duration>16</duration>
        <voice>1</voice>
        <type>half</type>
        <accidental>sharp</accidental>
        <staff>1</staff>
      </note>
      <note>
        <chord/>
        <pitch><step>C</step><alter>1.0</alter><octave>4</octave></pitch>
        <duration>16</duration>
        <voice>1</voice>
        <type>half</type>
        <accidental>sharp</accidental>
        <staff>1</staff>
      </note>
      <note>
        <pitch><step>G</step><alter>0.0</alter><octave>3</octave></pitch>
        <duration>16</duration>
        <voice>1</voice>
        <type>half</type>
        <accidental>natural</accidental>
        <staff>1</staff>
      </note>
      <note>
        <chord/>
        <pitch><step>C</step><alter>0.0</alter><octave>4</octave></pitch>
        <duration>16</duration>
        <voice>1</voice>
        <type>half</type>
        <accidental>natural</accidental>
        <staff>1</staff>
      </note>
    </measure>
    <measure number='7'>
      <attributes>
        <divisions>8</divisions>
      </attributes>
      <note>
        <pitch><step>G</step><alter>1.0</alter><octave>3</octave></pitch>
        <duration>16</duration>
        <voice>1</voice>
        <type>half</type>
        <accidental>sharp</accidental>
        <staff>1</staff>
      </note>
      <note>
        <chord/>
        <pitch><step>C</step><alter>1.0</alter><octave>4</octave></pitch>
        <duration>16</duration>
        <voice>1</voice>
        <type>half</type>
        <accidental>sharp</accidental>
        <staff>1</staff>
      </note>
      <note>
        <pitch><step>G</step><alter>0.0</alter><octave>3</octave></pitch>
        <duration>16</duration>
        <voice>1</voice>
        <type>half</type>
        <accidental>natural</accidental>
        <staff>1</staff>
      </note>
      <note>
        <chord/>
        <pitch><step>C</step><alter>0.0</alter><octave>4</octave></pitch>
        <duration>16</duration>
        <voice>1</voice>
        <type>half</type>
        <accidental>natural</accidental>
        <staff>1</staff>
      </note>
    </measure>
    <measure number='8'>
      <attributes>
        <divisions>8</divisions>
      </attributes>
      <note>
        <pitch><step>G</step><alter>0.0</alter><octave>3</octave></pitch>
        <duration>32</duration>
        <voice>1</voice>
        <type>whole</type>
        <staff>1</staff>
      </note>
      <note>
        <chord/>
        <pitch><step>C</step><alter>0.0</alter><octave>4</octave></pitch>
        <duration>32</duration>
        <voice>1</voice>
        <type>whole</type>
        <staff>1</staff>
      </note>
      <barline location='right'>
        <bar-style>light-heavy</bar-style>
      </barline>
    </measure>
  </part>
  <part id='P20'>
    <measure number='1'>
      <attributes>
        <divisions>8</divisions>
        <key><fifths>0</fifths><mode>major</mode></key>
        <time><beats>4</beats><beat-type>4</beat-type></time>
        <staves>1</staves>
        <clef number='1'><sign>F</sign><line>4</line></clef>
        <transpose>
          <diatonic>-7</diatonic>
          <chromatic>-12</chromatic>
        </transpose>
      </attributes>
      <note>
        <pitch><step>B</step><alter>-1.0</alter><octave>3</octave></pitch>
        <duration>16</duration>
        <voice>1</voice>
        <type>half</type>
        <accidental>flat</accidental>
        <staff>1</staff>
        <notations>
          <dynamics default-y='-70'><p/></dynamics>
        </notations>
      </note>
      <note>
        <pitch><step>B</step><alter>-1.0</alter><octave>3</octave></pitch>
        <duration>16</duration>
        <voice>1</voice>
        <type>half</type>
        <staff>1</staff>
      </note>
    </measure>
    <measure number='2'>
      <attributes>
        <divisions>8</divisions>
      </attributes>
      <note>
        <pitch><step>B</step><alter>-1.0</alter><octave>3</octave></pitch>
        <duration>16</duration>
        <voice>1</voice>
        <type>half</type>
        <accidental>flat</accidental>
        <staff>1</staff>
      </note>
      <note>
        <pitch><step>B</step><alter>-1.0</alter><octave>3</octave></pitch>
        <duration>16</duration>
        <voice>1</voice>
        <type>half</type>
        <staff>1</staff>
      </note>
    </measure>
    <measure number='3'>
      <attributes>
        <divisions>8</divisions>
      </attributes>
      <note>
        <pitch><step>B</step><alter>-1.0</alter><octave>3</octave></pitch>
        <duration>32</duration>
        <voice>1</voice>
        <type>whole</type>
        <accidental>flat</accidental>
        <staff>1</staff>
      </note>
    </measure>
    <measure number='4'>
      <attributes>
        <divisions>8</divisions>
      </attributes>
      <note>
        <pitch><step>B</step><alter>-1.0</alter><octave>3</octave></pitch>
        <duration>16</duration>
        <voice>1</voice>
        <type>half</type>
        <accidental>flat</accidental>
        <staff>1</staff>
      </note>
      <note>
        <pitch><step>B</step><alter>-1.0</alter><octave>3</octave></pitch>
        <duration>16</duration>
        <voice>1</voice>
        <type>half</type>
        <staff>1</staff>
      </note>
    </measure>
    <measure number='5'>
      <attributes>
        <divisions>8</divisions>
      </attributes>
      <note>
        <pitch><step>B</step><alter>-1.0</alter><octave>3</octave></pitch>
        <duration>16</duration>
        <voice>1</voice>
        <type>half</type>
        <accidental>flat</accidental>
        <staff>1</staff>
      </note>
      <note>
        <pitch><step>B</step><alter>-1.0</alter><octave>3</octave></pitch>
        <duration>16</duration>
        <voice>1</voice>
        <type>half</type>
        <staff>1</staff>
      </note>
    </measure>
    <measure number='6'>
      <attributes>
        <divisions>8</divisions>
      </attributes>
      <note>
        <pitch><step>G</step><alter>1.0</alter><octave>3</octave></pitch>
        <duration>16</duration>
        <voice>1</voice>
        <type>half</type>
        <accidental>sharp</accidental>
        <staff>1</staff>
      </note>
      <note>
        <pitch><step>G</step><alter>0.0</alter><octave>3</octave></pitch>
        <duration>16</duration>
        <voice>1</voice>
        <type>half</type>
        <accidental>natural</accidental>
        <staff>1</staff>
      </note>
    </measure>
    <measure number='7'>
      <attributes>
        <divisions>8</divisions>
      </attributes>
      <note>
        <pitch><step>G</step><alter>1.0</alter><octave>3</octave></pitch>
        <duration>16</duration>
        <voice>1</voice>
        <type>half</type>
        <accidental>sharp</accidental>
        <staff>1</staff>
      </note>
      <note>
        <pitch><step>G</step><alter>0.0</alter><octave>3</octave></pitch>
        <duration>16</duration>
        <voice>1</voice>
        <type>half</type>
        <accidental>natural</accidental>
        <staff>1</staff>
      </note>
    </measure>
    <measure number='8'>
      <attributes>
        <divisions>8</divisions>
      </attributes>
      <note>
        <pitch><step>G</step><alter>0.0</alter><octave>3</octave></pitch>
        <duration>32</duration>
        <voice>1</voice>
        <type>whole</type>
        <staff>1</staff>
      </note>
      <barline location='right'>
        <bar-style>light-heavy</bar-style>
      </barline>
    </measure>
  </part>
</score-partwise>
