<?xml version="1.0" encoding='UTF-8' standalone='no' ?>
<!DOCTYPE score-partwise PUBLIC "-//Recordare//DTD MusicXML 2.0 Partwise//EN" "http://www.musicxml.org/dtds/partwise.dtd">
<score-partwise version="2.0">
 <work>
  <work-title />
 </work>
 <identification>
  <rights>Copyright © </rights>
  <encoding>
   <encoding-date>2013-06-09</encoding-date>
   <encoder>Peter</encoder>
   <software>Sibelius 7.0.3</software>
   <software>Direct export, not from Dolet</software>
   <encoding-description>Sibelius / MusicXML 2.0</encoding-description>
   <supports element="print" type="yes" value="yes" attribute="new-system" />
   <supports element="print" type="yes" value="yes" attribute="new-page" />
   <supports element="accidental" type="yes" />
   <supports element="beam" type="yes" />
   <supports element="stem" type="yes" />
  </encoding>
 </identification>
 <defaults>
  <scaling>
   <millimeters>215.9</millimeters>
   <tenths>1233</tenths>
  </scaling>
  <page-layout>
   <page-height>1596</page-height>
   <page-width>1233</page-width>
   <page-margins type="both">
    <left-margin>85</left-margin>
    <right-margin>85</right-margin>
    <top-margin>85</top-margin>
    <bottom-margin>85</bottom-margin>
   </page-margins>
  </page-layout>
  <system-layout>
   <system-margins>
    <left-margin>90</left-margin>
    <right-margin>0</right-margin>
   </system-margins>
   <system-distance>92</system-distance>
  </system-layout>
  <appearance>
   <line-width type="stem">0.9375</line-width>
   <line-width type="beam">5</line-width>
   <line-width type="staff">0.9375</line-width>
   <line-width type="light barline">1.5625</line-width>
   <line-width type="heavy barline">5</line-width>
   <line-width type="leger">1.5625</line-width>
   <line-width type="ending">1.5625</line-width>
   <line-width type="wedge">1.25</line-width>
   <line-width type="enclosure">0.9375</line-width>
   <line-width type="tuplet bracket">1.25</line-width>
   <line-width type="bracket">5</line-width>
   <line-width type="dashes">1.5625</line-width>
   <line-width type="extend">0.9375</line-width>
   <line-width type="octave shift">1.5625</line-width>
   <line-width type="pedal">1.5625</line-width>
   <line-width type="slur middle">1.5625</line-width>
   <line-width type="slur tip">0.625</line-width>
   <line-width type="tie middle">1.5625</line-width>
   <line-width type="tie tip">0.625</line-width>
   <note-size type="cue">75</note-size>
   <note-size type="grace">60</note-size>
  </appearance>
  <music-font font-family="Opus Std" font-size="19.8425" />
  <lyric-font font-family="Plantin MT Std" font-size="11.4715" />
  <lyric-language xml:lang="en" />
 </defaults>
 <credit page="2">
  <credit-words default-x="85" default-y="1510" font-style="normal" font-weight="normal" justify="left" valign="middle">2</credit-words>
 </credit>
 <part-list>
  <part-group type="start" number="1">
   <group-symbol>bracket</group-symbol>
  </part-group>
  <score-part id="P1">
   <part-name>Violin I</part-name>
   <part-name-display>
    <display-text>Violin I</display-text>
   </part-name-display>
   <part-abbreviation>Vln. I</part-abbreviation>
   <part-abbreviation-display>
    <display-text>Vln. I</display-text>
   </part-abbreviation-display>
   <score-instrument id="P1-I1">
    <instrument-name>Violin</instrument-name>
   </score-instrument>
  </score-part>
  <score-part id="P2">
   <part-name>Violin II</part-name>
   <part-name-display>
    <display-text>Violin II</display-text>
   </part-name-display>
   <part-abbreviation>Vln. II</part-abbreviation>
   <part-abbreviation-display>
    <display-text>Vln. II</display-text>
   </part-abbreviation-display>
   <score-instrument id="P2-I1">
    <instrument-name>Violin</instrument-name>
   </score-instrument>
  </score-part>
  <score-part id="P3">
   <part-name>Viola</part-name>
   <part-name-display>
    <display-text>Viola</display-text>
   </part-name-display>
   <part-abbreviation>Vla.</part-abbreviation>
   <part-abbreviation-display>
    <display-text>Vla.</display-text>
   </part-abbreviation-display>
   <score-instrument id="P3-I1">
    <instrument-name>Viola</instrument-name>
   </score-instrument>
  </score-part>
  <score-part id="P4">
   <part-name>Violoncello</part-name>
   <part-name-display>
    <display-text>Violoncello</display-text>
   </part-name-display>
   <part-abbreviation>Vc.</part-abbreviation>
   <part-abbreviation-display>
    <display-text>Vc.</display-text>
   </part-abbreviation-display>
   <score-instrument id="P4-I1">
    <instrument-name>Violoncello</instrument-name>
   </score-instrument>
  </score-part>
  <part-group type="stop" number="1" />
 </part-list>
 <part id="P1">
  <measure number="1" width="206">
   <print new-page="yes">
    <system-layout>
     <system-margins>
      <left-margin>141</left-margin>
      <right-margin>0</right-margin>
     </system-margins>
     <top-system-distance>218</top-system-distance>
    </system-layout>
   </print>
   <attributes>
    <divisions>256</divisions>
    <key color="#000000">
     <fifths>0</fifths>
     <mode>major</mode>
    </key>
    <time color="#000000">
     <beats>3</beats>
     <beat-type>4</beat-type>
    </time>
    <staves>1</staves>
    <clef number="1" color="#000000">
     <sign>G</sign>
     <line>2</line>
    </clef>
    <staff-details number="1" print-object="yes" />
   </attributes>
   <direction>
    <direction-type>
     <metronome color="#000000" font-family="Opus Text Std" font-style="normal" font-size="13.0217" font-weight="normal">
      <beat-unit>quarter</beat-unit>
      <per-minute>50</per-minute>
     </metronome>
    </direction-type>
    <voice>1</voice>
    <staff>1</staff>
   </direction>
   <direction>
    <direction-type>
     <metronome color="#000000" font-family="Plantin MT Std" font-style="normal" font-size="13.0217" font-weight="bold">
      <beat-unit>quarter</beat-unit>
      <per-minute>50</per-minute>
     </metronome>
    </direction-type>
    <voice>1</voice>
    <staff>1</staff>
   </direction>
   <note color="#000000" default-x="78">
    <pitch>
     <step>E</step>
     <octave>5</octave>
    </pitch>
    <duration>384</duration>
    <instrument id="P1-I1" />
    <voice>1</voice>
    <type>quarter</type>
    <dot />
    <stem>down</stem>
    <staff>1</staff>
   </note>
   <note color="#000000" default-x="127">
    <pitch>
     <step>E</step>
     <octave>5</octave>
    </pitch>
    <duration>128</duration>
    <instrument id="P1-I1" />
    <voice>1</voice>
    <type>eighth</type>
    <stem>down</stem>
    <staff>1</staff>
    <notations>
     <articulations>
      <accent />
     </articulations>
    </notations>
   </note>
   <note color="#000000" default-x="154">
    <pitch>
     <step>E</step>
     <octave>5</octave>
    </pitch>
    <duration>128</duration>
    <instrument id="P1-I1" />
    <voice>1</voice>
    <type>eighth</type>
    <stem>down</stem>
    <staff>1</staff>
    <beam number="1">begin</beam>
    <notations>
     <articulations>
      <accent />
     </articulations>
    </notations>
   </note>
   <note color="#000000" default-x="180">
    <pitch>
     <step>E</step>
     <octave>5</octave>
    </pitch>
    <duration>128</duration>
    <instrument id="P1-I1" />
    <voice>1</voice>
    <type>eighth</type>
    <stem>down</stem>
    <staff>1</staff>
    <beam number="1">end</beam>
    <notations>
     <articulations>
      <accent />
     </articulations>
    </notations>
   </note>
  </measure>
  <measure number="2" width="162">
   <note color="#000000" default-x="15">
    <pitch>
     <step>G</step>
     <alter>-1</alter>
     <octave>5</octave>
    </pitch>
    <duration>128</duration>
    <instrument id="P1-I1" />
    <voice>1</voice>
    <type>eighth</type>
    <accidental>flat</accidental>
    <stem>down</stem>
    <staff>1</staff>
    <beam number="1">begin</beam>
   </note>
   <direction>
    <direction-type>
     <words default-x="469" default-y="113" justify="left" valign="middle" font-family="Plantin MT Std" font-style="normal" font-size="11.9365" font-weight="normal">String Quartet 3, third movement</words>
    </direction-type>
    <voice>1</voice>
    <staff>1</staff>
   </direction>
   <note color="#000000" default-x="41">
    <pitch>
     <step>A</step>
     <octave>5</octave>
    </pitch>
    <duration>128</duration>
    <instrument id="P1-I1" />
    <voice>1</voice>
    <type>eighth</type>
    <stem>down</stem>
    <staff>1</staff>
    <beam number="1">end</beam>
   </note>
   <note color="#000000" default-x="71">
    <pitch>
     <step>G</step>
     <octave>5</octave>
    </pitch>
    <duration>128</duration>
    <instrument id="P1-I1" />
    <voice>1</voice>
    <type>eighth</type>
    <accidental>natural</accidental>
    <stem>down</stem>
    <staff>1</staff>
    <beam number="1">begin</beam>
   </note>
   <note color="#000000" default-x="99">
    <pitch>
     <step>G</step>
     <alter>-1</alter>
     <octave>5</octave>
    </pitch>
    <duration>128</duration>
    <instrument id="P1-I1" />
    <voice>1</voice>
    <type>eighth</type>
    <accidental>flat</accidental>
    <stem>down</stem>
    <staff>1</staff>
    <beam number="1">end</beam>
   </note>
   <note color="#000000" default-x="125">
    <pitch>
     <step>E</step>
     <octave>5</octave>
    </pitch>
    <duration>256</duration>
    <tie type="start" />
    <instrument id="P1-I1" />
    <voice>1</voice>
    <type>quarter</type>
    <stem>down</stem>
    <staff>1</staff>
    <notations>
     <tied type="start" />
    </notations>
   </note>
  </measure>
  <measure number="3" width="113">
   <note color="#000000" default-x="15">
    <pitch>
     <step>E</step>
     <octave>5</octave>
    </pitch>
    <duration>512</duration>
    <instrument id="P1-I1" />
    <voice>1</voice>
    <type>half</type>
    <stem>down</stem>
    <staff>1</staff>
   </note>
   <note default-x="76">
    <rest />
    <duration>256</duration>
    <instrument id="P1-I1" />
    <voice>1</voice>
    <type>quarter</type>
    <staff>1</staff>
   </note>
  </measure>
  <measure number="4" width="164">
   <note>
    <rest />
    <duration>768</duration>
    <instrument id="P1-I1" />
    <type>whole</type>
    <staff>1</staff>
   </note>
  </measure>
  <measure number="5" width="116">
   <note color="#000000" default-x="17">
    <pitch>
     <step>A</step>
     <octave>4</octave>
    </pitch>
    <duration>384</duration>
    <instrument id="P1-I1" />
    <voice>1</voice>
    <type>quarter</type>
    <dot />
    <stem>up</stem>
    <staff>1</staff>
   </note>
   <note color="#000000" default-x="67">
    <pitch>
     <step>B</step>
     <alter>-1</alter>
     <octave>4</octave>
    </pitch>
    <duration>384</duration>
    <instrument id="P1-I1" />
    <voice>1</voice>
    <type>quarter</type>
    <dot />
    <accidental>flat</accidental>
    <stem>down</stem>
    <staff>1</staff>
   </note>
  </measure>
  <measure number="6" width="158">
   <note>
    <rest />
    <duration>768</duration>
    <instrument id="P1-I1" />
    <type>whole</type>
    <staff>1</staff>
   </note>
  </measure>
  <measure number="7" width="183">
   <print new-system="yes">
    <system-layout>
     <system-margins>
      <left-margin>22</left-margin>
      <right-margin>0</right-margin>
     </system-margins>
     <system-distance>80</system-distance>
    </system-layout>
   </print>
   <attributes>
    <staff-details number="1" print-object="yes" />
   </attributes>
   <note color="#000000" default-x="58">
    <pitch>
     <step>A</step>
     <octave>4</octave>
    </pitch>
    <duration>384</duration>
    <instrument id="P1-I1" />
    <voice>1</voice>
    <type>quarter</type>
    <dot />
    <stem>up</stem>
    <staff>1</staff>
   </note>
   <note color="#000000" default-x="104">
    <pitch>
     <step>A</step>
     <octave>4</octave>
    </pitch>
    <duration>128</duration>
    <instrument id="P1-I1" />
    <voice>1</voice>
    <type>eighth</type>
    <stem>up</stem>
    <staff>1</staff>
   </note>
   <note color="#000000" default-x="133">
    <pitch>
     <step>A</step>
     <octave>4</octave>
    </pitch>
    <duration>128</duration>
    <instrument id="P1-I1" />
    <voice>1</voice>
    <type>eighth</type>
    <stem>up</stem>
    <staff>1</staff>
    <beam number="1">begin</beam>
   </note>
   <note color="#000000" default-x="158">
    <pitch>
     <step>A</step>
     <octave>4</octave>
    </pitch>
    <duration>128</duration>
    <instrument id="P1-I1" />
    <voice>1</voice>
    <type>eighth</type>
    <stem>up</stem>
    <staff>1</staff>
    <beam number="1">end</beam>
   </note>
  </measure>
  <measure number="8" width="162">
   <note color="#000000" default-x="15">
    <pitch>
     <step>A</step>
     <octave>4</octave>
    </pitch>
    <duration>768</duration>
    <instrument id="P1-I1" />
    <voice>1</voice>
    <type>half</type>
    <dot />
    <stem>up</stem>
    <staff>1</staff>
   </note>
  </measure>
  <measure number="9" width="148">
   <note color="#000000" default-x="17">
    <pitch>
     <step>C</step>
     <octave>6</octave>
    </pitch>
    <duration>128</duration>
    <instrument id="P1-I1" />
    <voice>1</voice>
    <type>eighth</type>
    <stem>down</stem>
    <staff>1</staff>
    <beam number="1">begin</beam>
   </note>
   <note color="#000000" default-x="43">
    <pitch>
     <step>C</step>
     <octave>5</octave>
    </pitch>
    <duration>128</duration>
    <instrument id="P1-I1" />
    <voice>1</voice>
    <type>eighth</type>
    <stem>down</stem>
    <staff>1</staff>
    <beam number="1">end</beam>
   </note>
   <note color="#000000" default-x="68">
    <pitch>
     <step>A</step>
     <octave>5</octave>
    </pitch>
    <duration>128</duration>
    <instrument id="P1-I1" />
    <voice>1</voice>
    <type>eighth</type>
    <stem>down</stem>
    <staff>1</staff>
   </note>
   <note color="#000000" default-x="102">
    <pitch>
     <step>A</step>
     <alter>-1</alter>
     <octave>5</octave>
    </pitch>
    <duration>384</duration>
    <instrument id="P1-I1" />
    <voice>1</voice>
    <type>quarter</type>
    <dot />
    <accidental>flat</accidental>
    <stem>down</stem>
    <staff>1</staff>
   </note>
  </measure>
  <measure number="10" width="149">
   <note color="#000000" default-x="15">
    <pitch>
     <step>C</step>
     <octave>6</octave>
    </pitch>
    <duration>128</duration>
    <instrument id="P1-I1" />
    <voice>1</voice>
    <type>eighth</type>
    <stem>down</stem>
    <staff>1</staff>
    <beam number="1">begin</beam>
   </note>
   <note color="#000000" default-x="40">
    <pitch>
     <step>C</step>
     <octave>5</octave>
    </pitch>
    <duration>128</duration>
    <instrument id="P1-I1" />
    <voice>1</voice>
    <type>eighth</type>
    <stem>down</stem>
    <staff>1</staff>
    <beam number="1">end</beam>
   </note>
   <note color="#000000" default-x="69">
    <pitch>
     <step>A</step>
     <octave>5</octave>
    </pitch>
    <duration>128</duration>
    <instrument id="P1-I1" />
    <voice>1</voice>
    <type>eighth</type>
    <accidental>natural</accidental>
    <stem>down</stem>
    <staff>1</staff>
   </note>
   <note color="#000000" default-x="103">
    <pitch>
     <step>A</step>
     <alter>-1</alter>
     <octave>5</octave>
    </pitch>
    <duration>384</duration>
    <instrument id="P1-I1" />
    <voice>1</voice>
    <type>quarter</type>
    <dot />
    <accidental>flat</accidental>
    <stem>down</stem>
    <staff>1</staff>
   </note>
  </measure>
  <measure number="11" width="152">
   <note>
    <rest />
    <duration>768</duration>
    <instrument id="P1-I1" />
    <type>whole</type>
    <staff>1</staff>
   </note>
  </measure>
  <measure number="12" width="81">
   <note>
    <rest />
    <duration>768</duration>
    <instrument id="P1-I1" />
    <type>whole</type>
    <staff>1</staff>
   </note>
  </measure>
  <measure number="13" width="81">
   <note>
    <rest />
    <duration>768</duration>
    <instrument id="P1-I1" />
    <type>whole</type>
    <staff>1</staff>
   </note>
  </measure>
  <measure number="14" width="81">
   <note>
    <rest />
    <duration>768</duration>
    <instrument id="P1-I1" />
    <type>whole</type>
    <staff>1</staff>
   </note>
  </measure>
  <measure number="15" width="185">
   <print new-system="yes">
    <system-layout>
     <system-margins>
      <left-margin>22</left-margin>
      <right-margin>0</right-margin>
     </system-margins>
     <system-distance>80</system-distance>
    </system-layout>
   </print>
   <attributes>
    <staff-details number="1" print-object="yes" />
   </attributes>
   <note>
    <rest />
    <duration>768</duration>
    <instrument id="P1-I1" />
    <type>whole</type>
    <staff>1</staff>
   </note>
  </measure>
  <measure number="16" width="142">
   <note>
    <rest />
    <duration>768</duration>
    <instrument id="P1-I1" />
    <type>whole</type>
    <staff>1</staff>
   </note>
  </measure>
  <measure number="17" width="142">
   <note>
    <rest />
    <duration>768</duration>
    <instrument id="P1-I1" />
    <type>whole</type>
    <staff>1</staff>
   </note>
  </measure>
  <measure number="18" width="142">
   <note>
    <rest />
    <duration>768</duration>
    <instrument id="P1-I1" />
    <type>whole</type>
    <staff>1</staff>
   </note>
  </measure>
  <measure number="19" width="142">
   <note>
    <rest />
    <duration>768</duration>
    <instrument id="P1-I1" />
    <type>whole</type>
    <staff>1</staff>
   </note>
  </measure>
  <measure number="20" width="142">
   <note>
    <rest />
    <duration>768</duration>
    <instrument id="P1-I1" />
    <type>whole</type>
    <staff>1</staff>
   </note>
  </measure>
  <measure number="21" width="142">
   <note>
    <rest />
    <duration>768</duration>
    <instrument id="P1-I1" />
    <type>whole</type>
    <staff>1</staff>
   </note>
  </measure>
  <measure number="22" width="206">
   <print new-page="yes">
    <system-layout>
     <system-margins>
      <left-margin>22</left-margin>
      <right-margin>0</right-margin>
     </system-margins>
     <top-system-distance>73</top-system-distance>
    </system-layout>
   </print>
   <attributes>
    <staff-details number="1" print-object="yes" />
   </attributes>
   <note>
    <rest />
    <duration>768</duration>
    <instrument id="P1-I1" />
    <type>whole</type>
    <staff>1</staff>
   </note>
  </measure>
  <measure number="23" width="163">
   <note>
    <rest />
    <duration>768</duration>
    <instrument id="P1-I1" />
    <type>whole</type>
    <staff>1</staff>
   </note>
  </measure>
  <measure number="24" width="164">
   <note>
    <rest />
    <duration>768</duration>
    <instrument id="P1-I1" />
    <type>whole</type>
    <staff>1</staff>
   </note>
  </measure>
  <measure number="25" width="163">
   <note>
    <rest />
    <duration>768</duration>
    <instrument id="P1-I1" />
    <type>whole</type>
    <staff>1</staff>
   </note>
  </measure>
  <measure number="26" width="163">
   <note>
    <rest />
    <duration>768</duration>
    <instrument id="P1-I1" />
    <type>whole</type>
    <staff>1</staff>
   </note>
  </measure>
  <measure number="27" width="179">
   <note>
    <rest />
    <duration>768</duration>
    <instrument id="P1-I1" />
    <type>whole</type>
    <staff>1</staff>
   </note>
   <barline>
    <bar-style>light-heavy</bar-style>
   </barline>
  </measure>
 </part>
 <part id="P2">
  <measure number="1" width="206">
   <print new-page="yes">
    <system-layout>
     <system-margins>
      <left-margin>141</left-margin>
      <right-margin>0</right-margin>
     </system-margins>
    </system-layout>
    <staff-layout number="1">
     <staff-distance>54</staff-distance>
    </staff-layout>
   </print>
   <attributes>
    <divisions>256</divisions>
    <key color="#000000">
     <fifths>0</fifths>
     <mode>major</mode>
    </key>
    <time color="#000000">
     <beats>3</beats>
     <beat-type>4</beat-type>
    </time>
    <staves>1</staves>
    <clef number="1" color="#000000">
     <sign>G</sign>
     <line>2</line>
    </clef>
    <staff-details number="1" print-object="yes" />
   </attributes>
   <note color="#000000" default-x="78">
    <pitch>
     <step>C</step>
     <octave>5</octave>
    </pitch>
    <duration>384</duration>
    <instrument id="P2-I1" />
    <voice>1</voice>
    <type>quarter</type>
    <dot />
    <stem>down</stem>
    <staff>1</staff>
   </note>
   <note color="#000000" default-x="127">
    <pitch>
     <step>C</step>
     <octave>5</octave>
    </pitch>
    <duration>128</duration>
    <instrument id="P2-I1" />
    <voice>1</voice>
    <type>eighth</type>
    <stem>down</stem>
    <staff>1</staff>
    <notations>
     <articulations>
      <accent />
     </articulations>
    </notations>
   </note>
   <note color="#000000" default-x="154">
    <pitch>
     <step>C</step>
     <octave>5</octave>
    </pitch>
    <duration>128</duration>
    <instrument id="P2-I1" />
    <voice>1</voice>
    <type>eighth</type>
    <stem>down</stem>
    <staff>1</staff>
    <beam number="1">begin</beam>
    <notations>
     <articulations>
      <accent />
     </articulations>
    </notations>
   </note>
   <note color="#000000" default-x="180">
    <pitch>
     <step>C</step>
     <octave>5</octave>
    </pitch>
    <duration>128</duration>
    <instrument id="P2-I1" />
    <voice>1</voice>
    <type>eighth</type>
    <stem>down</stem>
    <staff>1</staff>
    <beam number="1">end</beam>
    <notations>
     <articulations>
      <accent />
     </articulations>
    </notations>
   </note>
  </measure>
  <measure number="2" width="162">
   <note color="#000000" default-x="15">
    <pitch>
     <step>A</step>
     <octave>4</octave>
    </pitch>
    <duration>512</duration>
    <instrument id="P2-I1" />
    <voice>1</voice>
    <type>half</type>
    <stem>up</stem>
    <staff>1</staff>
   </note>
   <note color="#000000" default-x="125">
    <pitch>
     <step>B</step>
     <alter>-1</alter>
     <octave>4</octave>
    </pitch>
    <duration>256</duration>
    <tie type="start" />
    <instrument id="P2-I1" />
    <voice>1</voice>
    <type>quarter</type>
    <accidental>flat</accidental>
    <stem>down</stem>
    <staff>1</staff>
    <notations>
     <tied type="start" />
    </notations>
   </note>
  </measure>
  <measure number="3" width="113">
   <note color="#000000" default-x="15">
    <pitch>
     <step>B</step>
     <alter>-1</alter>
     <octave>4</octave>
    </pitch>
    <duration>512</duration>
    <instrument id="P2-I1" />
    <voice>1</voice>
    <type>half</type>
    <stem>down</stem>
    <staff>1</staff>
   </note>
   <note default-x="76">
    <rest />
    <duration>256</duration>
    <instrument id="P2-I1" />
    <voice>1</voice>
    <type>quarter</type>
    <staff>1</staff>
   </note>
  </measure>
  <measure number="4" width="164">
   <note>
    <rest />
    <duration>768</duration>
    <instrument id="P2-I1" />
    <type>whole</type>
    <staff>1</staff>
   </note>
  </measure>
  <measure number="5" width="116">
   <note color="#000000" default-x="17">
    <pitch>
     <step>F</step>
     <octave>4</octave>
    </pitch>
    <duration>384</duration>
    <instrument id="P2-I1" />
    <voice>1</voice>
    <type>quarter</type>
    <dot />
    <stem>up</stem>
    <staff>1</staff>
   </note>
   <note color="#000000" default-x="67">
    <pitch>
     <step>G</step>
     <alter>-1</alter>
     <octave>4</octave>
    </pitch>
    <duration>384</duration>
    <instrument id="P2-I1" />
    <voice>1</voice>
    <type>quarter</type>
    <dot />
    <accidental>flat</accidental>
    <stem>up</stem>
    <staff>1</staff>
   </note>
  </measure>
  <measure number="6" width="158">
   <note>
    <rest />
    <duration>768</duration>
    <instrument id="P2-I1" />
    <type>whole</type>
    <staff>1</staff>
   </note>
  </measure>
  <measure number="7" width="183">
   <print new-system="yes">
    <system-layout>
     <system-margins>
      <left-margin>22</left-margin>
      <right-margin>0</right-margin>
     </system-margins>
    </system-layout>
    <staff-layout number="1">
     <staff-distance>54</staff-distance>
    </staff-layout>
   </print>
   <attributes>
    <staff-details number="1" print-object="yes" />
   </attributes>
   <note color="#000000" default-x="58">
    <pitch>
     <step>F</step>
     <alter>1</alter>
     <octave>4</octave>
    </pitch>
    <duration>384</duration>
    <instrument id="P2-I1" />
    <voice>1</voice>
    <type>quarter</type>
    <dot />
    <accidental>sharp</accidental>
    <stem>up</stem>
    <staff>1</staff>
   </note>
   <note color="#000000" default-x="104">
    <pitch>
     <step>F</step>
     <alter>1</alter>
     <octave>4</octave>
    </pitch>
    <duration>128</duration>
    <instrument id="P2-I1" />
    <voice>1</voice>
    <type>eighth</type>
    <stem>up</stem>
    <staff>1</staff>
   </note>
   <note color="#000000" default-x="133">
    <pitch>
     <step>F</step>
     <alter>1</alter>
     <octave>4</octave>
    </pitch>
    <duration>128</duration>
    <instrument id="P2-I1" />
    <voice>1</voice>
    <type>eighth</type>
    <stem>up</stem>
    <staff>1</staff>
    <beam number="1">begin</beam>
   </note>
   <note color="#000000" default-x="158">
    <pitch>
     <step>F</step>
     <alter>1</alter>
     <octave>4</octave>
    </pitch>
    <duration>128</duration>
    <instrument id="P2-I1" />
    <voice>1</voice>
    <type>eighth</type>
    <stem>up</stem>
    <staff>1</staff>
    <beam number="1">end</beam>
   </note>
  </measure>
  <measure number="8" width="162">
   <note color="#000000" default-x="15">
    <pitch>
     <step>F</step>
     <octave>4</octave>
    </pitch>
    <duration>768</duration>
    <instrument id="P2-I1" />
    <voice>1</voice>
    <type>half</type>
    <dot />
    <accidental>natural</accidental>
    <stem>up</stem>
    <staff>1</staff>
   </note>
  </measure>
  <measure number="9" width="148">
   <note color="#000000" default-x="17">
    <pitch>
     <step>A</step>
     <alter>-1</alter>
     <octave>4</octave>
    </pitch>
    <duration>768</duration>
    <instrument id="P2-I1" />
    <voice>1</voice>
    <type>half</type>
    <dot />
    <accidental>flat</accidental>
    <stem>up</stem>
    <staff>1</staff>
   </note>
  </measure>
  <measure number="10" width="149">
   <note color="#000000" default-x="15">
    <pitch>
     <step>A</step>
     <alter>-1</alter>
     <octave>4</octave>
    </pitch>
    <duration>768</duration>
    <instrument id="P2-I1" />
    <voice>1</voice>
    <type>half</type>
    <dot />
    <accidental>flat</accidental>
    <stem>up</stem>
    <staff>1</staff>
   </note>
  </measure>
  <measure number="11" width="152">
   <note>
    <rest />
    <duration>768</duration>
    <instrument id="P2-I1" />
    <type>whole</type>
    <staff>1</staff>
   </note>
  </measure>
  <measure number="12" width="81">
   <note>
    <rest />
    <duration>768</duration>
    <instrument id="P2-I1" />
    <type>whole</type>
    <staff>1</staff>
   </note>
  </measure>
  <measure number="13" width="81">
   <note>
    <rest />
    <duration>768</duration>
    <instrument id="P2-I1" />
    <type>whole</type>
    <staff>1</staff>
   </note>
  </measure>
  <measure number="14" width="81">
   <note>
    <rest />
    <duration>768</duration>
    <instrument id="P2-I1" />
    <type>whole</type>
    <staff>1</staff>
   </note>
  </measure>
  <measure number="15" width="185">
   <print new-system="yes">
    <system-layout>
     <system-margins>
      <left-margin>22</left-margin>
      <right-margin>0</right-margin>
     </system-margins>
    </system-layout>
    <staff-layout number="1">
     <staff-distance>54</staff-distance>
    </staff-layout>
   </print>
   <attributes>
    <staff-details number="1" print-object="yes" />
   </attributes>
   <note>
    <rest />
    <duration>768</duration>
    <instrument id="P2-I1" />
    <type>whole</type>
    <staff>1</staff>
   </note>
  </measure>
  <measure number="16" width="142">
   <note>
    <rest />
    <duration>768</duration>
    <instrument id="P2-I1" />
    <type>whole</type>
    <staff>1</staff>
   </note>
  </measure>
  <measure number="17" width="142">
   <note>
    <rest />
    <duration>768</duration>
    <instrument id="P2-I1" />
    <type>whole</type>
    <staff>1</staff>
   </note>
  </measure>
  <measure number="18" width="142">
   <note>
    <rest />
    <duration>768</duration>
    <instrument id="P2-I1" />
    <type>whole</type>
    <staff>1</staff>
   </note>
  </measure>
  <measure number="19" width="142">
   <note>
    <rest />
    <duration>768</duration>
    <instrument id="P2-I1" />
    <type>whole</type>
    <staff>1</staff>
   </note>
  </measure>
  <measure number="20" width="142">
   <note>
    <rest />
    <duration>768</duration>
    <instrument id="P2-I1" />
    <type>whole</type>
    <staff>1</staff>
   </note>
  </measure>
  <measure number="21" width="142">
   <note>
    <rest />
    <duration>768</duration>
    <instrument id="P2-I1" />
    <type>whole</type>
    <staff>1</staff>
   </note>
  </measure>
  <measure number="22" width="206">
   <print new-page="yes">
    <system-layout>
     <system-margins>
      <left-margin>22</left-margin>
      <right-margin>0</right-margin>
     </system-margins>
    </system-layout>
    <staff-layout number="1">
     <staff-distance>55</staff-distance>
    </staff-layout>
   </print>
   <attributes>
    <staff-details number="1" print-object="yes" />
   </attributes>
   <note>
    <rest />
    <duration>768</duration>
    <instrument id="P2-I1" />
    <type>whole</type>
    <staff>1</staff>
   </note>
  </measure>
  <measure number="23" width="163">
   <note>
    <rest />
    <duration>768</duration>
    <instrument id="P2-I1" />
    <type>whole</type>
    <staff>1</staff>
   </note>
  </measure>
  <measure number="24" width="164">
   <note>
    <rest />
    <duration>768</duration>
    <instrument id="P2-I1" />
    <type>whole</type>
    <staff>1</staff>
   </note>
  </measure>
  <measure number="25" width="163">
   <note>
    <rest />
    <duration>768</duration>
    <instrument id="P2-I1" />
    <type>whole</type>
    <staff>1</staff>
   </note>
  </measure>
  <measure number="26" width="163">
   <note>
    <rest />
    <duration>768</duration>
    <instrument id="P2-I1" />
    <type>whole</type>
    <staff>1</staff>
   </note>
  </measure>
  <measure number="27" width="179">
   <note>
    <rest />
    <duration>768</duration>
    <instrument id="P2-I1" />
    <type>whole</type>
    <staff>1</staff>
   </note>
   <barline>
    <bar-style>light-heavy</bar-style>
   </barline>
  </measure>
 </part>
 <part id="P3">
  <measure number="1" width="206">
   <print new-page="yes">
    <system-layout>
     <system-margins>
      <left-margin>141</left-margin>
      <right-margin>0</right-margin>
     </system-margins>
    </system-layout>
    <staff-layout number="1">
     <staff-distance>54</staff-distance>
    </staff-layout>
   </print>
   <attributes>
    <divisions>256</divisions>
    <key color="#000000">
     <fifths>0</fifths>
     <mode>major</mode>
    </key>
    <time color="#000000">
     <beats>3</beats>
     <beat-type>4</beat-type>
    </time>
    <staves>1</staves>
    <clef number="1" color="#000000">
     <sign>G</sign>
     <line>2</line>
    </clef>
    <staff-details number="1" print-object="yes" />
   </attributes>
   <note color="#000000" default-x="78">
    <pitch>
     <step>B</step>
     <alter>-1</alter>
     <octave>4</octave>
    </pitch>
    <duration>384</duration>
    <instrument id="P3-I1" />
    <voice>1</voice>
    <type>quarter</type>
    <dot />
    <accidental>flat</accidental>
    <stem>down</stem>
    <staff>1</staff>
   </note>
   <note color="#000000" default-x="127">
    <pitch>
     <step>B</step>
     <alter>-1</alter>
     <octave>4</octave>
    </pitch>
    <duration>128</duration>
    <instrument id="P3-I1" />
    <voice>1</voice>
    <type>eighth</type>
    <stem>down</stem>
    <staff>1</staff>
    <notations>
     <articulations>
      <accent />
     </articulations>
    </notations>
   </note>
   <note color="#000000" default-x="154">
    <pitch>
     <step>B</step>
     <alter>-1</alter>
     <octave>4</octave>
    </pitch>
    <duration>128</duration>
    <instrument id="P3-I1" />
    <voice>1</voice>
    <type>eighth</type>
    <stem>down</stem>
    <staff>1</staff>
    <beam number="1">begin</beam>
    <notations>
     <articulations>
      <accent />
     </articulations>
    </notations>
   </note>
   <note color="#000000" default-x="180">
    <pitch>
     <step>B</step>
     <alter>-1</alter>
     <octave>4</octave>
    </pitch>
    <duration>128</duration>
    <instrument id="P3-I1" />
    <voice>1</voice>
    <type>eighth</type>
    <stem>down</stem>
    <staff>1</staff>
    <beam number="1">end</beam>
    <notations>
     <articulations>
      <accent />
     </articulations>
    </notations>
   </note>
  </measure>
  <measure number="2" width="162">
   <note color="#000000" default-x="15">
    <pitch>
     <step>D</step>
     <octave>4</octave>
    </pitch>
    <duration>512</duration>
    <instrument id="P3-I1" />
    <voice>1</voice>
    <type>half</type>
    <stem>up</stem>
    <staff>1</staff>
   </note>
   <note color="#000000" default-x="125">
    <pitch>
     <step>G</step>
     <alter>-1</alter>
     <octave>4</octave>
    </pitch>
    <duration>256</duration>
    <tie type="start" />
    <instrument id="P3-I1" />
    <voice>1</voice>
    <type>quarter</type>
    <accidental>flat</accidental>
    <stem>up</stem>
    <staff>1</staff>
    <notations>
     <tied type="start" />
    </notations>
   </note>
  </measure>
  <measure number="3" width="113">
   <note color="#000000" default-x="15">
    <pitch>
     <step>G</step>
     <alter>-1</alter>
     <octave>4</octave>
    </pitch>
    <duration>512</duration>
    <instrument id="P3-I1" />
    <voice>1</voice>
    <type>half</type>
    <stem>up</stem>
    <staff>1</staff>
   </note>
   <note default-x="76">
    <rest />
    <duration>256</duration>
    <instrument id="P3-I1" />
    <voice>1</voice>
    <type>quarter</type>
    <staff>1</staff>
   </note>
  </measure>
  <measure number="4" width="164">
   <note>
    <rest />
    <duration>768</duration>
    <instrument id="P3-I1" />
    <type>whole</type>
    <staff>1</staff>
   </note>
  </measure>
  <measure number="5" width="116">
   <note color="#000000" default-x="17">
    <pitch>
     <step>E</step>
     <alter>-1</alter>
     <octave>4</octave>
    </pitch>
    <duration>384</duration>
    <instrument id="P3-I1" />
    <voice>1</voice>
    <type>quarter</type>
    <dot />
    <accidental>flat</accidental>
    <stem>up</stem>
    <staff>1</staff>
   </note>
   <note color="#000000" default-x="67">
    <pitch>
     <step>E</step>
     <alter>-1</alter>
     <octave>4</octave>
    </pitch>
    <duration>384</duration>
    <instrument id="P3-I1" />
    <voice>1</voice>
    <type>quarter</type>
    <dot />
    <accidental>flat</accidental>
    <stem>up</stem>
    <staff>1</staff>
   </note>
  </measure>
  <measure number="6" width="158">
   <note>
    <rest />
    <duration>768</duration>
    <instrument id="P3-I1" />
    <type>whole</type>
    <staff>1</staff>
   </note>
  </measure>
  <measure number="7" width="183">
   <print new-system="yes">
    <system-layout>
     <system-margins>
      <left-margin>22</left-margin>
      <right-margin>0</right-margin>
     </system-margins>
    </system-layout>
    <staff-layout number="1">
     <staff-distance>54</staff-distance>
    </staff-layout>
   </print>
   <attributes>
    <staff-details number="1" print-object="yes" />
   </attributes>
   <note color="#000000" default-x="58">
    <pitch>
     <step>D</step>
     <octave>4</octave>
    </pitch>
    <duration>384</duration>
    <instrument id="P3-I1" />
    <voice>1</voice>
    <type>quarter</type>
    <dot />
    <stem>up</stem>
    <staff>1</staff>
   </note>
   <note color="#000000" default-x="104">
    <pitch>
     <step>D</step>
     <octave>4</octave>
    </pitch>
    <duration>128</duration>
    <instrument id="P3-I1" />
    <voice>1</voice>
    <type>eighth</type>
    <stem>up</stem>
    <staff>1</staff>
   </note>
   <note color="#000000" default-x="133">
    <pitch>
     <step>D</step>
     <octave>4</octave>
    </pitch>
    <duration>128</duration>
    <instrument id="P3-I1" />
    <voice>1</voice>
    <type>eighth</type>
    <stem>up</stem>
    <staff>1</staff>
    <beam number="1">begin</beam>
   </note>
   <note color="#000000" default-x="158">
    <pitch>
     <step>D</step>
     <octave>4</octave>
    </pitch>
    <duration>128</duration>
    <instrument id="P3-I1" />
    <voice>1</voice>
    <type>eighth</type>
    <stem>up</stem>
    <staff>1</staff>
    <beam number="1">end</beam>
   </note>
  </measure>
  <measure number="8" width="162">
   <note>
    <rest />
    <duration>768</duration>
    <instrument id="P3-I1" />
    <type>whole</type>
    <staff>1</staff>
   </note>
  </measure>
  <measure number="9" width="148">
   <note color="#000000" default-x="17">
    <pitch>
     <step>G</step>
     <alter>-1</alter>
     <octave>4</octave>
    </pitch>
    <duration>768</duration>
    <instrument id="P3-I1" />
    <voice>1</voice>
    <type>half</type>
    <dot />
    <accidental>flat</accidental>
    <stem>up</stem>
    <staff>1</staff>
   </note>
  </measure>
  <measure number="10" width="149">
   <note color="#000000" default-x="15">
    <pitch>
     <step>G</step>
     <alter>-1</alter>
     <octave>4</octave>
    </pitch>
    <duration>768</duration>
    <instrument id="P3-I1" />
    <voice>1</voice>
    <type>half</type>
    <dot />
    <accidental>flat</accidental>
    <stem>up</stem>
    <staff>1</staff>
   </note>
  </measure>
  <measure number="11" width="152">
   <note>
    <rest />
    <duration>768</duration>
    <instrument id="P3-I1" />
    <type>whole</type>
    <staff>1</staff>
   </note>
  </measure>
  <measure number="12" width="81">
   <note>
    <rest />
    <duration>768</duration>
    <instrument id="P3-I1" />
    <type>whole</type>
    <staff>1</staff>
   </note>
  </measure>
  <measure number="13" width="81">
   <note>
    <rest />
    <duration>768</duration>
    <instrument id="P3-I1" />
    <type>whole</type>
    <staff>1</staff>
   </note>
  </measure>
  <measure number="14" width="81">
   <note>
    <rest />
    <duration>768</duration>
    <instrument id="P3-I1" />
    <type>whole</type>
    <staff>1</staff>
   </note>
  </measure>
  <measure number="15" width="185">
   <print new-system="yes">
    <system-layout>
     <system-margins>
      <left-margin>22</left-margin>
      <right-margin>0</right-margin>
     </system-margins>
    </system-layout>
    <staff-layout number="1">
     <staff-distance>54</staff-distance>
    </staff-layout>
   </print>
   <attributes>
    <staff-details number="1" print-object="yes" />
   </attributes>
   <note>
    <rest />
    <duration>768</duration>
    <instrument id="P3-I1" />
    <type>whole</type>
    <staff>1</staff>
   </note>
  </measure>
  <measure number="16" width="142">
   <note>
    <rest />
    <duration>768</duration>
    <instrument id="P3-I1" />
    <type>whole</type>
    <staff>1</staff>
   </note>
  </measure>
  <measure number="17" width="142">
   <note>
    <rest />
    <duration>768</duration>
    <instrument id="P3-I1" />
    <type>whole</type>
    <staff>1</staff>
   </note>
  </measure>
  <measure number="18" width="142">
   <note>
    <rest />
    <duration>768</duration>
    <instrument id="P3-I1" />
    <type>whole</type>
    <staff>1</staff>
   </note>
  </measure>
  <measure number="19" width="142">
   <note>
    <rest />
    <duration>768</duration>
    <instrument id="P3-I1" />
    <type>whole</type>
    <staff>1</staff>
   </note>
  </measure>
  <measure number="20" width="142">
   <note>
    <rest />
    <duration>768</duration>
    <instrument id="P3-I1" />
    <type>whole</type>
    <staff>1</staff>
   </note>
  </measure>
  <measure number="21" width="142">
   <note>
    <rest />
    <duration>768</duration>
    <instrument id="P3-I1" />
    <type>whole</type>
    <staff>1</staff>
   </note>
  </measure>
  <measure number="22" width="206">
   <print new-page="yes">
    <system-layout>
     <system-margins>
      <left-margin>22</left-margin>
      <right-margin>0</right-margin>
     </system-margins>
    </system-layout>
    <staff-layout number="1">
     <staff-distance>55</staff-distance>
    </staff-layout>
   </print>
   <attributes>
    <staff-details number="1" print-object="yes" />
   </attributes>
   <note>
    <rest />
    <duration>768</duration>
    <instrument id="P3-I1" />
    <type>whole</type>
    <staff>1</staff>
   </note>
  </measure>
  <measure number="23" width="163">
   <note>
    <rest />
    <duration>768</duration>
    <instrument id="P3-I1" />
    <type>whole</type>
    <staff>1</staff>
   </note>
  </measure>
  <measure number="24" width="164">
   <note>
    <rest />
    <duration>768</duration>
    <instrument id="P3-I1" />
    <type>whole</type>
    <staff>1</staff>
   </note>
  </measure>
  <measure number="25" width="163">
   <note>
    <rest />
    <duration>768</duration>
    <instrument id="P3-I1" />
    <type>whole</type>
    <staff>1</staff>
   </note>
  </measure>
  <measure number="26" width="163">
   <note>
    <rest />
    <duration>768</duration>
    <instrument id="P3-I1" />
    <type>whole</type>
    <staff>1</staff>
   </note>
  </measure>
  <measure number="27" width="179">
   <note>
    <rest />
    <duration>768</duration>
    <instrument id="P3-I1" />
    <type>whole</type>
    <staff>1</staff>
   </note>
   <barline>
    <bar-style>light-heavy</bar-style>
   </barline>
  </measure>
 </part>
 <part id="P4">
  <measure number="1" width="206">
   <print new-page="yes">
    <system-layout>
     <system-margins>
      <left-margin>141</left-margin>
      <right-margin>0</right-margin>
     </system-margins>
    </system-layout>
    <staff-layout number="1">
     <staff-distance>64</staff-distance>
    </staff-layout>
   </print>
   <attributes>
    <divisions>256</divisions>
    <key color="#000000">
     <fifths>0</fifths>
     <mode>major</mode>
    </key>
    <time color="#000000">
     <beats>3</beats>
     <beat-type>4</beat-type>
    </time>
    <staves>1</staves>
    <clef number="1" color="#000000">
     <sign>F</sign>
     <line>4</line>
    </clef>
    <staff-details number="1" print-object="yes" />
   </attributes>
   <note color="#000000" default-x="78">
    <pitch>
     <step>G</step>
     <alter>-1</alter>
     <octave>4</octave>
    </pitch>
    <duration>384</duration>
    <instrument id="P4-I1" />
    <voice>1</voice>
    <type>quarter</type>
    <dot />
    <accidental>flat</accidental>
    <stem>down</stem>
    <staff>1</staff>
   </note>
   <note color="#000000" default-x="127">
    <pitch>
     <step>G</step>
     <alter>-1</alter>
     <octave>4</octave>
    </pitch>
    <duration>128</duration>
    <instrument id="P4-I1" />
    <voice>1</voice>
    <type>eighth</type>
    <stem>down</stem>
    <staff>1</staff>
    <notations>
     <articulations>
      <accent />
     </articulations>
    </notations>
   </note>
   <note color="#000000" default-x="154">
    <pitch>
     <step>G</step>
     <alter>-1</alter>
     <octave>4</octave>
    </pitch>
    <duration>128</duration>
    <instrument id="P4-I1" />
    <voice>1</voice>
    <type>eighth</type>
    <stem>down</stem>
    <staff>1</staff>
    <beam number="1">begin</beam>
    <notations>
     <articulations>
      <accent />
     </articulations>
    </notations>
   </note>
   <note color="#000000" default-x="180">
    <pitch>
     <step>G</step>
     <alter>-1</alter>
     <octave>4</octave>
    </pitch>
    <duration>128</duration>
    <instrument id="P4-I1" />
    <voice>1</voice>
    <type>eighth</type>
    <stem>down</stem>
    <staff>1</staff>
    <beam number="1">end</beam>
    <notations>
     <articulations>
      <accent />
     </articulations>
    </notations>
   </note>
  </measure>
  <measure number="2" width="162">
   <note default-x="15">
    <rest />
    <duration>512</duration>
    <instrument id="P4-I1" />
    <voice>1</voice>
    <type>half</type>
    <staff>1</staff>
   </note>
   <note color="#000000" default-x="125">
    <pitch>
     <step>C</step>
     <octave>4</octave>
    </pitch>
    <duration>256</duration>
    <tie type="start" />
    <instrument id="P4-I1" />
    <voice>1</voice>
    <type>quarter</type>
    <stem>down</stem>
    <staff>1</staff>
    <notations>
     <tied type="start" />
    </notations>
   </note>
  </measure>
  <measure number="3" width="113">
   <note color="#000000" default-x="15">
    <pitch>
     <step>C</step>
     <octave>4</octave>
    </pitch>
    <duration>512</duration>
    <instrument id="P4-I1" />
    <voice>1</voice>
    <type>half</type>
    <stem>down</stem>
    <staff>1</staff>
   </note>
   <note default-x="76">
    <rest />
    <duration>256</duration>
    <instrument id="P4-I1" />
    <voice>1</voice>
    <type>quarter</type>
    <staff>1</staff>
   </note>
  </measure>
  <measure number="4" width="164">
   <note color="#000000" default-x="15">
    <pitch>
     <step>C</step>
     <octave>2</octave>
    </pitch>
    <duration>128</duration>
    <instrument id="P4-I1" />
    <voice>1</voice>
    <type>eighth</type>
    <stem>up</stem>
    <staff>1</staff>
    <beam number="1">begin</beam>
   </note>
   <note color="#000000" default-x="41">
    <pitch>
     <step>E</step>
     <octave>2</octave>
    </pitch>
    <duration>128</duration>
    <instrument id="P4-I1" />
    <voice>1</voice>
    <type>eighth</type>
    <stem>up</stem>
    <staff>1</staff>
    <beam number="1">end</beam>
   </note>
   <note color="#000000" default-x="73">
    <pitch>
     <step>B</step>
     <alter>-1</alter>
     <octave>2</octave>
    </pitch>
    <duration>128</duration>
    <instrument id="P4-I1" />
    <voice>1</voice>
    <type>eighth</type>
    <accidental>flat</accidental>
    <stem>up</stem>
    <staff>1</staff>
    <beam number="1">begin</beam>
   </note>
   <note color="#000000" default-x="101">
    <pitch>
     <step>G</step>
     <alter>-1</alter>
     <octave>2</octave>
    </pitch>
    <duration>128</duration>
    <tie type="start" />
    <instrument id="P4-I1" />
    <voice>1</voice>
    <type>eighth</type>
    <accidental>flat</accidental>
    <stem>up</stem>
    <staff>1</staff>
    <beam number="1">end</beam>
    <notations>
     <tied type="start" />
    </notations>
   </note>
   <note color="#000000" default-x="127">
    <pitch>
     <step>G</step>
     <alter>-1</alter>
     <octave>2</octave>
    </pitch>
    <duration>256</duration>
    <tie type="stop" />
    <instrument id="P4-I1" />
    <voice>1</voice>
    <type>quarter</type>
    <stem>up</stem>
    <staff>1</staff>
    <notations>
     <tied type="stop" />
    </notations>
   </note>
  </measure>
  <measure number="5" width="116">
   <note color="#000000" default-x="17">
    <pitch>
     <step>D</step>
     <alter>-1</alter>
     <octave>4</octave>
    </pitch>
    <duration>384</duration>
    <instrument id="P4-I1" />
    <voice>1</voice>
    <type>quarter</type>
    <dot />
    <accidental>flat</accidental>
    <stem>down</stem>
    <staff>1</staff>
   </note>
   <note color="#000000" default-x="67">
    <pitch>
     <step>C</step>
     <octave>4</octave>
    </pitch>
    <duration>384</duration>
    <instrument id="P4-I1" />
    <voice>1</voice>
    <type>quarter</type>
    <dot />
    <stem>down</stem>
    <staff>1</staff>
   </note>
  </measure>
  <measure number="6" width="158">
   <note color="#000000" default-x="15">
    <pitch>
     <step>C</step>
     <octave>3</octave>
    </pitch>
    <duration>128</duration>
    <instrument id="P4-I1" />
    <voice>1</voice>
    <type>eighth</type>
    <stem>down</stem>
    <staff>1</staff>
    <beam number="1">begin</beam>
   </note>
   <note color="#000000" default-x="41">
    <pitch>
     <step>E</step>
     <octave>3</octave>
    </pitch>
    <duration>128</duration>
    <instrument id="P4-I1" />
    <voice>1</voice>
    <type>eighth</type>
    <stem>down</stem>
    <staff>1</staff>
    <beam number="1">end</beam>
   </note>
   <note color="#000000" default-x="69">
    <pitch>
     <step>A</step>
     <alter>-1</alter>
     <octave>3</octave>
    </pitch>
    <duration>128</duration>
    <instrument id="P4-I1" />
    <voice>1</voice>
    <type>eighth</type>
    <accidental>flat</accidental>
    <stem>down</stem>
    <staff>1</staff>
    <beam number="1">begin</beam>
   </note>
   <note color="#000000" default-x="95">
    <pitch>
     <step>G</step>
     <octave>3</octave>
    </pitch>
    <duration>128</duration>
    <tie type="start" />
    <instrument id="P4-I1" />
    <voice>1</voice>
    <type>eighth</type>
    <stem>down</stem>
    <staff>1</staff>
    <beam number="1">end</beam>
    <notations>
     <tied type="start" />
    </notations>
   </note>
   <note color="#000000" default-x="122">
    <pitch>
     <step>G</step>
     <octave>3</octave>
    </pitch>
    <duration>256</duration>
    <tie type="stop" />
    <instrument id="P4-I1" />
    <voice>1</voice>
    <type>quarter</type>
    <stem>down</stem>
    <staff>1</staff>
    <notations>
     <tied type="stop" />
    </notations>
   </note>
  </measure>
  <measure number="7" width="183">
   <print new-system="yes">
    <system-layout>
     <system-margins>
      <left-margin>22</left-margin>
      <right-margin>0</right-margin>
     </system-margins>
    </system-layout>
    <staff-layout number="1">
     <staff-distance>54</staff-distance>
    </staff-layout>
   </print>
   <attributes>
    <staff-details number="1" print-object="yes" />
   </attributes>
   <note color="#000000" default-x="58">
    <pitch>
     <step>D</step>
     <octave>3</octave>
    </pitch>
    <duration>384</duration>
    <instrument id="P4-I1" />
    <voice>1</voice>
    <type>quarter</type>
    <dot />
    <stem>down</stem>
    <staff>1</staff>
   </note>
   <note color="#000000" default-x="104">
    <pitch>
     <step>D</step>
     <octave>3</octave>
    </pitch>
    <duration>128</duration>
    <instrument id="P4-I1" />
    <voice>1</voice>
    <type>eighth</type>
    <stem>down</stem>
    <staff>1</staff>
   </note>
   <note color="#000000" default-x="133">
    <pitch>
     <step>D</step>
     <octave>3</octave>
    </pitch>
    <duration>128</duration>
    <instrument id="P4-I1" />
    <voice>1</voice>
    <type>eighth</type>
    <stem>down</stem>
    <staff>1</staff>
    <beam number="1">begin</beam>
   </note>
   <note color="#000000" default-x="158">
    <pitch>
     <step>D</step>
     <octave>3</octave>
    </pitch>
    <duration>128</duration>
    <instrument id="P4-I1" />
    <voice>1</voice>
    <type>eighth</type>
    <stem>down</stem>
    <staff>1</staff>
    <beam number="1">end</beam>
   </note>
  </measure>
  <measure number="8" width="162">
   <note color="#000000" default-x="15">
    <pitch>
     <step>F</step>
     <alter>1</alter>
     <octave>2</octave>
    </pitch>
    <duration>128</duration>
    <instrument id="P4-I1" />
    <voice>1</voice>
    <type>eighth</type>
    <accidental>sharp</accidental>
    <stem>up</stem>
    <staff>1</staff>
    <beam number="1">begin</beam>
   </note>
   <note color="#000000" default-x="44">
    <pitch>
     <step>F</step>
     <alter>1</alter>
     <octave>3</octave>
    </pitch>
    <duration>128</duration>
    <instrument id="P4-I1" />
    <voice>1</voice>
    <type>eighth</type>
    <accidental>sharp</accidental>
    <stem>up</stem>
    <staff>1</staff>
    <beam number="1">end</beam>
   </note>
   <note color="#000000" default-x="73">
    <pitch>
     <step>D</step>
     <alter>1</alter>
     <octave>3</octave>
    </pitch>
    <duration>128</duration>
    <instrument id="P4-I1" />
    <voice>1</voice>
    <type>eighth</type>
    <accidental>sharp</accidental>
    <stem>down</stem>
    <staff>1</staff>
    <beam number="1">begin</beam>
   </note>
   <note color="#000000" default-x="102">
    <pitch>
     <step>A</step>
     <alter>1</alter>
     <octave>3</octave>
    </pitch>
    <duration>128</duration>
    <instrument id="P4-I1" />
    <voice>1</voice>
    <type>eighth</type>
    <accidental>sharp</accidental>
    <stem>down</stem>
    <staff>1</staff>
    <beam number="1">end</beam>
   </note>
   <note color="#000000" default-x="128">
    <pitch>
     <step>A</step>
     <octave>3</octave>
    </pitch>
    <duration>256</duration>
    <instrument id="P4-I1" />
    <voice>1</voice>
    <type>quarter</type>
    <accidental>natural</accidental>
    <stem>down</stem>
    <staff>1</staff>
   </note>
  </measure>
  <measure number="9" width="148">
   <note color="#000000" default-x="17">
    <pitch>
     <step>D</step>
     <alter>-1</alter>
     <octave>4</octave>
    </pitch>
    <duration>768</duration>
    <instrument id="P4-I1" />
    <voice>1</voice>
    <type>half</type>
    <dot />
    <accidental>flat</accidental>
    <stem>down</stem>
    <staff>1</staff>
   </note>
  </measure>
  <measure number="10" width="149">
   <note color="#000000" default-x="15">
    <pitch>
     <step>C</step>
     <octave>4</octave>
    </pitch>
    <duration>768</duration>
    <instrument id="P4-I1" />
    <voice>1</voice>
    <type>half</type>
    <dot />
    <stem>down</stem>
    <staff>1</staff>
   </note>
  </measure>
  <measure number="11" width="152">
   <note color="#000000" default-x="15">
    <pitch>
     <step>C</step>
     <octave>3</octave>
    </pitch>
    <duration>128</duration>
    <instrument id="P4-I1" />
    <voice>1</voice>
    <type>eighth</type>
    <stem>down</stem>
    <staff>1</staff>
    <beam number="1">begin</beam>
   </note>
   <note color="#000000" default-x="40">
    <pitch>
     <step>E</step>
     <octave>3</octave>
    </pitch>
    <duration>128</duration>
    <instrument id="P4-I1" />
    <voice>1</voice>
    <type>eighth</type>
    <stem>down</stem>
    <staff>1</staff>
    <beam number="1">end</beam>
   </note>
   <note color="#000000" default-x="68">
    <pitch>
     <step>A</step>
     <alter>-1</alter>
     <octave>3</octave>
    </pitch>
    <duration>128</duration>
    <instrument id="P4-I1" />
    <voice>1</voice>
    <type>eighth</type>
    <accidental>flat</accidental>
    <stem>down</stem>
    <staff>1</staff>
    <beam number="1">begin</beam>
   </note>
   <note color="#000000" default-x="93">
    <pitch>
     <step>G</step>
     <octave>3</octave>
    </pitch>
    <duration>128</duration>
    <tie type="start" />
    <instrument id="P4-I1" />
    <voice>1</voice>
    <type>eighth</type>
    <stem>down</stem>
    <staff>1</staff>
    <beam number="1">end</beam>
    <notations>
     <tied type="start" />
    </notations>
   </note>
   <note color="#000000" default-x="118">
    <pitch>
     <step>G</step>
     <octave>3</octave>
    </pitch>
    <duration>256</duration>
    <tie type="stop" />
    <instrument id="P4-I1" />
    <voice>1</voice>
    <type>quarter</type>
    <stem>down</stem>
    <staff>1</staff>
    <notations>
     <tied type="stop" />
    </notations>
   </note>
  </measure>
  <measure number="12" width="81">
   <note>
    <rest />
    <duration>768</duration>
    <instrument id="P4-I1" />
    <type>whole</type>
    <staff>1</staff>
   </note>
  </measure>
  <measure number="13" width="81">
   <note>
    <rest />
    <duration>768</duration>
    <instrument id="P4-I1" />
    <type>whole</type>
    <staff>1</staff>
   </note>
  </measure>
  <measure number="14" width="81">
   <note>
    <rest />
    <duration>768</duration>
    <instrument id="P4-I1" />
    <type>whole</type>
    <staff>1</staff>
   </note>
  </measure>
  <measure number="15" width="185">
   <print new-system="yes">
    <system-layout>
     <system-margins>
      <left-margin>22</left-margin>
      <right-margin>0</right-margin>
     </system-margins>
    </system-layout>
    <staff-layout number="1">
     <staff-distance>54</staff-distance>
    </staff-layout>
   </print>
   <attributes>
    <staff-details number="1" print-object="yes" />
   </attributes>
   <note>
    <rest />
    <duration>768</duration>
    <instrument id="P4-I1" />
    <type>whole</type>
    <staff>1</staff>
   </note>
  </measure>
  <measure number="16" width="142">
   <note>
    <rest />
    <duration>768</duration>
    <instrument id="P4-I1" />
    <type>whole</type>
    <staff>1</staff>
   </note>
  </measure>
  <measure number="17" width="142">
   <note>
    <rest />
    <duration>768</duration>
    <instrument id="P4-I1" />
    <type>whole</type>
    <staff>1</staff>
   </note>
  </measure>
  <measure number="18" width="142">
   <note>
    <rest />
    <duration>768</duration>
    <instrument id="P4-I1" />
    <type>whole</type>
    <staff>1</staff>
   </note>
  </measure>
  <measure number="19" width="142">
   <note>
    <rest />
    <duration>768</duration>
    <instrument id="P4-I1" />
    <type>whole</type>
    <staff>1</staff>
   </note>
  </measure>
  <measure number="20" width="142">
   <note>
    <rest />
    <duration>768</duration>
    <instrument id="P4-I1" />
    <type>whole</type>
    <staff>1</staff>
   </note>
  </measure>
  <measure number="21" width="142">
   <note>
    <rest />
    <duration>768</duration>
    <instrument id="P4-I1" />
    <type>whole</type>
    <staff>1</staff>
   </note>
  </measure>
  <measure number="22" width="206">
   <print new-page="yes">
    <system-layout>
     <system-margins>
      <left-margin>22</left-margin>
      <right-margin>0</right-margin>
     </system-margins>
    </system-layout>
    <staff-layout number="1">
     <staff-distance>55</staff-distance>
    </staff-layout>
   </print>
   <attributes>
    <staff-details number="1" print-object="yes" />
   </attributes>
   <note>
    <rest />
    <duration>768</duration>
    <instrument id="P4-I1" />
    <type>whole</type>
    <staff>1</staff>
   </note>
  </measure>
  <measure number="23" width="163">
   <note>
    <rest />
    <duration>768</duration>
    <instrument id="P4-I1" />
    <type>whole</type>
    <staff>1</staff>
   </note>
  </measure>
  <measure number="24" width="164">
   <note>
    <rest />
    <duration>768</duration>
    <instrument id="P4-I1" />
    <type>whole</type>
    <staff>1</staff>
   </note>
  </measure>
  <measure number="25" width="163">
   <note>
    <rest />
    <duration>768</duration>
    <instrument id="P4-I1" />
    <type>whole</type>
    <staff>1</staff>
   </note>
  </measure>
  <measure number="26" width="163">
   <note>
    <rest />
    <duration>768</duration>
    <instrument id="P4-I1" />
    <type>whole</type>
    <staff>1</staff>
   </note>
  </measure>
  <measure number="27" width="179">
   <note>
    <rest />
    <duration>768</duration>
    <instrument id="P4-I1" />
    <type>whole</type>
    <staff>1</staff>
   </note>
   <barline>
    <bar-style>light-heavy</bar-style>
   </barline>
  </measure>
 </part>
</score-partwise>
