<?xml version='1.0' encoding='UTF-8'?>
<!DOCTYPE score-partwise PUBLIC "-//Recordare//DTD MusicXML 3.0 Partwise//EN" "http://www.musicxml.org/dtds/partwise.dtd">
<score-partwise version='3.0'>
	<work>
		<work-title>Title</work-title>
	</work>
	<identification>
		<creator type='composer'>Composer</creator>
		<encoding>
			<software>Notion 6.8.2</software>
		</encoding>
	</identification>
	<defaults>
		<scaling>
			<millimeters>5.6444</millimeters>
			<tenths>40</tenths>
		</scaling>
		<page-layout>
			<page-height>1980</page-height>
			<page-width>1530</page-width>
			<page-margins type='both'>
				<left-margin>112</left-margin>
				<right-margin>112</right-margin>
				<top-margin>135</top-margin>
				<bottom-margin>112</bottom-margin>
			</page-margins>
		</page-layout>
	</defaults>
	<part-list>
		<score-part id='P1'>
			<part-name>Cello</part-name>
			<score-instrument id='P1-I1'>
				<instrument-name>Cello</instrument-name>
			</score-instrument>
			<midi-instrument id='P1-I1'>
				<midi-channel>1</midi-channel>
			</midi-instrument>
		</score-part>
		<score-part id='P2'>
			<part-name>Cello</part-name>
			<score-instrument id='P2-I1'>
				<instrument-name>Cello</instrument-name>
			</score-instrument>
			<midi-instrument id='P2-I1'>
				<midi-channel>2</midi-channel>
			</midi-instrument>
		</score-part>
	</part-list>
	<part id='P1'>
		<!--//////////////////// Part 1 | Measure 1 ////////////////////-->
		<measure number='1'>
			<print>
				<staff-layout number='1'>
					<staff-distance>60</staff-distance>
				</staff-layout>
			</print>
			<attributes>
				<divisions>8</divisions>
				<key><fifths>0</fifths><mode>major</mode></key>
				<time><beats>4</beats><beat-type>4</beat-type></time>
				<staves>1</staves>
				<clef number='1'>
					<sign>F</sign>
					<line>4</line>
				</clef>
			</attributes>
			<note print-object='no'>
				<rest/>
				<duration>32</duration>
				<type>whole</type>
			</note>
			<direction>
				<direction-type>
					<metronome default-y='20'>
						<beat-unit>quarter</beat-unit>
						<per-minute>140</per-minute>
					</metronome>
				</direction-type>
				<sound tempo='140'/>
			</direction>
		</measure>
		<!--//////////////////// Part 1 | Measure 2 ////////////////////-->
		<measure number='2'>
			<attributes>
				<divisions>8</divisions>
			</attributes>
			<note print-object='no'>
				<rest/>
				<duration>32</duration>
				<type>whole</type>
			</note>
		</measure>
		<!--//////////////////// Part 1 | Measure 3 ////////////////////-->
		<measure number='3'>
			<attributes>
				<divisions>8</divisions>
			</attributes>
			<note print-object='no'>
				<rest/>
				<duration>32</duration>
				<type>whole</type>
			</note>
		</measure>
		<!--//////////////////// Part 1 | Measure 4 ////////////////////-->
		<measure number='4'>
			<attributes>
				<divisions>4</divisions>
			</attributes>
			<note print-object='no'>
				<rest/>
				<duration>16</duration>
				<type>whole</type>
			</note>
		</measure>
		<!--//////////////////// Part 1 | Measure 5 ////////////////////-->
		<measure number='5'>
			<attributes>
				<divisions>4</divisions>
			</attributes>
			<note print-object='no'>
				<rest/>
				<duration>16</duration>
				<type>whole</type>
			</note>
		</measure>
		<!--//////////////////// Part 1 | Measure 6 ////////////////////-->
		<measure number='6'>
			<attributes>
				<divisions>4</divisions>
			</attributes>
			<note print-object='no'>
				<rest/>
				<duration>16</duration>
				<type>whole</type>
			</note>
		</measure>
		<!--//////////////////// Part 1 | Measure 7 ////////////////////-->
		<measure number='7'>
			<attributes>
				<divisions>4</divisions>
			</attributes>
			<note print-object='no'>
				<rest/>
				<duration>16</duration>
				<type>whole</type>
			</note>
		</measure>
		<!--//////////////////// Part 1 | Measure 8 ////////////////////-->
		<measure number='8'>
			<attributes>
				<divisions>4</divisions>
			</attributes>
			<note print-object='no'>
				<rest/>
				<duration>16</duration>
				<type>whole</type>
			</note>
		</measure>
		<!--//////////////////// Part 1 | Measure 9 ////////////////////-->
		<measure number='9'>
			<attributes>
				<divisions>4</divisions>
			</attributes>
			<note print-object='no'>
				<rest/>
				<duration>16</duration>
				<type>whole</type>
			</note>
		</measure>
		<!--//////////////////// Part 1 | Measure 10 ////////////////////-->
		<measure number='10'>
			<attributes>
				<divisions>8</divisions>
			</attributes>
			<note>
				<pitch>
					<step>D</step>
					<octave>4</octave>
				</pitch>
				<duration>8</duration>
				<voice>1</voice>
				<type>quarter</type>
				<staff>1</staff>
			</note>
			<note>
				<pitch>
					<step>B</step>
					<alter>-1.0</alter>
					<octave>3</octave>
				</pitch>
				<duration>4</duration>
				<voice>1</voice>
				<type>eighth</type>
				<accidental>flat</accidental>
				<staff>1</staff>
				<beam number='1'>begin</beam>
			</note>
			<note>
				<pitch>
					<step>A</step>
					<octave>3</octave>
				</pitch>
				<duration>4</duration>
				<voice>1</voice>
				<type>eighth</type>
				<staff>1</staff>
				<beam number='1'>end</beam>
			</note>
			<note>
				<pitch>
					<step>G</step>
					<octave>3</octave>
				</pitch>
				<duration>16</duration>
				<voice>1</voice>
				<type>half</type>
				<staff>1</staff>
			</note>
		</measure>
		<!--//////////////////// Part 1 | Measure 11 ////////////////////-->
		<measure number='11'>
			<attributes>
				<divisions>8</divisions>
			</attributes>
			<note>
				<pitch>
					<step>D</step>
					<octave>4</octave>
				</pitch>
				<duration>8</duration>
				<voice>1</voice>
				<type>quarter</type>
				<staff>1</staff>
			</note>
			<note>
				<pitch>
					<step>B</step>
					<alter>-1.0</alter>
					<octave>3</octave>
				</pitch>
				<duration>4</duration>
				<voice>1</voice>
				<type>eighth</type>
				<accidental>flat</accidental>
				<staff>1</staff>
				<beam number='1'>begin</beam>
			</note>
			<note>
				<pitch>
					<step>A</step>
					<octave>3</octave>
				</pitch>
				<duration>4</duration>
				<voice>1</voice>
				<type>eighth</type>
				<staff>1</staff>
				<beam number='1'>end</beam>
			</note>
			<note>
				<pitch>
					<step>G</step>
					<octave>3</octave>
				</pitch>
				<duration>16</duration>
				<voice>1</voice>
				<type>half</type>
				<staff>1</staff>
			</note>
		</measure>
		<!--//////////////////// Part 1 | Measure 12 ////////////////////-->
		<measure number='12'>
			<attributes>
				<divisions>4</divisions>
			</attributes>
			<note print-object='no'>
				<rest/>
				<duration>16</duration>
				<type>whole</type>
			</note>
		</measure>
		<!--//////////////////// Part 1 | Measure 13 ////////////////////-->
		<measure number='13'>
			<attributes>
				<divisions>4</divisions>
			</attributes>
			<note print-object='no'>
				<rest/>
				<duration>16</duration>
				<type>whole</type>
			</note>
		</measure>
		<!--//////////////////// Part 1 | Measure 14 ////////////////////-->
		<measure number='14'>
			<attributes>
				<divisions>4</divisions>
			</attributes>
			<note print-object='no'>
				<rest/>
				<duration>16</duration>
				<type>whole</type>
			</note>
		</measure>
		<!--//////////////////// Part 1 | Measure 15 ////////////////////-->
		<measure number='15'>
			<attributes>
				<divisions>4</divisions>
			</attributes>
			<note print-object='no'>
				<rest/>
				<duration>16</duration>
				<type>whole</type>
			</note>
		</measure>
		<!--//////////////////// Part 1 | Measure 16 ////////////////////-->
		<measure number='16'>
			<attributes>
				<divisions>4</divisions>
			</attributes>
			<note print-object='no'>
				<rest/>
				<duration>16</duration>
				<type>whole</type>
			</note>
		</measure>
		<!--//////////////////// Part 1 | Measure 17 ////////////////////-->
		<measure number='17'>
			<attributes>
				<divisions>4</divisions>
			</attributes>
			<note print-object='no'>
				<rest/>
				<duration>16</duration>
				<type>whole</type>
			</note>
		</measure>
		<!--//////////////////// Part 1 | Measure 18 ////////////////////-->
		<measure number='18'>
			<attributes>
				<divisions>4</divisions>
			</attributes>
			<note print-object='no'>
				<rest/>
				<duration>16</duration>
				<type>whole</type>
			</note>
		</measure>
		<!--//////////////////// Part 1 | Measure 19 ////////////////////-->
		<measure number='19'>
			<attributes>
				<divisions>4</divisions>
			</attributes>
			<note print-object='no'>
				<rest/>
				<duration>16</duration>
				<type>whole</type>
			</note>
		</measure>
		<!--//////////////////// Part 1 | Measure 20 ////////////////////-->
		<measure number='20'>
			<attributes>
				<divisions>4</divisions>
			</attributes>
			<note print-object='no'>
				<rest/>
				<duration>16</duration>
				<type>whole</type>
			</note>
		</measure>
		<!--//////////////////// Part 1 | Measure 21 ////////////////////-->
		<measure number='21'>
			<attributes>
				<divisions>4</divisions>
			</attributes>
			<note print-object='no'>
				<rest/>
				<duration>16</duration>
				<type>whole</type>
			</note>
		</measure>
		<!--//////////////////// Part 1 | Measure 22 ////////////////////-->
		<measure number='22'>
			<attributes>
				<divisions>4</divisions>
			</attributes>
			<note print-object='no'>
				<rest/>
				<duration>16</duration>
				<type>whole</type>
			</note>
		</measure>
		<!--//////////////////// Part 1 | Measure 23 ////////////////////-->
		<measure number='23'>
			<attributes>
				<divisions>4</divisions>
			</attributes>
			<note print-object='no'>
				<rest/>
				<duration>16</duration>
				<type>whole</type>
			</note>
		</measure>
		<!--//////////////////// Part 1 | Measure 24 ////////////////////-->
		<measure number='24'>
			<attributes>
				<divisions>4</divisions>
			</attributes>
			<note print-object='no'>
				<rest/>
				<duration>16</duration>
				<type>whole</type>
			</note>
		</measure>
		<!--//////////////////// Part 1 | Measure 25 ////////////////////-->
		<measure number='25'>
			<attributes>
				<divisions>4</divisions>
			</attributes>
			<note print-object='no'>
				<rest/>
				<duration>16</duration>
				<type>whole</type>
			</note>
		</measure>
		<!--//////////////////// Part 1 | Measure 26 ////////////////////-->
		<measure number='26'>
			<attributes>
				<divisions>4</divisions>
			</attributes>
			<note print-object='no'>
				<rest/>
				<duration>16</duration>
				<type>whole</type>
			</note>
		</measure>
		<!--//////////////////// Part 1 | Measure 27 ////////////////////-->
		<measure number='27'>
			<attributes>
				<divisions>4</divisions>
			</attributes>
			<note print-object='no'>
				<rest/>
				<duration>16</duration>
				<type>whole</type>
			</note>
		</measure>
		<!--//////////////////// Part 1 | Measure 28 ////////////////////-->
		<measure number='28'>
			<attributes>
				<divisions>4</divisions>
			</attributes>
			<note print-object='no'>
				<rest/>
				<duration>16</duration>
				<type>whole</type>
			</note>
		</measure>
		<!--//////////////////// Part 1 | Measure 29 ////////////////////-->
		<measure number='29'>
			<attributes>
				<divisions>4</divisions>
			</attributes>
			<note print-object='no'>
				<rest/>
				<duration>16</duration>
				<type>whole</type>
			</note>
		</measure>
		<!--//////////////////// Part 1 | Measure 30 ////////////////////-->
		<measure number='30'>
			<attributes>
				<divisions>4</divisions>
			</attributes>
			<note print-object='no'>
				<rest/>
				<duration>16</duration>
				<type>whole</type>
			</note>
		</measure>
		<!--//////////////////// Part 1 | Measure 31 ////////////////////-->
		<measure number='31'>
			<attributes>
				<divisions>4</divisions>
			</attributes>
			<note print-object='no'>
				<rest/>
				<duration>16</duration>
				<type>whole</type>
			</note>
		</measure>
		<!--//////////////////// Part 1 | Measure 32 ////////////////////-->
		<measure number='32'>
			<attributes>
				<divisions>4</divisions>
			</attributes>
			<note print-object='no'>
				<rest/>
				<duration>16</duration>
				<type>whole</type>
			</note>
			<barline location='right'>
				<bar-style>light-heavy</bar-style>
			</barline>
		</measure>
	</part>
	<part id='P2'>
		<!--//////////////////// Part 2 | Measure 1 ////////////////////-->
		<measure number='1'>
			<print>
				<staff-layout number='1'>
					<staff-distance>60</staff-distance>
				</staff-layout>
			</print>
			<attributes>
				<divisions>8</divisions>
				<key><fifths>0</fifths><mode>major</mode></key>
				<time><beats>4</beats><beat-type>4</beat-type></time>
				<staves>1</staves>
				<clef number='1'>
					<sign>F</sign>
					<line>4</line>
				</clef>
			</attributes>
			<note>
				<pitch>
					<step>D</step>
					<octave>4</octave>
				</pitch>
				<duration>8</duration>
				<voice>1</voice>
				<type>quarter</type>
				<staff>1</staff>
				<lyric number='1'>
					<syllabic>single</syllabic>
					<text>one</text>
				</lyric>
			</note>
			<note>
				<pitch>
					<step>B</step>
					<octave>3</octave>
				</pitch>
				<duration>4</duration>
				<voice>1</voice>
				<type>eighth</type>
				<staff>1</staff>
				<beam number='1'>begin</beam>
				<lyric number='1'>
					<syllabic>single</syllabic>
					<text>da</text>
				</lyric>
			</note>
			<note>
				<pitch>
					<step>A</step>
					<octave>3</octave>
				</pitch>
				<duration>4</duration>
				<voice>1</voice>
				<type>eighth</type>
				<staff>1</staff>
				<beam number='1'>end</beam>
				<lyric number='1'>
					<syllabic>single</syllabic>
					<text>a</text>
				</lyric>
			</note>
			<note>
				<pitch>
					<step>G</step>
					<octave>3</octave>
				</pitch>
				<duration>16</duration>
				<voice>1</voice>
				<type>half</type>
				<staff>1</staff>
				<lyric number='1'>
					<syllabic>single</syllabic>
					<text>ay</text>
				</lyric>
			</note>
		</measure>
		<!--//////////////////// Part 2 | Measure 2 ////////////////////-->
		<measure number='2'>
			<attributes>
				<divisions>8</divisions>
			</attributes>
			<note>
				<pitch>
					<step>D</step>
					<octave>4</octave>
				</pitch>
				<duration>8</duration>
				<voice>1</voice>
				<type>quarter</type>
				<staff>1</staff>
			</note>
			<note>
				<pitch>
					<step>B</step>
					<octave>3</octave>
				</pitch>
				<duration>4</duration>
				<voice>1</voice>
				<type>eighth</type>
				<staff>1</staff>
				<beam number='1'>begin</beam>
			</note>
			<note>
				<pitch>
					<step>A</step>
					<octave>3</octave>
				</pitch>
				<duration>4</duration>
				<voice>1</voice>
				<type>eighth</type>
				<staff>1</staff>
				<beam number='1'>end</beam>
			</note>
			<note>
				<pitch>
					<step>G</step>
					<octave>3</octave>
				</pitch>
				<duration>16</duration>
				<voice>1</voice>
				<type>half</type>
				<staff>1</staff>
			</note>
		</measure>
		<!--//////////////////// Part 2 | Measure 3 ////////////////////-->
		<measure number='3'>
			<attributes>
				<divisions>8</divisions>
			</attributes>
			<note>
				<pitch>
					<step>D</step>
					<octave>4</octave>
				</pitch>
				<duration>8</duration>
				<voice>1</voice>
				<type>quarter</type>
				<staff>1</staff>
			</note>
			<note>
				<pitch>
					<step>B</step>
					<octave>3</octave>
				</pitch>
				<duration>4</duration>
				<voice>1</voice>
				<type>eighth</type>
				<staff>1</staff>
				<beam number='1'>begin</beam>
			</note>
			<note>
				<pitch>
					<step>A</step>
					<octave>3</octave>
				</pitch>
				<duration>4</duration>
				<voice>1</voice>
				<type>eighth</type>
				<staff>1</staff>
				<beam number='1'>end</beam>
			</note>
			<note>
				<pitch>
					<step>G</step>
					<octave>3</octave>
				</pitch>
				<duration>4</duration>
				<voice>1</voice>
				<type>eighth</type>
				<staff>1</staff>
				<beam number='1'>begin</beam>
			</note>
			<note>
				<pitch>
					<step>A</step>
					<octave>3</octave>
				</pitch>
				<duration>4</duration>
				<voice>1</voice>
				<type>eighth</type>
				<staff>1</staff>
				<beam number='1'>continue</beam>
			</note>
			<note>
				<pitch>
					<step>B</step>
					<octave>3</octave>
				</pitch>
				<duration>4</duration>
				<voice>1</voice>
				<type>eighth</type>
				<staff>1</staff>
				<beam number='1'>continue</beam>
			</note>
			<note>
				<pitch>
					<step>C</step>
					<octave>4</octave>
				</pitch>
				<duration>4</duration>
				<voice>1</voice>
				<type>eighth</type>
				<staff>1</staff>
				<beam number='1'>end</beam>
			</note>
		</measure>
		<!--//////////////////// Part 2 | Measure 4 ////////////////////-->
		<measure number='4'>
			<attributes>
				<divisions>4</divisions>
			</attributes>
			<note>
				<pitch>
					<step>D</step>
					<octave>4</octave>
				</pitch>
				<duration>16</duration>
				<voice>1</voice>
				<type>whole</type>
				<staff>1</staff>
			</note>
		</measure>
		<!--//////////////////// Part 2 | Measure 5 ////////////////////-->
		<measure number='5'>
			<attributes>
				<divisions>4</divisions>
			</attributes>
			<note>
				<pitch>
					<step>F</step>
					<octave>4</octave>
				</pitch>
				<duration>8</duration>
				<voice>1</voice>
				<type>half</type>
				<staff>1</staff>
			</note>
			<note>
				<pitch>
					<step>E</step>
					<alter>-1.0</alter>
					<octave>4</octave>
				</pitch>
				<duration>4</duration>
				<voice>1</voice>
				<type>quarter</type>
				<accidental>flat</accidental>
				<staff>1</staff>
			</note>
			<note>
				<pitch>
					<step>D</step>
					<octave>4</octave>
				</pitch>
				<duration>4</duration>
				<voice>1</voice>
				<type>quarter</type>
				<staff>1</staff>
			</note>
		</measure>
		<!--//////////////////// Part 2 | Measure 6 ////////////////////-->
		<measure number='6'>
			<attributes>
				<divisions>4</divisions>
			</attributes>
			<note>
				<pitch>
					<step>C</step>
					<octave>4</octave>
				</pitch>
				<duration>4</duration>
				<voice>1</voice>
				<type>quarter</type>
				<staff>1</staff>
			</note>
			<note>
				<pitch>
					<step>B</step>
					<octave>3</octave>
				</pitch>
				<duration>4</duration>
				<voice>1</voice>
				<type>quarter</type>
				<staff>1</staff>
			</note>
			<note>
				<pitch>
					<step>A</step>
					<alter>-1.0</alter>
					<octave>3</octave>
				</pitch>
				<duration>8</duration>
				<voice>1</voice>
				<type>half</type>
				<accidental>flat</accidental>
				<staff>1</staff>
			</note>
		</measure>
		<!--//////////////////// Part 2 | Measure 7 ////////////////////-->
		<measure number='7'>
			<attributes>
				<divisions>4</divisions>
			</attributes>
			<note>
				<pitch>
					<step>D</step>
					<octave>4</octave>
				</pitch>
				<duration>8</duration>
				<voice>1</voice>
				<type>half</type>
				<staff>1</staff>
			</note>
			<note>
				<pitch>
					<step>C</step>
					<octave>4</octave>
				</pitch>
				<duration>4</duration>
				<voice>1</voice>
				<type>quarter</type>
				<staff>1</staff>
			</note>
			<note>
				<pitch>
					<step>B</step>
					<alter>-1.0</alter>
					<octave>3</octave>
				</pitch>
				<duration>4</duration>
				<voice>1</voice>
				<type>quarter</type>
				<accidental>flat</accidental>
				<staff>1</staff>
			</note>
		</measure>
		<!--//////////////////// Part 2 | Measure 8 ////////////////////-->
		<measure number='8'>
			<attributes>
				<divisions>4</divisions>
			</attributes>
			<note>
				<pitch>
					<step>A</step>
					<octave>3</octave>
				</pitch>
				<duration>4</duration>
				<voice>1</voice>
				<type>quarter</type>
				<staff>1</staff>
			</note>
			<note>
				<pitch>
					<step>G</step>
					<octave>3</octave>
				</pitch>
				<duration>4</duration>
				<voice>1</voice>
				<type>quarter</type>
				<staff>1</staff>
			</note>
			<note>
				<pitch>
					<step>D</step>
					<octave>3</octave>
				</pitch>
				<duration>8</duration>
				<voice>1</voice>
				<type>half</type>
				<staff>1</staff>
			</note>
		</measure>
		<!--//////////////////// Part 2 | Measure 9 ////////////////////-->
		<measure number='9'>
			<attributes>
				<divisions>4</divisions>
			</attributes>
			<note>
				<pitch>
					<step>G</step>
					<octave>3</octave>
				</pitch>
				<duration>4</duration>
				<voice>1</voice>
				<type>quarter</type>
				<staff>1</staff>
			</note>
			<note>
				<pitch>
					<step>D</step>
					<octave>3</octave>
				</pitch>
				<duration>4</duration>
				<voice>1</voice>
				<type>quarter</type>
				<staff>1</staff>
			</note>
			<note>
				<pitch>
					<step>G</step>
					<octave>3</octave>
				</pitch>
				<duration>4</duration>
				<voice>1</voice>
				<type>quarter</type>
				<staff>1</staff>
			</note>
			<note>
				<pitch>
					<step>A</step>
					<octave>3</octave>
				</pitch>
				<duration>4</duration>
				<voice>1</voice>
				<type>quarter</type>
				<staff>1</staff>
			</note>
		</measure>
		<!--//////////////////// Part 2 | Measure 10 ////////////////////-->
		<measure number='10'>
			<attributes>
				<divisions>8</divisions>
			</attributes>
			<note>
				<pitch>
					<step>G</step>
					<octave>3</octave>
				</pitch>
				<duration>8</duration>
				<voice>1</voice>
				<type>quarter</type>
				<staff>1</staff>
			</note>
			<note>
				<pitch>
					<step>A</step>
					<octave>3</octave>
				</pitch>
				<duration>8</duration>
				<voice>1</voice>
				<type>quarter</type>
				<staff>1</staff>
			</note>
			<note>
				<pitch>
					<step>B</step>
					<alter>-1.0</alter>
					<octave>3</octave>
				</pitch>
				<duration>8</duration>
				<voice>1</voice>
				<type>quarter</type>
				<accidental>flat</accidental>
				<staff>1</staff>
			</note>
			<note>
				<pitch>
					<step>D</step>
					<octave>4</octave>
				</pitch>
				<duration>8</duration>
				<voice>1</voice>
				<type>quarter</type>
				<staff>1</staff>
			</note>
		</measure>
		<!--//////////////////// Part 2 | Measure 11 ////////////////////-->
		<measure number='11'>
			<attributes>
				<divisions>8</divisions>
			</attributes>
			<note>
				<pitch>
					<step>G</step>
					<octave>3</octave>
				</pitch>
				<duration>8</duration>
				<voice>1</voice>
				<type>quarter</type>
				<staff>1</staff>
			</note>
			<note>
				<pitch>
					<step>A</step>
					<octave>3</octave>
				</pitch>
				<duration>4</duration>
				<voice>1</voice>
				<type>eighth</type>
				<staff>1</staff>
				<beam number='1'>begin</beam>
			</note>
			<note>
				<pitch>
					<step>G</step>
					<octave>3</octave>
				</pitch>
				<duration>4</duration>
				<voice>1</voice>
				<type>eighth</type>
				<staff>1</staff>
				<beam number='1'>end</beam>
			</note>
			<note>
				<pitch>
					<step>E</step>
					<alter>-1.0</alter>
					<octave>3</octave>
				</pitch>
				<duration>8</duration>
				<voice>1</voice>
				<type>quarter</type>
				<accidental>flat</accidental>
				<staff>1</staff>
			</note>
			<note>
				<pitch>
					<step>C</step>
					<octave>3</octave>
				</pitch>
				<duration>8</duration>
				<voice>1</voice>
				<type>quarter</type>
				<staff>1</staff>
			</note>
		</measure>
		<!--//////////////////// Part 2 | Measure 12 ////////////////////-->
		<measure number='12'>
			<attributes>
				<divisions>4</divisions>
			</attributes>
			<note print-object='no'>
				<rest/>
				<duration>16</duration>
				<type>whole</type>
			</note>
		</measure>
		<!--//////////////////// Part 2 | Measure 13 ////////////////////-->
		<measure number='13'>
			<attributes>
				<divisions>4</divisions>
			</attributes>
			<note print-object='no'>
				<rest/>
				<duration>16</duration>
				<type>whole</type>
			</note>
		</measure>
		<!--//////////////////// Part 2 | Measure 14 ////////////////////-->
		<measure number='14'>
			<attributes>
				<divisions>4</divisions>
			</attributes>
			<note print-object='no'>
				<rest/>
				<duration>16</duration>
				<type>whole</type>
			</note>
		</measure>
		<!--//////////////////// Part 2 | Measure 15 ////////////////////-->
		<measure number='15'>
			<attributes>
				<divisions>4</divisions>
			</attributes>
			<note print-object='no'>
				<rest/>
				<duration>16</duration>
				<type>whole</type>
			</note>
		</measure>
		<!--//////////////////// Part 2 | Measure 16 ////////////////////-->
		<measure number='16'>
			<attributes>
				<divisions>4</divisions>
			</attributes>
			<note print-object='no'>
				<rest/>
				<duration>16</duration>
				<type>whole</type>
			</note>
		</measure>
		<!--//////////////////// Part 2 | Measure 17 ////////////////////-->
		<measure number='17'>
			<attributes>
				<divisions>4</divisions>
			</attributes>
			<note print-object='no'>
				<rest/>
				<duration>16</duration>
				<type>whole</type>
			</note>
		</measure>
		<!--//////////////////// Part 2 | Measure 18 ////////////////////-->
		<measure number='18'>
			<attributes>
				<divisions>4</divisions>
			</attributes>
			<note print-object='no'>
				<rest/>
				<duration>16</duration>
				<type>whole</type>
			</note>
		</measure>
		<!--//////////////////// Part 2 | Measure 19 ////////////////////-->
		<measure number='19'>
			<attributes>
				<divisions>4</divisions>
			</attributes>
			<note print-object='no'>
				<rest/>
				<duration>16</duration>
				<type>whole</type>
			</note>
		</measure>
		<!--//////////////////// Part 2 | Measure 20 ////////////////////-->
		<measure number='20'>
			<attributes>
				<divisions>4</divisions>
			</attributes>
			<note print-object='no'>
				<rest/>
				<duration>16</duration>
				<type>whole</type>
			</note>
		</measure>
		<!--//////////////////// Part 2 | Measure 21 ////////////////////-->
		<measure number='21'>
			<attributes>
				<divisions>4</divisions>
			</attributes>
			<note print-object='no'>
				<rest/>
				<duration>16</duration>
				<type>whole</type>
			</note>
		</measure>
		<!--//////////////////// Part 2 | Measure 22 ////////////////////-->
		<measure number='22'>
			<attributes>
				<divisions>4</divisions>
			</attributes>
			<note print-object='no'>
				<rest/>
				<duration>16</duration>
				<type>whole</type>
			</note>
		</measure>
		<!--//////////////////// Part 2 | Measure 23 ////////////////////-->
		<measure number='23'>
			<attributes>
				<divisions>4</divisions>
			</attributes>
			<note print-object='no'>
				<rest/>
				<duration>16</duration>
				<type>whole</type>
			</note>
		</measure>
		<!--//////////////////// Part 2 | Measure 24 ////////////////////-->
		<measure number='24'>
			<attributes>
				<divisions>4</divisions>
			</attributes>
			<note print-object='no'>
				<rest/>
				<duration>16</duration>
				<type>whole</type>
			</note>
		</measure>
		<!--//////////////////// Part 2 | Measure 25 ////////////////////-->
		<measure number='25'>
			<attributes>
				<divisions>4</divisions>
			</attributes>
			<note print-object='no'>
				<rest/>
				<duration>16</duration>
				<type>whole</type>
			</note>
		</measure>
		<!--//////////////////// Part 2 | Measure 26 ////////////////////-->
		<measure number='26'>
			<attributes>
				<divisions>4</divisions>
			</attributes>
			<note print-object='no'>
				<rest/>
				<duration>16</duration>
				<type>whole</type>
			</note>
		</measure>
		<!--//////////////////// Part 2 | Measure 27 ////////////////////-->
		<measure number='27'>
			<attributes>
				<divisions>4</divisions>
			</attributes>
			<note print-object='no'>
				<rest/>
				<duration>16</duration>
				<type>whole</type>
			</note>
		</measure>
		<!--//////////////////// Part 2 | Measure 28 ////////////////////-->
		<measure number='28'>
			<attributes>
				<divisions>4</divisions>
			</attributes>
			<note print-object='no'>
				<rest/>
				<duration>16</duration>
				<type>whole</type>
			</note>
		</measure>
		<!--//////////////////// Part 2 | Measure 29 ////////////////////-->
		<measure number='29'>
			<attributes>
				<divisions>4</divisions>
			</attributes>
			<note print-object='no'>
				<rest/>
				<duration>16</duration>
				<type>whole</type>
			</note>
		</measure>
		<!--//////////////////// Part 2 | Measure 30 ////////////////////-->
		<measure number='30'>
			<attributes>
				<divisions>4</divisions>
			</attributes>
			<note print-object='no'>
				<rest/>
				<duration>16</duration>
				<type>whole</type>
			</note>
		</measure>
		<!--//////////////////// Part 2 | Measure 31 ////////////////////-->
		<measure number='31'>
			<attributes>
				<divisions>4</divisions>
			</attributes>
			<note print-object='no'>
				<rest/>
				<duration>16</duration>
				<type>whole</type>
			</note>
		</measure>
		<!--//////////////////// Part 2 | Measure 32 ////////////////////-->
		<measure number='32'>
			<attributes>
				<divisions>4</divisions>
			</attributes>
			<note print-object='no'>
				<rest/>
				<duration>16</duration>
				<type>whole</type>
			</note>
			<barline location='right'>
				<bar-style>light-heavy</bar-style>
			</barline>
		</measure>
	</part>
</score-partwise>
