<?xml version='1.0' encoding='UTF-8'?>
<!DOCTYPE score-partwise PUBLIC 
    "-//Recordare//DTD MusicXML 1.1 Partwise//EN" 
    "http://www.musicxml.org/dtds/partwise.dtd">
<score-partwise version='1.1'>
  <work>
    <work-title>New Zealand my fatherland</work-title>
  </work>
  <identification>
    <creator type='composer'>Peter de Vocht</creator>
    <encoding>
      <software>Notion 4.0</software>
    </encoding>
  </identification>
  <defaults>
    <scaling>
      <millimeters>5.6444</millimeters>
      <tenths>40</tenths>
    </scaling>
    <page-layout>
      <page-height>2520</page-height>
      <page-width>1530</page-width>
      <page-margins type='both'>
        <left-margin>112</left-margin>
        <right-margin>112</right-margin>
        <top-margin>135</top-margin>
        <bottom-margin>112</bottom-margin>
      </page-margins>
    </page-layout>
  </defaults>
  <part-list>
    <score-part id='P13'>
      <part-name>Horn</part-name>
      <score-instrument id='P13-I1'>
        <instrument-name>Horn</instrument-name>
      </score-instrument>
      <midi-instrument id='P13-I1'>
        <midi-channel>1</midi-channel>
      </midi-instrument>
    </score-part>
    <score-part id='P14'>
      <part-name>Horn</part-name>
      <score-instrument id='P14-I1'>
        <instrument-name>Horn</instrument-name>
      </score-instrument>
      <midi-instrument id='P14-I1'>
        <midi-channel>2</midi-channel>
      </midi-instrument>
    </score-part>
    <score-part id='P15'>
      <part-name>Trumpet</part-name>
      <score-instrument id='P15-I1'>
        <instrument-name>Trumpet</instrument-name>
      </score-instrument>
      <midi-instrument id='P15-I1'>
        <midi-channel>3</midi-channel>
      </midi-instrument>
    </score-part>
    <score-part id='P16'>
      <part-name>Trombone</part-name>
      <score-instrument id='P16-I1'>
        <instrument-name>Trombone</instrument-name>
      </score-instrument>
      <midi-instrument id='P16-I1'>
        <midi-channel>4</midi-channel>
      </midi-instrument>
    </score-part>
    <score-part id='P17'>
      <part-name>Tuba</part-name>
      <score-instrument id='P17-I1'>
        <instrument-name>Tuba</instrument-name>
      </score-instrument>
      <midi-instrument id='P17-I1'>
        <midi-channel>5</midi-channel>
      </midi-instrument>
    </score-part>
    <score-part id='P19'>
      <part-name>Snare Drum</part-name>
      <score-instrument id='P19-I1'>
        <instrument-name>Snare Drum</instrument-name>
      </score-instrument>
      <midi-instrument id='P19-I1'>
        <midi-channel>6</midi-channel>
      </midi-instrument>
    </score-part>
    <score-part id='P22'>
      <part-name>Bass Drum</part-name>
      <score-instrument id='P22-I1'>
        <instrument-name>Bass Drum</instrument-name>
      </score-instrument>
      <midi-instrument id='P22-I1'>
        <midi-channel>7</midi-channel>
      </midi-instrument>
    </score-part>
    <score-part id='P21'>
      <part-name>Crash Cymbals</part-name>
      <score-instrument id='P21-I1'>
        <instrument-name>Crash Cymbals</instrument-name>
      </score-instrument>
      <midi-instrument id='P21-I1'>
        <midi-channel>8</midi-channel>
      </midi-instrument>
    </score-part>
  </part-list>
  <part id='P13'>
    <measure number='1'>
      <attributes>
        <divisions>64</divisions>
        <key><fifths>1</fifths><mode>major</mode></key>
        <time><beats>2</beats><beat-type>4</beat-type></time>
        <staves>1</staves>
        <clef number='1'><sign>G</sign><line>2</line></clef>
        <transpose>
          <diatonic>-4</diatonic>
          <chromatic>-7</chromatic>
        </transpose>
      </attributes>
      <note print-object='no'>
        <rest/>
        <duration>128</duration>
        <type>whole</type>
      </note>
      <direction>
        <direction-type>
          <metronome default-y='20'>
            <beat-unit>quarter</beat-unit>
            <per-minute>60.0</per-minute>
          </metronome>
        </direction-type>
        <sound tempo='60'/>
      </direction>
    </measure>
    <measure number='2'>
      <attributes>
        <divisions>64</divisions>
      </attributes>
      <note print-object='no'>
        <rest/>
        <duration>128</duration>
        <type>whole</type>
      </note>
      <direction>
        <direction-type>
          <words default-y='-70'>New Zealand my fatherland</words>
        </direction-type>
      </direction>
    </measure>
    <measure number='3'>
      <attributes>
        <divisions>64</divisions>
      </attributes>
      <note print-object='no'>
        <rest/>
        <duration>128</duration>
        <type>whole</type>
      </note>
      <direction>
        <direction-type>
          <words default-y='-70'>defend you to the very very end</words>
        </direction-type>
      </direction>
    </measure>
    <measure number='4'>
      <attributes>
        <divisions>64</divisions>
      </attributes>
      <note print-object='no'>
        <rest/>
        <duration>128</duration>
        <type>whole</type>
      </note>
    </measure>
    <measure number='5'>
      <attributes>
        <divisions>64</divisions>
      </attributes>
      <note print-object='no'>
        <rest/>
        <duration>128</duration>
        <type>whole</type>
      </note>
    </measure>
    <measure number='6'>
      <attributes>
        <divisions>64</divisions>
      </attributes>
      <note print-object='no'>
        <rest/>
        <duration>128</duration>
        <type>whole</type>
      </note>
    </measure>
    <measure number='7'>
      <attributes>
        <divisions>64</divisions>
      </attributes>
      <note print-object='no'>
        <rest/>
        <duration>128</duration>
        <type>whole</type>
      </note>
    </measure>
    <measure number='8'>
      <attributes>
        <divisions>64</divisions>
      </attributes>
      <note print-object='no'>
        <rest/>
        <duration>128</duration>
        <type>whole</type>
      </note>
    </measure>
    <measure number='9'>
      <attributes>
        <divisions>64</divisions>
      </attributes>
      <note print-object='no'>
        <rest/>
        <duration>128</duration>
        <type>whole</type>
      </note>
    </measure>
    <measure number='10'>
      <attributes>
        <divisions>64</divisions>
      </attributes>
      <note print-object='no'>
        <rest/>
        <duration>128</duration>
        <type>whole</type>
      </note>
    </measure>
    <measure number='11'>
      <attributes>
        <divisions>4</divisions>
      </attributes>
      <note print-object='no'>
        <rest/>
        <duration>8</duration>
        <type>whole</type>
      </note>
    </measure>
    <measure number='12'>
      <attributes>
        <divisions>4</divisions>
      </attributes>
      <note print-object='no'>
        <rest/>
        <duration>8</duration>
        <type>whole</type>
      </note>
    </measure>
    <measure number='13'>
      <attributes>
        <divisions>4</divisions>
      </attributes>
      <note print-object='no'>
        <rest/>
        <duration>8</duration>
        <type>whole</type>
      </note>
    </measure>
    <measure number='14'>
      <attributes>
        <divisions>4</divisions>
      </attributes>
      <note print-object='no'>
        <rest/>
        <duration>8</duration>
        <type>whole</type>
      </note>
    </measure>
    <measure number='15'>
      <attributes>
        <divisions>4</divisions>
      </attributes>
      <note print-object='no'>
        <rest/>
        <duration>8</duration>
        <type>whole</type>
      </note>
    </measure>
    <measure number='16'>
      <attributes>
        <divisions>4</divisions>
      </attributes>
      <note print-object='no'>
        <rest/>
        <duration>8</duration>
        <type>whole</type>
      </note>
    </measure>
    <measure number='17'>
      <attributes>
        <divisions>4</divisions>
      </attributes>
      <note print-object='no'>
        <rest/>
        <duration>8</duration>
        <type>whole</type>
      </note>
    </measure>
    <measure number='18'>
      <attributes>
        <divisions>4</divisions>
      </attributes>
      <note print-object='no'>
        <rest/>
        <duration>8</duration>
        <type>whole</type>
      </note>
      <barline location='right'>
        <bar-style>light-heavy</bar-style>
      </barline>
    </measure>
  </part>
  <part id='P14'>
    <measure number='1'>
      <attributes>
        <divisions>64</divisions>
        <key><fifths>1</fifths><mode>major</mode></key>
        <time><beats>2</beats><beat-type>4</beat-type></time>
        <staves>1</staves>
        <clef number='1'><sign>G</sign><line>2</line></clef>
        <transpose>
          <diatonic>-4</diatonic>
          <chromatic>-7</chromatic>
        </transpose>
      </attributes>
      <note print-object='no'>
        <rest/>
        <duration>128</duration>
        <type>whole</type>
      </note>
    </measure>
    <measure number='2'>
      <attributes>
        <divisions>64</divisions>
      </attributes>
      <note print-object='no'>
        <rest/>
        <duration>128</duration>
        <type>whole</type>
      </note>
    </measure>
    <measure number='3'>
      <attributes>
        <divisions>64</divisions>
      </attributes>
      <note print-object='no'>
        <rest/>
        <duration>128</duration>
        <type>whole</type>
      </note>
    </measure>
    <measure number='4'>
      <attributes>
        <divisions>64</divisions>
      </attributes>
      <note print-object='no'>
        <rest/>
        <duration>128</duration>
        <type>whole</type>
      </note>
    </measure>
    <measure number='5'>
      <attributes>
        <divisions>64</divisions>
      </attributes>
      <note print-object='no'>
        <rest/>
        <duration>128</duration>
        <type>whole</type>
      </note>
    </measure>
    <measure number='6'>
      <attributes>
        <divisions>64</divisions>
      </attributes>
      <note print-object='no'>
        <rest/>
        <duration>128</duration>
        <type>whole</type>
      </note>
    </measure>
    <measure number='7'>
      <attributes>
        <divisions>64</divisions>
      </attributes>
      <note print-object='no'>
        <rest/>
        <duration>128</duration>
        <type>whole</type>
      </note>
    </measure>
    <measure number='8'>
      <attributes>
        <divisions>64</divisions>
      </attributes>
      <note print-object='no'>
        <rest/>
        <duration>128</duration>
        <type>whole</type>
      </note>
    </measure>
    <measure number='9'>
      <attributes>
        <divisions>64</divisions>
      </attributes>
      <note print-object='no'>
        <rest/>
        <duration>128</duration>
        <type>whole</type>
      </note>
    </measure>
    <measure number='10'>
      <attributes>
        <divisions>64</divisions>
      </attributes>
      <note print-object='no'>
        <rest/>
        <duration>128</duration>
        <type>whole</type>
      </note>
    </measure>
    <measure number='11'>
      <attributes>
        <divisions>4</divisions>
      </attributes>
      <note print-object='no'>
        <rest/>
        <duration>8</duration>
        <type>whole</type>
      </note>
    </measure>
    <measure number='12'>
      <attributes>
        <divisions>4</divisions>
      </attributes>
      <note print-object='no'>
        <rest/>
        <duration>8</duration>
        <type>whole</type>
      </note>
    </measure>
    <measure number='13'>
      <attributes>
        <divisions>4</divisions>
      </attributes>
      <note print-object='no'>
        <rest/>
        <duration>8</duration>
        <type>whole</type>
      </note>
    </measure>
    <measure number='14'>
      <attributes>
        <divisions>4</divisions>
      </attributes>
      <note print-object='no'>
        <rest/>
        <duration>8</duration>
        <type>whole</type>
      </note>
    </measure>
    <measure number='15'>
      <attributes>
        <divisions>4</divisions>
      </attributes>
      <note print-object='no'>
        <rest/>
        <duration>8</duration>
        <type>whole</type>
      </note>
    </measure>
    <measure number='16'>
      <attributes>
        <divisions>4</divisions>
      </attributes>
      <note print-object='no'>
        <rest/>
        <duration>8</duration>
        <type>whole</type>
      </note>
    </measure>
    <measure number='17'>
      <attributes>
        <divisions>4</divisions>
      </attributes>
      <note print-object='no'>
        <rest/>
        <duration>8</duration>
        <type>whole</type>
      </note>
    </measure>
    <measure number='18'>
      <attributes>
        <divisions>4</divisions>
      </attributes>
      <note print-object='no'>
        <rest/>
        <duration>8</duration>
        <type>whole</type>
      </note>
      <barline location='right'>
        <bar-style>light-heavy</bar-style>
      </barline>
    </measure>
  </part>
  <part id='P15'>
    <measure number='1'>
      <attributes>
        <divisions>64</divisions>
        <key><fifths>2</fifths><mode>major</mode></key>
        <time><beats>2</beats><beat-type>4</beat-type></time>
        <staves>1</staves>
        <clef number='1'><sign>G</sign><line>2</line></clef>
        <transpose>
          <diatonic>-1</diatonic>
          <chromatic>-2</chromatic>
        </transpose>
      </attributes>
      <note print-object='no'>
        <rest/>
        <duration>128</duration>
        <type>whole</type>
      </note>
    </measure>
    <measure number='2'>
      <attributes>
        <divisions>64</divisions>
      </attributes>
      <note print-object='no'>
        <rest/>
        <duration>128</duration>
        <type>whole</type>
      </note>
    </measure>
    <measure number='3'>
      <attributes>
        <divisions>64</divisions>
      </attributes>
      <note>
        <pitch><step>B</step><alter>0.0</alter><octave>4</octave></pitch>
        <duration>48</duration>
        <voice>1</voice>
        <type>eighth</type>
        <dot/>
        <staff>1</staff>
      </note>
      <note>
        <pitch><step>F</step><alter>1.0</alter><octave>4</octave></pitch>
        <duration>16</duration>
        <voice>1</voice>
        <type>16th</type>
        <staff>1</staff>
      </note>
      <note>
        <pitch><step>F</step><alter>1.0</alter><octave>4</octave></pitch>
        <duration>32</duration>
        <voice>1</voice>
        <type>eighth</type>
        <staff>1</staff>
      </note>
      <note>
        <pitch><step>B</step><alter>0.0</alter><octave>4</octave></pitch>
        <duration>32</duration>
        <voice>1</voice>
        <type>eighth</type>
        <staff>1</staff>
      </note>
    </measure>
    <measure number='4'>
      <attributes>
        <divisions>64</divisions>
      </attributes>
      <note>
        <pitch><step>G</step><alter>0.0</alter><octave>4</octave></pitch>
        <duration>64</duration>
        <voice>1</voice>
        <type>quarter</type>
        <staff>1</staff>
      </note>
      <note>
        <rest/>
        <duration>64</duration>
        <voice>1</voice>
        <type>quarter</type>
        <staff>1</staff>
      </note>
    </measure>
    <measure number='5'>
      <attributes>
        <divisions>64</divisions>
      </attributes>
      <note>
        <pitch><step>B</step><alter>0.0</alter><octave>4</octave></pitch>
        <duration>48</duration>
        <voice>1</voice>
        <type>eighth</type>
        <dot/>
        <staff>1</staff>
      </note>
      <note>
        <pitch><step>F</step><alter>1.0</alter><octave>4</octave></pitch>
        <duration>16</duration>
        <voice>1</voice>
        <type>16th</type>
        <staff>1</staff>
      </note>
      <note>
        <pitch><step>F</step><alter>1.0</alter><octave>4</octave></pitch>
        <duration>32</duration>
        <voice>1</voice>
        <type>eighth</type>
        <staff>1</staff>
      </note>
      <note>
        <pitch><step>B</step><alter>0.0</alter><octave>4</octave></pitch>
        <duration>32</duration>
        <voice>1</voice>
        <type>eighth</type>
        <staff>1</staff>
      </note>
    </measure>
    <measure number='6'>
      <attributes>
        <divisions>64</divisions>
      </attributes>
      <note>
        <pitch><step>G</step><alter>0.0</alter><octave>4</octave></pitch>
        <duration>64</duration>
        <voice>1</voice>
        <type>quarter</type>
        <staff>1</staff>
      </note>
      <note>
        <rest/>
        <duration>64</duration>
        <voice>1</voice>
        <type>quarter</type>
        <staff>1</staff>
      </note>
    </measure>
    <measure number='7'>
      <attributes>
        <divisions>64</divisions>
      </attributes>
      <note>
        <pitch><step>B</step><alter>0.0</alter><octave>4</octave></pitch>
        <duration>48</duration>
        <voice>1</voice>
        <type>eighth</type>
        <dot/>
        <staff>1</staff>
      </note>
      <note>
        <pitch><step>F</step><alter>1.0</alter><octave>4</octave></pitch>
        <duration>16</duration>
        <voice>1</voice>
        <type>16th</type>
        <staff>1</staff>
      </note>
      <note>
        <pitch><step>F</step><alter>1.0</alter><octave>4</octave></pitch>
        <duration>32</duration>
        <voice>1</voice>
        <type>eighth</type>
        <staff>1</staff>
      </note>
      <note>
        <pitch><step>B</step><alter>0.0</alter><octave>4</octave></pitch>
        <duration>32</duration>
        <voice>1</voice>
        <type>eighth</type>
        <staff>1</staff>
      </note>
    </measure>
    <measure number='8'>
      <attributes>
        <divisions>64</divisions>
      </attributes>
      <note>
        <pitch><step>A</step><alter>0.0</alter><octave>4</octave></pitch>
        <duration>16</duration>
        <voice>1</voice>
        <type>16th</type>
        <staff>1</staff>
      </note>
      <note>
        <pitch><step>B</step><alter>0.0</alter><octave>4</octave></pitch>
        <duration>16</duration>
        <voice>1</voice>
        <type>16th</type>
        <staff>1</staff>
      </note>
      <note>
        <pitch><step>A</step><alter>0.0</alter><octave>4</octave></pitch>
        <duration>16</duration>
        <voice>1</voice>
        <type>16th</type>
        <staff>1</staff>
      </note>
      <note>
        <pitch><step>G</step><alter>0.0</alter><octave>4</octave></pitch>
        <duration>16</duration>
        <voice>1</voice>
        <type>16th</type>
        <staff>1</staff>
      </note>
      <note>
        <pitch><step>F</step><alter>1.0</alter><octave>4</octave></pitch>
        <duration>64</duration>
        <voice>1</voice>
        <type>quarter</type>
        <staff>1</staff>
      </note>
    </measure>
    <measure number='9'>
      <attributes>
        <divisions>64</divisions>
      </attributes>
      <note>
        <pitch><step>B</step><alter>0.0</alter><octave>4</octave></pitch>
        <duration>32</duration>
        <voice>1</voice>
        <type>eighth</type>
        <staff>1</staff>
      </note>
      <note>
        <pitch><step>B</step><alter>0.0</alter><octave>4</octave></pitch>
        <duration>32</duration>
        <voice>1</voice>
        <type>eighth</type>
        <staff>1</staff>
      </note>
      <note>
        <pitch><step>A</step><alter>0.0</alter><octave>4</octave></pitch>
        <duration>32</duration>
        <voice>1</voice>
        <type>eighth</type>
        <staff>1</staff>
      </note>
      <note>
        <pitch><step>G</step><alter>0.0</alter><octave>4</octave></pitch>
        <duration>32</duration>
        <voice>1</voice>
        <type>eighth</type>
        <staff>1</staff>
      </note>
    </measure>
    <measure number='10'>
      <attributes>
        <divisions>64</divisions>
      </attributes>
      <note>
        <pitch><step>F</step><alter>1.0</alter><octave>4</octave></pitch>
        <duration>16</duration>
        <voice>1</voice>
        <type>16th</type>
        <staff>1</staff>
      </note>
      <note>
        <pitch><step>G</step><alter>0.0</alter><octave>4</octave></pitch>
        <duration>16</duration>
        <voice>1</voice>
        <type>16th</type>
        <staff>1</staff>
      </note>
      <note>
        <pitch><step>F</step><alter>1.0</alter><octave>4</octave></pitch>
        <duration>16</duration>
        <voice>1</voice>
        <type>16th</type>
        <staff>1</staff>
      </note>
      <note>
        <pitch><step>G</step><alter>0.0</alter><octave>4</octave></pitch>
        <duration>16</duration>
        <voice>1</voice>
        <type>16th</type>
        <staff>1</staff>
      </note>
      <note>
        <pitch><step>F</step><alter>1.0</alter><octave>4</octave></pitch>
        <duration>64</duration>
        <voice>1</voice>
        <type>quarter</type>
        <staff>1</staff>
      </note>
    </measure>
    <measure number='11'>
      <attributes>
        <divisions>4</divisions>
      </attributes>
      <note print-object='no'>
        <rest/>
        <duration>8</duration>
        <type>whole</type>
      </note>
    </measure>
    <measure number='12'>
      <attributes>
        <divisions>4</divisions>
      </attributes>
      <note print-object='no'>
        <rest/>
        <duration>8</duration>
        <type>whole</type>
      </note>
    </measure>
    <measure number='13'>
      <attributes>
        <divisions>4</divisions>
      </attributes>
      <note print-object='no'>
        <rest/>
        <duration>8</duration>
        <type>whole</type>
      </note>
    </measure>
    <measure number='14'>
      <attributes>
        <divisions>4</divisions>
      </attributes>
      <note print-object='no'>
        <rest/>
        <duration>8</duration>
        <type>whole</type>
      </note>
    </measure>
    <measure number='15'>
      <attributes>
        <divisions>4</divisions>
      </attributes>
      <note print-object='no'>
        <rest/>
        <duration>8</duration>
        <type>whole</type>
      </note>
    </measure>
    <measure number='16'>
      <attributes>
        <divisions>4</divisions>
      </attributes>
      <note print-object='no'>
        <rest/>
        <duration>8</duration>
        <type>whole</type>
      </note>
    </measure>
    <measure number='17'>
      <attributes>
        <divisions>4</divisions>
      </attributes>
      <note print-object='no'>
        <rest/>
        <duration>8</duration>
        <type>whole</type>
      </note>
    </measure>
    <measure number='18'>
      <attributes>
        <divisions>4</divisions>
      </attributes>
      <note print-object='no'>
        <rest/>
        <duration>8</duration>
        <type>whole</type>
      </note>
      <barline location='right'>
        <bar-style>light-heavy</bar-style>
      </barline>
    </measure>
  </part>
  <part id='P16'>
    <measure number='1'>
      <attributes>
        <divisions>64</divisions>
        <key><fifths>0</fifths><mode>major</mode></key>
        <time><beats>2</beats><beat-type>4</beat-type></time>
        <staves>1</staves>
        <clef number='1'><sign>F</sign><line>4</line></clef>
      </attributes>
      <note print-object='no'>
        <rest/>
        <duration>128</duration>
        <type>whole</type>
      </note>
    </measure>
    <measure number='2'>
      <attributes>
        <divisions>64</divisions>
      </attributes>
      <note print-object='no'>
        <rest/>
        <duration>128</duration>
        <type>whole</type>
      </note>
    </measure>
    <measure number='3'>
      <attributes>
        <divisions>64</divisions>
      </attributes>
      <note>
        <pitch><step>A</step><alter>0.0</alter><octave>2</octave></pitch>
        <duration>48</duration>
        <voice>1</voice>
        <type>eighth</type>
        <dot/>
        <staff>1</staff>
      </note>
      <note>
        <pitch><step>E</step><alter>0.0</alter><octave>2</octave></pitch>
        <duration>16</duration>
        <voice>1</voice>
        <type>16th</type>
        <staff>1</staff>
      </note>
      <note>
        <pitch><step>E</step><alter>0.0</alter><octave>2</octave></pitch>
        <duration>32</duration>
        <voice>1</voice>
        <type>eighth</type>
        <staff>1</staff>
      </note>
      <note>
        <pitch><step>A</step><alter>0.0</alter><octave>2</octave></pitch>
        <duration>32</duration>
        <voice>1</voice>
        <type>eighth</type>
        <staff>1</staff>
      </note>
    </measure>
    <measure number='4'>
      <attributes>
        <divisions>64</divisions>
      </attributes>
      <note>
        <pitch><step>F</step><alter>0.0</alter><octave>2</octave></pitch>
        <duration>64</duration>
        <voice>1</voice>
        <type>quarter</type>
        <staff>1</staff>
      </note>
      <note>
        <rest/>
        <duration>64</duration>
        <voice>1</voice>
        <type>quarter</type>
        <staff>1</staff>
      </note>
    </measure>
    <measure number='5'>
      <attributes>
        <divisions>64</divisions>
      </attributes>
      <note>
        <pitch><step>A</step><alter>0.0</alter><octave>2</octave></pitch>
        <duration>48</duration>
        <voice>1</voice>
        <type>eighth</type>
        <dot/>
        <staff>1</staff>
      </note>
      <note>
        <pitch><step>E</step><alter>0.0</alter><octave>2</octave></pitch>
        <duration>16</duration>
        <voice>1</voice>
        <type>16th</type>
        <staff>1</staff>
      </note>
      <note>
        <pitch><step>E</step><alter>0.0</alter><octave>2</octave></pitch>
        <duration>32</duration>
        <voice>1</voice>
        <type>eighth</type>
        <staff>1</staff>
      </note>
      <note>
        <pitch><step>A</step><alter>0.0</alter><octave>2</octave></pitch>
        <duration>32</duration>
        <voice>1</voice>
        <type>eighth</type>
        <staff>1</staff>
      </note>
    </measure>
    <measure number='6'>
      <attributes>
        <divisions>64</divisions>
      </attributes>
      <note>
        <pitch><step>F</step><alter>0.0</alter><octave>2</octave></pitch>
        <duration>64</duration>
        <voice>1</voice>
        <type>quarter</type>
        <staff>1</staff>
      </note>
      <note>
        <rest/>
        <duration>64</duration>
        <voice>1</voice>
        <type>quarter</type>
        <staff>1</staff>
      </note>
    </measure>
    <measure number='7'>
      <attributes>
        <divisions>64</divisions>
      </attributes>
      <note>
        <pitch><step>A</step><alter>0.0</alter><octave>3</octave></pitch>
        <duration>48</duration>
        <voice>1</voice>
        <type>eighth</type>
        <dot/>
        <staff>1</staff>
      </note>
      <note>
        <pitch><step>E</step><alter>0.0</alter><octave>3</octave></pitch>
        <duration>16</duration>
        <voice>1</voice>
        <type>16th</type>
        <staff>1</staff>
      </note>
      <note>
        <pitch><step>E</step><alter>0.0</alter><octave>3</octave></pitch>
        <duration>32</duration>
        <voice>1</voice>
        <type>eighth</type>
        <staff>1</staff>
      </note>
      <note>
        <pitch><step>A</step><alter>0.0</alter><octave>3</octave></pitch>
        <duration>32</duration>
        <voice>1</voice>
        <type>eighth</type>
        <staff>1</staff>
      </note>
    </measure>
    <measure number='8'>
      <attributes>
        <divisions>64</divisions>
      </attributes>
      <note>
        <pitch><step>G</step><alter>0.0</alter><octave>3</octave></pitch>
        <duration>16</duration>
        <voice>1</voice>
        <type>16th</type>
        <staff>1</staff>
      </note>
      <note>
        <pitch><step>A</step><alter>0.0</alter><octave>3</octave></pitch>
        <duration>16</duration>
        <voice>1</voice>
        <type>16th</type>
        <staff>1</staff>
      </note>
      <note>
        <pitch><step>G</step><alter>0.0</alter><octave>3</octave></pitch>
        <duration>16</duration>
        <voice>1</voice>
        <type>16th</type>
        <staff>1</staff>
      </note>
      <note>
        <pitch><step>F</step><alter>0.0</alter><octave>3</octave></pitch>
        <duration>16</duration>
        <voice>1</voice>
        <type>16th</type>
        <staff>1</staff>
      </note>
      <note>
        <pitch><step>E</step><alter>0.0</alter><octave>3</octave></pitch>
        <duration>64</duration>
        <voice>1</voice>
        <type>quarter</type>
        <staff>1</staff>
      </note>
    </measure>
    <measure number='9'>
      <attributes>
        <divisions>64</divisions>
      </attributes>
      <note>
        <pitch><step>A</step><alter>0.0</alter><octave>3</octave></pitch>
        <duration>32</duration>
        <voice>1</voice>
        <type>eighth</type>
        <staff>1</staff>
      </note>
      <note>
        <pitch><step>A</step><alter>0.0</alter><octave>3</octave></pitch>
        <duration>32</duration>
        <voice>1</voice>
        <type>eighth</type>
        <staff>1</staff>
      </note>
      <note>
        <pitch><step>G</step><alter>0.0</alter><octave>3</octave></pitch>
        <duration>32</duration>
        <voice>1</voice>
        <type>eighth</type>
        <staff>1</staff>
      </note>
      <note>
        <pitch><step>F</step><alter>0.0</alter><octave>3</octave></pitch>
        <duration>32</duration>
        <voice>1</voice>
        <type>eighth</type>
        <staff>1</staff>
      </note>
    </measure>
    <measure number='10'>
      <attributes>
        <divisions>64</divisions>
      </attributes>
      <note>
        <pitch><step>E</step><alter>0.0</alter><octave>3</octave></pitch>
        <duration>16</duration>
        <voice>1</voice>
        <type>16th</type>
        <staff>1</staff>
      </note>
      <note>
        <pitch><step>F</step><alter>0.0</alter><octave>3</octave></pitch>
        <duration>16</duration>
        <voice>1</voice>
        <type>16th</type>
        <staff>1</staff>
      </note>
      <note>
        <pitch><step>E</step><alter>0.0</alter><octave>3</octave></pitch>
        <duration>16</duration>
        <voice>1</voice>
        <type>16th</type>
        <staff>1</staff>
      </note>
      <note>
        <pitch><step>F</step><alter>0.0</alter><octave>3</octave></pitch>
        <duration>16</duration>
        <voice>1</voice>
        <type>16th</type>
        <staff>1</staff>
      </note>
      <note>
        <pitch><step>E</step><alter>0.0</alter><octave>3</octave></pitch>
        <duration>64</duration>
        <voice>1</voice>
        <type>quarter</type>
        <staff>1</staff>
      </note>
    </measure>
    <measure number='11'>
      <attributes>
        <divisions>4</divisions>
      </attributes>
      <note print-object='no'>
        <rest/>
        <duration>8</duration>
        <type>whole</type>
      </note>
    </measure>
    <measure number='12'>
      <attributes>
        <divisions>4</divisions>
      </attributes>
      <note print-object='no'>
        <rest/>
        <duration>8</duration>
        <type>whole</type>
      </note>
    </measure>
    <measure number='13'>
      <attributes>
        <divisions>4</divisions>
      </attributes>
      <note print-object='no'>
        <rest/>
        <duration>8</duration>
        <type>whole</type>
      </note>
    </measure>
    <measure number='14'>
      <attributes>
        <divisions>4</divisions>
      </attributes>
      <note print-object='no'>
        <rest/>
        <duration>8</duration>
        <type>whole</type>
      </note>
    </measure>
    <measure number='15'>
      <attributes>
        <divisions>4</divisions>
      </attributes>
      <note print-object='no'>
        <rest/>
        <duration>8</duration>
        <type>whole</type>
      </note>
    </measure>
    <measure number='16'>
      <attributes>
        <divisions>4</divisions>
      </attributes>
      <note print-object='no'>
        <rest/>
        <duration>8</duration>
        <type>whole</type>
      </note>
    </measure>
    <measure number='17'>
      <attributes>
        <divisions>4</divisions>
      </attributes>
      <note print-object='no'>
        <rest/>
        <duration>8</duration>
        <type>whole</type>
      </note>
    </measure>
    <measure number='18'>
      <attributes>
        <divisions>4</divisions>
      </attributes>
      <note print-object='no'>
        <rest/>
        <duration>8</duration>
        <type>whole</type>
      </note>
      <barline location='right'>
        <bar-style>light-heavy</bar-style>
      </barline>
    </measure>
  </part>
  <part id='P17'>
    <measure number='1'>
      <attributes>
        <divisions>64</divisions>
        <key><fifths>0</fifths><mode>major</mode></key>
        <time><beats>2</beats><beat-type>4</beat-type></time>
        <staves>1</staves>
        <clef number='1'><sign>F</sign><line>4</line></clef>
      </attributes>
      <note print-object='no'>
        <rest/>
        <duration>128</duration>
        <type>whole</type>
      </note>
    </measure>
    <measure number='2'>
      <attributes>
        <divisions>64</divisions>
      </attributes>
      <note print-object='no'>
        <rest/>
        <duration>128</duration>
        <type>whole</type>
      </note>
    </measure>
    <measure number='3'>
      <attributes>
        <divisions>64</divisions>
      </attributes>
      <note>
        <pitch><step>A</step><alter>0.0</alter><octave>2</octave></pitch>
        <duration>32</duration>
        <voice>1</voice>
        <type>eighth</type>
        <staff>1</staff>
      </note>
      <note>
        <pitch><step>E</step><alter>0.0</alter><octave>2</octave></pitch>
        <duration>32</duration>
        <voice>1</voice>
        <type>eighth</type>
        <staff>1</staff>
      </note>
      <note>
        <pitch><step>A</step><alter>0.0</alter><octave>2</octave></pitch>
        <duration>32</duration>
        <voice>1</voice>
        <type>eighth</type>
        <staff>1</staff>
      </note>
      <note>
        <pitch><step>E</step><alter>0.0</alter><octave>2</octave></pitch>
        <duration>32</duration>
        <voice>1</voice>
        <type>eighth</type>
        <staff>1</staff>
      </note>
    </measure>
    <measure number='4'>
      <attributes>
        <divisions>64</divisions>
      </attributes>
      <note>
        <pitch><step>F</step><alter>0.0</alter><octave>2</octave></pitch>
        <duration>32</duration>
        <voice>1</voice>
        <type>eighth</type>
        <staff>1</staff>
      </note>
      <note>
        <pitch><step>C</step><alter>0.0</alter><octave>2</octave></pitch>
        <duration>32</duration>
        <voice>1</voice>
        <type>eighth</type>
        <staff>1</staff>
      </note>
      <note>
        <pitch><step>F</step><alter>0.0</alter><octave>2</octave></pitch>
        <duration>32</duration>
        <voice>1</voice>
        <type>eighth</type>
        <staff>1</staff>
      </note>
      <note>
        <pitch><step>C</step><alter>0.0</alter><octave>2</octave></pitch>
        <duration>32</duration>
        <voice>1</voice>
        <type>eighth</type>
        <staff>1</staff>
      </note>
    </measure>
    <measure number='5'>
      <attributes>
        <divisions>64</divisions>
      </attributes>
      <note>
        <pitch><step>A</step><alter>0.0</alter><octave>2</octave></pitch>
        <duration>32</duration>
        <voice>1</voice>
        <type>eighth</type>
        <staff>1</staff>
      </note>
      <note>
        <pitch><step>E</step><alter>0.0</alter><octave>2</octave></pitch>
        <duration>32</duration>
        <voice>1</voice>
        <type>eighth</type>
        <staff>1</staff>
      </note>
      <note>
        <pitch><step>A</step><alter>0.0</alter><octave>2</octave></pitch>
        <duration>32</duration>
        <voice>1</voice>
        <type>eighth</type>
        <staff>1</staff>
      </note>
      <note>
        <pitch><step>E</step><alter>0.0</alter><octave>2</octave></pitch>
        <duration>32</duration>
        <voice>1</voice>
        <type>eighth</type>
        <staff>1</staff>
      </note>
    </measure>
    <measure number='6'>
      <attributes>
        <divisions>64</divisions>
      </attributes>
      <note>
        <pitch><step>F</step><alter>0.0</alter><octave>2</octave></pitch>
        <duration>32</duration>
        <voice>1</voice>
        <type>eighth</type>
        <staff>1</staff>
      </note>
      <note>
        <pitch><step>C</step><alter>0.0</alter><octave>2</octave></pitch>
        <duration>32</duration>
        <voice>1</voice>
        <type>eighth</type>
        <staff>1</staff>
      </note>
      <note>
        <pitch><step>F</step><alter>0.0</alter><octave>2</octave></pitch>
        <duration>32</duration>
        <voice>1</voice>
        <type>eighth</type>
        <staff>1</staff>
      </note>
      <note>
        <pitch><step>C</step><alter>0.0</alter><octave>2</octave></pitch>
        <duration>32</duration>
        <voice>1</voice>
        <type>eighth</type>
        <staff>1</staff>
      </note>
    </measure>
    <measure number='7'>
      <attributes>
        <divisions>64</divisions>
      </attributes>
      <note>
        <pitch><step>A</step><alter>0.0</alter><octave>2</octave></pitch>
        <duration>32</duration>
        <voice>1</voice>
        <type>eighth</type>
        <staff>1</staff>
      </note>
      <note>
        <pitch><step>E</step><alter>0.0</alter><octave>2</octave></pitch>
        <duration>32</duration>
        <voice>1</voice>
        <type>eighth</type>
        <staff>1</staff>
      </note>
      <note>
        <pitch><step>A</step><alter>0.0</alter><octave>2</octave></pitch>
        <duration>32</duration>
        <voice>1</voice>
        <type>eighth</type>
        <staff>1</staff>
      </note>
      <note>
        <pitch><step>E</step><alter>0.0</alter><octave>2</octave></pitch>
        <duration>32</duration>
        <voice>1</voice>
        <type>eighth</type>
        <staff>1</staff>
      </note>
    </measure>
    <measure number='8'>
      <attributes>
        <divisions>64</divisions>
      </attributes>
      <note>
        <pitch><step>G</step><alter>0.0</alter><octave>2</octave></pitch>
        <duration>32</duration>
        <voice>1</voice>
        <type>eighth</type>
        <staff>1</staff>
      </note>
      <note>
        <pitch><step>D</step><alter>0.0</alter><octave>2</octave></pitch>
        <duration>32</duration>
        <voice>1</voice>
        <type>eighth</type>
        <staff>1</staff>
      </note>
      <note>
        <pitch><step>G</step><alter>0.0</alter><octave>2</octave></pitch>
        <duration>32</duration>
        <voice>1</voice>
        <type>eighth</type>
        <staff>1</staff>
      </note>
      <note>
        <pitch><step>D</step><alter>0.0</alter><octave>2</octave></pitch>
        <duration>32</duration>
        <voice>1</voice>
        <type>eighth</type>
        <staff>1</staff>
      </note>
    </measure>
    <measure number='9'>
      <attributes>
        <divisions>64</divisions>
      </attributes>
      <note>
        <pitch><step>F</step><alter>0.0</alter><octave>2</octave></pitch>
        <duration>32</duration>
        <voice>1</voice>
        <type>eighth</type>
        <staff>1</staff>
      </note>
      <note>
        <pitch><step>C</step><alter>0.0</alter><octave>2</octave></pitch>
        <duration>32</duration>
        <voice>1</voice>
        <type>eighth</type>
        <staff>1</staff>
      </note>
      <note>
        <pitch><step>F</step><alter>0.0</alter><octave>2</octave></pitch>
        <duration>32</duration>
        <voice>1</voice>
        <type>eighth</type>
        <staff>1</staff>
      </note>
      <note>
        <pitch><step>C</step><alter>0.0</alter><octave>2</octave></pitch>
        <duration>32</duration>
        <voice>1</voice>
        <type>eighth</type>
        <staff>1</staff>
      </note>
    </measure>
    <measure number='10'>
      <attributes>
        <divisions>64</divisions>
      </attributes>
      <note>
        <pitch><step>E</step><alter>0.0</alter><octave>2</octave></pitch>
        <duration>32</duration>
        <voice>1</voice>
        <type>eighth</type>
        <staff>1</staff>
      </note>
      <note>
        <pitch><step>B</step><alter>0.0</alter><octave>1</octave></pitch>
        <duration>32</duration>
        <voice>1</voice>
        <type>eighth</type>
        <staff>1</staff>
      </note>
      <note>
        <pitch><step>E</step><alter>0.0</alter><octave>2</octave></pitch>
        <duration>32</duration>
        <voice>1</voice>
        <type>eighth</type>
        <staff>1</staff>
      </note>
      <note>
        <pitch><step>B</step><alter>0.0</alter><octave>1</octave></pitch>
        <duration>32</duration>
        <voice>1</voice>
        <type>eighth</type>
        <staff>1</staff>
      </note>
    </measure>
    <measure number='11'>
      <attributes>
        <divisions>4</divisions>
      </attributes>
      <note print-object='no'>
        <rest/>
        <duration>8</duration>
        <type>whole</type>
      </note>
    </measure>
    <measure number='12'>
      <attributes>
        <divisions>4</divisions>
      </attributes>
      <note print-object='no'>
        <rest/>
        <duration>8</duration>
        <type>whole</type>
      </note>
    </measure>
    <measure number='13'>
      <attributes>
        <divisions>4</divisions>
      </attributes>
      <note print-object='no'>
        <rest/>
        <duration>8</duration>
        <type>whole</type>
      </note>
    </measure>
    <measure number='14'>
      <attributes>
        <divisions>4</divisions>
      </attributes>
      <note print-object='no'>
        <rest/>
        <duration>8</duration>
        <type>whole</type>
      </note>
    </measure>
    <measure number='15'>
      <attributes>
        <divisions>4</divisions>
      </attributes>
      <note print-object='no'>
        <rest/>
        <duration>8</duration>
        <type>whole</type>
      </note>
    </measure>
    <measure number='16'>
      <attributes>
        <divisions>4</divisions>
      </attributes>
      <note print-object='no'>
        <rest/>
        <duration>8</duration>
        <type>whole</type>
      </note>
    </measure>
    <measure number='17'>
      <attributes>
        <divisions>4</divisions>
      </attributes>
      <note print-object='no'>
        <rest/>
        <duration>8</duration>
        <type>whole</type>
      </note>
    </measure>
    <measure number='18'>
      <attributes>
        <divisions>4</divisions>
      </attributes>
      <note print-object='no'>
        <rest/>
        <duration>8</duration>
        <type>whole</type>
      </note>
      <barline location='right'>
        <bar-style>light-heavy</bar-style>
      </barline>
    </measure>
  </part>
  <part id='P19'>
    <measure number='1'>
      <attributes>
        <divisions>64</divisions>
        <time><beats>2</beats><beat-type>4</beat-type></time>
        <staves>1</staves>
        <clef number='1'><sign>percussion</sign><line>3</line></clef>
      </attributes>
      <note>
        <pitch><step>B</step><alter>0.0</alter><octave>4</octave></pitch>
        <duration>4</duration>
        <voice>1</voice>
        <type>64th</type>
        <staff>1</staff>
        <notations>
          <articulations>
            <accent/>
          </articulations>
        </notations>
      </note>
      <note>
        <pitch><step>B</step><alter>0.0</alter><octave>4</octave></pitch>
        <duration>4</duration>
        <voice>1</voice>
        <type>64th</type>
        <staff>1</staff>
      </note>
      <note>
        <pitch><step>B</step><alter>0.0</alter><octave>4</octave></pitch>
        <duration>4</duration>
        <voice>1</voice>
        <type>64th</type>
        <staff>1</staff>
      </note>
      <note>
        <pitch><step>B</step><alter>0.0</alter><octave>4</octave></pitch>
        <duration>4</duration>
        <voice>1</voice>
        <type>64th</type>
        <staff>1</staff>
      </note>
      <note>
        <pitch><step>B</step><alter>0.0</alter><octave>4</octave></pitch>
        <duration>4</duration>
        <voice>1</voice>
        <type>64th</type>
        <staff>1</staff>
      </note>
      <note>
        <pitch><step>B</step><alter>0.0</alter><octave>4</octave></pitch>
        <duration>4</duration>
        <voice>1</voice>
        <type>64th</type>
        <staff>1</staff>
      </note>
      <note>
        <pitch><step>B</step><alter>0.0</alter><octave>4</octave></pitch>
        <duration>4</duration>
        <voice>1</voice>
        <type>64th</type>
        <staff>1</staff>
      </note>
      <note>
        <pitch><step>B</step><alter>0.0</alter><octave>4</octave></pitch>
        <duration>4</duration>
        <voice>1</voice>
        <type>64th</type>
        <staff>1</staff>
      </note>
      <note>
        <pitch><step>B</step><alter>0.0</alter><octave>4</octave></pitch>
        <duration>4</duration>
        <voice>1</voice>
        <type>64th</type>
        <staff>1</staff>
        <notations>
          <articulations>
            <accent/>
          </articulations>
        </notations>
      </note>
      <note>
        <pitch><step>B</step><alter>0.0</alter><octave>4</octave></pitch>
        <duration>4</duration>
        <voice>1</voice>
        <type>64th</type>
        <staff>1</staff>
      </note>
      <note>
        <pitch><step>B</step><alter>0.0</alter><octave>4</octave></pitch>
        <duration>4</duration>
        <voice>1</voice>
        <type>64th</type>
        <staff>1</staff>
      </note>
      <note>
        <pitch><step>B</step><alter>0.0</alter><octave>4</octave></pitch>
        <duration>4</duration>
        <voice>1</voice>
        <type>64th</type>
        <staff>1</staff>
      </note>
      <note>
        <pitch><step>B</step><alter>0.0</alter><octave>4</octave></pitch>
        <duration>4</duration>
        <voice>1</voice>
        <type>64th</type>
        <staff>1</staff>
      </note>
      <note>
        <pitch><step>B</step><alter>0.0</alter><octave>4</octave></pitch>
        <duration>4</duration>
        <voice>1</voice>
        <type>64th</type>
        <staff>1</staff>
      </note>
      <note>
        <pitch><step>B</step><alter>0.0</alter><octave>4</octave></pitch>
        <duration>4</duration>
        <voice>1</voice>
        <type>64th</type>
        <staff>1</staff>
      </note>
      <note>
        <pitch><step>B</step><alter>0.0</alter><octave>4</octave></pitch>
        <duration>4</duration>
        <voice>1</voice>
        <type>64th</type>
        <staff>1</staff>
      </note>
      <note>
        <rest/>
        <duration>64</duration>
        <voice>1</voice>
        <type>quarter</type>
        <staff>1</staff>
      </note>
    </measure>
    <measure number='2'>
      <attributes>
        <divisions>64</divisions>
      </attributes>
      <note>
        <pitch><step>B</step><alter>0.0</alter><octave>4</octave></pitch>
        <duration>4</duration>
        <voice>1</voice>
        <type>64th</type>
        <staff>1</staff>
        <notations>
          <articulations>
            <accent/>
          </articulations>
        </notations>
      </note>
      <note>
        <pitch><step>B</step><alter>0.0</alter><octave>4</octave></pitch>
        <duration>4</duration>
        <voice>1</voice>
        <type>64th</type>
        <staff>1</staff>
      </note>
      <note>
        <pitch><step>B</step><alter>0.0</alter><octave>4</octave></pitch>
        <duration>4</duration>
        <voice>1</voice>
        <type>64th</type>
        <staff>1</staff>
      </note>
      <note>
        <pitch><step>B</step><alter>0.0</alter><octave>4</octave></pitch>
        <duration>4</duration>
        <voice>1</voice>
        <type>64th</type>
        <staff>1</staff>
      </note>
      <note>
        <pitch><step>B</step><alter>0.0</alter><octave>4</octave></pitch>
        <duration>4</duration>
        <voice>1</voice>
        <type>64th</type>
        <staff>1</staff>
      </note>
      <note>
        <pitch><step>B</step><alter>0.0</alter><octave>4</octave></pitch>
        <duration>4</duration>
        <voice>1</voice>
        <type>64th</type>
        <staff>1</staff>
      </note>
      <note>
        <pitch><step>B</step><alter>0.0</alter><octave>4</octave></pitch>
        <duration>4</duration>
        <voice>1</voice>
        <type>64th</type>
        <staff>1</staff>
      </note>
      <note>
        <pitch><step>B</step><alter>0.0</alter><octave>4</octave></pitch>
        <duration>4</duration>
        <voice>1</voice>
        <type>64th</type>
        <staff>1</staff>
      </note>
      <note>
        <pitch><step>B</step><alter>0.0</alter><octave>4</octave></pitch>
        <duration>4</duration>
        <voice>1</voice>
        <type>64th</type>
        <staff>1</staff>
        <notations>
          <articulations>
            <accent/>
          </articulations>
        </notations>
      </note>
      <note>
        <pitch><step>B</step><alter>0.0</alter><octave>4</octave></pitch>
        <duration>4</duration>
        <voice>1</voice>
        <type>64th</type>
        <staff>1</staff>
      </note>
      <note>
        <pitch><step>B</step><alter>0.0</alter><octave>4</octave></pitch>
        <duration>4</duration>
        <voice>1</voice>
        <type>64th</type>
        <staff>1</staff>
      </note>
      <note>
        <pitch><step>B</step><alter>0.0</alter><octave>4</octave></pitch>
        <duration>4</duration>
        <voice>1</voice>
        <type>64th</type>
        <staff>1</staff>
      </note>
      <note>
        <pitch><step>B</step><alter>0.0</alter><octave>4</octave></pitch>
        <duration>4</duration>
        <voice>1</voice>
        <type>64th</type>
        <staff>1</staff>
      </note>
      <note>
        <pitch><step>B</step><alter>0.0</alter><octave>4</octave></pitch>
        <duration>4</duration>
        <voice>1</voice>
        <type>64th</type>
        <staff>1</staff>
      </note>
      <note>
        <pitch><step>B</step><alter>0.0</alter><octave>4</octave></pitch>
        <duration>4</duration>
        <voice>1</voice>
        <type>64th</type>
        <staff>1</staff>
      </note>
      <note>
        <pitch><step>B</step><alter>0.0</alter><octave>4</octave></pitch>
        <duration>4</duration>
        <voice>1</voice>
        <type>64th</type>
        <staff>1</staff>
      </note>
      <note>
        <rest/>
        <duration>64</duration>
        <voice>1</voice>
        <type>quarter</type>
        <staff>1</staff>
      </note>
    </measure>
    <measure number='3'>
      <attributes>
        <divisions>64</divisions>
      </attributes>
      <note>
        <pitch><step>B</step><alter>0.0</alter><octave>4</octave></pitch>
        <duration>4</duration>
        <voice>1</voice>
        <type>64th</type>
        <staff>1</staff>
        <notations>
          <articulations>
            <accent/>
          </articulations>
        </notations>
      </note>
      <note>
        <pitch><step>B</step><alter>0.0</alter><octave>4</octave></pitch>
        <duration>4</duration>
        <voice>1</voice>
        <type>64th</type>
        <staff>1</staff>
      </note>
      <note>
        <pitch><step>B</step><alter>0.0</alter><octave>4</octave></pitch>
        <duration>4</duration>
        <voice>1</voice>
        <type>64th</type>
        <staff>1</staff>
      </note>
      <note>
        <pitch><step>B</step><alter>0.0</alter><octave>4</octave></pitch>
        <duration>4</duration>
        <voice>1</voice>
        <type>64th</type>
        <staff>1</staff>
      </note>
      <note>
        <pitch><step>B</step><alter>0.0</alter><octave>4</octave></pitch>
        <duration>4</duration>
        <voice>1</voice>
        <type>64th</type>
        <staff>1</staff>
      </note>
      <note>
        <pitch><step>B</step><alter>0.0</alter><octave>4</octave></pitch>
        <duration>4</duration>
        <voice>1</voice>
        <type>64th</type>
        <staff>1</staff>
      </note>
      <note>
        <pitch><step>B</step><alter>0.0</alter><octave>4</octave></pitch>
        <duration>4</duration>
        <voice>1</voice>
        <type>64th</type>
        <staff>1</staff>
      </note>
      <note>
        <pitch><step>B</step><alter>0.0</alter><octave>4</octave></pitch>
        <duration>4</duration>
        <voice>1</voice>
        <type>64th</type>
        <staff>1</staff>
      </note>
      <note>
        <pitch><step>B</step><alter>0.0</alter><octave>4</octave></pitch>
        <duration>4</duration>
        <voice>1</voice>
        <type>64th</type>
        <staff>1</staff>
        <notations>
          <articulations>
            <accent/>
          </articulations>
        </notations>
      </note>
      <note>
        <pitch><step>B</step><alter>0.0</alter><octave>4</octave></pitch>
        <duration>4</duration>
        <voice>1</voice>
        <type>64th</type>
        <staff>1</staff>
      </note>
      <note>
        <pitch><step>B</step><alter>0.0</alter><octave>4</octave></pitch>
        <duration>4</duration>
        <voice>1</voice>
        <type>64th</type>
        <staff>1</staff>
      </note>
      <note>
        <pitch><step>B</step><alter>0.0</alter><octave>4</octave></pitch>
        <duration>4</duration>
        <voice>1</voice>
        <type>64th</type>
        <staff>1</staff>
      </note>
      <note>
        <pitch><step>B</step><alter>0.0</alter><octave>4</octave></pitch>
        <duration>4</duration>
        <voice>1</voice>
        <type>64th</type>
        <staff>1</staff>
      </note>
      <note>
        <pitch><step>B</step><alter>0.0</alter><octave>4</octave></pitch>
        <duration>4</duration>
        <voice>1</voice>
        <type>64th</type>
        <staff>1</staff>
      </note>
      <note>
        <pitch><step>B</step><alter>0.0</alter><octave>4</octave></pitch>
        <duration>4</duration>
        <voice>1</voice>
        <type>64th</type>
        <staff>1</staff>
      </note>
      <note>
        <pitch><step>B</step><alter>0.0</alter><octave>4</octave></pitch>
        <duration>4</duration>
        <voice>1</voice>
        <type>64th</type>
        <staff>1</staff>
      </note>
      <note>
        <rest/>
        <duration>64</duration>
        <voice>1</voice>
        <type>quarter</type>
        <staff>1</staff>
      </note>
    </measure>
    <measure number='4'>
      <attributes>
        <divisions>64</divisions>
      </attributes>
      <note>
        <pitch><step>B</step><alter>0.0</alter><octave>4</octave></pitch>
        <duration>4</duration>
        <voice>1</voice>
        <type>64th</type>
        <staff>1</staff>
        <notations>
          <articulations>
            <accent/>
          </articulations>
        </notations>
      </note>
      <note>
        <pitch><step>B</step><alter>0.0</alter><octave>4</octave></pitch>
        <duration>4</duration>
        <voice>1</voice>
        <type>64th</type>
        <staff>1</staff>
      </note>
      <note>
        <pitch><step>B</step><alter>0.0</alter><octave>4</octave></pitch>
        <duration>4</duration>
        <voice>1</voice>
        <type>64th</type>
        <staff>1</staff>
      </note>
      <note>
        <pitch><step>B</step><alter>0.0</alter><octave>4</octave></pitch>
        <duration>4</duration>
        <voice>1</voice>
        <type>64th</type>
        <staff>1</staff>
      </note>
      <note>
        <pitch><step>B</step><alter>0.0</alter><octave>4</octave></pitch>
        <duration>4</duration>
        <voice>1</voice>
        <type>64th</type>
        <staff>1</staff>
      </note>
      <note>
        <pitch><step>B</step><alter>0.0</alter><octave>4</octave></pitch>
        <duration>4</duration>
        <voice>1</voice>
        <type>64th</type>
        <staff>1</staff>
      </note>
      <note>
        <pitch><step>B</step><alter>0.0</alter><octave>4</octave></pitch>
        <duration>4</duration>
        <voice>1</voice>
        <type>64th</type>
        <staff>1</staff>
      </note>
      <note>
        <pitch><step>B</step><alter>0.0</alter><octave>4</octave></pitch>
        <duration>4</duration>
        <voice>1</voice>
        <type>64th</type>
        <staff>1</staff>
      </note>
      <note>
        <pitch><step>B</step><alter>0.0</alter><octave>4</octave></pitch>
        <duration>4</duration>
        <voice>1</voice>
        <type>64th</type>
        <staff>1</staff>
        <notations>
          <articulations>
            <accent/>
          </articulations>
        </notations>
      </note>
      <note>
        <pitch><step>B</step><alter>0.0</alter><octave>4</octave></pitch>
        <duration>4</duration>
        <voice>1</voice>
        <type>64th</type>
        <staff>1</staff>
      </note>
      <note>
        <pitch><step>B</step><alter>0.0</alter><octave>4</octave></pitch>
        <duration>4</duration>
        <voice>1</voice>
        <type>64th</type>
        <staff>1</staff>
      </note>
      <note>
        <pitch><step>B</step><alter>0.0</alter><octave>4</octave></pitch>
        <duration>4</duration>
        <voice>1</voice>
        <type>64th</type>
        <staff>1</staff>
      </note>
      <note>
        <pitch><step>B</step><alter>0.0</alter><octave>4</octave></pitch>
        <duration>4</duration>
        <voice>1</voice>
        <type>64th</type>
        <staff>1</staff>
      </note>
      <note>
        <pitch><step>B</step><alter>0.0</alter><octave>4</octave></pitch>
        <duration>4</duration>
        <voice>1</voice>
        <type>64th</type>
        <staff>1</staff>
      </note>
      <note>
        <pitch><step>B</step><alter>0.0</alter><octave>4</octave></pitch>
        <duration>4</duration>
        <voice>1</voice>
        <type>64th</type>
        <staff>1</staff>
      </note>
      <note>
        <pitch><step>B</step><alter>0.0</alter><octave>4</octave></pitch>
        <duration>4</duration>
        <voice>1</voice>
        <type>64th</type>
        <staff>1</staff>
      </note>
      <note>
        <rest/>
        <duration>64</duration>
        <voice>1</voice>
        <type>quarter</type>
        <staff>1</staff>
      </note>
    </measure>
    <measure number='5'>
      <attributes>
        <divisions>64</divisions>
      </attributes>
      <note>
        <pitch><step>B</step><alter>0.0</alter><octave>4</octave></pitch>
        <duration>4</duration>
        <voice>1</voice>
        <type>64th</type>
        <staff>1</staff>
        <notations>
          <articulations>
            <accent/>
          </articulations>
        </notations>
      </note>
      <note>
        <pitch><step>B</step><alter>0.0</alter><octave>4</octave></pitch>
        <duration>4</duration>
        <voice>1</voice>
        <type>64th</type>
        <staff>1</staff>
      </note>
      <note>
        <pitch><step>B</step><alter>0.0</alter><octave>4</octave></pitch>
        <duration>4</duration>
        <voice>1</voice>
        <type>64th</type>
        <staff>1</staff>
      </note>
      <note>
        <pitch><step>B</step><alter>0.0</alter><octave>4</octave></pitch>
        <duration>4</duration>
        <voice>1</voice>
        <type>64th</type>
        <staff>1</staff>
      </note>
      <note>
        <pitch><step>B</step><alter>0.0</alter><octave>4</octave></pitch>
        <duration>4</duration>
        <voice>1</voice>
        <type>64th</type>
        <staff>1</staff>
      </note>
      <note>
        <pitch><step>B</step><alter>0.0</alter><octave>4</octave></pitch>
        <duration>4</duration>
        <voice>1</voice>
        <type>64th</type>
        <staff>1</staff>
      </note>
      <note>
        <pitch><step>B</step><alter>0.0</alter><octave>4</octave></pitch>
        <duration>4</duration>
        <voice>1</voice>
        <type>64th</type>
        <staff>1</staff>
      </note>
      <note>
        <pitch><step>B</step><alter>0.0</alter><octave>4</octave></pitch>
        <duration>4</duration>
        <voice>1</voice>
        <type>64th</type>
        <staff>1</staff>
      </note>
      <note>
        <pitch><step>B</step><alter>0.0</alter><octave>4</octave></pitch>
        <duration>4</duration>
        <voice>1</voice>
        <type>64th</type>
        <staff>1</staff>
        <notations>
          <articulations>
            <accent/>
          </articulations>
        </notations>
      </note>
      <note>
        <pitch><step>B</step><alter>0.0</alter><octave>4</octave></pitch>
        <duration>4</duration>
        <voice>1</voice>
        <type>64th</type>
        <staff>1</staff>
      </note>
      <note>
        <pitch><step>B</step><alter>0.0</alter><octave>4</octave></pitch>
        <duration>4</duration>
        <voice>1</voice>
        <type>64th</type>
        <staff>1</staff>
      </note>
      <note>
        <pitch><step>B</step><alter>0.0</alter><octave>4</octave></pitch>
        <duration>4</duration>
        <voice>1</voice>
        <type>64th</type>
        <staff>1</staff>
      </note>
      <note>
        <pitch><step>B</step><alter>0.0</alter><octave>4</octave></pitch>
        <duration>4</duration>
        <voice>1</voice>
        <type>64th</type>
        <staff>1</staff>
      </note>
      <note>
        <pitch><step>B</step><alter>0.0</alter><octave>4</octave></pitch>
        <duration>4</duration>
        <voice>1</voice>
        <type>64th</type>
        <staff>1</staff>
      </note>
      <note>
        <pitch><step>B</step><alter>0.0</alter><octave>4</octave></pitch>
        <duration>4</duration>
        <voice>1</voice>
        <type>64th</type>
        <staff>1</staff>
      </note>
      <note>
        <pitch><step>B</step><alter>0.0</alter><octave>4</octave></pitch>
        <duration>4</duration>
        <voice>1</voice>
        <type>64th</type>
        <staff>1</staff>
      </note>
      <note>
        <rest/>
        <duration>64</duration>
        <voice>1</voice>
        <type>quarter</type>
        <staff>1</staff>
      </note>
    </measure>
    <measure number='6'>
      <attributes>
        <divisions>64</divisions>
      </attributes>
      <note>
        <pitch><step>B</step><alter>0.0</alter><octave>4</octave></pitch>
        <duration>4</duration>
        <voice>1</voice>
        <type>64th</type>
        <staff>1</staff>
        <notations>
          <articulations>
            <accent/>
          </articulations>
        </notations>
      </note>
      <note>
        <pitch><step>B</step><alter>0.0</alter><octave>4</octave></pitch>
        <duration>4</duration>
        <voice>1</voice>
        <type>64th</type>
        <staff>1</staff>
      </note>
      <note>
        <pitch><step>B</step><alter>0.0</alter><octave>4</octave></pitch>
        <duration>4</duration>
        <voice>1</voice>
        <type>64th</type>
        <staff>1</staff>
      </note>
      <note>
        <pitch><step>B</step><alter>0.0</alter><octave>4</octave></pitch>
        <duration>4</duration>
        <voice>1</voice>
        <type>64th</type>
        <staff>1</staff>
      </note>
      <note>
        <pitch><step>B</step><alter>0.0</alter><octave>4</octave></pitch>
        <duration>4</duration>
        <voice>1</voice>
        <type>64th</type>
        <staff>1</staff>
      </note>
      <note>
        <pitch><step>B</step><alter>0.0</alter><octave>4</octave></pitch>
        <duration>4</duration>
        <voice>1</voice>
        <type>64th</type>
        <staff>1</staff>
      </note>
      <note>
        <pitch><step>B</step><alter>0.0</alter><octave>4</octave></pitch>
        <duration>4</duration>
        <voice>1</voice>
        <type>64th</type>
        <staff>1</staff>
      </note>
      <note>
        <pitch><step>B</step><alter>0.0</alter><octave>4</octave></pitch>
        <duration>4</duration>
        <voice>1</voice>
        <type>64th</type>
        <staff>1</staff>
      </note>
      <note>
        <pitch><step>B</step><alter>0.0</alter><octave>4</octave></pitch>
        <duration>4</duration>
        <voice>1</voice>
        <type>64th</type>
        <staff>1</staff>
        <notations>
          <articulations>
            <accent/>
          </articulations>
        </notations>
      </note>
      <note>
        <pitch><step>B</step><alter>0.0</alter><octave>4</octave></pitch>
        <duration>4</duration>
        <voice>1</voice>
        <type>64th</type>
        <staff>1</staff>
      </note>
      <note>
        <pitch><step>B</step><alter>0.0</alter><octave>4</octave></pitch>
        <duration>4</duration>
        <voice>1</voice>
        <type>64th</type>
        <staff>1</staff>
      </note>
      <note>
        <pitch><step>B</step><alter>0.0</alter><octave>4</octave></pitch>
        <duration>4</duration>
        <voice>1</voice>
        <type>64th</type>
        <staff>1</staff>
      </note>
      <note>
        <pitch><step>B</step><alter>0.0</alter><octave>4</octave></pitch>
        <duration>4</duration>
        <voice>1</voice>
        <type>64th</type>
        <staff>1</staff>
      </note>
      <note>
        <pitch><step>B</step><alter>0.0</alter><octave>4</octave></pitch>
        <duration>4</duration>
        <voice>1</voice>
        <type>64th</type>
        <staff>1</staff>
      </note>
      <note>
        <pitch><step>B</step><alter>0.0</alter><octave>4</octave></pitch>
        <duration>4</duration>
        <voice>1</voice>
        <type>64th</type>
        <staff>1</staff>
      </note>
      <note>
        <pitch><step>B</step><alter>0.0</alter><octave>4</octave></pitch>
        <duration>4</duration>
        <voice>1</voice>
        <type>64th</type>
        <staff>1</staff>
      </note>
      <note>
        <rest/>
        <duration>64</duration>
        <voice>1</voice>
        <type>quarter</type>
        <staff>1</staff>
      </note>
    </measure>
    <measure number='7'>
      <attributes>
        <divisions>64</divisions>
      </attributes>
      <note>
        <pitch><step>B</step><alter>0.0</alter><octave>4</octave></pitch>
        <duration>4</duration>
        <voice>1</voice>
        <type>64th</type>
        <staff>1</staff>
        <notations>
          <articulations>
            <accent/>
          </articulations>
        </notations>
      </note>
      <note>
        <pitch><step>B</step><alter>0.0</alter><octave>4</octave></pitch>
        <duration>4</duration>
        <voice>1</voice>
        <type>64th</type>
        <staff>1</staff>
      </note>
      <note>
        <pitch><step>B</step><alter>0.0</alter><octave>4</octave></pitch>
        <duration>4</duration>
        <voice>1</voice>
        <type>64th</type>
        <staff>1</staff>
      </note>
      <note>
        <pitch><step>B</step><alter>0.0</alter><octave>4</octave></pitch>
        <duration>4</duration>
        <voice>1</voice>
        <type>64th</type>
        <staff>1</staff>
      </note>
      <note>
        <pitch><step>B</step><alter>0.0</alter><octave>4</octave></pitch>
        <duration>4</duration>
        <voice>1</voice>
        <type>64th</type>
        <staff>1</staff>
      </note>
      <note>
        <pitch><step>B</step><alter>0.0</alter><octave>4</octave></pitch>
        <duration>4</duration>
        <voice>1</voice>
        <type>64th</type>
        <staff>1</staff>
      </note>
      <note>
        <pitch><step>B</step><alter>0.0</alter><octave>4</octave></pitch>
        <duration>4</duration>
        <voice>1</voice>
        <type>64th</type>
        <staff>1</staff>
      </note>
      <note>
        <pitch><step>B</step><alter>0.0</alter><octave>4</octave></pitch>
        <duration>4</duration>
        <voice>1</voice>
        <type>64th</type>
        <staff>1</staff>
      </note>
      <note>
        <pitch><step>B</step><alter>0.0</alter><octave>4</octave></pitch>
        <duration>4</duration>
        <voice>1</voice>
        <type>64th</type>
        <staff>1</staff>
        <notations>
          <articulations>
            <accent/>
          </articulations>
        </notations>
      </note>
      <note>
        <pitch><step>B</step><alter>0.0</alter><octave>4</octave></pitch>
        <duration>4</duration>
        <voice>1</voice>
        <type>64th</type>
        <staff>1</staff>
      </note>
      <note>
        <pitch><step>B</step><alter>0.0</alter><octave>4</octave></pitch>
        <duration>4</duration>
        <voice>1</voice>
        <type>64th</type>
        <staff>1</staff>
      </note>
      <note>
        <pitch><step>B</step><alter>0.0</alter><octave>4</octave></pitch>
        <duration>4</duration>
        <voice>1</voice>
        <type>64th</type>
        <staff>1</staff>
      </note>
      <note>
        <pitch><step>B</step><alter>0.0</alter><octave>4</octave></pitch>
        <duration>4</duration>
        <voice>1</voice>
        <type>64th</type>
        <staff>1</staff>
      </note>
      <note>
        <pitch><step>B</step><alter>0.0</alter><octave>4</octave></pitch>
        <duration>4</duration>
        <voice>1</voice>
        <type>64th</type>
        <staff>1</staff>
      </note>
      <note>
        <pitch><step>B</step><alter>0.0</alter><octave>4</octave></pitch>
        <duration>4</duration>
        <voice>1</voice>
        <type>64th</type>
        <staff>1</staff>
      </note>
      <note>
        <pitch><step>B</step><alter>0.0</alter><octave>4</octave></pitch>
        <duration>4</duration>
        <voice>1</voice>
        <type>64th</type>
        <staff>1</staff>
      </note>
      <note>
        <rest/>
        <duration>64</duration>
        <voice>1</voice>
        <type>quarter</type>
        <staff>1</staff>
      </note>
    </measure>
    <measure number='8'>
      <attributes>
        <divisions>64</divisions>
      </attributes>
      <note>
        <pitch><step>B</step><alter>0.0</alter><octave>4</octave></pitch>
        <duration>4</duration>
        <voice>1</voice>
        <type>64th</type>
        <staff>1</staff>
        <notations>
          <articulations>
            <accent/>
          </articulations>
        </notations>
      </note>
      <note>
        <pitch><step>B</step><alter>0.0</alter><octave>4</octave></pitch>
        <duration>4</duration>
        <voice>1</voice>
        <type>64th</type>
        <staff>1</staff>
      </note>
      <note>
        <pitch><step>B</step><alter>0.0</alter><octave>4</octave></pitch>
        <duration>4</duration>
        <voice>1</voice>
        <type>64th</type>
        <staff>1</staff>
      </note>
      <note>
        <pitch><step>B</step><alter>0.0</alter><octave>4</octave></pitch>
        <duration>4</duration>
        <voice>1</voice>
        <type>64th</type>
        <staff>1</staff>
      </note>
      <note>
        <pitch><step>B</step><alter>0.0</alter><octave>4</octave></pitch>
        <duration>4</duration>
        <voice>1</voice>
        <type>64th</type>
        <staff>1</staff>
      </note>
      <note>
        <pitch><step>B</step><alter>0.0</alter><octave>4</octave></pitch>
        <duration>4</duration>
        <voice>1</voice>
        <type>64th</type>
        <staff>1</staff>
      </note>
      <note>
        <pitch><step>B</step><alter>0.0</alter><octave>4</octave></pitch>
        <duration>4</duration>
        <voice>1</voice>
        <type>64th</type>
        <staff>1</staff>
      </note>
      <note>
        <pitch><step>B</step><alter>0.0</alter><octave>4</octave></pitch>
        <duration>4</duration>
        <voice>1</voice>
        <type>64th</type>
        <staff>1</staff>
      </note>
      <note>
        <pitch><step>B</step><alter>0.0</alter><octave>4</octave></pitch>
        <duration>4</duration>
        <voice>1</voice>
        <type>64th</type>
        <staff>1</staff>
        <notations>
          <articulations>
            <accent/>
          </articulations>
        </notations>
      </note>
      <note>
        <pitch><step>B</step><alter>0.0</alter><octave>4</octave></pitch>
        <duration>4</duration>
        <voice>1</voice>
        <type>64th</type>
        <staff>1</staff>
      </note>
      <note>
        <pitch><step>B</step><alter>0.0</alter><octave>4</octave></pitch>
        <duration>4</duration>
        <voice>1</voice>
        <type>64th</type>
        <staff>1</staff>
      </note>
      <note>
        <pitch><step>B</step><alter>0.0</alter><octave>4</octave></pitch>
        <duration>4</duration>
        <voice>1</voice>
        <type>64th</type>
        <staff>1</staff>
      </note>
      <note>
        <pitch><step>B</step><alter>0.0</alter><octave>4</octave></pitch>
        <duration>4</duration>
        <voice>1</voice>
        <type>64th</type>
        <staff>1</staff>
      </note>
      <note>
        <pitch><step>B</step><alter>0.0</alter><octave>4</octave></pitch>
        <duration>4</duration>
        <voice>1</voice>
        <type>64th</type>
        <staff>1</staff>
      </note>
      <note>
        <pitch><step>B</step><alter>0.0</alter><octave>4</octave></pitch>
        <duration>4</duration>
        <voice>1</voice>
        <type>64th</type>
        <staff>1</staff>
      </note>
      <note>
        <pitch><step>B</step><alter>0.0</alter><octave>4</octave></pitch>
        <duration>4</duration>
        <voice>1</voice>
        <type>64th</type>
        <staff>1</staff>
      </note>
      <note>
        <rest/>
        <duration>64</duration>
        <voice>1</voice>
        <type>quarter</type>
        <staff>1</staff>
      </note>
    </measure>
    <measure number='9'>
      <attributes>
        <divisions>64</divisions>
      </attributes>
      <note>
        <pitch><step>B</step><alter>0.0</alter><octave>4</octave></pitch>
        <duration>4</duration>
        <voice>1</voice>
        <type>64th</type>
        <staff>1</staff>
        <notations>
          <articulations>
            <accent/>
          </articulations>
        </notations>
      </note>
      <note>
        <pitch><step>B</step><alter>0.0</alter><octave>4</octave></pitch>
        <duration>4</duration>
        <voice>1</voice>
        <type>64th</type>
        <staff>1</staff>
      </note>
      <note>
        <pitch><step>B</step><alter>0.0</alter><octave>4</octave></pitch>
        <duration>4</duration>
        <voice>1</voice>
        <type>64th</type>
        <staff>1</staff>
      </note>
      <note>
        <pitch><step>B</step><alter>0.0</alter><octave>4</octave></pitch>
        <duration>4</duration>
        <voice>1</voice>
        <type>64th</type>
        <staff>1</staff>
      </note>
      <note>
        <pitch><step>B</step><alter>0.0</alter><octave>4</octave></pitch>
        <duration>4</duration>
        <voice>1</voice>
        <type>64th</type>
        <staff>1</staff>
      </note>
      <note>
        <pitch><step>B</step><alter>0.0</alter><octave>4</octave></pitch>
        <duration>4</duration>
        <voice>1</voice>
        <type>64th</type>
        <staff>1</staff>
      </note>
      <note>
        <pitch><step>B</step><alter>0.0</alter><octave>4</octave></pitch>
        <duration>4</duration>
        <voice>1</voice>
        <type>64th</type>
        <staff>1</staff>
      </note>
      <note>
        <pitch><step>B</step><alter>0.0</alter><octave>4</octave></pitch>
        <duration>4</duration>
        <voice>1</voice>
        <type>64th</type>
        <staff>1</staff>
      </note>
      <note>
        <pitch><step>B</step><alter>0.0</alter><octave>4</octave></pitch>
        <duration>4</duration>
        <voice>1</voice>
        <type>64th</type>
        <staff>1</staff>
        <notations>
          <articulations>
            <accent/>
          </articulations>
        </notations>
      </note>
      <note>
        <pitch><step>B</step><alter>0.0</alter><octave>4</octave></pitch>
        <duration>4</duration>
        <voice>1</voice>
        <type>64th</type>
        <staff>1</staff>
      </note>
      <note>
        <pitch><step>B</step><alter>0.0</alter><octave>4</octave></pitch>
        <duration>4</duration>
        <voice>1</voice>
        <type>64th</type>
        <staff>1</staff>
      </note>
      <note>
        <pitch><step>B</step><alter>0.0</alter><octave>4</octave></pitch>
        <duration>4</duration>
        <voice>1</voice>
        <type>64th</type>
        <staff>1</staff>
      </note>
      <note>
        <pitch><step>B</step><alter>0.0</alter><octave>4</octave></pitch>
        <duration>4</duration>
        <voice>1</voice>
        <type>64th</type>
        <staff>1</staff>
      </note>
      <note>
        <pitch><step>B</step><alter>0.0</alter><octave>4</octave></pitch>
        <duration>4</duration>
        <voice>1</voice>
        <type>64th</type>
        <staff>1</staff>
      </note>
      <note>
        <pitch><step>B</step><alter>0.0</alter><octave>4</octave></pitch>
        <duration>4</duration>
        <voice>1</voice>
        <type>64th</type>
        <staff>1</staff>
      </note>
      <note>
        <pitch><step>B</step><alter>0.0</alter><octave>4</octave></pitch>
        <duration>4</duration>
        <voice>1</voice>
        <type>64th</type>
        <staff>1</staff>
      </note>
      <note>
        <rest/>
        <duration>64</duration>
        <voice>1</voice>
        <type>quarter</type>
        <staff>1</staff>
      </note>
    </measure>
    <measure number='10'>
      <attributes>
        <divisions>64</divisions>
      </attributes>
      <note>
        <pitch><step>B</step><alter>0.0</alter><octave>4</octave></pitch>
        <duration>4</duration>
        <voice>1</voice>
        <type>64th</type>
        <staff>1</staff>
        <notations>
          <articulations>
            <accent/>
          </articulations>
        </notations>
      </note>
      <note>
        <pitch><step>B</step><alter>0.0</alter><octave>4</octave></pitch>
        <duration>4</duration>
        <voice>1</voice>
        <type>64th</type>
        <staff>1</staff>
      </note>
      <note>
        <pitch><step>B</step><alter>0.0</alter><octave>4</octave></pitch>
        <duration>4</duration>
        <voice>1</voice>
        <type>64th</type>
        <staff>1</staff>
      </note>
      <note>
        <pitch><step>B</step><alter>0.0</alter><octave>4</octave></pitch>
        <duration>4</duration>
        <voice>1</voice>
        <type>64th</type>
        <staff>1</staff>
      </note>
      <note>
        <pitch><step>B</step><alter>0.0</alter><octave>4</octave></pitch>
        <duration>4</duration>
        <voice>1</voice>
        <type>64th</type>
        <staff>1</staff>
      </note>
      <note>
        <pitch><step>B</step><alter>0.0</alter><octave>4</octave></pitch>
        <duration>4</duration>
        <voice>1</voice>
        <type>64th</type>
        <staff>1</staff>
      </note>
      <note>
        <pitch><step>B</step><alter>0.0</alter><octave>4</octave></pitch>
        <duration>4</duration>
        <voice>1</voice>
        <type>64th</type>
        <staff>1</staff>
      </note>
      <note>
        <pitch><step>B</step><alter>0.0</alter><octave>4</octave></pitch>
        <duration>4</duration>
        <voice>1</voice>
        <type>64th</type>
        <staff>1</staff>
      </note>
      <note>
        <pitch><step>B</step><alter>0.0</alter><octave>4</octave></pitch>
        <duration>4</duration>
        <voice>1</voice>
        <type>64th</type>
        <staff>1</staff>
        <notations>
          <articulations>
            <accent/>
          </articulations>
        </notations>
      </note>
      <note>
        <pitch><step>B</step><alter>0.0</alter><octave>4</octave></pitch>
        <duration>4</duration>
        <voice>1</voice>
        <type>64th</type>
        <staff>1</staff>
      </note>
      <note>
        <pitch><step>B</step><alter>0.0</alter><octave>4</octave></pitch>
        <duration>4</duration>
        <voice>1</voice>
        <type>64th</type>
        <staff>1</staff>
      </note>
      <note>
        <pitch><step>B</step><alter>0.0</alter><octave>4</octave></pitch>
        <duration>4</duration>
        <voice>1</voice>
        <type>64th</type>
        <staff>1</staff>
      </note>
      <note>
        <pitch><step>B</step><alter>0.0</alter><octave>4</octave></pitch>
        <duration>4</duration>
        <voice>1</voice>
        <type>64th</type>
        <staff>1</staff>
      </note>
      <note>
        <pitch><step>B</step><alter>0.0</alter><octave>4</octave></pitch>
        <duration>4</duration>
        <voice>1</voice>
        <type>64th</type>
        <staff>1</staff>
      </note>
      <note>
        <pitch><step>B</step><alter>0.0</alter><octave>4</octave></pitch>
        <duration>4</duration>
        <voice>1</voice>
        <type>64th</type>
        <staff>1</staff>
      </note>
      <note>
        <pitch><step>B</step><alter>0.0</alter><octave>4</octave></pitch>
        <duration>4</duration>
        <voice>1</voice>
        <type>64th</type>
        <staff>1</staff>
      </note>
      <note>
        <rest/>
        <duration>64</duration>
        <voice>1</voice>
        <type>quarter</type>
        <staff>1</staff>
      </note>
    </measure>
    <measure number='11'>
      <attributes>
        <divisions>4</divisions>
      </attributes>
      <note print-object='no'>
        <rest/>
        <duration>8</duration>
        <type>whole</type>
      </note>
    </measure>
    <measure number='12'>
      <attributes>
        <divisions>4</divisions>
      </attributes>
      <note print-object='no'>
        <rest/>
        <duration>8</duration>
        <type>whole</type>
      </note>
    </measure>
    <measure number='13'>
      <attributes>
        <divisions>4</divisions>
      </attributes>
      <note print-object='no'>
        <rest/>
        <duration>8</duration>
        <type>whole</type>
      </note>
    </measure>
    <measure number='14'>
      <attributes>
        <divisions>4</divisions>
      </attributes>
      <note print-object='no'>
        <rest/>
        <duration>8</duration>
        <type>whole</type>
      </note>
    </measure>
    <measure number='15'>
      <attributes>
        <divisions>4</divisions>
      </attributes>
      <note print-object='no'>
        <rest/>
        <duration>8</duration>
        <type>whole</type>
      </note>
    </measure>
    <measure number='16'>
      <attributes>
        <divisions>4</divisions>
      </attributes>
      <note print-object='no'>
        <rest/>
        <duration>8</duration>
        <type>whole</type>
      </note>
    </measure>
    <measure number='17'>
      <attributes>
        <divisions>4</divisions>
      </attributes>
      <note print-object='no'>
        <rest/>
        <duration>8</duration>
        <type>whole</type>
      </note>
    </measure>
    <measure number='18'>
      <attributes>
        <divisions>4</divisions>
      </attributes>
      <note print-object='no'>
        <rest/>
        <duration>8</duration>
        <type>whole</type>
      </note>
      <barline location='right'>
        <bar-style>light-heavy</bar-style>
      </barline>
    </measure>
  </part>
  <part id='P22'>
    <measure number='1'>
      <attributes>
        <divisions>64</divisions>
        <time><beats>2</beats><beat-type>4</beat-type></time>
        <staves>1</staves>
        <clef number='1'><sign>percussion</sign><line>3</line></clef>
      </attributes>
      <note>
        <rest/>
        <duration>64</duration>
        <voice>1</voice>
        <type>quarter</type>
        <staff>1</staff>
        <notations>
          <dynamics default-y='-70'><f/></dynamics>
          <dynamics default-y='20'><f/></dynamics>
        </notations>
      </note>
      <note>
        <pitch><step>B</step><alter>0.0</alter><octave>4</octave></pitch>
        <duration>64</duration>
        <voice>1</voice>
        <type>quarter</type>
        <staff>1</staff>
      </note>
    </measure>
    <measure number='2'>
      <attributes>
        <divisions>64</divisions>
      </attributes>
      <note>
        <rest/>
        <duration>64</duration>
        <voice>1</voice>
        <type>quarter</type>
        <staff>1</staff>
      </note>
      <note>
        <pitch><step>B</step><alter>0.0</alter><octave>4</octave></pitch>
        <duration>64</duration>
        <voice>1</voice>
        <type>quarter</type>
        <staff>1</staff>
      </note>
    </measure>
    <measure number='3'>
      <attributes>
        <divisions>64</divisions>
      </attributes>
      <note>
        <rest/>
        <duration>64</duration>
        <voice>1</voice>
        <type>quarter</type>
        <staff>1</staff>
      </note>
      <note>
        <pitch><step>B</step><alter>0.0</alter><octave>4</octave></pitch>
        <duration>64</duration>
        <voice>1</voice>
        <type>quarter</type>
        <staff>1</staff>
      </note>
    </measure>
    <measure number='4'>
      <attributes>
        <divisions>64</divisions>
      </attributes>
      <note>
        <rest/>
        <duration>64</duration>
        <voice>1</voice>
        <type>quarter</type>
        <staff>1</staff>
      </note>
      <note>
        <pitch><step>B</step><alter>0.0</alter><octave>4</octave></pitch>
        <duration>64</duration>
        <voice>1</voice>
        <type>quarter</type>
        <staff>1</staff>
      </note>
    </measure>
    <measure number='5'>
      <attributes>
        <divisions>64</divisions>
      </attributes>
      <note>
        <rest/>
        <duration>64</duration>
        <voice>1</voice>
        <type>quarter</type>
        <staff>1</staff>
      </note>
      <note>
        <pitch><step>B</step><alter>0.0</alter><octave>4</octave></pitch>
        <duration>64</duration>
        <voice>1</voice>
        <type>quarter</type>
        <staff>1</staff>
      </note>
    </measure>
    <measure number='6'>
      <attributes>
        <divisions>64</divisions>
      </attributes>
      <note>
        <rest/>
        <duration>64</duration>
        <voice>1</voice>
        <type>quarter</type>
        <staff>1</staff>
      </note>
      <note>
        <pitch><step>B</step><alter>0.0</alter><octave>4</octave></pitch>
        <duration>64</duration>
        <voice>1</voice>
        <type>quarter</type>
        <staff>1</staff>
      </note>
    </measure>
    <measure number='7'>
      <attributes>
        <divisions>64</divisions>
      </attributes>
      <note>
        <rest/>
        <duration>64</duration>
        <voice>1</voice>
        <type>quarter</type>
        <staff>1</staff>
      </note>
      <note>
        <pitch><step>B</step><alter>0.0</alter><octave>4</octave></pitch>
        <duration>64</duration>
        <voice>1</voice>
        <type>quarter</type>
        <staff>1</staff>
      </note>
    </measure>
    <measure number='8'>
      <attributes>
        <divisions>64</divisions>
      </attributes>
      <note>
        <rest/>
        <duration>64</duration>
        <voice>1</voice>
        <type>quarter</type>
        <staff>1</staff>
      </note>
      <note>
        <pitch><step>B</step><alter>0.0</alter><octave>4</octave></pitch>
        <duration>64</duration>
        <voice>1</voice>
        <type>quarter</type>
        <staff>1</staff>
      </note>
    </measure>
    <measure number='9'>
      <attributes>
        <divisions>64</divisions>
      </attributes>
      <note>
        <rest/>
        <duration>64</duration>
        <voice>1</voice>
        <type>quarter</type>
        <staff>1</staff>
      </note>
      <note>
        <pitch><step>B</step><alter>0.0</alter><octave>4</octave></pitch>
        <duration>64</duration>
        <voice>1</voice>
        <type>quarter</type>
        <staff>1</staff>
      </note>
    </measure>
    <measure number='10'>
      <attributes>
        <divisions>64</divisions>
      </attributes>
      <note>
        <rest/>
        <duration>64</duration>
        <voice>1</voice>
        <type>quarter</type>
        <staff>1</staff>
      </note>
      <note>
        <pitch><step>B</step><alter>0.0</alter><octave>4</octave></pitch>
        <duration>64</duration>
        <voice>1</voice>
        <type>quarter</type>
        <staff>1</staff>
      </note>
    </measure>
    <measure number='11'>
      <attributes>
        <divisions>4</divisions>
      </attributes>
      <note print-object='no'>
        <rest/>
        <duration>8</duration>
        <type>whole</type>
      </note>
    </measure>
    <measure number='12'>
      <attributes>
        <divisions>4</divisions>
      </attributes>
      <note print-object='no'>
        <rest/>
        <duration>8</duration>
        <type>whole</type>
      </note>
    </measure>
    <measure number='13'>
      <attributes>
        <divisions>4</divisions>
      </attributes>
      <note print-object='no'>
        <rest/>
        <duration>8</duration>
        <type>whole</type>
      </note>
    </measure>
    <measure number='14'>
      <attributes>
        <divisions>4</divisions>
      </attributes>
      <note print-object='no'>
        <rest/>
        <duration>8</duration>
        <type>whole</type>
      </note>
    </measure>
    <measure number='15'>
      <attributes>
        <divisions>4</divisions>
      </attributes>
      <note print-object='no'>
        <rest/>
        <duration>8</duration>
        <type>whole</type>
      </note>
    </measure>
    <measure number='16'>
      <attributes>
        <divisions>4</divisions>
      </attributes>
      <note print-object='no'>
        <rest/>
        <duration>8</duration>
        <type>whole</type>
      </note>
    </measure>
    <measure number='17'>
      <attributes>
        <divisions>4</divisions>
      </attributes>
      <note print-object='no'>
        <rest/>
        <duration>8</duration>
        <type>whole</type>
      </note>
    </measure>
    <measure number='18'>
      <attributes>
        <divisions>4</divisions>
      </attributes>
      <note print-object='no'>
        <rest/>
        <duration>8</duration>
        <type>whole</type>
      </note>
      <barline location='right'>
        <bar-style>light-heavy</bar-style>
      </barline>
    </measure>
  </part>
  <part id='P21'>
    <measure number='1'>
      <attributes>
        <divisions>64</divisions>
        <time><beats>2</beats><beat-type>4</beat-type></time>
        <staves>1</staves>
        <clef number='1'><sign>percussion</sign><line>3</line></clef>
      </attributes>
      <note print-object='no'>
        <rest/>
        <duration>128</duration>
        <type>whole</type>
      </note>
    </measure>
    <measure number='2'>
      <attributes>
        <divisions>64</divisions>
      </attributes>
      <note print-object='no'>
        <rest/>
        <duration>128</duration>
        <type>whole</type>
      </note>
    </measure>
    <measure number='3'>
      <attributes>
        <divisions>64</divisions>
      </attributes>
      <note>
        <pitch><step>B</step><alter>0.0</alter><octave>4</octave></pitch>
        <duration>64</duration>
        <voice>1</voice>
        <type>quarter</type>
        <staff>1</staff>
      </note>
      <note>
        <rest/>
        <duration>64</duration>
        <voice>1</voice>
        <type>quarter</type>
        <staff>1</staff>
      </note>
    </measure>
    <measure number='4'>
      <attributes>
        <divisions>64</divisions>
      </attributes>
      <note print-object='no'>
        <rest/>
        <duration>128</duration>
        <type>whole</type>
      </note>
    </measure>
    <measure number='5'>
      <attributes>
        <divisions>64</divisions>
      </attributes>
      <note>
        <pitch><step>B</step><alter>0.0</alter><octave>4</octave></pitch>
        <duration>64</duration>
        <voice>1</voice>
        <type>quarter</type>
        <staff>1</staff>
      </note>
      <note>
        <rest/>
        <duration>64</duration>
        <voice>1</voice>
        <type>quarter</type>
        <staff>1</staff>
      </note>
    </measure>
    <measure number='6'>
      <attributes>
        <divisions>64</divisions>
      </attributes>
      <note print-object='no'>
        <rest/>
        <duration>128</duration>
        <type>whole</type>
      </note>
    </measure>
    <measure number='7'>
      <attributes>
        <divisions>64</divisions>
      </attributes>
      <note print-object='no'>
        <rest/>
        <duration>128</duration>
        <type>whole</type>
      </note>
    </measure>
    <measure number='8'>
      <attributes>
        <divisions>64</divisions>
      </attributes>
      <note print-object='no'>
        <rest/>
        <duration>128</duration>
        <type>whole</type>
      </note>
    </measure>
    <measure number='9'>
      <attributes>
        <divisions>64</divisions>
      </attributes>
      <note print-object='no'>
        <rest/>
        <duration>128</duration>
        <type>whole</type>
      </note>
    </measure>
    <measure number='10'>
      <attributes>
        <divisions>64</divisions>
      </attributes>
      <note print-object='no'>
        <rest/>
        <duration>128</duration>
        <type>whole</type>
      </note>
    </measure>
    <measure number='11'>
      <attributes>
        <divisions>4</divisions>
      </attributes>
      <note print-object='no'>
        <rest/>
        <duration>8</duration>
        <type>whole</type>
      </note>
    </measure>
    <measure number='12'>
      <attributes>
        <divisions>4</divisions>
      </attributes>
      <note print-object='no'>
        <rest/>
        <duration>8</duration>
        <type>whole</type>
      </note>
    </measure>
    <measure number='13'>
      <attributes>
        <divisions>4</divisions>
      </attributes>
      <note print-object='no'>
        <rest/>
        <duration>8</duration>
        <type>whole</type>
      </note>
    </measure>
    <measure number='14'>
      <attributes>
        <divisions>4</divisions>
      </attributes>
      <note print-object='no'>
        <rest/>
        <duration>8</duration>
        <type>whole</type>
      </note>
    </measure>
    <measure number='15'>
      <attributes>
        <divisions>4</divisions>
      </attributes>
      <note print-object='no'>
        <rest/>
        <duration>8</duration>
        <type>whole</type>
      </note>
    </measure>
    <measure number='16'>
      <attributes>
        <divisions>4</divisions>
      </attributes>
      <note print-object='no'>
        <rest/>
        <duration>8</duration>
        <type>whole</type>
      </note>
    </measure>
    <measure number='17'>
      <attributes>
        <divisions>4</divisions>
      </attributes>
      <note print-object='no'>
        <rest/>
        <duration>8</duration>
        <type>whole</type>
      </note>
    </measure>
    <measure number='18'>
      <attributes>
        <divisions>4</divisions>
      </attributes>
      <note print-object='no'>
        <rest/>
        <duration>8</duration>
        <type>whole</type>
      </note>
      <barline location='right'>
        <bar-style>light-heavy</bar-style>
      </barline>
    </measure>
  </part>
</score-partwise>
