<?xml version='1.0' encoding='UTF-8'?>
<!DOCTYPE score-partwise PUBLIC 
    "-//Recordare//DTD MusicXML 1.1 Partwise//EN" 
    "http://www.musicxml.org/dtds/partwise.dtd">
<score-partwise version='1.1'>
  <work>
    <work-title>Little Menuette</work-title>
  </work>
  <movement-title>for Piano and Oboe</movement-title>
  <identification>
    <creator type='composer'>Peter de Vocht</creator>
    <encoding>
      <software>Notion 4.0</software>
    </encoding>
  </identification>
  <defaults>
    <scaling>
      <millimeters>5.6444</millimeters>
      <tenths>40</tenths>
    </scaling>
    <page-layout>
      <page-height>1980</page-height>
      <page-width>1530</page-width>
      <page-margins type='both'>
        <left-margin>112</left-margin>
        <right-margin>112</right-margin>
        <top-margin>135</top-margin>
        <bottom-margin>112</bottom-margin>
      </page-margins>
    </page-layout>
  </defaults>
  <part-list>
    <score-part id='P2'>
      <part-name>Oboe</part-name>
      <score-instrument id='P2-I1'>
        <instrument-name>Oboe</instrument-name>
      </score-instrument>
      <midi-instrument id='P2-I1'>
        <midi-channel>1</midi-channel>
      </midi-instrument>
    </score-part>
    <score-part id='P1'>
      <part-name>Piano</part-name>
      <score-instrument id='P1-I1'>
        <instrument-name>Piano</instrument-name>
      </score-instrument>
      <midi-instrument id='P1-I1'>
        <midi-channel>2</midi-channel>
      </midi-instrument>
    </score-part>
  </part-list>
  <part id='P2'>
    <measure number='1'>
      <attributes>
        <divisions>4</divisions>
        <key><fifths>-1</fifths><mode>major</mode></key>
        <time><beats>3</beats><beat-type>4</beat-type></time>
        <staves>1</staves>
        <clef number='1'><sign>G</sign><line>2</line></clef>
      </attributes>
      <direction>
        <direction-type>
          <metronome default-y='20'>
            <beat-unit>quarter</beat-unit>
            <per-minute>110.0</per-minute>
          </metronome>
        </direction-type>
        <sound tempo='110'/>
      </direction>
      <note>
        <rest/>
        <duration>8</duration>
        <voice>1</voice>
        <type>half</type>
        <staff>1</staff>
      </note>
      <note>
        <pitch><step>C</step><alter>0.0</alter><octave>5</octave></pitch>
        <duration>4</duration>
        <voice>1</voice>
        <type>quarter</type>
        <staff>1</staff>
        <notations>
          <articulations>
            <staccato/>
          </articulations>
          <dynamics default-y='-70'><p/></dynamics>
        </notations>
      </note>
    </measure>
    <measure number='2'>
      <attributes>
        <divisions>8</divisions>
      </attributes>
      <note>
        <pitch><step>C</step><alter>0.0</alter><octave>5</octave></pitch>
        <duration>12</duration>
        <voice>1</voice>
        <type>quarter</type>
        <dot/>
        <staff>1</staff>
        <notations>
          <slur type='start' number='1'/>
        </notations>
      </note>
      <note>
        <pitch><step>F</step><alter>0.0</alter><octave>5</octave></pitch>
        <duration>4</duration>
        <voice>1</voice>
        <type>eighth</type>
        <staff>1</staff>
      </note>
      <note>
        <pitch><step>C</step><alter>0.0</alter><octave>5</octave></pitch>
        <duration>8</duration>
        <voice>1</voice>
        <type>quarter</type>
        <staff>1</staff>
        <notations>
          <slur type='stop' number='1'/>
        </notations>
      </note>
    </measure>
    <measure number='3'>
      <attributes>
        <divisions>8</divisions>
      </attributes>
      <direction>
        <direction-type>
          <wedge type='crescendo' default-y='-72'/>
        </direction-type>
      </direction>
      <note>
        <pitch><step>E</step><alter>0.0</alter><octave>5</octave></pitch>
        <duration>4</duration>
        <voice>1</voice>
        <type>eighth</type>
        <staff>1</staff>
        <notations>
          <slur type='start' number='1'/>
        </notations>
      </note>
      <note>
        <pitch><step>D</step><alter>0.0</alter><octave>5</octave></pitch>
        <duration>4</duration>
        <voice>1</voice>
        <type>eighth</type>
        <staff>1</staff>
        <notations>
          <slur type='stop' number='1'/>
          <articulations>
            <staccato/>
          </articulations>
        </notations>
      </note>
      <note>
        <pitch><step>D</step><alter>0.0</alter><octave>5</octave></pitch>
        <duration>4</duration>
        <voice>1</voice>
        <type>eighth</type>
        <staff>1</staff>
        <notations>
          <slur type='start' number='1'/>
        </notations>
      </note>
      <note>
        <pitch><step>C</step><alter>0.0</alter><octave>5</octave></pitch>
        <duration>4</duration>
        <voice>1</voice>
        <type>eighth</type>
        <staff>1</staff>
        <notations>
          <slur type='stop' number='1'/>
          <articulations>
            <staccato/>
          </articulations>
        </notations>
      </note>
      <note>
        <pitch><step>C</step><alter>0.0</alter><octave>5</octave></pitch>
        <duration>4</duration>
        <voice>1</voice>
        <type>eighth</type>
        <staff>1</staff>
        <notations>
          <slur type='start' number='1'/>
        </notations>
      </note>
      <direction>
        <direction-type>
          <wedge type='stop'/>
        </direction-type>
      </direction>
      <note>
        <pitch><step>B</step><alter>-1.0</alter><octave>4</octave></pitch>
        <duration>4</duration>
        <voice>1</voice>
        <type>eighth</type>
        <staff>1</staff>
        <notations>
          <slur type='stop' number='1'/>
          <articulations>
            <staccato/>
          </articulations>
        </notations>
      </note>
    </measure>
    <measure number='4'>
      <attributes>
        <divisions>8</divisions>
      </attributes>
      <direction>
        <direction-type>
          <wedge type='diminuendo' default-y='-72'/>
        </direction-type>
      </direction>
      <note>
        <pitch><step>G</step><alter>0.0</alter><octave>4</octave></pitch>
        <duration>12</duration>
        <voice>1</voice>
        <type>quarter</type>
        <dot/>
        <staff>1</staff>
        <notations>
          <slur type='start' number='1'/>
        </notations>
      </note>
      <note>
        <pitch><step>D</step><alter>0.0</alter><octave>5</octave></pitch>
        <duration>4</duration>
        <voice>1</voice>
        <type>eighth</type>
        <staff>1</staff>
      </note>
      <direction>
        <direction-type>
          <wedge type='stop'/>
        </direction-type>
      </direction>
      <note>
        <pitch><step>G</step><alter>0.0</alter><octave>4</octave></pitch>
        <duration>8</duration>
        <voice>1</voice>
        <type>quarter</type>
        <staff>1</staff>
        <notations>
          <slur type='stop' number='1'/>
        </notations>
      </note>
    </measure>
    <measure number='5'>
      <attributes>
        <divisions>8</divisions>
      </attributes>
      <direction>
        <direction-type>
          <wedge type='crescendo' default-y='-72'/>
        </direction-type>
      </direction>
      <note>
        <pitch><step>E</step><alter>0.0</alter><octave>5</octave></pitch>
        <duration>4</duration>
        <voice>1</voice>
        <type>eighth</type>
        <staff>1</staff>
        <notations>
          <slur type='start' number='1'/>
        </notations>
      </note>
      <note>
        <pitch><step>D</step><alter>0.0</alter><octave>5</octave></pitch>
        <duration>4</duration>
        <voice>1</voice>
        <type>eighth</type>
        <staff>1</staff>
        <notations>
          <slur type='stop' number='1'/>
          <articulations>
            <staccato/>
          </articulations>
        </notations>
      </note>
      <note>
        <pitch><step>D</step><alter>0.0</alter><octave>5</octave></pitch>
        <duration>4</duration>
        <voice>1</voice>
        <type>eighth</type>
        <staff>1</staff>
        <notations>
          <slur type='start' number='1'/>
        </notations>
      </note>
      <note>
        <pitch><step>C</step><alter>0.0</alter><octave>5</octave></pitch>
        <duration>4</duration>
        <voice>1</voice>
        <type>eighth</type>
        <staff>1</staff>
        <notations>
          <slur type='stop' number='1'/>
          <articulations>
            <staccato/>
          </articulations>
        </notations>
      </note>
      <note>
        <pitch><step>C</step><alter>0.0</alter><octave>5</octave></pitch>
        <duration>4</duration>
        <voice>1</voice>
        <type>eighth</type>
        <staff>1</staff>
        <notations>
          <slur type='start' number='1'/>
        </notations>
      </note>
      <direction>
        <direction-type>
          <wedge type='stop'/>
        </direction-type>
      </direction>
      <note>
        <pitch><step>G</step><alter>0.0</alter><octave>4</octave></pitch>
        <duration>4</duration>
        <voice>1</voice>
        <type>eighth</type>
        <staff>1</staff>
        <notations>
          <slur type='stop' number='1'/>
          <articulations>
            <staccato/>
          </articulations>
        </notations>
      </note>
    </measure>
    <measure number='6'>
      <attributes>
        <divisions>8</divisions>
      </attributes>
      <direction>
        <direction-type>
          <wedge type='diminuendo' default-y='-72'/>
        </direction-type>
      </direction>
      <note>
        <pitch><step>C</step><alter>0.0</alter><octave>5</octave></pitch>
        <duration>12</duration>
        <voice>1</voice>
        <type>quarter</type>
        <dot/>
        <staff>1</staff>
        <notations>
          <slur type='start' number='1'/>
        </notations>
      </note>
      <note>
        <pitch><step>F</step><alter>0.0</alter><octave>5</octave></pitch>
        <duration>4</duration>
        <voice>1</voice>
        <type>eighth</type>
        <staff>1</staff>
      </note>
      <direction>
        <direction-type>
          <wedge type='stop'/>
        </direction-type>
      </direction>
      <note>
        <pitch><step>C</step><alter>0.0</alter><octave>5</octave></pitch>
        <duration>8</duration>
        <voice>1</voice>
        <type>quarter</type>
        <staff>1</staff>
        <notations>
          <slur type='stop' number='1'/>
        </notations>
      </note>
    </measure>
    <measure number='7'>
      <attributes>
        <divisions>8</divisions>
      </attributes>
      <direction>
        <direction-type>
          <wedge type='crescendo' default-y='-72'/>
        </direction-type>
      </direction>
      <note>
        <pitch><step>E</step><alter>0.0</alter><octave>5</octave></pitch>
        <duration>4</duration>
        <voice>1</voice>
        <type>eighth</type>
        <staff>1</staff>
        <notations>
          <slur type='start' number='1'/>
        </notations>
      </note>
      <note>
        <pitch><step>D</step><alter>0.0</alter><octave>5</octave></pitch>
        <duration>4</duration>
        <voice>1</voice>
        <type>eighth</type>
        <staff>1</staff>
        <notations>
          <slur type='stop' number='1'/>
          <articulations>
            <staccato/>
          </articulations>
        </notations>
      </note>
      <note>
        <pitch><step>D</step><alter>0.0</alter><octave>5</octave></pitch>
        <duration>4</duration>
        <voice>1</voice>
        <type>eighth</type>
        <staff>1</staff>
        <notations>
          <slur type='start' number='1'/>
        </notations>
      </note>
      <note>
        <pitch><step>C</step><alter>0.0</alter><octave>5</octave></pitch>
        <duration>4</duration>
        <voice>1</voice>
        <type>eighth</type>
        <staff>1</staff>
        <notations>
          <slur type='stop' number='1'/>
          <articulations>
            <staccato/>
          </articulations>
        </notations>
      </note>
      <note>
        <pitch><step>C</step><alter>0.0</alter><octave>5</octave></pitch>
        <duration>4</duration>
        <voice>1</voice>
        <type>eighth</type>
        <staff>1</staff>
        <notations>
          <slur type='start' number='1'/>
        </notations>
      </note>
      <direction>
        <direction-type>
          <wedge type='stop'/>
        </direction-type>
      </direction>
      <note>
        <pitch><step>B</step><alter>-1.0</alter><octave>4</octave></pitch>
        <duration>4</duration>
        <voice>1</voice>
        <type>eighth</type>
        <staff>1</staff>
        <notations>
          <slur type='stop' number='1'/>
          <articulations>
            <staccato/>
          </articulations>
        </notations>
      </note>
    </measure>
    <measure number='8'>
      <attributes>
        <divisions>8</divisions>
      </attributes>
      <direction>
        <direction-type>
          <wedge type='crescendo' default-y='-72'/>
        </direction-type>
      </direction>
      <note>
        <pitch><step>G</step><alter>0.0</alter><octave>5</octave></pitch>
        <duration>4</duration>
        <voice>1</voice>
        <type>eighth</type>
        <staff>1</staff>
        <notations>
          <slur type='start' number='1'/>
        </notations>
      </note>
      <note>
        <pitch><step>F</step><alter>0.0</alter><octave>5</octave></pitch>
        <duration>4</duration>
        <voice>1</voice>
        <type>eighth</type>
        <staff>1</staff>
        <notations>
          <slur type='start' number='2'/>
          <slur type='stop' number='1'/>
          <articulations>
            <staccato/>
          </articulations>
        </notations>
      </note>
      <note>
        <pitch><step>F</step><alter>0.0</alter><octave>5</octave></pitch>
        <duration>4</duration>
        <voice>1</voice>
        <type>eighth</type>
        <staff>1</staff>
      </note>
      <note>
        <pitch><step>E</step><alter>0.0</alter><octave>5</octave></pitch>
        <duration>4</duration>
        <voice>1</voice>
        <type>eighth</type>
        <staff>1</staff>
        <notations>
          <slur type='stop' number='2'/>
          <articulations>
            <staccato/>
          </articulations>
        </notations>
      </note>
      <note>
        <pitch><step>E</step><alter>0.0</alter><octave>5</octave></pitch>
        <duration>4</duration>
        <voice>1</voice>
        <type>eighth</type>
        <staff>1</staff>
        <notations>
          <slur type='start' number='1'/>
        </notations>
      </note>
      <direction>
        <direction-type>
          <wedge type='stop'/>
        </direction-type>
      </direction>
      <note>
        <pitch><step>D</step><alter>0.0</alter><octave>5</octave></pitch>
        <duration>4</duration>
        <voice>1</voice>
        <type>eighth</type>
        <staff>1</staff>
        <notations>
          <slur type='stop' number='1'/>
          <articulations>
            <staccato/>
          </articulations>
        </notations>
      </note>
    </measure>
    <measure number='9'>
      <attributes>
        <divisions>8</divisions>
      </attributes>
      <direction>
        <direction-type>
          <wedge type='diminuendo' default-y='-72'/>
        </direction-type>
      </direction>
      <note>
        <pitch><step>C</step><alter>0.0</alter><octave>5</octave></pitch>
        <duration>8</duration>
        <voice>1</voice>
        <type>quarter</type>
        <staff>1</staff>
        <notations>
          <slur type='start' number='1'/>
        </notations>
      </note>
      <note>
        <pitch><step>D</step><alter>0.0</alter><octave>5</octave></pitch>
        <duration>8</duration>
        <voice>1</voice>
        <type>quarter</type>
        <staff>1</staff>
      </note>
      <direction>
        <direction-type>
          <wedge type='stop'/>
        </direction-type>
      </direction>
      <note>
        <pitch><step>F</step><alter>0.0</alter><octave>5</octave></pitch>
        <duration>8</duration>
        <voice>1</voice>
        <type>quarter</type>
        <staff>1</staff>
        <notations>
          <slur type='stop' number='1'/>
        </notations>
      </note>
    </measure>
    <measure number='10'>
      <attributes>
        <divisions>8</divisions>
      </attributes>
      <note>
        <pitch><step>A</step><alter>0.0</alter><octave>5</octave></pitch>
        <duration>24</duration>
        <voice>1</voice>
        <type>half</type>
        <dot/>
        <staff>1</staff>
        <notations>
          <ornaments>
          <trill-mark/>
          <wavy-line number='1' type='start'/>
          </ornaments>
        </notations>
      </note>
    </measure>
    <measure number='11'>
      <attributes>
        <divisions>8</divisions>
      </attributes>
      <note>
        <pitch><step>G</step><alter>0.0</alter><octave>5</octave></pitch>
        <duration>16</duration>
        <voice>1</voice>
        <type>half</type>
        <staff>1</staff>
        <notations>
          <ornaments>
          </ornaments>
        </notations>
      </note>
      <note>
        <rest/>
        <duration>4</duration>
        <voice>1</voice>
        <type>eighth</type>
        <staff>1</staff>
      </note>
      <note>
        <pitch><step>C</step><alter>1.0</alter><octave>5</octave></pitch>
        <duration>4</duration>
        <voice>1</voice>
        <type>eighth</type>
        <accidental>sharp</accidental>
        <staff>1</staff>
        <notations>
          <ornaments>
          </ornaments>
          <articulations>
            <staccato/>
          </articulations>
        </notations>
      </note>
    </measure>
    <measure number='12'>
      <attributes>
        <divisions>8</divisions>
      </attributes>
      <direction>
        <direction-type>
          <wedge type='crescendo' default-y='-72'/>
        </direction-type>
      </direction>
      <note>
        <pitch><step>C</step><alter>1.0</alter><octave>5</octave></pitch>
        <duration>8</duration>
        <voice>1</voice>
        <type>quarter</type>
        <accidental>sharp</accidental>
        <staff>1</staff>
        <notations>
          <slur type='start' number='1'/>
          <ornaments>
          </ornaments>
        </notations>
      </note>
      <note>
        <pitch><step>B</step><alter>0.0</alter><octave>4</octave></pitch>
        <duration>4</duration>
        <voice>1</voice>
        <type>eighth</type>
        <accidental>natural</accidental>
        <staff>1</staff>
        <notations>
          <ornaments>
          </ornaments>
        </notations>
      </note>
      <note>
        <pitch><step>A</step><alter>0.0</alter><octave>4</octave></pitch>
        <duration>4</duration>
        <voice>1</voice>
        <type>eighth</type>
        <staff>1</staff>
        <notations>
          <ornaments>
          </ornaments>
        </notations>
      </note>
      <note>
        <pitch><step>B</step><alter>0.0</alter><octave>4</octave></pitch>
        <duration>4</duration>
        <voice>1</voice>
        <type>eighth</type>
        <staff>1</staff>
        <notations>
          <ornaments>
          </ornaments>
        </notations>
      </note>
      <note>
        <pitch><step>C</step><alter>1.0</alter><octave>5</octave></pitch>
        <duration>4</duration>
        <voice>1</voice>
        <type>eighth</type>
        <staff>1</staff>
        <notations>
          <ornaments>
          </ornaments>
        </notations>
      </note>
      <direction>
        <direction-type>
          <wedge type='stop'/>
        </direction-type>
      </direction>
    </measure>
    <measure number='13'>
      <attributes>
        <divisions>8</divisions>
      </attributes>
      <direction>
        <direction-type>
          <wedge type='diminuendo' default-y='-72'/>
        </direction-type>
      </direction>
      <note>
        <pitch><step>F</step><alter>0.0</alter><octave>5</octave></pitch>
        <duration>16</duration>
        <voice>1</voice>
        <type>half</type>
        <staff>1</staff>
        <notations>
          <slur type='stop' number='1'/>
          <slur type='start' number='1'/>
          <ornaments>
          </ornaments>
        </notations>
      </note>
      <direction>
        <direction-type>
          <wedge type='stop'/>
        </direction-type>
      </direction>
      <note>
        <pitch><step>D</step><alter>0.0</alter><octave>5</octave></pitch>
        <duration>8</duration>
        <voice>1</voice>
        <type>quarter</type>
        <staff>1</staff>
        <notations>
          <slur type='stop' number='1'/>
          <ornaments>
          </ornaments>
          <articulations>
            <staccato/>
          </articulations>
        </notations>
      </note>
    </measure>
    <measure number='14'>
      <attributes>
        <divisions>8</divisions>
      </attributes>
      <note>
        <pitch><step>B</step><alter>0.0</alter><octave>4</octave></pitch>
        <duration>8</duration>
        <voice>1</voice>
        <type>quarter</type>
        <accidental>natural</accidental>
        <staff>1</staff>
        <notations>
          <slur type='start' number='1'/>
          <ornaments>
          </ornaments>
        </notations>
      </note>
      <note>
        <pitch><step>A</step><alter>0.0</alter><octave>4</octave></pitch>
        <duration>4</duration>
        <voice>1</voice>
        <type>eighth</type>
        <staff>1</staff>
        <notations>
          <ornaments>
          </ornaments>
        </notations>
      </note>
      <note>
        <pitch><step>G</step><alter>0.0</alter><octave>4</octave></pitch>
        <duration>4</duration>
        <voice>1</voice>
        <type>eighth</type>
        <staff>1</staff>
        <notations>
          <ornaments>
          </ornaments>
        </notations>
      </note>
      <note>
        <pitch><step>A</step><alter>0.0</alter><octave>4</octave></pitch>
        <duration>4</duration>
        <voice>1</voice>
        <type>eighth</type>
        <staff>1</staff>
        <notations>
          <ornaments>
          </ornaments>
        </notations>
      </note>
      <note>
        <pitch><step>B</step><alter>0.0</alter><octave>4</octave></pitch>
        <duration>4</duration>
        <voice>1</voice>
        <type>eighth</type>
        <staff>1</staff>
        <notations>
          <ornaments>
          </ornaments>
        </notations>
      </note>
    </measure>
    <measure number='15'>
      <attributes>
        <divisions>8</divisions>
      </attributes>
      <note>
        <pitch><step>C</step><alter>0.0</alter><octave>5</octave></pitch>
        <duration>16</duration>
        <voice>1</voice>
        <type>half</type>
        <staff>1</staff>
        <notations>
          <slur type='stop' number='1'/>
          <ornaments>
          </ornaments>
        </notations>
      </note>
      <note>
        <rest/>
        <duration>4</duration>
        <voice>1</voice>
        <type>eighth</type>
        <staff>1</staff>
      </note>
      <note>
        <pitch><step>C</step><alter>1.0</alter><octave>5</octave></pitch>
        <duration>4</duration>
        <voice>1</voice>
        <type>eighth</type>
        <accidental>sharp</accidental>
        <staff>1</staff>
        <notations>
          <ornaments>
          </ornaments>
          <articulations>
            <staccato/>
          </articulations>
        </notations>
      </note>
    </measure>
    <measure number='16'>
      <attributes>
        <divisions>8</divisions>
      </attributes>
      <direction>
        <direction-type>
          <wedge type='crescendo' default-y='-72'/>
        </direction-type>
      </direction>
      <note>
        <pitch><step>C</step><alter>1.0</alter><octave>5</octave></pitch>
        <duration>8</duration>
        <voice>1</voice>
        <type>quarter</type>
        <accidental>sharp</accidental>
        <staff>1</staff>
        <notations>
          <slur type='start' number='1'/>
          <ornaments>
          </ornaments>
        </notations>
      </note>
      <note>
        <pitch><step>B</step><alter>0.0</alter><octave>4</octave></pitch>
        <duration>4</duration>
        <voice>1</voice>
        <type>eighth</type>
        <accidental>natural</accidental>
        <staff>1</staff>
        <notations>
          <ornaments>
          </ornaments>
        </notations>
      </note>
      <note>
        <pitch><step>A</step><alter>0.0</alter><octave>4</octave></pitch>
        <duration>4</duration>
        <voice>1</voice>
        <type>eighth</type>
        <staff>1</staff>
        <notations>
          <ornaments>
          </ornaments>
        </notations>
      </note>
      <note>
        <pitch><step>B</step><alter>0.0</alter><octave>4</octave></pitch>
        <duration>4</duration>
        <voice>1</voice>
        <type>eighth</type>
        <staff>1</staff>
        <notations>
          <ornaments>
          </ornaments>
        </notations>
      </note>
      <note>
        <pitch><step>C</step><alter>1.0</alter><octave>5</octave></pitch>
        <duration>4</duration>
        <voice>1</voice>
        <type>eighth</type>
        <staff>1</staff>
        <notations>
          <ornaments>
          </ornaments>
        </notations>
      </note>
      <direction>
        <direction-type>
          <wedge type='stop'/>
        </direction-type>
      </direction>
    </measure>
    <measure number='17'>
      <attributes>
        <divisions>8</divisions>
      </attributes>
      <direction>
        <direction-type>
          <wedge type='diminuendo' default-y='-72'/>
        </direction-type>
      </direction>
      <note>
        <pitch><step>F</step><alter>0.0</alter><octave>5</octave></pitch>
        <duration>16</duration>
        <voice>1</voice>
        <type>half</type>
        <staff>1</staff>
        <notations>
          <slur type='start' number='2'/>
          <slur type='stop' number='1'/>
          <ornaments>
          </ornaments>
        </notations>
      </note>
      <direction>
        <direction-type>
          <wedge type='stop'/>
        </direction-type>
      </direction>
      <note>
        <pitch><step>D</step><alter>0.0</alter><octave>5</octave></pitch>
        <duration>8</duration>
        <voice>1</voice>
        <type>quarter</type>
        <staff>1</staff>
        <notations>
          <slur type='stop' number='2'/>
          <ornaments>
          </ornaments>
          <articulations>
            <staccato/>
          </articulations>
        </notations>
      </note>
    </measure>
    <measure number='18'>
      <attributes>
        <divisions>8</divisions>
      </attributes>
      <note>
        <pitch><step>B</step><alter>0.0</alter><octave>4</octave></pitch>
        <duration>8</duration>
        <voice>1</voice>
        <type>quarter</type>
        <accidental>natural</accidental>
        <staff>1</staff>
        <notations>
          <slur type='start' number='1'/>
          <ornaments>
          </ornaments>
        </notations>
      </note>
      <note>
        <pitch><step>A</step><alter>0.0</alter><octave>4</octave></pitch>
        <duration>4</duration>
        <voice>1</voice>
        <type>eighth</type>
        <staff>1</staff>
        <notations>
          <ornaments>
          </ornaments>
        </notations>
      </note>
      <note>
        <pitch><step>G</step><alter>0.0</alter><octave>4</octave></pitch>
        <duration>4</duration>
        <voice>1</voice>
        <type>eighth</type>
        <staff>1</staff>
        <notations>
          <ornaments>
          </ornaments>
        </notations>
      </note>
      <note>
        <pitch><step>A</step><alter>0.0</alter><octave>4</octave></pitch>
        <duration>4</duration>
        <voice>1</voice>
        <type>eighth</type>
        <staff>1</staff>
        <notations>
          <ornaments>
          </ornaments>
        </notations>
      </note>
      <note>
        <pitch><step>B</step><alter>0.0</alter><octave>4</octave></pitch>
        <duration>4</duration>
        <voice>1</voice>
        <type>eighth</type>
        <staff>1</staff>
        <notations>
          <ornaments>
          </ornaments>
        </notations>
      </note>
    </measure>
    <measure number='19'>
      <attributes>
        <divisions>4</divisions>
      </attributes>
      <note>
        <pitch><step>C</step><alter>0.0</alter><octave>5</octave></pitch>
        <duration>8</duration>
        <voice>1</voice>
        <type>half</type>
        <staff>1</staff>
        <notations>
          <slur type='stop' number='1'/>
          <ornaments>
          </ornaments>
        </notations>
      </note>
      <note>
        <pitch><step>C</step><alter>0.0</alter><octave>5</octave></pitch>
        <duration>4</duration>
        <voice>1</voice>
        <type>quarter</type>
        <staff>1</staff>
        <notations>
          <ornaments>
          </ornaments>
          <articulations>
            <staccato/>
          </articulations>
        </notations>
      </note>
    </measure>
    <measure number='20'>
      <attributes>
        <divisions>8</divisions>
      </attributes>
      <note>
        <pitch><step>C</step><alter>0.0</alter><octave>5</octave></pitch>
        <duration>12</duration>
        <voice>1</voice>
        <type>quarter</type>
        <dot/>
        <staff>1</staff>
        <notations>
          <slur type='start' number='1'/>
          <ornaments>
          </ornaments>
        </notations>
      </note>
      <note>
        <pitch><step>F</step><alter>0.0</alter><octave>5</octave></pitch>
        <duration>4</duration>
        <voice>1</voice>
        <type>eighth</type>
        <staff>1</staff>
        <notations>
          <ornaments>
          </ornaments>
        </notations>
      </note>
      <note>
        <pitch><step>C</step><alter>0.0</alter><octave>5</octave></pitch>
        <duration>8</duration>
        <voice>1</voice>
        <type>quarter</type>
        <staff>1</staff>
        <notations>
          <slur type='stop' number='1'/>
          <ornaments>
          </ornaments>
        </notations>
      </note>
    </measure>
    <measure number='21'>
      <attributes>
        <divisions>8</divisions>
      </attributes>
      <direction>
        <direction-type>
          <wedge type='crescendo' default-y='-72'/>
        </direction-type>
      </direction>
      <note>
        <pitch><step>E</step><alter>0.0</alter><octave>5</octave></pitch>
        <duration>4</duration>
        <voice>1</voice>
        <type>eighth</type>
        <staff>1</staff>
        <notations>
          <slur type='start' number='1'/>
          <ornaments>
          </ornaments>
        </notations>
      </note>
      <note>
        <pitch><step>D</step><alter>0.0</alter><octave>5</octave></pitch>
        <duration>4</duration>
        <voice>1</voice>
        <type>eighth</type>
        <staff>1</staff>
        <notations>
          <slur type='stop' number='1'/>
          <ornaments>
          </ornaments>
          <articulations>
            <staccato/>
          </articulations>
        </notations>
      </note>
      <note>
        <pitch><step>D</step><alter>0.0</alter><octave>5</octave></pitch>
        <duration>4</duration>
        <voice>1</voice>
        <type>eighth</type>
        <staff>1</staff>
        <notations>
          <slur type='start' number='1'/>
          <ornaments>
          </ornaments>
        </notations>
      </note>
      <note>
        <pitch><step>C</step><alter>0.0</alter><octave>5</octave></pitch>
        <duration>4</duration>
        <voice>1</voice>
        <type>eighth</type>
        <staff>1</staff>
        <notations>
          <slur type='stop' number='1'/>
          <ornaments>
          </ornaments>
          <articulations>
            <staccato/>
          </articulations>
        </notations>
      </note>
      <note>
        <pitch><step>C</step><alter>0.0</alter><octave>5</octave></pitch>
        <duration>4</duration>
        <voice>1</voice>
        <type>eighth</type>
        <staff>1</staff>
        <notations>
          <slur type='start' number='1'/>
          <ornaments>
          </ornaments>
        </notations>
      </note>
      <direction>
        <direction-type>
          <wedge type='stop'/>
        </direction-type>
      </direction>
      <note>
        <pitch><step>B</step><alter>-1.0</alter><octave>4</octave></pitch>
        <duration>4</duration>
        <voice>1</voice>
        <type>eighth</type>
        <staff>1</staff>
        <notations>
          <slur type='stop' number='1'/>
          <ornaments>
          </ornaments>
          <articulations>
            <staccato/>
          </articulations>
        </notations>
      </note>
    </measure>
    <measure number='22'>
      <attributes>
        <divisions>8</divisions>
      </attributes>
      <direction>
        <direction-type>
          <wedge type='crescendo' default-y='-72'/>
        </direction-type>
      </direction>
      <note>
        <pitch><step>G</step><alter>0.0</alter><octave>5</octave></pitch>
        <duration>4</duration>
        <voice>1</voice>
        <type>eighth</type>
        <staff>1</staff>
        <notations>
          <slur type='start' number='1'/>
          <ornaments>
          </ornaments>
        </notations>
      </note>
      <note>
        <pitch><step>F</step><alter>0.0</alter><octave>5</octave></pitch>
        <duration>4</duration>
        <voice>1</voice>
        <type>eighth</type>
        <staff>1</staff>
        <notations>
          <slur type='start' number='2'/>
          <slur type='stop' number='1'/>
          <ornaments>
          </ornaments>
          <articulations>
            <staccato/>
          </articulations>
        </notations>
      </note>
      <note>
        <pitch><step>F</step><alter>0.0</alter><octave>5</octave></pitch>
        <duration>4</duration>
        <voice>1</voice>
        <type>eighth</type>
        <staff>1</staff>
        <notations>
          <ornaments>
          </ornaments>
        </notations>
      </note>
      <note>
        <pitch><step>E</step><alter>0.0</alter><octave>5</octave></pitch>
        <duration>4</duration>
        <voice>1</voice>
        <type>eighth</type>
        <staff>1</staff>
        <notations>
          <slur type='stop' number='2'/>
          <ornaments>
          </ornaments>
          <articulations>
            <staccato/>
          </articulations>
        </notations>
      </note>
      <note>
        <pitch><step>E</step><alter>0.0</alter><octave>5</octave></pitch>
        <duration>4</duration>
        <voice>1</voice>
        <type>eighth</type>
        <staff>1</staff>
        <notations>
          <slur type='start' number='1'/>
          <ornaments>
          </ornaments>
        </notations>
      </note>
      <note>
        <pitch><step>D</step><alter>0.0</alter><octave>5</octave></pitch>
        <duration>4</duration>
        <voice>1</voice>
        <type>eighth</type>
        <staff>1</staff>
        <notations>
          <slur type='stop' number='1'/>
          <ornaments>
          </ornaments>
          <articulations>
            <staccato/>
          </articulations>
        </notations>
      </note>
      <direction>
        <direction-type>
          <wedge type='stop'/>
        </direction-type>
      </direction>
    </measure>
    <measure number='23'>
      <attributes>
        <divisions>8</divisions>
      </attributes>
      <note>
        <pitch><step>C</step><alter>0.0</alter><octave>5</octave></pitch>
        <duration>12</duration>
        <voice>1</voice>
        <type>quarter</type>
        <dot/>
        <staff>1</staff>
        <notations>
          <ornaments>
          </ornaments>
          <dynamics default-y='-70'><mf/></dynamics>
        </notations>
      </note>
      <note>
        <pitch><step>G</step><alter>0.0</alter><octave>4</octave></pitch>
        <duration>4</duration>
        <voice>1</voice>
        <type>eighth</type>
        <staff>1</staff>
        <notations>
          <slur type='start' number='1'/>
          <ornaments>
          </ornaments>
        </notations>
      </note>
      <note>
        <pitch><step>E</step><alter>0.0</alter><octave>5</octave></pitch>
        <duration>4</duration>
        <voice>1</voice>
        <type>eighth</type>
        <staff>1</staff>
        <notations>
          <ornaments>
          </ornaments>
        </notations>
      </note>
      <note>
        <pitch><step>C</step><alter>0.0</alter><octave>6</octave></pitch>
        <duration>4</duration>
        <voice>1</voice>
        <type>eighth</type>
        <staff>1</staff>
        <notations>
          <slur type='stop' number='1'/>
          <ornaments>
          </ornaments>
        </notations>
      </note>
    </measure>
    <measure number='24'>
      <attributes>
        <divisions>4</divisions>
      </attributes>
      <note>
        <pitch><step>C</step><alter>0.0</alter><octave>6</octave></pitch>
        <duration>4</duration>
        <voice>1</voice>
        <type>quarter</type>
        <staff>1</staff>
        <notations>
          <slur type='start' number='1'/>
          <ornaments>
          </ornaments>
        </notations>
      </note>
      <note>
        <pitch><step>A</step><alter>0.0</alter><octave>5</octave></pitch>
        <duration>4</duration>
        <voice>1</voice>
        <type>quarter</type>
        <staff>1</staff>
        <notations>
          <ornaments>
          </ornaments>
        </notations>
      </note>
      <note>
        <pitch><step>B</step><alter>-1.0</alter><octave>5</octave></pitch>
        <duration>4</duration>
        <voice>1</voice>
        <type>quarter</type>
        <staff>1</staff>
        <notations>
          <slur type='stop' number='1'/>
          <ornaments>
          </ornaments>
        </notations>
      </note>
    </measure>
    <measure number='25'>
      <attributes>
        <divisions>8</divisions>
      </attributes>
      <note>
        <pitch><step>B</step><alter>-1.0</alter><octave>5</octave></pitch>
        <duration>4</duration>
        <voice>1</voice>
        <type>eighth</type>
        <staff>1</staff>
        <notations>
          <slur type='start' number='1'/>
          <ornaments>
          </ornaments>
        </notations>
      </note>
      <note>
        <pitch><step>G</step><alter>0.0</alter><octave>5</octave></pitch>
        <duration>4</duration>
        <voice>1</voice>
        <type>eighth</type>
        <staff>1</staff>
        <notations>
          <ornaments>
          </ornaments>
        </notations>
      </note>
      <note>
        <pitch><step>E</step><alter>0.0</alter><octave>5</octave></pitch>
        <duration>4</duration>
        <voice>1</voice>
        <type>eighth</type>
        <staff>1</staff>
        <notations>
          <ornaments>
          </ornaments>
        </notations>
      </note>
      <note>
        <pitch><step>A</step><alter>0.0</alter><octave>5</octave></pitch>
        <duration>4</duration>
        <voice>1</voice>
        <type>eighth</type>
        <staff>1</staff>
        <notations>
          <ornaments>
          </ornaments>
        </notations>
      </note>
      <note>
        <pitch><step>E</step><alter>0.0</alter><octave>5</octave></pitch>
        <duration>4</duration>
        <voice>1</voice>
        <type>eighth</type>
        <staff>1</staff>
        <notations>
          <ornaments>
          </ornaments>
        </notations>
      </note>
      <note>
        <pitch><step>C</step><alter>0.0</alter><octave>5</octave></pitch>
        <duration>4</duration>
        <voice>1</voice>
        <type>eighth</type>
        <staff>1</staff>
        <notations>
          <slur type='stop' number='1'/>
          <ornaments>
          </ornaments>
        </notations>
      </note>
    </measure>
    <measure number='26'>
      <attributes>
        <divisions>8</divisions>
      </attributes>
      <note>
        <pitch><step>D</step><alter>0.0</alter><octave>5</octave></pitch>
        <duration>12</duration>
        <voice>1</voice>
        <type>quarter</type>
        <dot/>
        <staff>1</staff>
        <notations>
          <slur type='start' number='1'/>
          <ornaments>
          </ornaments>
        </notations>
      </note>
      <note>
        <pitch><step>E</step><alter>0.0</alter><octave>5</octave></pitch>
        <duration>12</duration>
        <voice>1</voice>
        <type>quarter</type>
        <dot/>
        <staff>1</staff>
        <notations>
          <ornaments>
          <wavy-line number='1' type='stop'/>
          </ornaments>
        </notations>
      </note>
    </measure>
    <measure number='27'>
      <attributes>
        <divisions>4</divisions>
      </attributes>
      <note>
        <pitch><step>F</step><alter>0.0</alter><octave>5</octave></pitch>
        <duration>12</duration>
        <voice>1</voice>
        <type>half</type>
        <dot/>
        <staff>1</staff>
        <notations>
          <slur type='stop' number='1'/>
        </notations>
      </note>
      <barline location='right'>
        <bar-style>light-heavy</bar-style>
      </barline>
    </measure>
  </part>
  <part id='P1'>
    <measure number='1'>
      <attributes>
        <divisions>4</divisions>
        <key><fifths>-1</fifths><mode>major</mode></key>
        <time><beats>3</beats><beat-type>4</beat-type></time>
        <staves>2</staves>
        <clef number='1'><sign>G</sign><line>2</line></clef>
        <clef number='2'><sign>F</sign><line>4</line></clef>
      </attributes>
      <note>
        <rest/>
        <duration>8</duration>
        <voice>1</voice>
        <type>half</type>
        <staff>1</staff>
      </note>
      <note>
        <rest/>
        <duration>4</duration>
        <voice>1</voice>
        <type>quarter</type>
        <staff>1</staff>
      </note>
      <backup>
        <duration>12</duration>
      </backup>
      <note>
        <rest/>
        <duration>8</duration>
        <voice>5</voice>
        <type>half</type>
        <staff>2</staff>
      </note>
      <note>
        <rest/>
        <duration>4</duration>
        <voice>5</voice>
        <type>quarter</type>
        <staff>2</staff>
      </note>
    </measure>
    <measure number='2'>
      <attributes>
        <divisions>8</divisions>
      </attributes>
      <note>
        <rest/>
        <duration>16</duration>
        <voice>1</voice>
        <type>half</type>
        <staff>1</staff>
        <notations>
          <dynamics default-y='-70'><p/></dynamics>
        </notations>
      </note>
      <note>
        <rest/>
        <duration>8</duration>
        <voice>1</voice>
        <type>quarter</type>
        <staff>1</staff>
      </note>
      <backup>
        <duration>24</duration>
      </backup>
      <note>
        <pitch><step>F</step><alter>0.0</alter><octave>3</octave></pitch>
        <duration>8</duration>
        <voice>5</voice>
        <type>quarter</type>
        <staff>2</staff>
      </note>
      <note>
        <pitch><step>A</step><alter>0.0</alter><octave>3</octave></pitch>
        <duration>8</duration>
        <voice>5</voice>
        <type>quarter</type>
        <staff>2</staff>
      </note>
      <note>
        <chord/>
        <pitch><step>C</step><alter>0.0</alter><octave>4</octave></pitch>
        <duration>8</duration>
        <voice>5</voice>
        <type>quarter</type>
        <staff>2</staff>
      </note>
      <note>
        <pitch><step>A</step><alter>0.0</alter><octave>3</octave></pitch>
        <duration>8</duration>
        <voice>5</voice>
        <type>quarter</type>
        <staff>2</staff>
      </note>
      <note>
        <chord/>
        <pitch><step>C</step><alter>0.0</alter><octave>4</octave></pitch>
        <duration>8</duration>
        <voice>5</voice>
        <type>quarter</type>
        <staff>2</staff>
      </note>
    </measure>
    <measure number='3'>
      <attributes>
        <divisions>8</divisions>
      </attributes>
      <note>
        <rest/>
        <duration>16</duration>
        <voice>1</voice>
        <type>half</type>
        <staff>1</staff>
      </note>
      <note>
        <rest/>
        <duration>8</duration>
        <voice>1</voice>
        <type>quarter</type>
        <staff>1</staff>
      </note>
      <backup>
        <duration>24</duration>
      </backup>
      <note>
        <pitch><step>B</step><alter>-1.0</alter><octave>3</octave></pitch>
        <duration>8</duration>
        <voice>5</voice>
        <type>quarter</type>
        <staff>2</staff>
      </note>
      <note>
        <pitch><step>D</step><alter>0.0</alter><octave>4</octave></pitch>
        <duration>8</duration>
        <voice>5</voice>
        <type>quarter</type>
        <staff>2</staff>
      </note>
      <note>
        <chord/>
        <pitch><step>F</step><alter>0.0</alter><octave>4</octave></pitch>
        <duration>8</duration>
        <voice>5</voice>
        <type>quarter</type>
        <staff>2</staff>
      </note>
      <note>
        <pitch><step>D</step><alter>0.0</alter><octave>4</octave></pitch>
        <duration>8</duration>
        <voice>5</voice>
        <type>quarter</type>
        <staff>2</staff>
      </note>
      <note>
        <chord/>
        <pitch><step>F</step><alter>0.0</alter><octave>4</octave></pitch>
        <duration>8</duration>
        <voice>5</voice>
        <type>quarter</type>
        <staff>2</staff>
      </note>
    </measure>
    <measure number='4'>
      <attributes>
        <divisions>8</divisions>
      </attributes>
      <note>
        <rest/>
        <duration>16</duration>
        <voice>1</voice>
        <type>half</type>
        <staff>1</staff>
      </note>
      <note>
        <rest/>
        <duration>8</duration>
        <voice>1</voice>
        <type>quarter</type>
        <staff>1</staff>
      </note>
      <backup>
        <duration>24</duration>
      </backup>
      <note>
        <pitch><step>G</step><alter>0.0</alter><octave>3</octave></pitch>
        <duration>8</duration>
        <voice>5</voice>
        <type>quarter</type>
        <staff>2</staff>
      </note>
      <note>
        <pitch><step>B</step><alter>-1.0</alter><octave>3</octave></pitch>
        <duration>8</duration>
        <voice>5</voice>
        <type>quarter</type>
        <staff>2</staff>
      </note>
      <note>
        <chord/>
        <pitch><step>D</step><alter>0.0</alter><octave>4</octave></pitch>
        <duration>8</duration>
        <voice>5</voice>
        <type>quarter</type>
        <staff>2</staff>
      </note>
      <note>
        <pitch><step>B</step><alter>-1.0</alter><octave>3</octave></pitch>
        <duration>8</duration>
        <voice>5</voice>
        <type>quarter</type>
        <staff>2</staff>
      </note>
      <note>
        <chord/>
        <pitch><step>D</step><alter>0.0</alter><octave>4</octave></pitch>
        <duration>8</duration>
        <voice>5</voice>
        <type>quarter</type>
        <staff>2</staff>
      </note>
    </measure>
    <measure number='5'>
      <attributes>
        <divisions>8</divisions>
      </attributes>
      <note>
        <rest/>
        <duration>16</duration>
        <voice>1</voice>
        <type>half</type>
        <staff>1</staff>
      </note>
      <note>
        <rest/>
        <duration>8</duration>
        <voice>1</voice>
        <type>quarter</type>
        <staff>1</staff>
      </note>
      <backup>
        <duration>24</duration>
      </backup>
      <note>
        <pitch><step>G</step><alter>0.0</alter><octave>3</octave></pitch>
        <duration>8</duration>
        <voice>5</voice>
        <type>quarter</type>
        <staff>2</staff>
      </note>
      <note>
        <pitch><step>C</step><alter>0.0</alter><octave>4</octave></pitch>
        <duration>8</duration>
        <voice>5</voice>
        <type>quarter</type>
        <staff>2</staff>
      </note>
      <note>
        <chord/>
        <pitch><step>E</step><alter>0.0</alter><octave>4</octave></pitch>
        <duration>8</duration>
        <voice>5</voice>
        <type>quarter</type>
        <staff>2</staff>
      </note>
      <note>
        <pitch><step>C</step><alter>0.0</alter><octave>4</octave></pitch>
        <duration>8</duration>
        <voice>5</voice>
        <type>quarter</type>
        <staff>2</staff>
      </note>
      <note>
        <chord/>
        <pitch><step>E</step><alter>0.0</alter><octave>4</octave></pitch>
        <duration>8</duration>
        <voice>5</voice>
        <type>quarter</type>
        <staff>2</staff>
      </note>
    </measure>
    <measure number='6'>
      <attributes>
        <divisions>8</divisions>
      </attributes>
      <note>
        <rest/>
        <duration>16</duration>
        <voice>1</voice>
        <type>half</type>
        <staff>1</staff>
      </note>
      <note>
        <rest/>
        <duration>8</duration>
        <voice>1</voice>
        <type>quarter</type>
        <staff>1</staff>
      </note>
      <backup>
        <duration>24</duration>
      </backup>
      <note>
        <pitch><step>F</step><alter>0.0</alter><octave>3</octave></pitch>
        <duration>8</duration>
        <voice>5</voice>
        <type>quarter</type>
        <staff>2</staff>
      </note>
      <note>
        <pitch><step>A</step><alter>0.0</alter><octave>3</octave></pitch>
        <duration>8</duration>
        <voice>5</voice>
        <type>quarter</type>
        <staff>2</staff>
      </note>
      <note>
        <chord/>
        <pitch><step>C</step><alter>0.0</alter><octave>4</octave></pitch>
        <duration>8</duration>
        <voice>5</voice>
        <type>quarter</type>
        <staff>2</staff>
      </note>
      <note>
        <pitch><step>A</step><alter>0.0</alter><octave>3</octave></pitch>
        <duration>8</duration>
        <voice>5</voice>
        <type>quarter</type>
        <staff>2</staff>
      </note>
      <note>
        <chord/>
        <pitch><step>C</step><alter>0.0</alter><octave>4</octave></pitch>
        <duration>8</duration>
        <voice>5</voice>
        <type>quarter</type>
        <staff>2</staff>
      </note>
    </measure>
    <measure number='7'>
      <attributes>
        <divisions>8</divisions>
      </attributes>
      <note>
        <rest/>
        <duration>16</duration>
        <voice>1</voice>
        <type>half</type>
        <staff>1</staff>
      </note>
      <note>
        <rest/>
        <duration>8</duration>
        <voice>1</voice>
        <type>quarter</type>
        <staff>1</staff>
      </note>
      <backup>
        <duration>24</duration>
      </backup>
      <note>
        <pitch><step>B</step><alter>-1.0</alter><octave>3</octave></pitch>
        <duration>8</duration>
        <voice>5</voice>
        <type>quarter</type>
        <staff>2</staff>
      </note>
      <note>
        <pitch><step>D</step><alter>0.0</alter><octave>4</octave></pitch>
        <duration>8</duration>
        <voice>5</voice>
        <type>quarter</type>
        <staff>2</staff>
      </note>
      <note>
        <chord/>
        <pitch><step>F</step><alter>0.0</alter><octave>4</octave></pitch>
        <duration>8</duration>
        <voice>5</voice>
        <type>quarter</type>
        <staff>2</staff>
      </note>
      <note>
        <pitch><step>D</step><alter>0.0</alter><octave>4</octave></pitch>
        <duration>8</duration>
        <voice>5</voice>
        <type>quarter</type>
        <staff>2</staff>
      </note>
      <note>
        <chord/>
        <pitch><step>F</step><alter>0.0</alter><octave>4</octave></pitch>
        <duration>8</duration>
        <voice>5</voice>
        <type>quarter</type>
        <staff>2</staff>
      </note>
    </measure>
    <measure number='8'>
      <attributes>
        <divisions>8</divisions>
      </attributes>
      <note>
        <rest/>
        <duration>16</duration>
        <voice>1</voice>
        <type>half</type>
        <staff>1</staff>
      </note>
      <note>
        <rest/>
        <duration>4</duration>
        <voice>1</voice>
        <type>eighth</type>
        <staff>1</staff>
      </note>
      <note>
        <pitch><step>B</step><alter>-1.0</alter><octave>4</octave></pitch>
        <duration>4</duration>
        <voice>1</voice>
        <type>eighth</type>
        <staff>1</staff>
      </note>
      <backup>
        <duration>24</duration>
      </backup>
      <note>
        <pitch><step>B</step><alter>0.0</alter><octave>3</octave></pitch>
        <duration>8</duration>
        <voice>5</voice>
        <type>quarter</type>
        <accidental>natural</accidental>
        <staff>2</staff>
      </note>
      <note>
        <pitch><step>D</step><alter>0.0</alter><octave>4</octave></pitch>
        <duration>8</duration>
        <voice>5</voice>
        <type>quarter</type>
        <staff>2</staff>
      </note>
      <note>
        <chord/>
        <pitch><step>G</step><alter>0.0</alter><octave>4</octave></pitch>
        <duration>8</duration>
        <voice>5</voice>
        <type>quarter</type>
        <staff>2</staff>
      </note>
      <note>
        <pitch><step>D</step><alter>0.0</alter><octave>4</octave></pitch>
        <duration>8</duration>
        <voice>5</voice>
        <type>quarter</type>
        <staff>2</staff>
      </note>
      <note>
        <chord/>
        <pitch><step>G</step><alter>0.0</alter><octave>4</octave></pitch>
        <duration>8</duration>
        <voice>5</voice>
        <type>quarter</type>
        <staff>2</staff>
      </note>
    </measure>
    <measure number='9'>
      <attributes>
        <divisions>8</divisions>
      </attributes>
      <note>
        <pitch><step>C</step><alter>0.0</alter><octave>5</octave></pitch>
        <duration>4</duration>
        <voice>1</voice>
        <type>eighth</type>
        <staff>1</staff>
      </note>
      <note>
        <pitch><step>B</step><alter>-1.0</alter><octave>4</octave></pitch>
        <duration>4</duration>
        <voice>1</voice>
        <type>eighth</type>
        <staff>1</staff>
      </note>
      <note>
        <pitch><step>D</step><alter>0.0</alter><octave>5</octave></pitch>
        <duration>4</duration>
        <voice>1</voice>
        <type>eighth</type>
        <staff>1</staff>
      </note>
      <note>
        <pitch><step>C</step><alter>0.0</alter><octave>5</octave></pitch>
        <duration>4</duration>
        <voice>1</voice>
        <type>eighth</type>
        <staff>1</staff>
      </note>
      <note>
        <pitch><step>B</step><alter>-1.0</alter><octave>4</octave></pitch>
        <duration>4</duration>
        <voice>1</voice>
        <type>eighth</type>
        <staff>1</staff>
      </note>
      <note>
        <pitch><step>A</step><alter>0.0</alter><octave>4</octave></pitch>
        <duration>4</duration>
        <voice>1</voice>
        <type>eighth</type>
        <staff>1</staff>
      </note>
      <backup>
        <duration>24</duration>
      </backup>
      <note>
        <pitch><step>B</step><alter>-1.0</alter><octave>3</octave></pitch>
        <duration>8</duration>
        <voice>5</voice>
        <type>quarter</type>
        <staff>2</staff>
      </note>
      <note>
        <pitch><step>D</step><alter>0.0</alter><octave>4</octave></pitch>
        <duration>16</duration>
        <voice>5</voice>
        <type>half</type>
        <staff>2</staff>
      </note>
      <note>
        <chord/>
        <pitch><step>F</step><alter>0.0</alter><octave>4</octave></pitch>
        <duration>16</duration>
        <voice>5</voice>
        <type>half</type>
        <staff>2</staff>
      </note>
    </measure>
    <measure number='10'>
      <attributes>
        <divisions>8</divisions>
      </attributes>
      <note>
        <pitch><step>F</step><alter>0.0</alter><octave>5</octave></pitch>
        <duration>4</duration>
        <voice>1</voice>
        <type>eighth</type>
        <staff>1</staff>
      </note>
      <note>
        <pitch><step>E</step><alter>0.0</alter><octave>5</octave></pitch>
        <duration>4</duration>
        <voice>1</voice>
        <type>eighth</type>
        <staff>1</staff>
      </note>
      <note>
        <pitch><step>E</step><alter>0.0</alter><octave>5</octave></pitch>
        <duration>4</duration>
        <voice>1</voice>
        <type>eighth</type>
        <staff>1</staff>
      </note>
      <note>
        <pitch><step>D</step><alter>0.0</alter><octave>5</octave></pitch>
        <duration>4</duration>
        <voice>1</voice>
        <type>eighth</type>
        <staff>1</staff>
      </note>
      <note>
        <pitch><step>D</step><alter>0.0</alter><octave>5</octave></pitch>
        <duration>4</duration>
        <voice>1</voice>
        <type>eighth</type>
        <staff>1</staff>
      </note>
      <note>
        <pitch><step>F</step><alter>0.0</alter><octave>4</octave></pitch>
        <duration>4</duration>
        <voice>1</voice>
        <type>eighth</type>
        <staff>1</staff>
      </note>
      <backup>
        <duration>24</duration>
      </backup>
      <note>
        <pitch><step>C</step><alter>0.0</alter><octave>4</octave></pitch>
        <duration>24</duration>
        <voice>5</voice>
        <type>half</type>
        <dot/>
        <staff>2</staff>
      </note>
      <note>
        <chord/>
        <pitch><step>F</step><alter>0.0</alter><octave>4</octave></pitch>
        <duration>24</duration>
        <voice>5</voice>
        <type>half</type>
        <dot/>
        <staff>2</staff>
      </note>
    </measure>
    <measure number='11'>
      <attributes>
        <divisions>8</divisions>
      </attributes>
      <note>
        <pitch><step>G</step><alter>0.0</alter><octave>4</octave></pitch>
        <duration>24</duration>
        <voice>1</voice>
        <type>half</type>
        <dot/>
        <staff>1</staff>
      </note>
      <backup>
        <duration>24</duration>
      </backup>
      <note>
        <pitch><step>C</step><alter>0.0</alter><octave>4</octave></pitch>
        <duration>16</duration>
        <voice>5</voice>
        <type>half</type>
        <staff>2</staff>
      </note>
      <note>
        <chord/>
        <pitch><step>E</step><alter>0.0</alter><octave>4</octave></pitch>
        <duration>16</duration>
        <voice>5</voice>
        <type>half</type>
        <staff>2</staff>
      </note>
    </measure>
    <measure number='12'>
      <attributes>
        <divisions>8</divisions>
      </attributes>
      <note>
        <rest/>
        <duration>16</duration>
        <voice>1</voice>
        <type>half</type>
        <staff>1</staff>
      </note>
      <note>
        <rest/>
        <duration>8</duration>
        <voice>1</voice>
        <type>quarter</type>
        <staff>1</staff>
      </note>
      <backup>
        <duration>24</duration>
      </backup>
      <note>
        <pitch><step>A</step><alter>0.0</alter><octave>3</octave></pitch>
        <duration>4</duration>
        <voice>5</voice>
        <type>eighth</type>
        <staff>2</staff>
      </note>
      <note>
        <pitch><step>E</step><alter>0.0</alter><octave>4</octave></pitch>
        <duration>4</duration>
        <voice>5</voice>
        <type>eighth</type>
        <staff>2</staff>
      </note>
      <note>
        <pitch><step>C</step><alter>1.0</alter><octave>4</octave></pitch>
        <duration>4</duration>
        <voice>5</voice>
        <type>eighth</type>
        <accidental>sharp</accidental>
        <staff>2</staff>
      </note>
      <note>
        <pitch><step>E</step><alter>0.0</alter><octave>4</octave></pitch>
        <duration>4</duration>
        <voice>5</voice>
        <type>eighth</type>
        <staff>2</staff>
      </note>
      <note>
        <pitch><step>C</step><alter>1.0</alter><octave>4</octave></pitch>
        <duration>4</duration>
        <voice>5</voice>
        <type>eighth</type>
        <staff>2</staff>
      </note>
      <note>
        <pitch><step>E</step><alter>0.0</alter><octave>4</octave></pitch>
        <duration>4</duration>
        <voice>5</voice>
        <type>eighth</type>
        <staff>2</staff>
      </note>
    </measure>
    <measure number='13'>
      <attributes>
        <divisions>8</divisions>
      </attributes>
      <note>
        <pitch><step>F</step><alter>0.0</alter><octave>5</octave></pitch>
        <duration>8</duration>
        <voice>1</voice>
        <type>quarter</type>
        <staff>1</staff>
      </note>
      <note>
        <pitch><step>E</step><alter>0.0</alter><octave>5</octave></pitch>
        <duration>4</duration>
        <voice>1</voice>
        <type>eighth</type>
        <staff>1</staff>
      </note>
      <note>
        <pitch><step>D</step><alter>0.0</alter><octave>5</octave></pitch>
        <duration>4</duration>
        <voice>1</voice>
        <type>eighth</type>
        <staff>1</staff>
        <notations>
          <articulations>
            <staccato/>
          </articulations>
        </notations>
      </note>
      <note>
        <pitch><step>D</step><alter>0.0</alter><octave>5</octave></pitch>
        <duration>4</duration>
        <voice>1</voice>
        <type>eighth</type>
        <staff>1</staff>
      </note>
      <note>
        <rest/>
        <duration>4</duration>
        <voice>1</voice>
        <type>eighth</type>
        <staff>1</staff>
      </note>
      <backup>
        <duration>24</duration>
      </backup>
      <note>
        <pitch><step>A</step><alter>0.0</alter><octave>3</octave></pitch>
        <duration>4</duration>
        <voice>5</voice>
        <type>eighth</type>
        <staff>2</staff>
      </note>
      <note>
        <pitch><step>F</step><alter>0.0</alter><octave>4</octave></pitch>
        <duration>4</duration>
        <voice>5</voice>
        <type>eighth</type>
        <staff>2</staff>
      </note>
      <note>
        <pitch><step>D</step><alter>0.0</alter><octave>4</octave></pitch>
        <duration>4</duration>
        <voice>5</voice>
        <type>eighth</type>
        <staff>2</staff>
      </note>
      <note>
        <pitch><step>F</step><alter>0.0</alter><octave>4</octave></pitch>
        <duration>4</duration>
        <voice>5</voice>
        <type>eighth</type>
        <staff>2</staff>
      </note>
      <note>
        <pitch><step>D</step><alter>0.0</alter><octave>4</octave></pitch>
        <duration>4</duration>
        <voice>5</voice>
        <type>eighth</type>
        <staff>2</staff>
      </note>
      <note>
        <pitch><step>F</step><alter>0.0</alter><octave>4</octave></pitch>
        <duration>4</duration>
        <voice>5</voice>
        <type>eighth</type>
        <staff>2</staff>
      </note>
    </measure>
    <measure number='14'>
      <attributes>
        <divisions>8</divisions>
      </attributes>
      <note>
        <rest/>
        <duration>16</duration>
        <voice>1</voice>
        <type>half</type>
        <staff>1</staff>
      </note>
      <note>
        <rest/>
        <duration>8</duration>
        <voice>1</voice>
        <type>quarter</type>
        <staff>1</staff>
      </note>
      <backup>
        <duration>24</duration>
      </backup>
      <note>
        <pitch><step>G</step><alter>0.0</alter><octave>3</octave></pitch>
        <duration>4</duration>
        <voice>5</voice>
        <type>eighth</type>
        <staff>2</staff>
      </note>
      <note>
        <pitch><step>D</step><alter>0.0</alter><octave>4</octave></pitch>
        <duration>4</duration>
        <voice>5</voice>
        <type>eighth</type>
        <staff>2</staff>
      </note>
      <note>
        <pitch><step>B</step><alter>0.0</alter><octave>3</octave></pitch>
        <duration>4</duration>
        <voice>5</voice>
        <type>eighth</type>
        <accidental>natural</accidental>
        <staff>2</staff>
      </note>
      <note>
        <pitch><step>D</step><alter>0.0</alter><octave>4</octave></pitch>
        <duration>4</duration>
        <voice>5</voice>
        <type>eighth</type>
        <staff>2</staff>
      </note>
      <note>
        <pitch><step>B</step><alter>0.0</alter><octave>3</octave></pitch>
        <duration>4</duration>
        <voice>5</voice>
        <type>eighth</type>
        <staff>2</staff>
      </note>
      <note>
        <pitch><step>D</step><alter>0.0</alter><octave>4</octave></pitch>
        <duration>4</duration>
        <voice>5</voice>
        <type>eighth</type>
        <staff>2</staff>
      </note>
    </measure>
    <measure number='15'>
      <attributes>
        <divisions>8</divisions>
      </attributes>
      <note>
        <pitch><step>E</step><alter>0.0</alter><octave>5</octave></pitch>
        <duration>8</duration>
        <voice>1</voice>
        <type>quarter</type>
        <staff>1</staff>
      </note>
      <note>
        <pitch><step>D</step><alter>0.0</alter><octave>5</octave></pitch>
        <duration>4</duration>
        <voice>1</voice>
        <type>eighth</type>
        <staff>1</staff>
      </note>
      <note>
        <pitch><step>C</step><alter>0.0</alter><octave>5</octave></pitch>
        <duration>4</duration>
        <voice>1</voice>
        <type>eighth</type>
        <staff>1</staff>
        <notations>
          <articulations>
            <staccato/>
          </articulations>
        </notations>
      </note>
      <note>
        <pitch><step>C</step><alter>0.0</alter><octave>5</octave></pitch>
        <duration>4</duration>
        <voice>1</voice>
        <type>eighth</type>
        <staff>1</staff>
      </note>
      <note>
        <rest/>
        <duration>4</duration>
        <voice>1</voice>
        <type>eighth</type>
        <staff>1</staff>
      </note>
      <backup>
        <duration>24</duration>
      </backup>
      <note>
        <pitch><step>G</step><alter>0.0</alter><octave>3</octave></pitch>
        <duration>4</duration>
        <voice>5</voice>
        <type>eighth</type>
        <staff>2</staff>
      </note>
      <note>
        <pitch><step>E</step><alter>0.0</alter><octave>4</octave></pitch>
        <duration>4</duration>
        <voice>5</voice>
        <type>eighth</type>
        <staff>2</staff>
      </note>
      <note>
        <pitch><step>C</step><alter>0.0</alter><octave>4</octave></pitch>
        <duration>4</duration>
        <voice>5</voice>
        <type>eighth</type>
        <staff>2</staff>
      </note>
      <note>
        <pitch><step>E</step><alter>0.0</alter><octave>4</octave></pitch>
        <duration>4</duration>
        <voice>5</voice>
        <type>eighth</type>
        <staff>2</staff>
      </note>
      <note>
        <pitch><step>C</step><alter>0.0</alter><octave>4</octave></pitch>
        <duration>4</duration>
        <voice>5</voice>
        <type>eighth</type>
        <staff>2</staff>
      </note>
      <note>
        <pitch><step>E</step><alter>0.0</alter><octave>4</octave></pitch>
        <duration>4</duration>
        <voice>5</voice>
        <type>eighth</type>
        <staff>2</staff>
      </note>
    </measure>
    <measure number='16'>
      <attributes>
        <divisions>8</divisions>
      </attributes>
      <note>
        <rest/>
        <duration>16</duration>
        <voice>1</voice>
        <type>half</type>
        <staff>1</staff>
      </note>
      <note>
        <rest/>
        <duration>8</duration>
        <voice>1</voice>
        <type>quarter</type>
        <staff>1</staff>
      </note>
      <backup>
        <duration>24</duration>
      </backup>
      <note>
        <pitch><step>A</step><alter>0.0</alter><octave>3</octave></pitch>
        <duration>4</duration>
        <voice>5</voice>
        <type>eighth</type>
        <staff>2</staff>
      </note>
      <note>
        <pitch><step>E</step><alter>0.0</alter><octave>4</octave></pitch>
        <duration>4</duration>
        <voice>5</voice>
        <type>eighth</type>
        <staff>2</staff>
      </note>
      <note>
        <pitch><step>C</step><alter>1.0</alter><octave>4</octave></pitch>
        <duration>4</duration>
        <voice>5</voice>
        <type>eighth</type>
        <accidental>sharp</accidental>
        <staff>2</staff>
      </note>
      <note>
        <pitch><step>E</step><alter>0.0</alter><octave>4</octave></pitch>
        <duration>4</duration>
        <voice>5</voice>
        <type>eighth</type>
        <staff>2</staff>
      </note>
      <note>
        <pitch><step>C</step><alter>1.0</alter><octave>4</octave></pitch>
        <duration>4</duration>
        <voice>5</voice>
        <type>eighth</type>
        <staff>2</staff>
      </note>
      <note>
        <pitch><step>E</step><alter>0.0</alter><octave>4</octave></pitch>
        <duration>4</duration>
        <voice>5</voice>
        <type>eighth</type>
        <staff>2</staff>
      </note>
    </measure>
    <measure number='17'>
      <attributes>
        <divisions>8</divisions>
      </attributes>
      <note>
        <pitch><step>F</step><alter>0.0</alter><octave>5</octave></pitch>
        <duration>8</duration>
        <voice>1</voice>
        <type>quarter</type>
        <staff>1</staff>
      </note>
      <note>
        <pitch><step>E</step><alter>0.0</alter><octave>5</octave></pitch>
        <duration>4</duration>
        <voice>1</voice>
        <type>eighth</type>
        <staff>1</staff>
      </note>
      <note>
        <pitch><step>D</step><alter>0.0</alter><octave>5</octave></pitch>
        <duration>4</duration>
        <voice>1</voice>
        <type>eighth</type>
        <staff>1</staff>
        <notations>
          <articulations>
            <staccato/>
          </articulations>
        </notations>
      </note>
      <note>
        <pitch><step>D</step><alter>0.0</alter><octave>5</octave></pitch>
        <duration>4</duration>
        <voice>1</voice>
        <type>eighth</type>
        <staff>1</staff>
      </note>
      <note>
        <rest/>
        <duration>4</duration>
        <voice>1</voice>
        <type>eighth</type>
        <staff>1</staff>
      </note>
      <backup>
        <duration>24</duration>
      </backup>
      <note>
        <pitch><step>A</step><alter>0.0</alter><octave>3</octave></pitch>
        <duration>4</duration>
        <voice>5</voice>
        <type>eighth</type>
        <staff>2</staff>
      </note>
      <note>
        <pitch><step>F</step><alter>0.0</alter><octave>4</octave></pitch>
        <duration>4</duration>
        <voice>5</voice>
        <type>eighth</type>
        <staff>2</staff>
      </note>
      <note>
        <pitch><step>D</step><alter>0.0</alter><octave>4</octave></pitch>
        <duration>4</duration>
        <voice>5</voice>
        <type>eighth</type>
        <staff>2</staff>
      </note>
      <note>
        <pitch><step>F</step><alter>0.0</alter><octave>4</octave></pitch>
        <duration>4</duration>
        <voice>5</voice>
        <type>eighth</type>
        <staff>2</staff>
      </note>
      <note>
        <pitch><step>D</step><alter>0.0</alter><octave>4</octave></pitch>
        <duration>4</duration>
        <voice>5</voice>
        <type>eighth</type>
        <staff>2</staff>
      </note>
      <note>
        <pitch><step>F</step><alter>0.0</alter><octave>4</octave></pitch>
        <duration>4</duration>
        <voice>5</voice>
        <type>eighth</type>
        <staff>2</staff>
      </note>
    </measure>
    <measure number='18'>
      <attributes>
        <divisions>8</divisions>
      </attributes>
      <note>
        <rest/>
        <duration>16</duration>
        <voice>1</voice>
        <type>half</type>
        <staff>1</staff>
      </note>
      <note>
        <rest/>
        <duration>8</duration>
        <voice>1</voice>
        <type>quarter</type>
        <staff>1</staff>
      </note>
      <backup>
        <duration>24</duration>
      </backup>
      <note>
        <pitch><step>G</step><alter>0.0</alter><octave>3</octave></pitch>
        <duration>4</duration>
        <voice>5</voice>
        <type>eighth</type>
        <staff>2</staff>
      </note>
      <note>
        <pitch><step>D</step><alter>0.0</alter><octave>4</octave></pitch>
        <duration>4</duration>
        <voice>5</voice>
        <type>eighth</type>
        <staff>2</staff>
      </note>
      <note>
        <pitch><step>B</step><alter>0.0</alter><octave>3</octave></pitch>
        <duration>4</duration>
        <voice>5</voice>
        <type>eighth</type>
        <accidental>natural</accidental>
        <staff>2</staff>
      </note>
      <note>
        <pitch><step>D</step><alter>0.0</alter><octave>4</octave></pitch>
        <duration>4</duration>
        <voice>5</voice>
        <type>eighth</type>
        <staff>2</staff>
      </note>
      <note>
        <pitch><step>B</step><alter>0.0</alter><octave>3</octave></pitch>
        <duration>4</duration>
        <voice>5</voice>
        <type>eighth</type>
        <staff>2</staff>
      </note>
      <note>
        <pitch><step>D</step><alter>0.0</alter><octave>4</octave></pitch>
        <duration>4</duration>
        <voice>5</voice>
        <type>eighth</type>
        <staff>2</staff>
      </note>
    </measure>
    <measure number='19'>
      <attributes>
        <divisions>4</divisions>
      </attributes>
      <note>
        <pitch><step>C</step><alter>0.0</alter><octave>5</octave></pitch>
        <duration>8</duration>
        <voice>1</voice>
        <type>half</type>
        <staff>1</staff>
      </note>
      <note>
        <rest/>
        <duration>4</duration>
        <voice>1</voice>
        <type>quarter</type>
        <staff>1</staff>
      </note>
      <backup>
        <duration>12</duration>
      </backup>
      <note>
        <pitch><step>G</step><alter>0.0</alter><octave>3</octave></pitch>
        <duration>4</duration>
        <voice>5</voice>
        <type>quarter</type>
        <staff>2</staff>
      </note>
      <note>
        <pitch><step>C</step><alter>0.0</alter><octave>4</octave></pitch>
        <duration>8</duration>
        <voice>5</voice>
        <type>half</type>
        <staff>2</staff>
      </note>
      <note>
        <chord/>
        <pitch><step>E</step><alter>0.0</alter><octave>4</octave></pitch>
        <duration>8</duration>
        <voice>5</voice>
        <type>half</type>
        <staff>2</staff>
      </note>
    </measure>
    <measure number='20'>
      <attributes>
        <divisions>8</divisions>
      </attributes>
      <note>
        <rest/>
        <duration>16</duration>
        <voice>1</voice>
        <type>half</type>
        <staff>1</staff>
      </note>
      <note>
        <rest/>
        <duration>8</duration>
        <voice>1</voice>
        <type>quarter</type>
        <staff>1</staff>
      </note>
      <backup>
        <duration>24</duration>
      </backup>
      <note>
        <pitch><step>F</step><alter>0.0</alter><octave>3</octave></pitch>
        <duration>8</duration>
        <voice>5</voice>
        <type>quarter</type>
        <staff>2</staff>
      </note>
      <note>
        <pitch><step>A</step><alter>0.0</alter><octave>3</octave></pitch>
        <duration>8</duration>
        <voice>5</voice>
        <type>quarter</type>
        <staff>2</staff>
      </note>
      <note>
        <chord/>
        <pitch><step>C</step><alter>0.0</alter><octave>4</octave></pitch>
        <duration>8</duration>
        <voice>5</voice>
        <type>quarter</type>
        <staff>2</staff>
      </note>
      <note>
        <pitch><step>A</step><alter>0.0</alter><octave>3</octave></pitch>
        <duration>8</duration>
        <voice>5</voice>
        <type>quarter</type>
        <staff>2</staff>
      </note>
      <note>
        <chord/>
        <pitch><step>C</step><alter>0.0</alter><octave>4</octave></pitch>
        <duration>8</duration>
        <voice>5</voice>
        <type>quarter</type>
        <staff>2</staff>
      </note>
    </measure>
    <measure number='21'>
      <attributes>
        <divisions>8</divisions>
      </attributes>
      <note>
        <rest/>
        <duration>16</duration>
        <voice>1</voice>
        <type>half</type>
        <staff>1</staff>
      </note>
      <note>
        <rest/>
        <duration>8</duration>
        <voice>1</voice>
        <type>quarter</type>
        <staff>1</staff>
      </note>
      <backup>
        <duration>24</duration>
      </backup>
      <note>
        <pitch><step>B</step><alter>-1.0</alter><octave>3</octave></pitch>
        <duration>8</duration>
        <voice>5</voice>
        <type>quarter</type>
        <staff>2</staff>
      </note>
      <note>
        <pitch><step>D</step><alter>0.0</alter><octave>4</octave></pitch>
        <duration>8</duration>
        <voice>5</voice>
        <type>quarter</type>
        <staff>2</staff>
      </note>
      <note>
        <chord/>
        <pitch><step>F</step><alter>0.0</alter><octave>4</octave></pitch>
        <duration>8</duration>
        <voice>5</voice>
        <type>quarter</type>
        <staff>2</staff>
      </note>
      <note>
        <pitch><step>D</step><alter>0.0</alter><octave>4</octave></pitch>
        <duration>8</duration>
        <voice>5</voice>
        <type>quarter</type>
        <staff>2</staff>
      </note>
      <note>
        <chord/>
        <pitch><step>F</step><alter>0.0</alter><octave>4</octave></pitch>
        <duration>8</duration>
        <voice>5</voice>
        <type>quarter</type>
        <staff>2</staff>
      </note>
    </measure>
    <measure number='22'>
      <attributes>
        <divisions>8</divisions>
      </attributes>
      <direction>
        <direction-type>
          <wedge type='crescendo' default-y='22'/>
        </direction-type>
      </direction>
      <note>
        <rest/>
        <duration>16</duration>
        <voice>1</voice>
        <type>half</type>
        <staff>1</staff>
      </note>
      <note>
        <rest/>
        <duration>4</duration>
        <voice>1</voice>
        <type>eighth</type>
        <staff>1</staff>
      </note>
      <note>
        <pitch><step>B</step><alter>-1.0</alter><octave>4</octave></pitch>
        <duration>4</duration>
        <voice>1</voice>
        <type>eighth</type>
        <staff>1</staff>
      </note>
      <backup>
        <duration>24</duration>
      </backup>
      <note>
        <pitch><step>B</step><alter>-1.0</alter><octave>3</octave></pitch>
        <duration>8</duration>
        <voice>5</voice>
        <type>quarter</type>
        <staff>2</staff>
      </note>
      <note>
        <pitch><step>D</step><alter>0.0</alter><octave>4</octave></pitch>
        <duration>8</duration>
        <voice>5</voice>
        <type>quarter</type>
        <staff>2</staff>
      </note>
      <note>
        <chord/>
        <pitch><step>F</step><alter>0.0</alter><octave>4</octave></pitch>
        <duration>8</duration>
        <voice>5</voice>
        <type>quarter</type>
        <staff>2</staff>
      </note>
      <note>
        <pitch><step>D</step><alter>0.0</alter><octave>4</octave></pitch>
        <duration>8</duration>
        <voice>5</voice>
        <type>quarter</type>
        <staff>2</staff>
      </note>
      <note>
        <chord/>
        <pitch><step>F</step><alter>0.0</alter><octave>4</octave></pitch>
        <duration>8</duration>
        <voice>5</voice>
        <type>quarter</type>
        <staff>2</staff>
      </note>
      <direction>
        <direction-type>
          <wedge type='stop'/>
        </direction-type>
      </direction>
    </measure>
    <measure number='23'>
      <attributes>
        <divisions>8</divisions>
      </attributes>
      <note>
        <pitch><step>E</step><alter>0.0</alter><octave>4</octave></pitch>
        <duration>8</duration>
        <voice>1</voice>
        <type>quarter</type>
        <staff>1</staff>
        <notations>
          <dynamics default-y='-70'><mf/></dynamics>
        </notations>
      </note>
      <note>
        <chord/>
        <pitch><step>G</step><alter>0.0</alter><octave>4</octave></pitch>
        <duration>8</duration>
        <voice>1</voice>
        <type>quarter</type>
        <staff>1</staff>
      </note>
      <note>
        <rest/>
        <duration>16</duration>
        <voice>1</voice>
        <type>half</type>
        <staff>1</staff>
      </note>
      <backup>
        <duration>24</duration>
      </backup>
      <note>
        <pitch><step>C</step><alter>0.0</alter><octave>4</octave></pitch>
        <duration>8</duration>
        <voice>5</voice>
        <type>quarter</type>
        <staff>2</staff>
      </note>
      <note>
        <rest/>
        <duration>16</duration>
        <voice>5</voice>
        <type>half</type>
        <staff>2</staff>
      </note>
    </measure>
    <measure number='24'>
      <attributes>
        <divisions>4</divisions>
      </attributes>
      <note>
        <pitch><step>F</step><alter>0.0</alter><octave>4</octave></pitch>
        <duration>8</duration>
        <voice>1</voice>
        <type>half</type>
        <staff>1</staff>
      </note>
      <note>
        <chord/>
        <pitch><step>C</step><alter>0.0</alter><octave>5</octave></pitch>
        <duration>8</duration>
        <voice>1</voice>
        <type>half</type>
        <staff>1</staff>
      </note>
      <note>
        <pitch><step>D</step><alter>0.0</alter><octave>4</octave></pitch>
        <duration>4</duration>
        <voice>1</voice>
        <type>quarter</type>
        <staff>1</staff>
      </note>
      <note>
        <chord/>
        <pitch><step>B</step><alter>-1.0</alter><octave>4</octave></pitch>
        <duration>4</duration>
        <voice>1</voice>
        <type>quarter</type>
        <staff>1</staff>
      </note>
      <backup>
        <duration>12</duration>
      </backup>
      <note>
        <pitch><step>F</step><alter>0.0</alter><octave>3</octave></pitch>
        <duration>12</duration>
        <voice>5</voice>
        <type>half</type>
        <dot/>
        <staff>2</staff>
      </note>
    </measure>
    <measure number='25'>
      <attributes>
        <divisions>8</divisions>
      </attributes>
      <note>
        <pitch><step>E</step><alter>0.0</alter><octave>4</octave></pitch>
        <duration>12</duration>
        <voice>1</voice>
        <type>quarter</type>
        <dot/>
        <staff>1</staff>
      </note>
      <note>
        <chord/>
        <pitch><step>B</step><alter>-1.0</alter><octave>4</octave></pitch>
        <duration>12</duration>
        <voice>1</voice>
        <type>quarter</type>
        <dot/>
        <staff>1</staff>
      </note>
      <note>
        <pitch><step>C</step><alter>0.0</alter><octave>4</octave></pitch>
        <duration>12</duration>
        <voice>1</voice>
        <type>quarter</type>
        <dot/>
        <staff>1</staff>
      </note>
      <note>
        <chord/>
        <pitch><step>A</step><alter>0.0</alter><octave>4</octave></pitch>
        <duration>12</duration>
        <voice>1</voice>
        <type>quarter</type>
        <dot/>
        <staff>1</staff>
      </note>
      <backup>
        <duration>24</duration>
      </backup>
      <note>
        <pitch><step>E</step><alter>0.0</alter><octave>3</octave></pitch>
        <duration>24</duration>
        <voice>5</voice>
        <type>half</type>
        <dot/>
        <staff>2</staff>
      </note>
    </measure>
    <measure number='26'>
      <attributes>
        <divisions>8</divisions>
      </attributes>
      <note>
        <pitch><step>D</step><alter>0.0</alter><octave>4</octave></pitch>
        <duration>12</duration>
        <voice>1</voice>
        <type>quarter</type>
        <dot/>
        <staff>1</staff>
      </note>
      <note>
        <chord/>
        <pitch><step>A</step><alter>0.0</alter><octave>4</octave></pitch>
        <duration>12</duration>
        <voice>1</voice>
        <type>quarter</type>
        <dot/>
        <staff>1</staff>
      </note>
      <note>
        <pitch><step>B</step><alter>-1.0</alter><octave>3</octave></pitch>
        <duration>12</duration>
        <voice>1</voice>
        <type>quarter</type>
        <dot/>
        <staff>1</staff>
      </note>
      <note>
        <chord/>
        <pitch><step>G</step><alter>0.0</alter><octave>4</octave></pitch>
        <duration>12</duration>
        <voice>1</voice>
        <type>quarter</type>
        <dot/>
        <staff>1</staff>
      </note>
      <backup>
        <duration>24</duration>
      </backup>
      <note>
        <pitch><step>D</step><alter>0.0</alter><octave>3</octave></pitch>
        <duration>12</duration>
        <voice>5</voice>
        <type>quarter</type>
        <dot/>
        <staff>2</staff>
      </note>
      <note>
        <pitch><step>G</step><alter>0.0</alter><octave>2</octave></pitch>
        <duration>12</duration>
        <voice>5</voice>
        <type>quarter</type>
        <dot/>
        <staff>2</staff>
      </note>
    </measure>
    <measure number='27'>
      <attributes>
        <divisions>4</divisions>
      </attributes>
      <note>
        <pitch><step>A</step><alter>0.0</alter><octave>3</octave></pitch>
        <duration>12</duration>
        <voice>1</voice>
        <type>half</type>
        <dot/>
        <staff>1</staff>
      </note>
      <note>
        <chord/>
        <pitch><step>F</step><alter>0.0</alter><octave>4</octave></pitch>
        <duration>12</duration>
        <voice>1</voice>
        <type>half</type>
        <dot/>
        <staff>1</staff>
      </note>
      <backup>
        <duration>12</duration>
      </backup>
      <note>
        <pitch><step>F</step><alter>0.0</alter><octave>2</octave></pitch>
        <duration>12</duration>
        <voice>5</voice>
        <type>half</type>
        <dot/>
        <staff>2</staff>
      </note>
      <barline location='right'>
        <bar-style>light-heavy</bar-style>
      </barline>
    </measure>
  </part>
</score-partwise>
